<svg width="835" height="836" viewBox="0 0 835 836" fill="none" xmlns="http://www.w3.org/2000/svg">
<g filter="url(#filter0_d_822_1808)">
<rect x="417.695" y="282.102" width="175.219" height="175.219" rx="35" transform="rotate(45 417.695 282.102)" fill="url(#paint0_linear_822_1808)"/>
</g>
<path d="M354.451 418.983V409.895C354.451 409.391 354.54 409.08 354.718 408.962C354.896 408.828 355.266 408.762 355.829 408.762H358.606L361.206 414.561L361.251 414.784L361.295 414.761L361.34 414.539L363.851 408.762H366.806C367.339 408.762 367.68 408.836 367.828 408.984C367.991 409.132 368.073 409.436 368.073 409.895V417.85C368.073 418.22 368.036 418.487 367.961 418.65C367.887 418.798 367.754 418.894 367.562 418.939C367.369 418.968 367.087 418.983 366.717 418.983H364.428V412.673L364.273 413.295L361.806 418.983H359.606L357.162 413.361L357.029 412.739V418.983H354.451Z" fill="white"/>
<path d="M376.105 419.094C375.068 419.094 374.231 419.057 373.594 418.983C372.957 418.924 372.461 418.798 372.106 418.606C371.765 418.413 371.535 418.139 371.417 417.783C371.298 417.428 371.239 416.969 371.239 416.406C371.239 415.65 371.313 415.08 371.461 414.695C371.609 414.295 371.868 414.021 372.239 413.872C372.609 413.724 373.105 413.65 373.728 413.65C374.098 413.65 374.52 413.658 374.994 413.672C375.483 413.672 375.957 413.68 376.416 413.695C376.89 413.71 377.298 413.739 377.639 413.784C377.994 413.813 378.238 413.843 378.372 413.872C378.372 413.413 378.327 413.05 378.238 412.784C378.164 412.517 378.038 412.317 377.861 412.184C377.683 412.036 377.446 411.939 377.15 411.895C376.853 411.85 376.49 411.828 376.061 411.828C375.542 411.828 375.024 411.836 374.505 411.85C374.002 411.865 373.505 411.895 373.017 411.939C372.543 411.984 372.106 412.036 371.706 412.095V411.473C371.706 411.073 371.794 410.776 371.972 410.584C372.15 410.391 372.394 410.265 372.705 410.206C373.046 410.132 373.55 410.08 374.216 410.05C374.898 410.021 375.631 410.006 376.416 410.006C377.409 410.006 378.238 410.058 378.905 410.162C379.587 410.265 380.12 410.45 380.505 410.717C380.89 410.984 381.164 411.384 381.327 411.917C381.49 412.436 381.572 413.132 381.572 414.006V418.428C381.335 418.65 380.742 418.82 379.794 418.939C378.861 419.043 377.631 419.094 376.105 419.094ZM376.083 417.717C376.498 417.717 376.846 417.709 377.127 417.694C377.424 417.665 377.676 417.628 377.883 417.583C378.09 417.539 378.253 417.487 378.372 417.428V414.939C378.209 414.895 377.979 414.858 377.683 414.828C377.401 414.798 377.113 414.776 376.816 414.761C376.52 414.746 376.29 414.739 376.127 414.739C375.772 414.739 375.483 414.769 375.261 414.828C375.039 414.887 374.876 415.021 374.772 415.228C374.683 415.435 374.639 415.754 374.639 416.183C374.639 416.554 374.676 416.857 374.75 417.094C374.824 417.317 374.965 417.48 375.172 417.583C375.379 417.672 375.683 417.717 376.083 417.717Z" fill="white"/>
<path d="M385.309 418.983C384.746 418.983 384.464 418.694 384.464 418.117V410.65C384.909 410.502 385.575 410.369 386.464 410.25C387.353 410.117 388.331 410.05 389.397 410.05C390.538 410.05 391.434 410.117 392.086 410.25C392.753 410.369 393.242 410.584 393.553 410.895C393.879 411.191 394.086 411.591 394.175 412.095C394.279 412.598 394.33 413.228 394.33 413.984V417.739C394.33 418.065 394.308 418.324 394.264 418.517C394.219 418.694 394.101 418.82 393.908 418.894C393.73 418.968 393.449 419.005 393.064 419.005L391.042 418.983V413.206C391.042 412.717 390.894 412.369 390.597 412.161C390.301 411.954 389.901 411.85 389.397 411.85C389.22 411.85 389.027 411.873 388.82 411.917C388.612 411.947 388.412 411.991 388.22 412.05C388.042 412.095 387.894 412.161 387.775 412.25V418.983H385.309Z" fill="white"/>
<path d="M402.515 419.117C401.182 419.117 400.108 419.005 399.293 418.783C398.493 418.546 397.908 418.117 397.538 417.494C397.182 416.857 397.005 415.939 397.005 414.739C397.005 413.435 397.182 412.443 397.538 411.761C397.908 411.08 398.493 410.613 399.293 410.362C400.108 410.11 401.182 409.984 402.515 409.984C402.901 409.984 403.271 410.006 403.626 410.05C403.997 410.08 404.441 410.132 404.96 410.206C405.256 410.236 405.493 410.302 405.671 410.406C405.863 410.51 406.004 410.68 406.093 410.917C406.182 411.154 406.226 411.51 406.226 411.984C406.063 411.924 405.811 411.873 405.471 411.828C405.145 411.769 404.789 411.724 404.404 411.695C404.019 411.665 403.678 411.65 403.382 411.65C402.626 411.65 402.026 411.739 401.582 411.917C401.152 412.095 400.841 412.391 400.649 412.806C400.471 413.221 400.382 413.791 400.382 414.517C400.382 415.228 400.471 415.791 400.649 416.206C400.841 416.62 401.152 416.917 401.582 417.094C402.026 417.272 402.626 417.361 403.382 417.361C403.723 417.361 404.078 417.346 404.449 417.317C404.834 417.287 405.182 417.25 405.493 417.206C405.819 417.146 406.063 417.087 406.226 417.028V417.917C406.226 418.287 406.056 418.561 405.715 418.739C405.389 418.902 404.945 419.005 404.382 419.05C403.819 419.094 403.197 419.117 402.515 419.117Z" fill="white"/>
<path d="M410.085 418.983C409.567 418.983 409.241 418.917 409.107 418.783C408.974 418.635 408.907 418.361 408.907 417.961V407.762H412.218V410.339C412.396 410.295 412.603 410.258 412.84 410.228C413.092 410.199 413.359 410.176 413.64 410.162C413.922 410.147 414.188 410.139 414.44 410.139C415.448 410.139 416.255 410.213 416.862 410.362C417.47 410.51 417.929 410.739 418.24 411.05C418.551 411.362 418.759 411.769 418.862 412.273C418.981 412.776 419.04 413.391 419.04 414.117V417.583C419.04 417.983 418.996 418.287 418.907 418.494C418.833 418.687 418.692 418.82 418.485 418.894C418.277 418.954 417.973 418.983 417.573 418.983H415.796V413.672C415.796 413.11 415.729 412.687 415.596 412.406C415.462 412.11 415.248 411.917 414.951 411.828C414.67 411.724 414.292 411.673 413.818 411.673C413.655 411.673 413.47 411.68 413.263 411.695C413.07 411.71 412.877 411.739 412.685 411.784C412.492 411.813 412.337 411.85 412.218 411.895V418.983H410.085Z" fill="white"/>
<path d="M426.886 419.117C425.849 419.117 424.997 419.057 424.331 418.939C423.664 418.806 423.138 418.583 422.753 418.272C422.368 417.961 422.094 417.524 421.931 416.961C421.768 416.398 421.686 415.665 421.686 414.761C421.686 413.606 421.849 412.687 422.175 412.006C422.501 411.324 423.064 410.828 423.864 410.517C424.679 410.206 425.805 410.05 427.241 410.05C428.367 410.05 429.264 410.169 429.93 410.406C430.597 410.643 431.078 411.013 431.375 411.517C431.671 412.021 431.819 412.665 431.819 413.45V415.161H425.642C425.642 414.85 425.708 414.591 425.842 414.384C425.99 414.161 426.256 414.05 426.642 414.05H428.864L428.841 413.584C428.841 412.976 428.715 412.524 428.464 412.228C428.227 411.917 427.775 411.761 427.108 411.761C426.56 411.761 426.13 411.85 425.819 412.028C425.523 412.191 425.316 412.487 425.197 412.917C425.093 413.332 425.042 413.932 425.042 414.717C425.042 415.428 425.108 415.961 425.242 416.317C425.39 416.672 425.649 416.917 426.019 417.05C426.39 417.169 426.916 417.228 427.597 417.228C427.849 417.228 428.19 417.22 428.619 417.206C429.049 417.191 429.486 417.176 429.93 417.161C430.389 417.132 430.789 417.109 431.13 417.094C431.486 417.065 431.708 417.035 431.797 417.006V417.406C431.797 417.613 431.76 417.835 431.686 418.072C431.626 418.294 431.5 418.48 431.308 418.628C431.041 418.835 430.545 418.968 429.819 419.028C429.108 419.087 428.13 419.117 426.886 419.117Z" fill="white"/>
<path d="M438.611 419.072C438.256 419.072 437.878 419.065 437.478 419.05C437.078 419.035 436.678 419.005 436.278 418.961C435.893 418.917 435.537 418.85 435.212 418.761C434.945 418.702 434.723 418.628 434.545 418.539C434.382 418.435 434.256 418.25 434.167 417.983C434.093 417.702 434.056 417.265 434.056 416.672C434.515 416.835 434.989 416.969 435.478 417.072C435.967 417.161 436.441 417.228 436.9 417.272C437.374 417.302 437.811 417.317 438.211 417.317C438.493 417.317 438.796 417.317 439.122 417.317C439.463 417.302 439.789 417.265 440.1 417.206C440.411 417.132 440.67 417.02 440.878 416.872C441.085 416.709 441.189 416.487 441.189 416.206C441.189 415.865 441.1 415.643 440.922 415.539C440.745 415.435 440.507 415.383 440.211 415.383H437.678C436.997 415.383 436.389 415.346 435.856 415.272C435.337 415.198 434.923 414.998 434.612 414.672C434.315 414.332 434.167 413.761 434.167 412.961C434.167 412.087 434.382 411.443 434.812 411.028C435.256 410.599 435.886 410.317 436.7 410.184C437.515 410.05 438.493 409.984 439.633 409.984C440.048 409.984 440.53 409.991 441.078 410.006C441.641 410.021 442.13 410.058 442.544 410.117C443.004 410.162 443.359 410.236 443.611 410.339C443.878 410.428 444.07 410.576 444.189 410.784C444.307 410.976 444.367 411.28 444.367 411.695V412.317C444.278 412.169 444.048 412.058 443.678 411.984C443.322 411.895 442.885 411.836 442.367 411.806C441.863 411.776 441.33 411.761 440.767 411.761C440.219 411.761 439.708 411.761 439.233 411.761C438.908 411.761 438.604 411.784 438.322 411.828C438.056 411.858 437.841 411.947 437.678 412.095C437.515 412.228 437.434 412.45 437.434 412.761C437.434 412.998 437.485 413.176 437.589 413.295C437.693 413.398 437.834 413.465 438.011 413.495C438.189 413.524 438.389 413.539 438.611 413.539H441.433C442.056 413.539 442.604 413.598 443.078 413.717C443.552 413.821 443.915 414.058 444.167 414.428C444.418 414.784 444.544 415.346 444.544 416.117C444.544 417.006 444.292 417.657 443.789 418.072C443.285 418.487 442.589 418.761 441.7 418.894C440.811 419.013 439.782 419.072 438.611 419.072Z" fill="white"/>
<path d="M450.602 419.072C449.802 419.072 449.172 418.991 448.713 418.828C448.269 418.65 447.957 418.368 447.78 417.983C447.602 417.583 447.513 417.035 447.513 416.339V411.85H446.558V410.117H447.513V408.984C447.513 408.614 447.535 408.339 447.58 408.162C447.639 407.984 447.75 407.873 447.913 407.828C448.076 407.784 448.335 407.762 448.691 407.762H450.824C450.824 407.821 450.824 407.895 450.824 407.984C450.824 408.073 450.824 408.184 450.824 408.317V410.117H452.979V411.85H450.846V416.072C450.846 416.665 450.898 417.094 451.002 417.361C451.12 417.628 451.424 417.761 451.913 417.761C452.046 417.761 452.216 417.746 452.424 417.717C452.646 417.687 452.802 417.657 452.89 417.628V418.85C452.787 418.865 452.528 418.909 452.113 418.983C451.713 419.043 451.209 419.072 450.602 419.072Z" fill="white"/>
<path d="M460.361 419.117C459.324 419.117 458.472 419.057 457.805 418.939C457.139 418.806 456.613 418.583 456.227 418.272C455.842 417.961 455.568 417.524 455.405 416.961C455.242 416.398 455.161 415.665 455.161 414.761C455.161 413.606 455.324 412.687 455.65 412.006C455.976 411.324 456.539 410.828 457.338 410.517C458.153 410.206 459.279 410.05 460.716 410.05C461.842 410.05 462.738 410.169 463.405 410.406C464.071 410.643 464.553 411.013 464.849 411.517C465.145 412.021 465.294 412.665 465.294 413.45V415.161H459.116C459.116 414.85 459.183 414.591 459.316 414.384C459.464 414.161 459.731 414.05 460.116 414.05H462.338L462.316 413.584C462.316 412.976 462.19 412.524 461.938 412.228C461.701 411.917 461.249 411.761 460.583 411.761C460.035 411.761 459.605 411.85 459.294 412.028C458.998 412.191 458.79 412.487 458.672 412.917C458.568 413.332 458.516 413.932 458.516 414.717C458.516 415.428 458.583 415.961 458.716 416.317C458.864 416.672 459.124 416.917 459.494 417.05C459.864 417.169 460.39 417.228 461.072 417.228C461.323 417.228 461.664 417.22 462.094 417.206C462.523 417.191 462.96 417.176 463.405 417.161C463.864 417.132 464.264 417.109 464.605 417.094C464.96 417.065 465.182 417.035 465.271 417.006V417.406C465.271 417.613 465.234 417.835 465.16 418.072C465.101 418.294 464.975 418.48 464.782 418.628C464.516 418.835 464.02 418.968 463.294 419.028C462.583 419.087 461.605 419.117 460.361 419.117Z" fill="white"/>
<path d="M471.308 418.983H468.908C468.582 418.983 468.345 418.902 468.197 418.739C468.049 418.576 467.975 418.25 467.975 417.761V410.562C468.39 410.458 468.99 410.347 469.775 410.228C470.575 410.11 471.471 410.05 472.464 410.05C473.501 410.05 474.315 410.11 474.908 410.228C475.515 410.347 475.96 410.532 476.241 410.784C476.523 411.021 476.7 411.332 476.774 411.717C476.863 412.087 476.908 412.539 476.908 413.073H473.73V412.761C473.73 412.406 473.664 412.147 473.53 411.984C473.412 411.821 473.264 411.717 473.086 411.673C472.908 411.628 472.723 411.606 472.53 411.606C472.234 411.606 471.975 411.636 471.753 411.695C471.545 411.754 471.397 411.843 471.308 411.961V418.983Z" fill="white"/>
<path d="M353.479 427.22L355.065 422.811C355.171 422.539 355.314 422.332 355.496 422.188C355.677 422.037 355.972 421.961 356.38 421.961C356.742 421.961 357.018 422.029 357.207 422.165C357.403 422.301 357.554 422.517 357.66 422.811L359.281 427.22H358.023L357.536 425.86H354.85L354.374 427.22H353.479ZM355.031 425.373H357.32L356.606 423.299C356.576 423.2 356.535 423.114 356.482 423.038C356.436 422.962 356.334 422.925 356.176 422.925C356.009 422.925 355.9 422.966 355.847 423.049C355.794 423.125 355.753 423.208 355.722 423.299L355.031 425.373Z" fill="black"/>
<path d="M367.429 427.265C367.028 427.265 366.756 427.171 366.613 426.982C366.469 426.785 366.397 426.494 366.397 426.109L366.409 422.698H367.463V426.052C367.463 426.34 367.497 426.536 367.565 426.642C367.64 426.748 367.765 426.8 367.939 426.8C368.007 426.8 368.082 426.793 368.165 426.778C368.248 426.763 368.301 426.751 368.324 426.744V427.174C368.294 427.182 368.245 427.193 368.177 427.208C368.109 427.224 368.014 427.235 367.893 427.242C367.772 427.258 367.618 427.265 367.429 427.265ZM366.953 422.075C366.779 422.075 366.647 422.052 366.556 422.007C366.473 421.954 366.431 421.859 366.431 421.723C366.431 421.587 366.473 421.497 366.556 421.451C366.639 421.399 366.771 421.372 366.953 421.372C367.126 421.372 367.251 421.399 367.327 421.451C367.41 421.497 367.451 421.587 367.451 421.723C367.451 421.859 367.41 421.954 367.327 422.007C367.251 422.052 367.126 422.075 366.953 422.075Z" fill="black"/>
<path d="M376.409 427.22H375.683C375.57 427.22 375.483 427.19 375.423 427.129C375.362 427.069 375.332 426.955 375.332 426.789V422.925C375.513 422.872 375.766 422.815 376.091 422.755C376.416 422.694 376.805 422.664 377.259 422.664C377.704 422.664 378.056 422.694 378.313 422.755C378.569 422.808 378.758 422.891 378.879 423.004C379.008 423.11 379.087 423.242 379.117 423.401C379.155 423.552 379.174 423.729 379.174 423.933H378.154L378.143 423.775C378.143 423.593 378.093 423.465 377.995 423.389C377.905 423.306 377.795 423.253 377.667 423.231C377.538 423.208 377.41 423.197 377.281 423.197C377.085 423.197 376.907 423.216 376.749 423.253C376.598 423.291 376.484 423.34 376.409 423.401V427.22Z" fill="black"/>
<path d="M386.315 428.432L386.326 423.616C386.326 423.42 386.322 423.246 386.315 423.095C386.315 422.944 386.307 422.845 386.292 422.8C386.352 422.785 386.466 422.77 386.632 422.755C386.806 422.74 387.002 422.728 387.221 422.721C387.44 422.706 387.663 422.694 387.89 422.687C388.124 422.672 388.332 422.664 388.513 422.664C389.155 422.664 389.654 422.743 390.009 422.902C390.372 423.061 390.625 423.314 390.768 423.661C390.919 424.001 390.987 424.451 390.972 425.01C390.95 425.561 390.874 426.003 390.746 426.336C390.617 426.661 390.406 426.899 390.111 427.05C389.824 427.193 389.424 427.265 388.91 427.265C388.6 427.265 388.324 427.235 388.083 427.174C387.848 427.114 387.659 427.012 387.516 426.868C387.372 426.717 387.274 426.517 387.221 426.268L387.391 426.154V428.432H386.315ZM388.661 426.653C389.091 426.653 389.401 426.521 389.59 426.256C389.786 425.992 389.884 425.55 389.884 424.931C389.9 424.311 389.809 423.877 389.612 423.627C389.416 423.378 389.057 423.253 388.536 423.253C388.43 423.253 388.298 423.257 388.139 423.265C387.988 423.272 387.845 423.284 387.709 423.299C387.573 423.306 387.467 423.318 387.391 423.333V425.395C387.391 425.735 387.444 425.996 387.55 426.177C387.656 426.358 387.803 426.483 387.992 426.551C388.181 426.619 388.404 426.653 388.661 426.653Z" fill="black"/>
<path d="M400.569 427.288C400.191 427.288 399.855 427.261 399.56 427.208C399.273 427.148 399.024 427.038 398.812 426.88C398.608 426.721 398.453 426.487 398.348 426.177C398.242 425.867 398.189 425.463 398.189 424.965C398.189 424.466 398.242 424.062 398.348 423.752C398.453 423.442 398.608 423.208 398.812 423.049C399.024 422.891 399.273 422.785 399.56 422.732C399.855 422.672 400.191 422.641 400.569 422.641C400.931 422.641 401.256 422.672 401.543 422.732C401.838 422.785 402.087 422.891 402.291 423.049C402.495 423.208 402.65 423.442 402.756 423.752C402.869 424.062 402.926 424.466 402.926 424.965C402.926 425.471 402.869 425.879 402.756 426.188C402.65 426.498 402.495 426.732 402.291 426.891C402.087 427.042 401.838 427.148 401.543 427.208C401.256 427.261 400.931 427.288 400.569 427.288ZM400.569 426.721C400.841 426.721 401.071 426.68 401.26 426.596C401.456 426.513 401.604 426.347 401.702 426.098C401.8 425.848 401.849 425.471 401.849 424.965C401.849 424.458 401.8 424.081 401.702 423.831C401.604 423.582 401.456 423.416 401.26 423.333C401.071 423.25 400.841 423.208 400.569 423.208C400.297 423.208 400.063 423.25 399.866 423.333C399.67 423.416 399.519 423.582 399.413 423.831C399.315 424.081 399.265 424.458 399.265 424.965C399.265 425.471 399.315 425.848 399.413 426.098C399.519 426.347 399.67 426.513 399.866 426.596C400.063 426.68 400.297 426.721 400.569 426.721Z" fill="black"/>
<path d="M411.369 427.22H410.644C410.53 427.22 410.444 427.19 410.383 427.129C410.323 427.069 410.292 426.955 410.292 426.789V422.925C410.474 422.872 410.727 422.815 411.052 422.755C411.377 422.694 411.766 422.664 412.219 422.664C412.665 422.664 413.016 422.694 413.273 422.755C413.53 422.808 413.719 422.891 413.84 423.004C413.968 423.11 414.047 423.242 414.078 423.401C414.115 423.552 414.134 423.729 414.134 423.933H413.114L413.103 423.775C413.103 423.593 413.054 423.465 412.956 423.389C412.865 423.306 412.755 423.253 412.627 423.231C412.499 423.208 412.37 423.197 412.242 423.197C412.045 423.197 411.868 423.216 411.709 423.253C411.558 423.291 411.445 423.34 411.369 423.401V427.22Z" fill="black"/>
<path d="M422.59 427.254C422.287 427.254 422.049 427.22 421.876 427.152C421.709 427.084 421.589 426.963 421.513 426.789C421.437 426.615 421.4 426.381 421.4 426.086V423.276H420.946V422.698H421.4V421.95C421.4 421.814 421.411 421.716 421.434 421.655C421.456 421.587 421.494 421.546 421.547 421.531C421.607 421.508 421.694 421.497 421.808 421.497H422.465C422.465 421.512 422.465 421.546 422.465 421.599C422.465 421.644 422.465 421.712 422.465 421.803V422.698H423.53V423.276H422.465V425.984C422.465 426.279 422.495 426.491 422.556 426.619C422.616 426.74 422.76 426.8 422.986 426.8C423.062 426.8 423.145 426.793 423.236 426.778C423.334 426.763 423.402 426.748 423.44 426.732V427.174C423.394 427.182 423.296 427.197 423.145 427.22C422.994 427.242 422.809 427.254 422.59 427.254Z" fill="black"/>
<path d="M439.577 422.007H445.062V422.653H442.909V426.778C442.909 426.944 442.883 427.061 442.83 427.129C442.785 427.19 442.675 427.22 442.501 427.22H441.742V422.653H439.577V422.007Z" fill="black"/>
<path d="M453.981 427.288C453.513 427.288 453.131 427.265 452.837 427.22C452.542 427.182 452.315 427.11 452.157 427.004C451.998 426.899 451.888 426.755 451.828 426.574C451.775 426.392 451.749 426.166 451.749 425.894C451.749 425.508 451.79 425.218 451.873 425.021C451.964 424.817 452.115 424.677 452.327 424.602C452.546 424.526 452.837 424.489 453.199 424.489C453.388 424.489 453.596 424.492 453.823 424.5C454.057 424.507 454.28 424.519 454.491 424.534C454.71 424.541 454.899 424.553 455.058 424.568C455.224 424.583 455.334 424.602 455.387 424.625C455.387 424.307 455.36 424.058 455.307 423.877C455.254 423.695 455.167 423.559 455.047 423.469C454.933 423.378 454.79 423.318 454.616 423.287C454.442 423.257 454.238 423.242 454.004 423.242C453.747 423.242 453.49 423.25 453.233 423.265C452.984 423.28 452.746 423.306 452.519 423.344C452.3 423.382 452.119 423.431 451.975 423.491V423.276C451.975 423.102 452.021 422.978 452.111 422.902C452.21 422.826 452.327 422.777 452.463 422.755C452.614 422.717 452.837 422.687 453.131 422.664C453.426 422.641 453.739 422.634 454.072 422.641C454.495 422.641 454.854 422.664 455.149 422.709C455.451 422.747 455.692 422.83 455.874 422.959C456.063 423.087 456.199 423.28 456.282 423.537C456.372 423.793 456.418 424.137 456.418 424.568V426.88C456.35 427.023 456.119 427.129 455.726 427.197C455.334 427.258 454.752 427.288 453.981 427.288ZM453.981 426.812C454.283 426.812 454.529 426.804 454.718 426.789C454.914 426.766 455.065 426.74 455.171 426.71C455.277 426.672 455.349 426.627 455.387 426.574V425.01C455.319 424.987 455.198 424.968 455.024 424.953C454.85 424.931 454.669 424.912 454.48 424.897C454.291 424.881 454.132 424.874 454.004 424.874C453.724 424.874 453.498 424.893 453.324 424.931C453.15 424.968 453.026 425.055 452.95 425.191C452.874 425.327 452.837 425.539 452.837 425.826C452.837 426.06 452.863 426.249 452.916 426.392C452.969 426.536 453.075 426.642 453.233 426.71C453.4 426.778 453.649 426.812 453.981 426.812Z" fill="black"/>
<path d="M463.274 427.22L464.997 424.976L463.603 423.083C463.55 423 463.497 422.925 463.444 422.857C463.399 422.789 463.346 422.732 463.286 422.687H464.646L465.79 424.228L466.98 422.698H467.796C467.773 422.721 467.743 422.751 467.705 422.789C467.675 422.826 467.637 422.876 467.592 422.936L466.243 424.829L468.011 427.22H467.127C466.976 427.22 466.84 427.193 466.719 427.14C466.606 427.08 466.504 426.993 466.413 426.88L465.394 425.531L464.102 427.22H463.274Z" fill="black"/>
<path d="M475.954 427.265C475.554 427.265 475.282 427.171 475.138 426.982C474.995 426.785 474.923 426.494 474.923 426.109L474.934 422.698H475.988V426.052C475.988 426.34 476.022 426.536 476.09 426.642C476.166 426.748 476.291 426.8 476.464 426.8C476.532 426.8 476.608 426.793 476.691 426.778C476.774 426.763 476.827 426.751 476.85 426.744V427.174C476.819 427.182 476.77 427.193 476.702 427.208C476.634 427.224 476.54 427.235 476.419 427.242C476.298 427.258 476.143 427.265 475.954 427.265ZM475.478 422.075C475.305 422.075 475.172 422.052 475.082 422.007C474.999 421.954 474.957 421.859 474.957 421.723C474.957 421.587 474.999 421.497 475.082 421.451C475.165 421.399 475.297 421.372 475.478 421.372C475.652 421.372 475.777 421.399 475.852 421.451C475.936 421.497 475.977 421.587 475.977 421.723C475.977 421.859 475.936 421.954 475.852 422.007C475.777 422.052 475.652 422.075 475.478 422.075Z" fill="black"/>
<path d="M477.168 407.968C484.16 408.057 488.106 412.177 489.205 414.227C485.383 411.797 481.365 411.387 479.835 411.486C479.331 409.531 477.847 408.326 477.168 407.968Z" fill="white"/>
<path d="M347.145 400.172C345.689 403.893 346.201 411.768 346.639 415.24C347.52 409.853 350.928 407.18 352.522 406.518C352.1 405.433 350.968 404.844 350.025 404.161C347.316 402.197 346.941 400.72 347.145 400.172Z" fill="white"/>
<path d="M397.029 395.888C383.549 398.628 375.431 402.687 373.057 404.374C388.562 398.672 402.833 397.594 408.031 397.767L408.758 406.102L410.698 394.494C405.339 394.64 399.353 395.484 397.029 395.888Z" fill="black"/>
<path d="M443.591 405.511C431.912 395.648 419.61 394.267 414.919 394.81C426.225 396.997 433.084 401.498 435.1 403.476L413.406 405.511H443.591Z" fill="black"/>
<path d="M353.049 404.551C350.903 404.068 348.615 400.335 347.729 398.527C356.839 400.107 372.665 396.157 379.438 393.984C390.854 390.278 405.565 389.017 412.994 388.787C414.051 388.754 414.97 388.051 415.261 387.034L415.57 385.954C415.973 384.542 417.263 383.568 418.732 383.568C420.187 383.568 421.469 384.525 421.884 385.92L422.45 387.824C422.782 388.939 423.735 389.752 424.881 389.952C434.836 391.687 443.025 395.639 447.68 398.537C449.593 399.727 451.769 400.486 454.021 400.557C471.536 401.107 483.506 406.149 487.472 408.757C470.35 404.486 456.898 404.861 452.312 405.582C452.021 405.603 451.738 405.609 451.462 405.601C446.792 405.463 443.498 401.041 439.28 399.031C438.582 398.698 437.956 398.413 437.477 398.203C433.352 396.265 429.239 394.917 425.316 394.01C409.462 390.342 393.013 394.771 377.297 399.003L377.226 399.022L358.422 404.291C355.756 405.012 354.591 404.899 353.049 404.551Z" fill="white"/>
<g filter="url(#filter1_d_822_1808)">
<rect x="665.49" y="282.102" width="175.219" height="175.219" rx="35" transform="rotate(45 665.49 282.102)" fill="white"/>
</g>
<g filter="url(#filter2_d_822_1808)">
<rect x="417.695" y="529.898" width="175.219" height="175.219" rx="35" transform="rotate(45 417.695 529.898)" fill="white"/>
</g>
<g filter="url(#filter3_d_822_1808)">
<rect x="169.898" y="282.102" width="175.219" height="175.219" rx="35" transform="rotate(45 169.898 282.102)" fill="white"/>
</g>
<g filter="url(#filter4_d_822_1808)">
<rect x="417.695" y="34.3057" width="175.219" height="175.219" rx="35" transform="rotate(45 417.695 34.3057)" fill="white"/>
</g>
<path d="M335.999 151.243V147.698H352.977V151.243H346.502V168.704H342.444V151.243H335.999ZM362.088 156.648H360.682C359.725 156.648 358.934 156.98 358.309 157.645C357.684 158.309 357.371 159.217 357.371 160.369V168.704H353.445V153.191H357.342V154.876C358.172 153.655 359.402 153.045 361.033 153.045H362.088V156.648ZM362.103 164.354C362.103 162.977 362.552 161.893 363.45 161.102C364.349 160.311 365.628 159.856 367.288 159.739L371.858 159.402V158.802C371.858 158.03 371.609 157.43 371.111 157C370.613 156.561 369.91 156.341 369.002 156.341C367.635 156.341 366.268 156.8 364.9 157.718L363.245 154.935C365.13 153.558 367.21 152.869 369.485 152.869C371.351 152.869 372.845 153.367 373.968 154.363C375.101 155.35 375.667 156.668 375.667 158.318V164.412C375.667 165.018 375.955 165.32 376.531 165.32H377.337V168.704H375.521C374.778 168.704 374.129 168.543 373.572 168.221C373.016 167.898 372.601 167.449 372.327 166.873C371.771 167.576 371.077 168.123 370.247 168.514C369.417 168.904 368.494 169.1 367.479 169.1C365.936 169.1 364.651 168.65 363.626 167.752C362.61 166.854 362.103 165.721 362.103 164.354ZM365.853 164.324C365.853 164.861 366.082 165.291 366.541 165.613C367 165.936 367.601 166.097 368.343 166.097C369.319 166.097 370.149 165.823 370.833 165.276C371.517 164.72 371.858 164.051 371.858 163.27V162.288L367.83 162.64C366.512 162.757 365.853 163.318 365.853 164.324ZM393.45 158.831V168.704H389.524V159.607C389.524 158.602 389.227 157.796 388.631 157.19C388.045 156.585 387.273 156.282 386.316 156.282C385.359 156.282 384.578 156.585 383.973 157.19C383.367 157.786 383.064 158.592 383.064 159.607V168.704H379.139V153.191H383.064V154.51C384.188 153.357 385.608 152.781 387.327 152.781C389.124 152.781 390.594 153.362 391.736 154.524C392.879 155.677 393.45 157.112 393.45 158.831ZM402.43 169.07C400.457 169.07 398.846 168.582 397.596 167.605C396.355 166.629 395.579 165.364 395.267 163.812H398.987C399.173 164.563 399.573 165.125 400.188 165.496C400.804 165.857 401.551 166.038 402.43 166.038C403.133 166.038 403.68 165.892 404.07 165.599C404.461 165.306 404.656 164.92 404.656 164.441C404.656 164.119 404.524 163.831 404.261 163.577C403.997 163.323 403.606 163.133 403.089 163.006L399.881 162.259C396.98 161.565 395.53 160.042 395.53 157.688C395.53 156.224 396.072 155.047 397.156 154.158C398.24 153.26 399.627 152.811 401.316 152.811C403.23 152.811 404.783 153.309 405.975 154.305C407.176 155.291 407.894 156.561 408.128 158.113H404.437C404.241 157.352 403.846 156.78 403.25 156.399C402.654 156.019 402 155.828 401.287 155.828C400.682 155.828 400.208 155.965 399.866 156.238C399.534 156.512 399.368 156.858 399.368 157.278C399.368 158.079 399.988 158.626 401.229 158.919L404.202 159.651C407.044 160.335 408.465 161.834 408.465 164.148C408.465 165.574 407.918 166.751 406.824 167.679C405.73 168.606 404.266 169.07 402.43 169.07ZM410.369 153.191H414.266V154.671C415.721 153.431 417.391 152.811 419.275 152.811C420.408 152.811 421.487 153.03 422.513 153.47C423.538 153.899 424.417 154.48 425.149 155.213C425.892 155.945 426.478 156.814 426.907 157.82C427.347 158.816 427.566 159.866 427.566 160.97C427.566 162.073 427.347 163.128 426.907 164.134C426.478 165.14 425.892 166.009 425.149 166.741C424.417 167.474 423.538 168.055 422.513 168.484C421.487 168.914 420.408 169.129 419.275 169.129C417.43 169.129 415.77 168.519 414.295 167.298V175.003H410.369V153.191ZM414.236 160.97C414.236 162.288 414.695 163.401 415.613 164.31C416.531 165.218 417.645 165.672 418.953 165.672C420.252 165.672 421.36 165.218 422.278 164.31C423.196 163.392 423.655 162.278 423.655 160.97C423.655 159.671 423.191 158.558 422.264 157.63C421.346 156.692 420.242 156.224 418.953 156.224C417.654 156.224 416.541 156.688 415.613 157.615C414.695 158.543 414.236 159.661 414.236 160.97ZM429.017 164.354C429.017 162.977 429.466 161.893 430.364 161.102C431.263 160.311 432.542 159.856 434.202 159.739L438.772 159.402V158.802C438.772 158.03 438.523 157.43 438.025 157C437.527 156.561 436.824 156.341 435.916 156.341C434.549 156.341 433.182 156.8 431.814 157.718L430.159 154.935C432.044 153.558 434.124 152.869 436.399 152.869C438.265 152.869 439.759 153.367 440.882 154.363C442.015 155.35 442.581 156.668 442.581 158.318V164.412C442.581 165.018 442.869 165.32 443.445 165.32H444.251V168.704H442.435C441.692 168.704 441.043 168.543 440.486 168.221C439.93 167.898 439.515 167.449 439.241 166.873C438.685 167.576 437.991 168.123 437.161 168.514C436.331 168.904 435.408 169.1 434.393 169.1C432.85 169.1 431.565 168.65 430.54 167.752C429.524 166.854 429.017 165.721 429.017 164.354ZM432.767 164.324C432.767 164.861 432.996 165.291 433.455 165.613C433.914 165.936 434.515 166.097 435.257 166.097C436.233 166.097 437.063 165.823 437.747 165.276C438.431 164.72 438.772 164.051 438.772 163.27V162.288L434.744 162.64C433.426 162.757 432.767 163.318 432.767 164.324ZM454.695 156.648H453.289C452.332 156.648 451.541 156.98 450.916 157.645C450.291 158.309 449.979 159.217 449.979 160.369V168.704H446.053V153.191H449.949V154.876C450.779 153.655 452.01 153.045 453.641 153.045H454.695V156.648ZM455.442 160.94C455.442 159.515 455.789 158.182 456.482 156.941C457.176 155.701 458.143 154.71 459.383 153.968C460.623 153.216 461.99 152.84 463.484 152.84C465.809 152.84 467.713 153.616 469.197 155.169C470.691 156.722 471.438 158.704 471.438 161.116V162.259H459.471C459.734 163.284 460.262 164.119 461.053 164.764C461.844 165.408 462.767 165.73 463.821 165.73C464.671 165.73 465.423 165.574 466.077 165.262C466.731 164.939 467.337 164.417 467.894 163.694L470.633 165.73C469.842 166.805 468.87 167.635 467.718 168.221C466.565 168.807 465.276 169.1 463.851 169.1C462.288 169.1 460.862 168.753 459.573 168.06C458.294 167.366 457.283 166.395 456.541 165.145C455.809 163.895 455.442 162.493 455.442 160.94ZM463.396 156.194C462.479 156.194 461.673 156.468 460.979 157.015C460.286 157.562 459.803 158.309 459.529 159.256H467.483C467.2 158.309 466.688 157.562 465.945 157.015C465.203 156.468 464.354 156.194 463.396 156.194ZM487.933 158.831V168.704H484.007V159.607C484.007 158.602 483.709 157.796 483.113 157.19C482.527 156.585 481.756 156.282 480.799 156.282C479.842 156.282 479.061 156.585 478.455 157.19C477.85 157.786 477.547 158.592 477.547 159.607V168.704H473.621V153.191H477.547V154.51C478.67 153.357 480.091 152.781 481.81 152.781C483.606 152.781 485.076 153.362 486.219 154.524C487.361 155.677 487.933 157.112 487.933 158.831ZM496.59 168.704C495.223 168.704 494.168 168.348 493.426 167.635C492.693 166.912 492.327 165.97 492.327 164.808V156.59H489.295V153.191H492.327V148.694H496.238V153.191H499.651V156.59H496.238V164.119C496.238 164.51 496.365 164.808 496.619 165.013C496.883 165.218 497.244 165.32 497.703 165.32H499.651V168.704H496.59Z" fill="black"/>
<path d="M622.058 409.996H625.983C626.13 411.09 626.589 411.949 627.36 412.574C628.132 413.189 629.152 413.497 630.422 413.497C631.555 413.497 632.429 413.258 633.044 412.779C633.659 412.291 633.967 411.661 633.967 410.89C633.967 410.274 633.737 409.742 633.278 409.293C632.819 408.834 632.189 408.507 631.389 408.312L627.814 407.403C625.93 406.915 624.528 406.188 623.61 405.221C622.692 404.244 622.233 402.975 622.233 401.412C622.233 399.537 622.917 398.023 624.284 396.871C625.661 395.719 627.395 395.143 629.484 395.143C631.633 395.143 633.425 395.763 634.86 397.003C636.306 398.233 637.175 399.854 637.468 401.866H633.513C633.278 400.802 632.819 399.977 632.136 399.391C631.452 398.795 630.559 398.497 629.455 398.497C628.518 398.497 627.746 398.731 627.141 399.2C626.545 399.659 626.247 400.294 626.247 401.104C626.247 402.354 627.106 403.204 628.825 403.653L632.37 404.591C634.333 405.108 635.759 405.841 636.647 406.788C637.536 407.726 637.98 408.98 637.98 410.553C637.98 412.369 637.282 413.878 635.886 415.079C634.489 416.271 632.658 416.866 630.393 416.866C628.098 416.866 626.174 416.231 624.621 414.962C623.078 413.692 622.224 412.037 622.058 409.996ZM639.621 412.149C639.621 410.772 640.07 409.688 640.969 408.897C641.867 408.106 643.146 407.652 644.807 407.535L649.377 407.198V406.598C649.377 405.826 649.128 405.226 648.63 404.796C648.132 404.356 647.429 404.137 646.521 404.137C645.153 404.137 643.786 404.596 642.419 405.514L640.764 402.73C642.648 401.354 644.729 400.665 647.004 400.665C648.869 400.665 650.363 401.163 651.486 402.159C652.619 403.146 653.186 404.464 653.186 406.114V412.208C653.186 412.813 653.474 413.116 654.05 413.116H654.855V416.5H653.039C652.297 416.5 651.647 416.339 651.091 416.017C650.534 415.694 650.119 415.245 649.846 414.669C649.289 415.372 648.596 415.919 647.766 416.31C646.936 416.7 646.013 416.896 644.997 416.896C643.454 416.896 642.17 416.446 641.145 415.548C640.129 414.649 639.621 413.517 639.621 412.149ZM643.371 412.12C643.371 412.657 643.601 413.087 644.06 413.409C644.519 413.731 645.119 413.893 645.861 413.893C646.838 413.893 647.668 413.619 648.352 413.072C649.035 412.516 649.377 411.847 649.377 411.065V410.084L645.349 410.436C644.03 410.553 643.371 411.114 643.371 412.12ZM654.841 404.386V400.987H657.902V398.233C657.902 397.081 658.269 396.144 659.001 395.421C659.743 394.698 660.788 394.337 662.136 394.337H665.08V397.721H662.824C662.15 397.721 661.813 398.072 661.813 398.775V400.987H665.08V404.386H661.813V416.5H657.902V404.386H654.841ZM665.578 408.736C665.578 407.311 665.925 405.978 666.618 404.737C667.312 403.497 668.278 402.506 669.519 401.764C670.759 401.012 672.126 400.636 673.62 400.636C675.944 400.636 677.849 401.412 679.333 402.965C680.827 404.518 681.574 406.5 681.574 408.912V410.055H669.606C669.87 411.08 670.397 411.915 671.188 412.56C671.979 413.204 672.902 413.526 673.957 413.526C674.807 413.526 675.559 413.37 676.213 413.058C676.867 412.735 677.473 412.213 678.029 411.49L680.769 413.526C679.978 414.601 679.006 415.431 677.854 416.017C676.701 416.603 675.412 416.896 673.986 416.896C672.424 416.896 670.998 416.549 669.709 415.855C668.43 415.162 667.419 414.19 666.677 412.94C665.944 411.69 665.578 410.289 665.578 408.736ZM673.532 403.99C672.614 403.99 671.809 404.264 671.115 404.811C670.422 405.357 669.938 406.104 669.665 407.052H677.619C677.336 406.104 676.823 405.357 676.081 404.811C675.339 404.264 674.489 403.99 673.532 403.99ZM689.704 416.5C688.337 416.5 687.282 416.144 686.54 415.431C685.808 414.708 685.441 413.766 685.441 412.604V404.386H682.409V400.987H685.441V396.49H689.353V400.987H692.766V404.386H689.353V411.915C689.353 412.306 689.479 412.604 689.733 412.809C689.997 413.014 690.358 413.116 690.817 413.116H692.766V416.5H689.704ZM699.123 417.936L699.841 416.207L693.249 400.987H697.482L701.76 411.461L705.993 400.987H710.08L702.521 419.415C702.014 420.655 701.398 421.529 700.676 422.037C699.963 422.545 699.006 422.799 697.805 422.799H695.49V419.503H696.999C697.546 419.503 697.976 419.391 698.288 419.166C698.61 418.941 698.889 418.531 699.123 417.936Z" fill="black"/>
<path d="M374.424 664.297V643.291H387.666V646.836H378.481V652.021H387.358V655.479H378.481V660.752H387.666V664.297H374.424ZM396.631 664.297C395.264 664.297 394.209 663.94 393.467 663.228C392.734 662.505 392.368 661.562 392.368 660.4V652.183H389.336V648.784H392.368V644.287H396.279V648.784H399.692V652.183H396.279V659.712C396.279 660.103 396.406 660.4 396.66 660.605C396.924 660.811 397.285 660.913 397.744 660.913H399.692V664.297H396.631ZM405.303 655.2V664.297H401.377V643.291H405.303V650.132C406.416 648.96 407.856 648.374 409.624 648.374C411.401 648.374 412.856 648.955 413.989 650.117C415.122 651.27 415.688 652.705 415.688 654.424V664.297H411.763V655.2C411.763 654.194 411.465 653.389 410.869 652.783C410.283 652.178 409.512 651.875 408.555 651.875C407.598 651.875 406.816 652.178 406.211 652.783C405.605 653.379 405.303 654.185 405.303 655.2ZM421.914 646.514C421.504 646.934 420.991 647.144 420.376 647.144C419.761 647.144 419.238 646.934 418.809 646.514C418.379 646.084 418.164 645.562 418.164 644.946C418.164 644.331 418.379 643.818 418.809 643.408C419.238 642.998 419.761 642.793 420.376 642.793C420.991 642.793 421.504 642.998 421.914 643.408C422.334 643.818 422.544 644.331 422.544 644.946C422.544 645.562 422.334 646.084 421.914 646.514ZM422.324 648.784V664.297H418.398V648.784H422.324ZM429.736 653.223C428.838 654.131 428.389 655.234 428.389 656.533C428.389 657.832 428.838 658.94 429.736 659.858C430.635 660.776 431.724 661.235 433.003 661.235C434.634 661.235 435.933 660.566 436.899 659.229L439.697 661.265C437.959 663.55 435.728 664.692 433.003 664.692C431.431 664.692 429.99 664.326 428.682 663.594C427.373 662.861 426.343 661.875 425.591 660.635C424.849 659.385 424.478 658.018 424.478 656.533C424.478 655.059 424.849 653.701 425.591 652.461C426.343 651.211 427.373 650.225 428.682 649.502C429.99 648.77 431.431 648.403 433.003 648.403C435.728 648.403 437.959 649.541 439.697 651.816L436.899 653.853C435.933 652.515 434.634 651.846 433.003 651.846C431.724 651.846 430.635 652.305 429.736 653.223ZM440.151 659.946C440.151 658.569 440.601 657.485 441.499 656.694C442.397 655.903 443.677 655.449 445.337 655.332L449.907 654.995V654.395C449.907 653.623 449.658 653.022 449.16 652.593C448.662 652.153 447.959 651.934 447.051 651.934C445.684 651.934 444.316 652.393 442.949 653.311L441.294 650.527C443.179 649.15 445.259 648.462 447.534 648.462C449.399 648.462 450.894 648.96 452.017 649.956C453.149 650.942 453.716 652.261 453.716 653.911V660.005C453.716 660.61 454.004 660.913 454.58 660.913H455.386V664.297H453.569C452.827 664.297 452.178 664.136 451.621 663.813C451.064 663.491 450.649 663.042 450.376 662.466C449.819 663.169 449.126 663.716 448.296 664.106C447.466 664.497 446.543 664.692 445.527 664.692C443.984 664.692 442.7 664.243 441.675 663.345C440.659 662.446 440.151 661.313 440.151 659.946ZM443.901 659.917C443.901 660.454 444.131 660.884 444.59 661.206C445.049 661.528 445.649 661.689 446.392 661.689C447.368 661.689 448.198 661.416 448.882 660.869C449.565 660.312 449.907 659.644 449.907 658.862V657.881L445.879 658.232C444.561 658.35 443.901 658.911 443.901 659.917ZM461.113 664.297H457.188V643.291H461.113V664.297Z" fill="black"/>
<path d="M126.349 416.5H122.291V395.494H126.349V404.195H135.562V395.494H139.605V416.5H135.562V407.74H126.349V416.5ZM158.927 408.766C158.927 409.869 158.702 410.924 158.253 411.93C157.804 412.936 157.198 413.805 156.437 414.537C155.675 415.27 154.767 415.851 153.712 416.28C152.667 416.71 151.563 416.925 150.401 416.925C148.868 416.925 147.447 416.563 146.139 415.841C144.83 415.108 143.79 414.117 143.019 412.867C142.257 411.607 141.876 410.24 141.876 408.766C141.876 407.291 142.257 405.929 143.019 404.679C143.79 403.419 144.83 402.428 146.139 401.705C147.447 400.973 148.868 400.606 150.401 400.606C151.944 400.606 153.37 400.968 154.679 401.69C155.987 402.413 157.022 403.404 157.784 404.664C158.546 405.914 158.927 407.281 158.927 408.766ZM153.668 412.091C154.566 411.183 155.016 410.074 155.016 408.766C155.016 407.457 154.566 406.349 153.668 405.44C152.779 404.532 151.69 404.078 150.401 404.078C149.122 404.078 148.033 404.537 147.135 405.455C146.236 406.363 145.787 407.467 145.787 408.766C145.787 410.064 146.236 411.168 147.135 412.076C148.033 412.984 149.122 413.438 150.401 413.438C151.69 413.438 152.779 412.989 153.668 412.091ZM175.392 406.627V416.5H171.466V407.403C171.466 406.397 171.168 405.592 170.572 404.986C169.986 404.381 169.215 404.078 168.258 404.078C167.301 404.078 166.52 404.381 165.914 404.986C165.309 405.582 165.006 406.388 165.006 407.403V416.5H161.08V400.987H165.006V402.306C166.129 401.153 167.55 400.577 169.269 400.577C171.065 400.577 172.535 401.158 173.678 402.32C174.82 403.473 175.392 404.908 175.392 406.627ZM177.56 408.736C177.56 407.311 177.906 405.978 178.6 404.737C179.293 403.497 180.26 402.506 181.5 401.764C182.74 401.012 184.107 400.636 185.602 400.636C187.926 400.636 189.83 401.412 191.314 402.965C192.809 404.518 193.556 406.5 193.556 408.912V410.055H181.588C181.852 411.08 182.379 411.915 183.17 412.56C183.961 413.204 184.884 413.526 185.938 413.526C186.788 413.526 187.54 413.37 188.194 413.058C188.849 412.735 189.454 412.213 190.011 411.49L192.75 413.526C191.959 414.601 190.987 415.431 189.835 416.017C188.683 416.603 187.394 416.896 185.968 416.896C184.405 416.896 182.979 416.549 181.69 415.855C180.411 415.162 179.4 414.19 178.658 412.94C177.926 411.69 177.56 410.289 177.56 408.736ZM185.514 403.99C184.596 403.99 183.79 404.264 183.097 404.811C182.403 405.357 181.92 406.104 181.646 407.052H189.601C189.317 406.104 188.805 405.357 188.062 404.811C187.32 404.264 186.471 403.99 185.514 403.99ZM202.008 416.866C200.035 416.866 198.424 416.378 197.174 415.401C195.934 414.425 195.157 413.16 194.845 411.607H198.565C198.751 412.359 199.151 412.921 199.767 413.292C200.382 413.653 201.129 413.834 202.008 413.834C202.711 413.834 203.258 413.688 203.648 413.395C204.039 413.102 204.234 412.716 204.234 412.237C204.234 411.915 204.103 411.627 203.839 411.373C203.575 411.119 203.185 410.929 202.667 410.802L199.459 410.055C196.559 409.361 195.108 407.838 195.108 405.484C195.108 404.02 195.65 402.843 196.734 401.954C197.818 401.056 199.205 400.606 200.895 400.606C202.809 400.606 204.361 401.104 205.553 402.101C206.754 403.087 207.472 404.356 207.706 405.909H204.015C203.819 405.147 203.424 404.576 202.828 404.195C202.232 403.814 201.578 403.624 200.865 403.624C200.26 403.624 199.786 403.761 199.444 404.034C199.112 404.308 198.946 404.654 198.946 405.074C198.946 405.875 199.566 406.422 200.807 406.715L203.78 407.447C206.622 408.131 208.043 409.63 208.043 411.944C208.043 413.37 207.496 414.547 206.402 415.475C205.309 416.402 203.844 416.866 202.008 416.866ZM215.572 416.5C214.205 416.5 213.15 416.144 212.408 415.431C211.676 414.708 211.31 413.766 211.31 412.604V404.386H208.277V400.987H211.31V396.49H215.221V400.987H218.634V404.386H215.221V411.915C215.221 412.306 215.348 412.604 215.602 412.809C215.865 413.014 216.227 413.116 216.686 413.116H218.634V416.5H215.572Z" fill="black"/>
<defs>
<filter id="filter0_d_822_1808" x="228.295" y="266.599" width="378.801" height="378.802" filterUnits="userSpaceOnUse" color-interpolation-filters="sRGB">
<feFlood flood-opacity="0" result="BackgroundImageFix"/>
<feColorMatrix in="SourceAlpha" type="matrix" values="0 0 0 0 0 0 0 0 0 0 0 0 0 0 0 0 0 0 127 0" result="hardAlpha"/>
<feOffset dy="50"/>
<feGaussianBlur stdDeviation="40"/>
<feComposite in2="hardAlpha" operator="out"/>
<feColorMatrix type="matrix" values="0 0 0 0 0 0 0 0 0 0.45098 0 0 0 0 0.92549 0 0 0 0.08 0"/>
<feBlend mode="normal" in2="BackgroundImageFix" result="effect1_dropShadow_822_1808"/>
<feBlend mode="normal" in="SourceGraphic" in2="effect1_dropShadow_822_1808" result="shape"/>
</filter>
<filter id="filter1_d_822_1808" x="496.09" y="248.599" width="338.801" height="338.802" filterUnits="userSpaceOnUse" color-interpolation-filters="sRGB">
<feFlood flood-opacity="0" result="BackgroundImageFix"/>
<feColorMatrix in="SourceAlpha" type="matrix" values="0 0 0 0 0 0 0 0 0 0 0 0 0 0 0 0 0 0 127 0" result="hardAlpha"/>
<feOffset dy="12"/>
<feGaussianBlur stdDeviation="30"/>
<feComposite in2="hardAlpha" operator="out"/>
<feColorMatrix type="matrix" values="0 0 0 0 0 0 0 0 0 0.45098 0 0 0 0 0.92549 0 0 0 0.1 0"/>
<feBlend mode="normal" in2="BackgroundImageFix" result="effect1_dropShadow_822_1808"/>
<feBlend mode="normal" in="SourceGraphic" in2="effect1_dropShadow_822_1808" result="shape"/>
</filter>
<filter id="filter2_d_822_1808" x="248.295" y="496.396" width="338.801" height="338.802" filterUnits="userSpaceOnUse" color-interpolation-filters="sRGB">
<feFlood flood-opacity="0" result="BackgroundImageFix"/>
<feColorMatrix in="SourceAlpha" type="matrix" values="0 0 0 0 0 0 0 0 0 0 0 0 0 0 0 0 0 0 127 0" result="hardAlpha"/>
<feOffset dy="12"/>
<feGaussianBlur stdDeviation="30"/>
<feComposite in2="hardAlpha" operator="out"/>
<feColorMatrix type="matrix" values="0 0 0 0 0 0 0 0 0 0.45098 0 0 0 0 0.92549 0 0 0 0.1 0"/>
<feBlend mode="normal" in2="BackgroundImageFix" result="effect1_dropShadow_822_1808"/>
<feBlend mode="normal" in="SourceGraphic" in2="effect1_dropShadow_822_1808" result="shape"/>
</filter>
<filter id="filter3_d_822_1808" x="0.498047" y="248.599" width="338.801" height="338.802" filterUnits="userSpaceOnUse" color-interpolation-filters="sRGB">
<feFlood flood-opacity="0" result="BackgroundImageFix"/>
<feColorMatrix in="SourceAlpha" type="matrix" values="0 0 0 0 0 0 0 0 0 0 0 0 0 0 0 0 0 0 127 0" result="hardAlpha"/>
<feOffset dy="12"/>
<feGaussianBlur stdDeviation="30"/>
<feComposite in2="hardAlpha" operator="out"/>
<feColorMatrix type="matrix" values="0 0 0 0 0 0 0 0 0 0.45098 0 0 0 0 0.92549 0 0 0 0.1 0"/>
<feBlend mode="normal" in2="BackgroundImageFix" result="effect1_dropShadow_822_1808"/>
<feBlend mode="normal" in="SourceGraphic" in2="effect1_dropShadow_822_1808" result="shape"/>
</filter>
<filter id="filter4_d_822_1808" x="248.295" y="0.802734" width="338.801" height="338.802" filterUnits="userSpaceOnUse" color-interpolation-filters="sRGB">
<feFlood flood-opacity="0" result="BackgroundImageFix"/>
<feColorMatrix in="SourceAlpha" type="matrix" values="0 0 0 0 0 0 0 0 0 0 0 0 0 0 0 0 0 0 127 0" result="hardAlpha"/>
<feOffset dy="12"/>
<feGaussianBlur stdDeviation="30"/>
<feComposite in2="hardAlpha" operator="out"/>
<feColorMatrix type="matrix" values="0 0 0 0 0 0 0 0 0 0.45098 0 0 0 0 0.92549 0 0 0 0.1 0"/>
<feBlend mode="normal" in2="BackgroundImageFix" result="effect1_dropShadow_822_1808"/>
<feBlend mode="normal" in="SourceGraphic" in2="effect1_dropShadow_822_1808" result="shape"/>
</filter>
<linearGradient id="paint0_linear_822_1808" x1="414.217" y1="323.31" x2="576.641" y2="441.183" gradientUnits="userSpaceOnUse">
<stop stop-color="#0073EC"/>
<stop offset="1" stop-color="#2E93FF"/>
</linearGradient>
</defs>
</svg>
