<svg width="19" height="19" viewBox="0 0 19 19" fill="none" xmlns="http://www.w3.org/2000/svg">
<path d="M9.04379 18.9415C8.92671 18.9415 8.80962 18.9415 8.69253 18.9415C8.42464 18.8127 8.30099 18.6019 8.32675 18.304C8.33191 18.246 8.3216 18.1865 8.32863 18.1284C8.3483 17.9701 8.28975 17.8905 8.12864 17.839C7.61486 17.6746 7.27531 17.2142 7.27484 16.6943C7.27297 13.2815 7.27391 9.86814 7.27344 6.45529C7.27344 6.27544 7.31465 6.10637 7.39568 5.94807C7.65701 5.43757 8.09445 5.23524 8.64804 5.23524C11.2647 5.23571 13.8818 5.23524 16.4985 5.23571C16.6446 5.23571 16.7912 5.23149 16.9373 5.23805C17.6647 5.27083 18.1883 5.79117 18.1883 6.48948C18.1902 9.885 18.1897 13.2805 18.1883 16.6761C18.1883 17.1908 17.8708 17.6582 17.3832 17.8198C17.1832 17.8858 17.1013 17.979 17.1345 18.1813C17.1411 18.2211 17.1322 18.2633 17.1359 18.304C17.1617 18.6014 17.039 18.8131 16.7706 18.9415C16.6535 18.9415 16.5364 18.9415 16.4193 18.9415C16.1519 18.8127 16.0278 18.6024 16.054 18.305C16.0582 18.2586 16.0545 18.2113 16.0545 18.1645C16.054 17.9017 16.054 17.9013 15.7927 17.9013C13.7811 17.9013 11.7691 17.9013 9.75756 17.9013C9.37773 17.9013 9.39552 17.8727 9.41192 18.252C9.42597 18.564 9.33979 18.8038 9.04379 18.9415ZM9.40864 11.5631C9.40864 12.3532 9.40864 13.1428 9.40864 13.9329C9.40864 14.5882 9.40583 15.2438 9.41051 15.8991C9.41285 16.2213 9.63485 16.4611 9.91773 16.4648C10.1987 16.4686 10.4212 16.2283 10.4348 15.9075C10.4357 15.8841 10.4353 15.8607 10.4353 15.8372C10.4353 12.9991 10.4353 10.1613 10.4357 7.32314C10.4357 7.22853 10.4292 7.13627 10.4006 7.04587C10.3341 6.83652 10.1444 6.69555 9.9271 6.69368C9.7126 6.6918 9.51448 6.83324 9.44611 7.03744C9.41238 7.13861 9.40864 7.24352 9.40864 7.34936C9.40911 8.75441 9.40864 10.1585 9.40864 11.5631ZM16.0554 11.5636C16.0554 10.159 16.0554 8.75488 16.0559 7.3503C16.0559 7.25054 16.0531 7.15172 16.0236 7.05524C15.9561 6.83652 15.7646 6.69274 15.5393 6.69415C15.3178 6.69555 15.1253 6.84449 15.0593 7.06227C15.0298 7.15922 15.0293 7.25804 15.0293 7.3578C15.0293 10.1726 15.0293 12.9869 15.0298 15.8016C15.0298 16.2082 15.2335 16.4686 15.5463 16.4648C15.8606 16.4611 16.0559 16.2054 16.0559 15.7942C16.0554 14.384 16.0554 12.9738 16.0554 11.5636Z" fill="url(#paint0_linear_822_1767)"/>
<path d="M0.195312 9.69597C0.358766 9.20561 0.665534 8.86606 1.18821 8.75693C1.27298 8.73913 1.36244 8.73586 1.44955 8.73539C2.96466 8.73398 4.48023 8.73445 5.99534 8.73445C6.24965 8.73445 6.25059 8.73539 6.25059 9.00094C6.25059 11.4991 6.25059 13.9973 6.25059 16.4955C6.25059 16.9226 6.32178 17.3324 6.52691 17.7141C6.61449 17.8771 6.60232 17.8925 6.40514 17.8925C5.13545 17.8935 3.86576 17.893 2.59653 17.893C2.31693 17.893 2.31693 17.893 2.31646 18.1731C2.31646 18.2138 2.31318 18.255 2.31693 18.2958C2.34269 18.5932 2.21951 18.8044 1.95162 18.9327C1.83453 18.9327 1.71744 18.9327 1.60036 18.9327C1.3348 18.8049 1.21069 18.5965 1.23411 18.2995C1.2416 18.2068 1.23364 18.1131 1.23505 18.0204C1.23645 17.9403 1.2046 17.8846 1.12592 17.863C0.636965 17.7314 0.347526 17.4003 0.195312 16.932C0.195312 14.52 0.195312 12.108 0.195312 9.69597ZM2.31646 13.2952C2.31646 13.8273 2.31646 14.3598 2.31646 14.8918C2.31646 15.2309 2.30991 15.5705 2.3188 15.9095C2.32911 16.2903 2.64852 16.5348 2.97917 16.4275C3.21897 16.3498 3.34214 16.1503 3.34261 15.8313C3.34355 14.2816 3.34308 12.7318 3.34308 11.182C3.34308 11.0242 3.34917 10.8659 3.3398 10.7085C3.32107 10.3985 3.12951 10.1994 2.85178 10.1896C2.53003 10.1784 2.3188 10.4032 2.3174 10.769C2.31506 11.6106 2.31646 12.4531 2.31646 13.2952Z" fill="url(#paint1_linear_822_1767)"/>
<path d="M15.033 3.12943C15.033 3.42168 15.0231 3.71487 15.0367 4.00665C15.0451 4.1893 14.973 4.24223 14.8025 4.2338C14.5866 4.22302 14.3698 4.2249 14.1534 4.23333C14.0021 4.23895 13.9478 4.18368 13.9497 4.03006C13.9567 3.50973 13.9529 2.98893 13.952 2.46859C13.9511 2.13278 13.8438 2.02366 13.5132 2.02319C12.9924 2.02179 12.472 2.02179 11.9512 2.02319C11.6313 2.02413 11.5218 2.13559 11.5208 2.45969C11.5194 2.9805 11.5152 3.50083 11.5232 4.02117C11.5255 4.18275 11.4688 4.23988 11.3105 4.2338C11.0829 4.2249 10.8544 4.22771 10.6263 4.23286C10.4961 4.23567 10.4361 4.19305 10.4375 4.05161C10.4431 3.44322 10.4319 2.83484 10.4431 2.22692C10.4553 1.56421 11.0604 0.95723 11.7227 0.94599C12.3952 0.934281 13.0682 0.935218 13.7403 0.945521C14.4129 0.955825 15.0138 1.56234 15.0301 2.23535C15.0376 2.53369 15.0316 2.83203 15.0316 3.13037C15.032 3.12943 15.0325 3.12943 15.033 3.12943Z" fill="url(#paint2_linear_822_1767)"/>
<path d="M4.0409 7.10307C4.04511 6.90824 4.02451 6.68016 4.0971 6.45722C4.28257 5.88911 4.79166 5.50132 5.40286 5.48118C5.70119 5.47135 6 5.48072 6.29834 5.4779C6.41964 5.47697 6.47912 5.50694 6.41964 5.64183C6.31192 5.88584 6.26789 6.14671 6.25291 6.40945C6.24448 6.5537 6.17844 6.58742 6.05386 6.58461C5.8609 6.5804 5.66747 6.5818 5.47451 6.58508C5.24502 6.58883 5.13074 6.69889 5.12372 6.93025C5.11763 7.13492 5.11669 7.34006 5.12325 7.54473C5.12747 7.66931 5.08531 7.73066 4.95605 7.72972C4.70455 7.72691 4.45258 7.72785 4.20107 7.72926C4.08305 7.72972 4.03387 7.6768 4.03949 7.55737C4.04605 7.41687 4.0409 7.27636 4.0409 7.10307Z" fill="url(#paint3_linear_822_1767)"/>
<defs>
<linearGradient id="paint0_linear_822_1767" x1="7.05674" y1="8.45806" x2="18.6369" y2="15.1508" gradientUnits="userSpaceOnUse">
<stop stop-color="#ffd945"/>
<stop offset="1" stop-color="#ffd945"/>
</linearGradient>
<linearGradient id="paint1_linear_822_1767" x1="0.0685932" y1="11.1329" x2="7.55722" y2="14.5346" gradientUnits="userSpaceOnUse">
<stop stop-color="#ffd945"/>
<stop offset="1" stop-color="#ffd945"/>
</linearGradient>
<linearGradient id="paint2_linear_822_1767" x1="10.3462" y1="1.71293" x2="13.5608" y2="4.9675" gradientUnits="userSpaceOnUse">
<stop stop-color="#ffd945"/>
<stop offset="1" stop-color="#ffd945"/>
</linearGradient>
<linearGradient id="paint3_linear_822_1767" x1="3.99134" y1="6.00647" x2="6.11825" y2="7.65322" gradientUnits="userSpaceOnUse">
<stop stop-color="#ffd945"/>
<stop offset="1" stop-color="#ffd945"/>
</linearGradient>
</defs>
</svg>
