<svg width="22" height="23" viewBox="0 0 22 23" fill="none" xmlns="http://www.w3.org/2000/svg">
<path d="M9.29657 6.19249C9.31912 6.7133 9.17583 7.22538 8.9387 7.71491C8.78449 8.03424 8.62083 8.34847 8.46662 8.66779C8.31314 8.98421 8.31387 9.30353 8.49208 9.60831C9.51988 11.3635 10.9106 12.7572 12.6753 13.7719C12.9633 13.9377 13.2696 13.9239 13.5656 13.7842C13.9439 13.606 14.3105 13.4009 14.6945 13.2394C15.8816 12.739 17.0316 12.8379 18.0921 13.5638C18.9847 14.1741 19.8546 14.8193 20.7107 15.4798C21.7742 16.301 22.1044 17.6998 21.4665 18.8534C20.5704 20.474 19.2436 21.5709 17.3895 21.9434C16.4017 22.1419 15.451 21.9921 14.5505 21.5571C12.6091 20.6181 10.8277 19.4273 9.16491 18.0606C6.55068 15.9119 4.26232 13.4613 2.38202 10.6397C1.80156 9.76906 1.27566 8.86637 0.800677 7.93386C-0.126015 6.11612 0.0878368 4.38566 1.2022 2.73158C1.69609 1.99837 2.3442 1.41573 3.09122 0.944385C4.40707 0.115162 5.90985 0.386478 6.84164 1.63104C7.441 2.43117 8.02873 3.24075 8.61646 4.04961C9.07399 4.6788 9.32058 5.37854 9.29657 6.19249Z" fill="#FFCF17"/>
</svg>
