<svg width="18" height="19" viewBox="0 0 18 19" fill="none" xmlns="http://www.w3.org/2000/svg">
<path d="M9.16485 0.570312C14.0659 0.613165 17.9809 4.49679 17.9737 9.40337C17.9666 14.3034 14.0555 18.2057 9.161 18.2024C4.24893 18.1996 0.344978 14.2764 0.351571 9.37919C0.358163 4.4869 4.26541 0.614264 9.16485 0.570312ZM8.30945 6.72785C8.30945 7.26295 8.29846 7.7986 8.31165 8.33371C8.33472 9.27426 8.73468 10.033 9.54118 10.5104C10.4499 11.0482 11.4151 11.4866 12.3689 11.941C12.8567 12.1734 13.3891 11.8882 13.5308 11.3641C13.638 10.9691 13.449 10.5796 13.0303 10.367C12.2288 9.9599 11.4261 9.55445 10.618 9.16109C10.1988 8.95726 10.012 8.63752 10.0153 8.17603C10.023 7.13275 10.0191 6.08946 10.0169 5.04617C10.0158 4.51931 9.64281 4.1276 9.15716 4.13419C8.67315 4.14078 8.31275 4.52261 8.31 5.03848C8.3067 5.60215 8.3089 6.16528 8.30945 6.72785Z" fill="url(#paint0_linear_77_525)"/>
<defs>
<linearGradient id="paint0_linear_77_525" x1="0.83094" y1="1.0379" x2="16.9045" y2="18.4905" gradientUnits="userSpaceOnUse">
<stop stop-color="#FFCF17"/>
<stop offset="1" stop-color="#FFEDA8"/>
</linearGradient>
</defs>
</svg>
