<svg width="166" height="168" viewBox="0 0 166 168" fill="none" xmlns="http://www.w3.org/2000/svg">
<ellipse cx="59.2955" cy="64.9009" rx="52.0954" ry="38.0739" transform="rotate(12.3752 59.2955 64.9009)" fill="#FFCF17" fill-opacity="0.1"/>
<ellipse cx="59.2941" cy="64.8976" rx="52.0954" ry="38.0739" transform="rotate(-60 59.2941 64.8976)" fill="#FFCF17" fill-opacity="0.1"/>
<g filter="url(#filter0_d_77_286)">
<path d="M48.0811 69.0314C48.1101 64.3484 49.6651 60.236 52.7422 56.7068C53.0041 56.4063 52.9862 56.2464 52.7077 56.0023C52.3837 55.7197 52.0873 55.4054 51.7923 55.0911C51.2615 54.5231 51.2478 53.7401 51.7482 53.2328C52.2486 52.7227 53.0385 52.7227 53.6065 53.2465C53.9346 53.5498 54.2641 53.8586 54.555 54.1978C54.8293 54.5176 55.0416 54.5052 55.367 54.2502C57.4735 52.6014 59.8419 51.4861 62.4419 50.8657C62.8927 50.7582 63.3504 50.6672 63.8095 50.601C64.11 50.5569 64.2258 50.4163 64.2189 50.1226C64.2093 49.6746 64.2286 49.2266 64.2148 48.7785C64.2052 48.4559 64.3168 48.3098 64.6587 48.3125C66.0373 48.3236 67.4145 48.3222 68.7931 48.3125C69.1185 48.3098 69.266 48.4228 69.255 48.7606C69.2398 49.2086 69.2605 49.6567 69.2508 50.1047C69.2453 50.3873 69.3335 50.5486 69.6423 50.5969C72.8048 51.0918 75.6489 52.3298 78.1703 54.2998C78.4488 54.5176 78.6322 54.5024 78.8638 54.246C79.1753 53.9014 79.5103 53.576 79.8494 53.2589C80.4147 52.7296 81.2005 52.7185 81.7078 53.2203C82.2151 53.7222 82.2124 54.5121 81.6871 55.0787C81.3825 55.4068 81.0709 55.7308 80.7359 56.0272C80.4698 56.2629 80.4767 56.4228 80.7152 56.693C82.9858 59.271 84.4967 62.2391 85.0716 65.6332C86.14 71.9361 84.4953 77.4643 80.0466 82.0578C76.0225 86.2129 71.0182 88.0395 65.2694 87.6383C56.7042 87.04 49.5286 80.3208 48.2838 71.8658C48.1487 70.9256 48.0604 69.9854 48.0811 69.0314ZM66.7666 53.7649C58.2552 53.8683 51.5014 60.4786 51.4973 69.0245C51.4918 77.485 58.1338 84.2153 66.6522 84.269C75.1815 84.3228 82.0001 77.5773 81.9739 68.9846C81.9463 60.4966 75.2629 53.911 66.7666 53.7649Z" fill="#FFCF17"/>
<path d="M66.7125 47.145C65.3863 47.145 64.0601 47.1492 62.7353 47.1437C61.8033 47.1395 61.3332 46.6749 61.3264 45.7527C61.3195 44.9779 61.3167 44.2031 61.3277 43.4283C61.3388 42.6039 61.824 42.1159 62.6553 42.1145C65.3753 42.1077 68.0966 42.1077 70.8166 42.1145C71.652 42.1173 72.1345 42.5984 72.1456 43.4256C72.1566 44.2348 72.158 45.0441 72.1442 45.8533C72.1318 46.6474 71.6438 47.1354 70.8442 47.1409C69.4683 47.1533 68.0897 47.145 66.7125 47.145Z" fill="#FFCF17"/>
<path d="M39.9073 65.2704C41.6291 65.2704 43.351 65.2677 45.0715 65.2718C45.9662 65.2746 46.4983 65.7488 46.5038 66.5346C46.5094 67.3287 45.98 67.8208 45.0963 67.8222C41.6016 67.8263 38.1068 67.8263 34.6121 67.8222C33.7298 67.8222 33.1977 67.3232 33.2032 66.5318C33.2101 65.746 33.7408 65.2746 34.6383 65.2718C36.3946 65.2677 38.1509 65.2704 39.9073 65.2704Z" fill="#FFCF17"/>
<path d="M42.7221 62.864C41.4139 62.864 40.1056 62.8668 38.7973 62.8626C37.8709 62.8599 37.3305 62.3787 37.336 61.5736C37.3415 60.7865 37.8709 60.3122 38.7683 60.3109C41.4704 60.3081 44.1738 60.3067 46.8759 60.3136C47.4935 60.315 47.9677 60.6762 48.1166 61.2125C48.2779 61.7942 48.0463 62.387 47.5458 62.6931C47.2991 62.8447 47.0289 62.8626 46.7504 62.8626C45.4076 62.8626 44.0649 62.864 42.7221 62.864Z" fill="#FFCF17"/>
<path d="M41.0686 72.7893C39.7259 72.7893 38.3831 72.7948 37.0404 72.7865C36.205 72.7824 35.6756 72.271 35.6797 71.5003C35.6838 70.7435 36.1967 70.2403 37.0073 70.2389C39.7438 70.232 42.4803 70.2334 45.2182 70.2403C45.8372 70.2417 46.3101 70.6015 46.4603 71.1378C46.623 71.7195 46.3914 72.3109 45.891 72.6197C45.6442 72.7714 45.374 72.7907 45.0955 72.7907C43.7541 72.7879 42.4114 72.7893 41.0686 72.7893Z" fill="#FFCF17"/>
<path d="M43.1418 77.7498C42.2126 77.7498 41.2834 77.7554 40.3542 77.7485C39.5188 77.7416 38.9894 77.2356 38.9922 76.465C38.995 75.693 39.5188 75.2022 40.368 75.1994C42.2264 75.1939 44.0847 75.1939 45.9431 75.1994C46.7978 75.2022 47.3217 75.6861 47.3299 76.4553C47.3382 77.2508 46.8102 77.7443 45.9307 77.7498C45.0001 77.754 44.0709 77.7498 43.1418 77.7498Z" fill="#FFCF17"/>
<path d="M66.7708 62.0011C66.7708 64.102 66.7708 66.2044 66.7708 68.3054C66.7708 68.9933 66.7722 68.9947 67.4422 68.9947C71.6621 68.9947 75.882 68.9947 80.1019 68.9947C80.8366 68.9947 80.8656 68.9988 80.8215 69.7391C80.5595 74.1051 78.6998 77.666 75.2203 80.2895C67.4739 86.1306 56.3887 82.6372 53.3213 73.4379C50.5765 65.209 56.0702 56.273 64.6216 55.0667C65.1482 54.9923 65.679 54.9371 66.2153 54.9261C66.644 54.9178 66.7819 55.064 66.7777 55.49C66.7626 57.6612 66.7708 59.8311 66.7708 62.0011Z" fill="#FFCF17"/>
</g>
<defs>
<filter id="filter0_d_77_286" x="13.2031" y="22.1094" width="152.184" height="145.583" filterUnits="userSpaceOnUse" color-interpolation-filters="sRGB">
<feFlood flood-opacity="0" result="BackgroundImageFix"/>
<feColorMatrix in="SourceAlpha" type="matrix" values="0 0 0 0 0 0 0 0 0 0 0 0 0 0 0 0 0 0 127 0" result="hardAlpha"/>
<feOffset dx="30" dy="30"/>
<feGaussianBlur stdDeviation="25"/>
<feComposite in2="hardAlpha" operator="out"/>
<feColorMatrix type="matrix" values="0 0 0 0 1 0 0 0 0 0.811765 0 0 0 0 0.0901961 0 0 0 0.07 0"/>
<feBlend mode="normal" in2="BackgroundImageFix" result="effect1_dropShadow_77_286"/>
<feBlend mode="normal" in="SourceGraphic" in2="effect1_dropShadow_77_286" result="shape"/>
</filter>
</defs>
</svg>
