<svg width="119" height="129" viewBox="0 0 119 129" fill="none" xmlns="http://www.w3.org/2000/svg">
<ellipse cx="59.4127" cy="64.1641" rx="52.0954" ry="38.0739" transform="rotate(12.3752 59.4127 64.1641)" fill="white" fill-opacity="0.3"/>
<ellipse cx="59.4113" cy="64.1608" rx="52.0954" ry="38.0739" transform="rotate(-60 59.4113 64.1608)" fill="white" fill-opacity="0.3"/>
<path d="M61.8597 61.1268C61.9265 67.8802 56.5196 74.1751 48.7983 74.1686C41.1975 74.162 35.7369 67.9797 35.7579 61.0915C35.7801 53.9019 41.6153 48.0301 48.7878 48.0445C56.4699 48.0589 61.9737 54.3839 61.8597 61.1268ZM44.2729 61.119C44.2729 63.1649 44.2703 65.2095 44.2742 67.2554C44.2756 67.9627 44.5087 68.1893 45.2173 68.2024C45.3313 68.205 45.4465 68.2037 45.5605 68.2037C47.0288 68.2063 46.7865 68.112 46.8127 69.4218C46.8153 69.5672 46.8127 69.7244 46.865 69.8567C47 70.1999 47.2711 70.3859 47.6391 70.3138C48.1028 70.2247 48.2417 69.8842 48.2495 69.4402C48.2705 68.095 48.2914 68.0871 49.5619 68.2037C49.8396 68.2299 49.9811 68.3308 49.9719 68.6255C49.9614 68.9516 49.9562 69.2817 49.9837 69.6065C50.0204 70.0348 50.3334 70.3256 50.7159 70.3256C51.097 70.3256 51.38 70.0309 51.4088 69.5869C51.4245 69.3419 51.4389 69.0931 51.4114 68.8508C51.359 68.3714 51.5345 68.1422 52.0152 67.9666C54.716 66.9804 55.4535 63.5591 53.4075 61.5407C53.0735 61.2107 53.0526 61.0587 53.3997 60.7195C55.2701 58.8988 54.8771 55.6977 52.5522 54.5516C51.6734 54.118 51.2542 53.7028 51.3944 52.7296C51.4533 52.3223 51.1769 52.0564 50.746 52.025C50.3426 51.9962 50.0322 52.2607 49.9876 52.6956C49.9549 53.0034 49.9758 53.3164 49.968 53.6269C49.9641 53.7539 49.9929 53.9281 49.8462 53.9727C49.3838 54.1102 48.8966 54.118 48.446 53.9844C48.0976 53.881 48.2862 53.5037 48.2508 53.247C48.2259 53.0702 48.2548 52.8868 48.2377 52.7074C48.1971 52.2778 47.8985 52.0001 47.4938 52.0237C47.0668 52.0485 46.8428 52.2987 46.8192 52.7179C46.8022 53.0113 46.8022 53.3073 46.81 53.6007C46.8179 53.915 46.6633 54.046 46.3634 54.0447C45.9875 54.0434 45.6102 54.0447 45.2343 54.0499C44.4956 54.0604 44.2756 54.2805 44.2742 55.0284C44.2703 57.0599 44.2716 59.0888 44.2729 61.119Z" fill="black"/>
<path d="M66.0688 87.7824C60.8649 87.7679 56.5622 83.8555 55.982 78.6399C55.7829 76.852 56.0867 75.1584 56.7718 73.5146C56.87 73.2788 57.0128 73.0994 57.2197 72.9514C58.7522 71.8512 60.0266 70.5021 61.0352 68.9067C61.1806 68.6762 61.3653 68.5111 61.6089 68.3933C62.6332 67.8955 63.7111 67.5877 64.835 67.4161C65.1624 67.3664 65.3065 67.5432 65.4532 67.7803C67.025 70.32 69.2818 71.8918 72.1908 72.5414C72.9793 72.7183 73.7809 72.751 74.5812 72.7117C74.9689 72.6921 75.168 72.8348 75.337 73.1741C77.0987 76.6988 76.4765 81.3093 73.8242 84.2839C71.7743 86.5826 69.0944 87.7902 66.0688 87.7824ZM70.3453 80.0571C70.3506 79.8371 70.2563 79.6445 70.1711 79.4494C69.0853 76.962 67.9968 74.476 66.9175 71.9861C66.763 71.6298 66.5639 71.3665 66.1343 71.36C65.7204 71.3534 65.5213 71.6102 65.3746 71.9442C64.2639 74.4917 63.1532 77.0393 62.0398 79.5869C61.8748 79.9628 61.8971 80.3191 62.1263 80.6583C63.2304 82.2995 64.3281 83.9459 65.4466 85.5793C65.8645 86.1896 66.412 86.1818 66.8285 85.5714C67.9431 83.9368 69.0434 82.2916 70.1475 80.6504C70.268 80.471 70.3623 80.2824 70.3453 80.0571Z" fill="black"/>
<path d="M74.4415 48.5289C74.4323 52.55 71.4682 55.8677 67.4602 56.3615C65.6121 56.5894 63.925 56.1546 62.3467 55.2063C62.0848 55.0491 61.9027 54.8421 61.7652 54.5658C61.1168 53.2677 60.2942 52.0902 59.2713 51.0594C59.0303 50.8171 58.8888 50.5473 58.8115 50.2159C57.7427 45.6643 61.0395 41.0407 65.6867 40.5849C70.4361 40.1173 74.4533 43.7625 74.4415 48.5289ZM66.5446 45.6787C66.5454 45.6787 66.546 45.6781 66.546 45.6774V45.6774C66.546 45.6767 66.5465 45.6761 66.5473 45.6761C66.6608 45.6761 66.7756 45.6761 66.8891 45.6761C68.0797 45.6761 68.1203 45.7075 68.4976 46.8562C68.6246 47.2413 68.8827 47.4718 69.3031 47.4247C69.6934 47.3802 69.9554 46.9846 69.9187 46.5524C69.8139 45.3041 68.9757 44.42 67.7038 44.251C67.3803 44.2078 67.2349 44.0755 67.2441 43.7533C67.2519 43.4756 67.2506 43.1966 67.2375 42.919C67.2153 42.4317 66.9481 42.1252 66.5538 42.116C66.1452 42.1056 65.8269 42.4369 65.7994 42.9216C65.7837 43.1993 65.7784 43.4782 65.7967 43.7559C65.819 44.0899 65.6697 44.2091 65.3501 44.2536C63.946 44.4488 63.0566 45.5281 63.1418 46.9034C63.2204 48.187 64.3219 49.1929 65.6815 49.2152C66.2054 49.2231 66.7293 49.2126 67.2519 49.2191C67.9998 49.227 68.4295 49.5937 68.4452 50.2264C68.4609 50.859 68.0378 51.2821 67.3148 51.3161C66.8092 51.3397 66.2997 51.3371 65.7941 51.3174C65.0829 51.2899 64.7777 51.0162 64.614 50.3128C64.4765 49.7169 64.1949 49.4837 63.7233 49.5767C63.2872 49.6618 63.071 50.0679 63.1693 50.618C63.3762 51.7706 64.1595 52.5735 65.3187 52.7333C65.7116 52.787 65.8164 52.9442 65.7981 53.2979C65.7823 53.5913 65.7732 53.8912 65.8177 54.1794C65.878 54.5802 66.119 54.8303 66.5525 54.8225C66.9913 54.8146 67.2061 54.5605 67.231 54.1414C67.2506 53.8152 67.2441 53.4878 67.2519 53.1603C67.2585 52.9141 67.3607 52.7792 67.6331 52.753C69.0084 52.622 69.9934 51.5178 69.9305 50.1596C69.8676 48.7895 68.7595 47.6775 67.2323 47.7666C66.6638 47.7993 66.0862 47.8255 65.5178 47.7259C64.9257 47.6212 64.5603 47.1824 64.6009 46.6414C64.6415 46.1083 65.075 45.7102 65.6618 45.6853C65.9561 45.6683 66.2504 45.6787 66.5446 45.6787Z" fill="black"/>
<path d="M83.0459 62.386C83.0748 66.9416 79.5894 70.7858 75.1138 71.1683C70.4351 71.5678 66.2987 68.3732 65.5535 63.7731C65.2417 61.853 65.5652 60.031 66.4428 58.2994C66.5908 58.006 66.7794 57.8777 67.1213 57.8502C70.0422 57.6079 72.3985 56.3282 74.1196 53.9404C74.358 53.609 74.616 53.5226 74.9906 53.5606C79.2462 53.9902 82.4867 57.1193 83.0394 61.3578C83.0839 61.6945 83.0459 62.0416 83.0459 62.386ZM68.8083 64.7817C68.8267 65.5636 69.4043 66.5211 70.5478 67.0738C71.7174 67.641 72.8504 67.4707 73.8459 66.6442C74.1654 66.3783 74.3344 66.3796 74.654 66.6442C76.1878 67.9095 78.3765 67.493 79.3222 65.7876C80.2364 64.1386 79.5082 62.1018 77.7268 61.3984C77.3496 61.2491 77.1662 61.1181 77.2841 60.665C77.3889 60.2602 77.3627 59.8214 77.254 59.401C76.8375 57.803 75.2657 56.7761 73.7162 57.0918C71.9859 57.4441 70.9224 58.9281 71.2184 60.6663C71.2957 61.1208 71.1529 61.2531 70.7744 61.3984C69.5209 61.8805 68.8057 62.9597 68.8083 64.7817Z" fill="black"/>
<path d="M48.5389 55.5008C49.275 55.5008 50.0124 55.4903 50.7485 55.5034C52.078 55.527 53.1166 56.6115 53.1114 57.9554C53.1062 59.2757 52.074 60.3589 50.7695 60.3733C49.2475 60.3903 47.7242 60.3694 46.2022 60.3838C45.8315 60.3877 45.711 60.2358 45.7123 59.89C45.7188 58.5972 45.7215 57.3031 45.711 56.0103C45.7084 55.6384 45.8406 55.4825 46.2297 55.4943C46.9998 55.5152 47.77 55.5008 48.5389 55.5008Z" fill="black"/>
<path d="M48.5559 61.8788C48.5559 61.8802 48.557 61.8809 48.5585 61.8809C49.2937 61.8809 50.0303 61.8678 50.7655 61.8835C52.0832 61.9124 53.1035 62.9707 53.1101 64.2949C53.1179 65.5995 52.0884 66.722 50.7943 66.7482C49.2566 66.7796 47.7176 66.7508 46.1799 66.7626C45.8367 66.7652 45.7123 66.6198 45.7136 66.295C45.7188 64.9852 45.7214 63.6767 45.711 62.3669C45.7083 61.9792 45.876 61.86 46.248 61.8691C47.016 61.8901 47.784 61.8757 48.5533 61.8757C48.5547 61.8757 48.5559 61.8773 48.5559 61.8788V61.8788Z" fill="black"/>
<path d="M68.4417 79.7066C66.9665 80.2582 65.3232 80.2716 63.8482 79.7197V79.7197C63.5613 79.6123 63.7316 79.387 63.8036 79.222C64.3197 78.0209 64.8436 76.8224 65.3636 75.6227C65.5522 75.1878 65.7382 74.7516 65.9321 74.3194C65.9753 74.2225 65.9936 74.0784 66.1416 74.0836C66.2595 74.0889 66.2805 74.2107 66.3185 74.2958C67.0454 75.958 67.7724 77.6201 68.4941 79.2849C68.5556 79.4277 68.6643 79.6241 68.4417 79.7066V79.7066Z" fill="black"/>
<path d="M64.6264 81.6301C64.6608 81.5739 64.7337 81.5554 64.7919 81.5864C65.4516 81.9378 66.1116 82.0389 66.7907 81.861C67.1704 81.7616 67.4631 81.9927 67.2527 82.3241V82.3241C66.9645 82.7786 66.6581 83.2213 66.3529 83.6653C66.2599 83.8002 66.1368 83.9679 65.9796 83.7426C65.5229 83.0867 65.0785 82.4222 64.6297 81.7611C64.603 81.7218 64.6017 81.6706 64.6264 81.6301V81.6301Z" fill="black"/>
<path d="M74.2627 58.5444C75.1547 58.5497 75.8869 59.2779 75.8882 60.1621C75.8895 61.0527 75.1089 61.8386 74.2339 61.8281C73.3511 61.8164 72.5901 61.0226 72.6097 60.1332C72.6281 59.2465 73.3629 58.5405 74.2627 58.5444Z" fill="black"/>
<path d="M76.6256 62.6499C77.5084 62.6473 78.2459 63.3795 78.2537 64.2649C78.2616 65.1647 77.5019 65.9375 76.6125 65.9349C75.752 65.9323 74.9805 65.1621 74.9766 64.3016C74.9714 63.3939 75.7127 62.6525 76.6256 62.6499Z" fill="black"/>
<path d="M71.8559 65.8812C70.9613 65.872 70.2396 65.1424 70.2501 64.2557C70.2606 63.3702 70.9902 62.6577 71.89 62.6577C72.7767 62.6577 73.5325 63.3991 73.5259 64.2622C73.5168 65.1778 72.7833 65.8903 71.8559 65.8812Z" fill="black"/>
</svg>
