<svg width="119" height="129" viewBox="0 0 119 129" fill="none" xmlns="http://www.w3.org/2000/svg">
<ellipse cx="59.4127" cy="64.6758" rx="52.0954" ry="38.0739" transform="rotate(12.3752 59.4127 64.6758)" fill="white" fill-opacity="0.3"/>
<ellipse cx="59.4113" cy="64.6725" rx="52.0954" ry="38.0739" transform="rotate(-60 59.4113 64.6725)" fill="white" fill-opacity="0.3"/>
<path d="M58.4237 40.5449C58.8231 40.3509 59.2732 40.3062 59.7171 40.3062C60.1471 40.3062 60.5832 40.3474 60.9702 40.5347C61.465 40.7742 61.8963 41.1162 62.3047 41.5008C64.0591 43.1518 66.0543 44.4292 68.295 45.3182C70.516 46.1996 72.8358 46.6192 75.2092 46.7669C77.4367 46.9052 79.2702 48.335 79.9437 50.4553C80.2052 51.2785 80.2109 52.1279 80.2156 52.968C80.2334 55.6941 80.304 58.4202 80.1648 61.1473C80.0208 63.9713 79.6916 66.7642 79.0068 69.5082C77.909 73.9135 75.8968 77.8287 72.7144 81.1052C69.3599 84.5575 65.2613 86.7851 60.7638 88.3495C59.984 88.6204 59.1891 88.5564 58.4111 88.278C56.3406 87.5377 54.337 86.6515 52.432 85.549C46.9468 82.3742 43.1144 77.8334 41.0675 71.8101C39.7834 68.0332 39.3159 64.119 39.1945 60.1634C39.1099 57.408 39.1522 54.648 39.2378 51.889C39.3225 49.1525 41.4579 46.9004 44.2978 46.7584C45.644 46.6916 46.9788 46.5016 48.293 46.1959C51.6974 45.4038 54.6765 43.815 57.2136 41.4068C57.581 41.0576 57.9781 40.7613 58.4237 40.5449ZM71.6317 64.3871C71.6307 57.7824 66.3092 52.4619 59.7055 52.4628C53.0999 52.4637 47.7812 57.7834 47.7822 64.389C47.7831 70.9955 53.1018 76.3133 59.7083 76.3123C66.3139 76.3123 71.6317 70.9936 71.6317 64.3871Z" fill="black"/>
<path d="M59.6979 73.631C54.6436 73.6225 50.4688 69.442 50.4688 64.3905C50.4688 59.3192 54.6803 55.1246 59.745 55.15C64.805 55.1764 68.9676 59.3643 68.9497 64.414C68.9318 69.4721 64.7485 73.6394 59.6979 73.631ZM65.5077 61.7707C65.5002 61.0567 65.0825 60.5214 64.5124 60.3709C63.9113 60.2119 63.4494 60.449 63.0355 60.8638C61.3874 62.5185 59.7346 64.1676 58.0837 65.8185C57.588 66.3142 57.587 66.3133 57.1063 65.8345C56.7733 65.5024 56.4431 65.1685 56.1064 64.8401C55.89 64.6294 55.6482 64.4629 55.3378 64.4178C54.7151 64.3275 54.177 64.5702 53.8967 65.0753C53.6022 65.6068 53.6568 66.1901 54.1215 66.6773C54.8994 67.4939 55.7009 68.2887 56.5071 69.078C57.2004 69.7572 57.9661 69.7694 58.6603 69.0799C60.8061 66.9483 62.9358 64.8006 65.0703 62.6577C65.3459 62.3802 65.5049 62.0482 65.5077 61.7707Z" fill="black"/>
</svg>
