<svg width="18" height="15" viewBox="0 0 18 15" fill="none" xmlns="http://www.w3.org/2000/svg">
<path d="M17.6439 8.68304C17.6439 9.79277 17.6439 10.9025 17.6439 12.0123C17.6439 13.5026 16.6852 14.4678 15.2008 14.5695C13.3992 14.6929 11.5966 14.7709 9.79178 14.8012C8.45198 14.824 7.11379 14.7666 5.77561 14.7119C4.7422 14.6697 3.70987 14.6112 2.677 14.5549C1.35235 14.4824 0.376865 13.4484 0.375782 12.1178C0.374699 9.8036 0.375241 7.48939 0.375241 5.17572C0.375241 5.14865 0.374699 5.12159 0.375241 5.09452C0.380113 4.88177 0.402849 4.86553 0.59773 4.96568C1.38592 5.3706 2.1741 5.77552 2.95958 6.18585C4.56572 7.02601 6.16591 7.87861 7.77747 8.70902C8.60301 9.13451 9.45128 9.11881 10.273 8.69386C11.9073 7.84884 13.5324 6.98595 15.1629 6.13334C15.9121 5.74142 16.6646 5.35544 17.4165 4.96839C17.62 4.86391 17.6428 4.87853 17.6433 5.11022C17.6444 6.30116 17.6439 7.4921 17.6439 8.68304Z" fill="url(#paint0_linear_77_520)"/>
<path d="M8.68731 0.892123C10.1289 0.878049 11.5672 0.966286 13.0061 1.02475C13.7488 1.05452 14.491 1.10433 15.2337 1.13897C16.3207 1.1904 17.2437 1.87844 17.4981 2.8339C17.5961 3.20255 17.4851 3.4494 17.1446 3.61559C14.6014 4.85308 12.1297 6.22807 9.62166 7.53378C9.15665 7.77575 8.72141 7.79633 8.25208 7.5511C5.70942 6.2232 3.16189 4.90505 0.616529 3.58311C0.271156 3.40392 0.227849 3.30323 0.329079 2.93675C0.607867 1.92283 1.47725 1.22721 2.56805 1.14006C4.60455 0.976572 6.64485 0.904033 8.68731 0.892123Z" fill="url(#paint1_linear_77_520)"/>
<defs>
<linearGradient id="paint0_linear_77_520" x1="0.84477" y1="5.16879" x2="8.32028" y2="19.3353" gradientUnits="userSpaceOnUse">
<stop stop-color="#FFCF17"/>
<stop offset="1" stop-color="#FFEDA8"/>
</linearGradient>
<linearGradient id="paint1_linear_77_520" x1="0.750531" y1="1.07188" x2="4.77515" y2="12.1077" gradientUnits="userSpaceOnUse">
<stop stop-color="#FFCF17"/>
<stop offset="1" stop-color="#FFEDA8"/>
</linearGradient>
</defs>
</svg>
