<svg width="119" height="129" viewBox="0 0 119 129" fill="none" xmlns="http://www.w3.org/2000/svg">
<ellipse cx="59.4127" cy="64.1601" rx="52.0954" ry="38.0739" transform="rotate(12.3752 59.4127 64.1601)" fill="white" fill-opacity="0.3"/>
<ellipse cx="59.4113" cy="64.1569" rx="52.0954" ry="38.0739" transform="rotate(-60 59.4113 64.1569)" fill="white" fill-opacity="0.3"/>
<path d="M59.4082 85.2879C53.9006 85.2879 48.3943 85.2916 42.8867 85.2853C40.6696 85.2841 38.8254 83.7613 38.4099 81.5906C38.3283 81.1625 38.3019 80.7181 38.3019 80.2799C38.2956 71.0387 38.2981 61.7975 38.2969 52.5562C38.2969 50.4597 39.1066 48.8464 41.0701 47.9325C41.6012 47.6852 42.1649 47.5596 42.7562 47.5609C44.6079 47.5634 46.4597 47.5508 48.3102 47.5684C48.7032 47.5722 48.8299 47.4454 48.8187 47.0562C48.7948 46.2414 48.8061 45.4241 48.8136 44.6093C48.8224 43.664 49.4652 43.0162 50.3691 43.025C51.2441 43.0338 51.8781 43.6828 51.8869 44.6006C51.8957 45.4317 51.9007 46.264 51.8844 47.0951C51.8769 47.4328 51.9761 47.5671 52.3364 47.5659C56.5408 47.5558 60.7465 47.5571 64.951 47.5646C65.2774 47.5646 65.3941 47.4554 65.3878 47.1277C65.3715 46.2966 65.3778 45.4643 65.3841 44.6332C65.3916 43.6791 66.0168 43.0288 66.9157 43.025C67.8146 43.0225 68.4511 43.6753 68.4599 44.6219C68.4674 45.3588 68.4611 46.097 68.4624 46.834C68.4624 47.5584 68.4624 47.5596 69.1654 47.5596C71.4089 47.5596 73.6524 47.5558 75.8971 47.5609C78.5423 47.5671 80.512 49.5269 80.5133 52.1683C80.5171 61.6769 80.5171 71.1843 80.5133 80.693C80.512 83.308 78.541 85.2841 75.931 85.2866C70.4221 85.2929 64.9158 85.2879 59.4082 85.2879ZM60.4377 73.8383C60.4 74.918 60.9047 75.552 61.6693 75.6261C62.5192 75.7077 63.1733 75.1867 63.3076 74.2991C63.7244 71.5585 64.1399 68.8166 64.5467 66.0747C64.5969 65.737 64.7313 65.506 65.0388 65.3365C65.7933 64.9197 66.5403 64.4866 67.276 64.0372C67.8736 63.6718 68.1347 63.0265 67.9703 62.429C67.7129 61.4949 66.7086 61.0605 65.8298 61.5338C65.0702 61.9418 64.327 62.3825 63.5888 62.8282C63.3063 62.9989 63.059 63.0215 62.7514 62.8947C61.8387 62.5181 60.9135 62.1691 59.9945 61.81C58.3298 61.1597 56.6613 60.5194 55.0004 59.8566C54.443 59.6344 53.9308 59.6444 53.4462 60.0047C52.9854 60.3474 52.8323 60.8245 52.9101 61.3769C52.9917 61.9619 53.3445 62.3323 53.8818 62.5419C55.721 63.2613 57.5627 63.9782 59.4007 64.7013C59.5375 64.7553 59.7547 64.7565 59.7597 64.9473C59.7635 65.0967 59.5702 65.1382 59.4522 65.206C58.0147 66.0408 56.5684 66.8619 55.1398 67.7093C54.8196 67.8989 54.5497 67.9039 54.2158 67.7683C53.1562 67.3377 52.0878 66.9259 51.0182 66.5166C50.113 66.1701 49.2756 66.4865 48.9819 67.2724C48.673 68.0947 49.0547 68.8555 49.9611 69.2146C50.9089 69.5899 51.8555 69.9653 52.8084 70.3256C53.1085 70.4386 53.2089 70.593 53.1499 70.9282C52.9653 71.9765 52.8159 73.0323 52.6615 74.0856C52.5435 74.8828 53.057 75.5922 53.8454 75.7416C54.6012 75.8847 55.323 75.4038 55.5051 74.6355C55.5377 74.4987 55.5666 74.3593 55.5879 74.22C55.7537 73.1202 55.9169 72.0205 56.0813 70.9207C56.1165 70.6847 56.1667 70.4625 56.4015 70.3269C57.9381 69.4443 59.4722 68.5567 61.0076 67.6729C61.0993 67.6202 61.211 67.5386 61.3102 67.6227C61.4056 67.703 61.3479 67.8273 61.3315 67.934C61.2412 68.5379 61.1533 69.143 61.0616 69.7469C60.8419 71.1868 60.6222 72.6268 60.4377 73.8383ZM48.8789 52.2461C48.8802 52.2461 48.8827 52.2461 48.8839 52.2461C48.8839 52.6529 48.8576 53.0622 48.889 53.4664C48.9542 54.3138 49.5606 54.8989 50.339 54.9051C51.1173 54.9114 51.7564 54.3339 51.8053 53.4865C51.8543 52.6441 51.8179 51.7967 51.8229 50.953C51.8242 50.7371 51.7275 50.6392 51.5116 50.6404C50.7445 50.643 49.9787 50.6442 49.2116 50.6392C48.9706 50.6379 48.8739 50.7446 48.8777 50.9794C48.8827 51.4012 48.8789 51.8243 48.8789 52.2461ZM68.3933 52.2298H68.3946C68.3946 51.8381 68.3833 51.4464 68.3984 51.056C68.4097 50.7622 68.3143 50.6279 67.9979 50.6342C67.2785 50.6492 66.5579 50.6455 65.8385 50.6354C65.5623 50.6317 65.4406 50.7258 65.4443 51.0146C65.4556 51.7967 65.4318 52.5801 65.4544 53.361C65.4795 54.2611 66.0871 54.8913 66.8994 54.9039C67.728 54.9164 68.3519 54.2749 68.3896 53.3547C68.4072 52.9818 68.3933 52.6064 68.3933 52.2298Z" fill="black"/>
</svg>
