<svg width="119" height="129" viewBox="0 0 119 129" fill="none" xmlns="http://www.w3.org/2000/svg">
<ellipse cx="59.4127" cy="64.6758" rx="52.0954" ry="38.0739" transform="rotate(12.3752 59.4127 64.6758)" fill="white" fill-opacity="0.3"/>
<ellipse cx="59.4113" cy="64.6725" rx="52.0954" ry="38.0739" transform="rotate(-60 59.4113 64.6725)" fill="white" fill-opacity="0.3"/>
<path d="M59.4082 85.8035C53.9006 85.8035 48.3943 85.8073 42.8867 85.801C40.6696 85.7997 38.8254 84.2769 38.4099 82.1062C38.3283 81.6781 38.3019 81.2337 38.3019 80.7956C38.2956 71.5543 38.2981 62.3131 38.2969 53.0719C38.2969 50.9753 39.1066 49.3621 41.0701 48.4481C41.6012 48.2008 42.1649 48.0752 42.7562 48.0765C44.6079 48.079 46.4597 48.0664 48.3102 48.084C48.7032 48.0878 48.8299 47.961 48.8187 47.5718C48.7948 46.757 48.8061 45.9397 48.8136 45.125C48.8224 44.1796 49.4652 43.5318 50.3691 43.5406C51.2441 43.5494 51.8781 44.1985 51.8869 45.1162C51.8957 45.9473 51.9007 46.7796 51.8844 47.6107C51.8769 47.9484 51.9761 48.0828 52.3364 48.0815C56.5408 48.0715 60.7465 48.0727 64.951 48.0803C65.2774 48.0803 65.3941 47.971 65.3878 47.6434C65.3715 46.8123 65.3778 45.9799 65.3841 45.1488C65.3916 44.1947 66.0168 43.5444 66.9157 43.5406C67.8146 43.5381 68.4511 44.1909 68.4599 45.1375C68.4674 45.8745 68.4611 46.6127 68.4624 47.3496C68.4624 48.074 68.4624 48.0752 69.1654 48.0752C71.4089 48.0752 73.6524 48.0715 75.8971 48.0765C78.5423 48.0828 80.512 50.0425 80.5133 52.6839C80.5171 62.1926 80.5171 71.7 80.5133 81.2086C80.512 83.8237 78.541 85.7997 75.931 85.8022C70.4221 85.8085 64.9158 85.8035 59.4082 85.8035ZM60.4377 74.3539C60.4 75.4336 60.9047 76.0676 61.6693 76.1417C62.5192 76.2233 63.1733 75.7023 63.3076 74.8147C63.7244 72.0741 64.1399 69.3322 64.5467 66.5904C64.5969 66.2526 64.7313 66.0216 65.0388 65.8522C65.7933 65.4354 66.5403 65.0022 67.276 64.5528C67.8736 64.1875 68.1347 63.5422 67.9703 62.9446C67.7129 62.0105 66.7086 61.5762 65.8298 62.0495C65.0702 62.4575 64.327 62.8981 63.5888 63.3438C63.3063 63.5145 63.059 63.5371 62.7514 63.4103C61.8387 63.0337 60.9135 62.6847 59.9945 62.3256C58.3298 61.6753 56.6613 61.0351 55.0004 60.3722C54.443 60.15 53.9308 60.16 53.4462 60.5203C52.9854 60.8631 52.8323 61.3401 52.9101 61.8925C52.9917 62.4776 53.3445 62.8479 53.8818 63.0576C55.721 63.7769 57.5627 64.4938 59.4007 65.2169C59.5375 65.2709 59.7547 65.2721 59.7597 65.463C59.7635 65.6124 59.5702 65.6538 59.4522 65.7216C58.0147 66.5565 56.5684 67.3775 55.1398 68.2249C54.8196 68.4145 54.5497 68.4195 54.2158 68.2839C53.1562 67.8533 52.0878 67.4415 51.0182 67.0323C50.113 66.6858 49.2756 67.0021 48.9819 67.788C48.673 68.6103 49.0547 69.3711 49.9611 69.7302C50.9089 70.1056 51.8555 70.4809 52.8084 70.8412C53.1085 70.9542 53.2089 71.1087 53.1499 71.4439C52.9653 72.4921 52.8159 73.548 52.6615 74.6013C52.5435 75.3985 53.057 76.1078 53.8454 76.2572C54.6012 76.4003 55.323 75.9195 55.5051 75.1511C55.5377 75.0143 55.5666 74.8749 55.5879 74.7356C55.7537 73.6358 55.9169 72.5361 56.0813 71.4363C56.1165 71.2003 56.1667 70.9781 56.4015 70.8425C57.9381 69.9599 59.4722 69.0723 61.0076 68.1885C61.0993 68.1358 61.211 68.0542 61.3102 68.1383C61.4056 68.2186 61.3479 68.3429 61.3315 68.4496C61.2412 69.0535 61.1533 69.6586 61.0616 70.2625C60.8419 71.7025 60.6222 73.1425 60.4377 74.3539ZM48.8789 52.7618C48.8802 52.7618 48.8827 52.7618 48.8839 52.7618C48.8839 53.1685 48.8576 53.5778 48.889 53.982C48.9542 54.8295 49.5606 55.4145 50.339 55.4208C51.1173 55.427 51.7564 54.8495 51.8053 54.0021C51.8543 53.1597 51.8179 52.3123 51.8229 51.4687C51.8242 51.2527 51.7275 51.1548 51.5116 51.1561C50.7445 51.1586 49.9787 51.1598 49.2116 51.1548C48.9706 51.1536 48.8739 51.2603 48.8777 51.495C48.8827 51.9169 48.8789 52.3399 48.8789 52.7618ZM68.3933 52.7454H68.3946C68.3946 52.3537 68.3833 51.9621 68.3984 51.5716C68.4097 51.2778 68.3143 51.1435 67.9979 51.1498C67.2785 51.1649 66.5579 51.1611 65.8385 51.151C65.5623 51.1473 65.4406 51.2414 65.4443 51.5302C65.4556 52.3123 65.4318 53.0957 65.4544 53.8766C65.4795 54.7767 66.0871 55.407 66.8994 55.4195C67.728 55.4321 68.3519 54.7905 68.3896 53.8703C68.4072 53.4974 68.3933 53.1221 68.3933 52.7454Z" fill="white"/>
</svg>
