<svg width="314" height="71" viewBox="0 0 314 71" fill="none" xmlns="http://www.w3.org/2000/svg">
<path d="M90.2617 42.4727H87.7617V28.4688H90.7305L97.8008 38.7715L97.7812 28.4688H100.281V42.4727H97.3223L90.2422 32.1699L90.2617 42.4727ZM113.182 37.3164C113.182 38.0521 113.032 38.7552 112.732 39.4258C112.433 40.0964 112.029 40.6758 111.521 41.1641C111.014 41.6523 110.408 42.0397 109.705 42.3262C109.008 42.6126 108.273 42.7559 107.498 42.7559C106.476 42.7559 105.529 42.515 104.656 42.0332C103.784 41.5449 103.09 40.8841 102.576 40.0508C102.068 39.2109 101.814 38.2995 101.814 37.3164C101.814 36.3333 102.068 35.4251 102.576 34.5918C103.09 33.752 103.784 33.0911 104.656 32.6094C105.529 32.1211 106.476 31.877 107.498 31.877C108.527 31.877 109.477 32.1178 110.35 32.5996C111.222 33.0814 111.912 33.7422 112.42 34.582C112.928 35.4154 113.182 36.3268 113.182 37.3164ZM109.676 39.5332C110.275 38.9277 110.574 38.1888 110.574 37.3164C110.574 36.444 110.275 35.7051 109.676 35.0996C109.083 34.4941 108.357 34.1914 107.498 34.1914C106.645 34.1914 105.919 34.4974 105.32 35.1094C104.721 35.7148 104.422 36.4505 104.422 37.3164C104.422 38.1823 104.721 38.918 105.32 39.5234C105.919 40.1289 106.645 40.4316 107.498 40.4316C108.357 40.4316 109.083 40.1322 109.676 39.5332ZM118.426 35.4512C118.426 34.1296 118.745 32.9186 119.383 31.8184C120.021 30.7116 120.91 29.8359 122.049 29.1914C123.195 28.5404 124.474 28.2148 125.887 28.2148C127.111 28.2148 128.24 28.485 129.275 29.0254C130.311 29.5658 131.186 30.3014 131.902 31.2324L129.803 32.7754C129.354 32.1309 128.781 31.6198 128.084 31.2422C127.394 30.8646 126.674 30.6758 125.926 30.6758C124.578 30.6758 123.445 31.1217 122.527 32.0137C121.616 32.9056 121.16 34.0514 121.16 35.4512C121.16 36.3887 121.375 37.2285 121.805 37.9707C122.234 38.7064 122.811 39.2728 123.533 39.6699C124.256 40.0605 125.053 40.2559 125.926 40.2559C126.733 40.2559 127.482 40.0736 128.172 39.709C128.868 39.3379 129.432 38.8268 129.861 38.1758L131.961 39.709C131.277 40.64 130.415 41.3789 129.373 41.9258C128.338 42.4661 127.195 42.7363 125.945 42.7363C124.865 42.7363 123.855 42.5475 122.918 42.1699C121.98 41.7923 121.183 41.2812 120.525 40.6367C119.874 39.9857 119.36 39.2142 118.982 38.3223C118.611 37.4238 118.426 36.4668 118.426 35.4512ZM132.811 39.5723C132.811 38.6543 133.11 37.9316 133.709 37.4043C134.308 36.877 135.161 36.5742 136.268 36.4961L139.314 36.2715V35.8711C139.314 35.3568 139.148 34.9564 138.816 34.6699C138.484 34.377 138.016 34.2305 137.41 34.2305C136.499 34.2305 135.587 34.5365 134.676 35.1484L133.572 33.293C134.829 32.375 136.215 31.916 137.732 31.916C138.976 31.916 139.972 32.248 140.721 32.9121C141.476 33.5697 141.854 34.4486 141.854 35.5488V39.6113C141.854 40.015 142.046 40.2168 142.43 40.2168H142.967V42.4727H141.756C141.261 42.4727 140.828 42.3652 140.457 42.1504C140.086 41.9355 139.809 41.6361 139.627 41.252C139.256 41.7207 138.794 42.0853 138.24 42.3457C137.687 42.6061 137.072 42.7363 136.395 42.7363C135.366 42.7363 134.51 42.4368 133.826 41.8379C133.149 41.2389 132.811 40.4837 132.811 39.5723ZM135.311 39.5527C135.311 39.9108 135.464 40.1973 135.77 40.4121C136.076 40.627 136.476 40.7344 136.971 40.7344C137.622 40.7344 138.175 40.5521 138.631 40.1875C139.087 39.8164 139.314 39.3704 139.314 38.8496V38.1953L136.629 38.4297C135.75 38.5078 135.311 38.8822 135.311 39.5527ZM153.709 35.8906V42.4727H151.092V36.4082C151.092 35.7376 150.893 35.2005 150.496 34.7969C150.105 34.3932 149.591 34.1914 148.953 34.1914C148.315 34.1914 147.794 34.3932 147.391 34.7969C146.987 35.194 146.785 35.7311 146.785 36.4082V42.4727H144.168V32.1309H146.785V33.0098C147.534 32.2415 148.481 31.8574 149.627 31.8574C150.825 31.8574 151.805 32.2448 152.566 33.0195C153.328 33.7878 153.709 34.7448 153.709 35.8906ZM158.66 35.0898C158.061 35.6953 157.762 36.431 157.762 37.2969C157.762 38.1628 158.061 38.9017 158.66 39.5137C159.259 40.1257 159.985 40.4316 160.838 40.4316C161.925 40.4316 162.791 39.9857 163.436 39.0938L165.301 40.4512C164.142 41.9746 162.654 42.7363 160.838 42.7363C159.79 42.7363 158.829 42.4922 157.957 42.0039C157.085 41.5156 156.398 40.8581 155.896 40.0312C155.402 39.1979 155.154 38.2865 155.154 37.2969C155.154 36.3138 155.402 35.4089 155.896 34.582C156.398 33.7487 157.085 33.0911 157.957 32.6094C158.829 32.1211 159.79 31.877 160.838 31.877C162.654 31.877 164.142 32.6354 165.301 34.1523L163.436 35.5098C162.791 34.6178 161.925 34.1719 160.838 34.1719C159.985 34.1719 159.259 34.4779 158.66 35.0898ZM165.604 37.2969C165.604 36.3464 165.835 35.4577 166.297 34.6309C166.759 33.804 167.404 33.1432 168.23 32.6484C169.057 32.1471 169.969 31.8965 170.965 31.8965C172.514 31.8965 173.784 32.4141 174.773 33.4492C175.77 34.4844 176.268 35.806 176.268 37.4141V38.1758H168.289C168.465 38.8594 168.816 39.416 169.344 39.8457C169.871 40.2754 170.486 40.4902 171.189 40.4902C171.756 40.4902 172.257 40.3861 172.693 40.1777C173.13 39.9629 173.533 39.6146 173.904 39.1328L175.73 40.4902C175.203 41.2064 174.555 41.7598 173.787 42.1504C173.019 42.541 172.16 42.7363 171.209 42.7363C170.167 42.7363 169.217 42.5052 168.357 42.043C167.505 41.5807 166.831 40.9329 166.336 40.0996C165.848 39.2663 165.604 38.332 165.604 37.2969ZM170.906 34.1328C170.294 34.1328 169.757 34.3151 169.295 34.6797C168.833 35.0443 168.51 35.5423 168.328 36.1738H173.631C173.442 35.5423 173.1 35.0443 172.605 34.6797C172.111 34.3151 171.544 34.1328 170.906 34.1328ZM180.34 42.4727H177.723V28.4688H180.34V42.4727ZM184.754 42.4727H182.137V28.4688H184.754V42.4727ZM186.092 39.5723C186.092 38.6543 186.391 37.9316 186.99 37.4043C187.589 36.877 188.442 36.5742 189.549 36.4961L192.596 36.2715V35.8711C192.596 35.3568 192.43 34.9564 192.098 34.6699C191.766 34.377 191.297 34.2305 190.691 34.2305C189.78 34.2305 188.868 34.5365 187.957 35.1484L186.854 33.293C188.11 32.375 189.497 31.916 191.014 31.916C192.257 31.916 193.253 32.248 194.002 32.9121C194.757 33.5697 195.135 34.4486 195.135 35.5488V39.6113C195.135 40.015 195.327 40.2168 195.711 40.2168H196.248V42.4727H195.037C194.542 42.4727 194.109 42.3652 193.738 42.1504C193.367 41.9355 193.09 41.6361 192.908 41.252C192.537 41.7207 192.075 42.0853 191.521 42.3457C190.968 42.6061 190.353 42.7363 189.676 42.7363C188.647 42.7363 187.791 42.4368 187.107 41.8379C186.43 41.2389 186.092 40.4837 186.092 39.5723ZM188.592 39.5527C188.592 39.9108 188.745 40.1973 189.051 40.4121C189.357 40.627 189.757 40.7344 190.252 40.7344C190.903 40.7344 191.456 40.5521 191.912 40.1875C192.368 39.8164 192.596 39.3704 192.596 38.8496V38.1953L189.91 38.4297C189.031 38.5078 188.592 38.8822 188.592 39.5527ZM201.102 42.4727C200.19 42.4727 199.487 42.235 198.992 41.7598C198.504 41.278 198.26 40.6497 198.26 39.875V34.3965H196.238V32.1309H198.26V29.1328H200.867V32.1309H203.143V34.3965H200.867V39.416C200.867 39.6764 200.952 39.875 201.121 40.0117C201.297 40.1484 201.538 40.2168 201.844 40.2168H203.143V42.4727H201.102ZM206.609 30.6172C206.336 30.8971 205.994 31.0371 205.584 31.0371C205.174 31.0371 204.826 30.8971 204.539 30.6172C204.253 30.3307 204.109 29.9824 204.109 29.5723C204.109 29.1621 204.253 28.8203 204.539 28.5469C204.826 28.2734 205.174 28.1367 205.584 28.1367C205.994 28.1367 206.336 28.2734 206.609 28.5469C206.889 28.8203 207.029 29.1621 207.029 29.5723C207.029 29.9824 206.889 30.3307 206.609 30.6172ZM206.883 32.1309V42.4727H204.266V32.1309H206.883ZM219.686 37.3164C219.686 38.0521 219.536 38.7552 219.236 39.4258C218.937 40.0964 218.533 40.6758 218.025 41.1641C217.518 41.6523 216.912 42.0397 216.209 42.3262C215.512 42.6126 214.777 42.7559 214.002 42.7559C212.98 42.7559 212.033 42.515 211.16 42.0332C210.288 41.5449 209.594 40.8841 209.08 40.0508C208.572 39.2109 208.318 38.2995 208.318 37.3164C208.318 36.3333 208.572 35.4251 209.08 34.5918C209.594 33.752 210.288 33.0911 211.16 32.6094C212.033 32.1211 212.98 31.877 214.002 31.877C215.031 31.877 215.981 32.1178 216.854 32.5996C217.726 33.0814 218.416 33.7422 218.924 34.582C219.432 35.4154 219.686 36.3268 219.686 37.3164ZM216.18 39.5332C216.779 38.9277 217.078 38.1888 217.078 37.3164C217.078 36.444 216.779 35.7051 216.18 35.0996C215.587 34.4941 214.861 34.1914 214.002 34.1914C213.149 34.1914 212.423 34.4974 211.824 35.1094C211.225 35.7148 210.926 36.4505 210.926 37.3164C210.926 38.1823 211.225 38.918 211.824 39.5234C212.423 40.1289 213.149 40.4316 214.002 40.4316C214.861 40.4316 215.587 40.1322 216.18 39.5332ZM230.662 35.8906V42.4727H228.045V36.4082C228.045 35.7376 227.846 35.2005 227.449 34.7969C227.059 34.3932 226.544 34.1914 225.906 34.1914C225.268 34.1914 224.747 34.3932 224.344 34.7969C223.94 35.194 223.738 35.7311 223.738 36.4082V42.4727H221.121V32.1309H223.738V33.0098C224.487 32.2415 225.434 31.8574 226.58 31.8574C227.778 31.8574 228.758 32.2448 229.52 33.0195C230.281 33.7878 230.662 34.7448 230.662 35.8906ZM236.277 35.4512C236.277 34.1296 236.596 32.9186 237.234 31.8184C237.872 30.7116 238.761 29.8359 239.9 29.1914C241.046 28.5404 242.326 28.2148 243.738 28.2148C244.962 28.2148 246.092 28.485 247.127 29.0254C248.162 29.5658 249.038 30.3014 249.754 31.2324L247.654 32.7754C247.205 32.1309 246.632 31.6198 245.936 31.2422C245.245 30.8646 244.526 30.6758 243.777 30.6758C242.43 30.6758 241.297 31.1217 240.379 32.0137C239.467 32.9056 239.012 34.0514 239.012 35.4512C239.012 36.3887 239.227 37.2285 239.656 37.9707C240.086 38.7064 240.662 39.2728 241.385 39.6699C242.107 40.0605 242.905 40.2559 243.777 40.2559C244.585 40.2559 245.333 40.0736 246.023 39.709C246.72 39.3379 247.283 38.8268 247.713 38.1758L249.812 39.709C249.129 40.64 248.266 41.3789 247.225 41.9258C246.189 42.4661 245.047 42.7363 243.797 42.7363C242.716 42.7363 241.707 42.5475 240.77 42.1699C239.832 41.7923 239.035 41.2812 238.377 40.6367C237.726 39.9857 237.212 39.2142 236.834 38.3223C236.463 37.4238 236.277 36.4668 236.277 35.4512ZM253.543 36.4082V42.4727H250.926V28.4688H253.543V33.0293C254.285 32.248 255.245 31.8574 256.424 31.8574C257.609 31.8574 258.579 32.2448 259.334 33.0195C260.089 33.7878 260.467 34.7448 260.467 35.8906V42.4727H257.85V36.4082C257.85 35.7376 257.651 35.2005 257.254 34.7969C256.863 34.3932 256.349 34.1914 255.711 34.1914C255.073 34.1914 254.552 34.3932 254.148 34.7969C253.745 35.194 253.543 35.7311 253.543 36.4082ZM261.814 39.5723C261.814 38.6543 262.114 37.9316 262.713 37.4043C263.312 36.877 264.165 36.5742 265.271 36.4961L268.318 36.2715V35.8711C268.318 35.3568 268.152 34.9564 267.82 34.6699C267.488 34.377 267.02 34.2305 266.414 34.2305C265.503 34.2305 264.591 34.5365 263.68 35.1484L262.576 33.293C263.833 32.375 265.219 31.916 266.736 31.916C267.98 31.916 268.976 32.248 269.725 32.9121C270.48 33.5697 270.857 34.4486 270.857 35.5488V39.6113C270.857 40.015 271.049 40.2168 271.434 40.2168H271.971V42.4727H270.76C270.265 42.4727 269.832 42.3652 269.461 42.1504C269.09 41.9355 268.813 41.6361 268.631 41.252C268.26 41.7207 267.798 42.0853 267.244 42.3457C266.691 42.6061 266.076 42.7363 265.398 42.7363C264.37 42.7363 263.514 42.4368 262.83 41.8379C262.153 41.2389 261.814 40.4837 261.814 39.5723ZM264.314 39.5527C264.314 39.9108 264.467 40.1973 264.773 40.4121C265.079 40.627 265.48 40.7344 265.975 40.7344C266.626 40.7344 267.179 40.5521 267.635 40.1875C268.09 39.8164 268.318 39.3704 268.318 38.8496V38.1953L265.633 38.4297C264.754 38.5078 264.314 38.8822 264.314 39.5527ZM278.934 34.4355H277.996C277.358 34.4355 276.831 34.6569 276.414 35.0996C275.997 35.5423 275.789 36.1478 275.789 36.916V42.4727H273.172V32.1309H275.77V33.2539C276.323 32.4401 277.143 32.0332 278.23 32.0332H278.934V34.4355ZM290.73 32.1309V42.873C290.73 44.0124 290.376 44.9303 289.666 45.627C288.956 46.3236 288.012 46.6719 286.834 46.6719H283.934V44.4746H286.238C286.857 44.4746 287.322 44.3184 287.635 44.0059C287.954 43.6999 288.113 43.2539 288.113 42.668V41.4082C287.15 42.1829 286.069 42.5703 284.871 42.5703C283.882 42.5703 282.97 42.3327 282.137 41.8574C281.303 41.3822 280.643 40.7344 280.154 39.9141C279.673 39.0872 279.432 38.1855 279.432 37.209C279.432 36.2324 279.673 35.334 280.154 34.5137C280.643 33.6934 281.303 33.0456 282.137 32.5703C282.977 32.0951 283.888 31.8574 284.871 31.8574C286.102 31.8574 287.189 32.248 288.133 33.0293V32.1309H290.73ZM282.039 37.209C282.039 38.0618 282.335 38.7878 282.928 39.3867C283.527 39.9792 284.249 40.2754 285.096 40.2754C285.955 40.2754 286.678 39.9792 287.264 39.3867C287.856 38.7878 288.152 38.0618 288.152 37.209C288.152 36.3496 287.856 35.6237 287.264 35.0312C286.671 34.4323 285.949 34.1328 285.096 34.1328C284.256 34.1328 283.536 34.4355 282.938 35.041C282.339 35.64 282.039 36.3626 282.039 37.209ZM292.166 37.2969C292.166 36.3464 292.397 35.4577 292.859 34.6309C293.322 33.804 293.966 33.1432 294.793 32.6484C295.62 32.1471 296.531 31.8965 297.527 31.8965C299.077 31.8965 300.346 32.4141 301.336 33.4492C302.332 34.4844 302.83 35.806 302.83 37.4141V38.1758H294.852C295.027 38.8594 295.379 39.416 295.906 39.8457C296.434 40.2754 297.049 40.4902 297.752 40.4902C298.318 40.4902 298.82 40.3861 299.256 40.1777C299.692 39.9629 300.096 39.6146 300.467 39.1328L302.293 40.4902C301.766 41.2064 301.118 41.7598 300.35 42.1504C299.581 42.541 298.722 42.7363 297.771 42.7363C296.73 42.7363 295.779 42.5052 294.92 42.043C294.067 41.5807 293.393 40.9329 292.898 40.0996C292.41 39.2663 292.166 38.332 292.166 37.2969ZM297.469 34.1328C296.857 34.1328 296.32 34.3151 295.857 34.6797C295.395 35.0443 295.073 35.5423 294.891 36.1738H300.193C300.005 35.5423 299.663 35.0443 299.168 34.6797C298.673 34.3151 298.107 34.1328 297.469 34.1328ZM308.465 42.7168C307.15 42.7168 306.076 42.3913 305.242 41.7402C304.415 41.0892 303.898 40.2461 303.689 39.2109H306.17C306.294 39.7122 306.561 40.0866 306.971 40.334C307.381 40.5749 307.879 40.6953 308.465 40.6953C308.934 40.6953 309.298 40.5977 309.559 40.4023C309.819 40.207 309.949 39.9499 309.949 39.6309C309.949 39.416 309.861 39.224 309.686 39.0547C309.51 38.8854 309.249 38.7585 308.904 38.6738L306.766 38.1758C304.832 37.7135 303.865 36.6979 303.865 35.1289C303.865 34.1523 304.227 33.3678 304.949 32.7754C305.672 32.1764 306.596 31.877 307.723 31.877C308.999 31.877 310.034 32.209 310.828 32.873C311.629 33.5306 312.107 34.377 312.264 35.4121H309.803C309.673 34.9043 309.409 34.5234 309.012 34.2695C308.615 34.0156 308.178 33.8887 307.703 33.8887C307.299 33.8887 306.984 33.9798 306.756 34.1621C306.535 34.3444 306.424 34.5755 306.424 34.8555C306.424 35.3893 306.837 35.7539 307.664 35.9492L309.646 36.4375C311.541 36.8932 312.488 37.8926 312.488 39.4355C312.488 40.3861 312.124 41.1706 311.395 41.7891C310.665 42.4076 309.689 42.7168 308.465 42.7168Z" fill="black"/>
<rect x="42.3516" y="0.574219" width="49.3573" height="49.3573" rx="10" transform="rotate(45 42.3516 0.574219)" fill="#FFF9E2"/>
<path d="M2.22852 38.6064V33.3037C2.22852 30.8135 2.98047 28.8164 4.48438 27.3125C5.98828 25.8086 7.98535 25.0566 10.4756 25.0566C12.9658 25.0566 14.958 25.8086 16.4521 27.3125C17.9463 28.8066 18.6934 30.8037 18.6934 33.3037V38.6064C18.6934 41.1162 17.9463 43.1279 16.4521 44.6416C14.958 46.1455 12.9658 46.8975 10.4756 46.8975C7.98535 46.8975 5.98828 46.1406 4.48438 44.627C2.98047 43.1133 2.22852 41.1064 2.22852 38.6064ZM14.8262 38.5186V33.3916C14.8262 31.8584 14.4404 30.6572 13.6689 29.7881C12.8975 28.9092 11.833 28.4697 10.4756 28.4697C9.11816 28.4697 8.04883 28.9092 7.26758 29.7881C6.48633 30.6572 6.0957 31.8584 6.0957 33.3916V38.5186C6.0957 40.0518 6.48633 41.2627 7.26758 42.1514C8.04883 43.0303 9.11816 43.4697 10.4756 43.4697C11.833 43.4697 12.8975 43.0303 13.6689 42.1514C14.4404 41.2725 14.8262 40.0615 14.8262 38.5186ZM33.415 43.0156V46.4727H19.9971V43.0156H24.7432V28.9238H20.7148V25.4668H28.6396V43.0156H33.415Z" fill="black" fill-opacity="0.2"/>
</svg>
