<svg width="521" height="80" viewBox="0 0 521 80" fill="none" xmlns="http://www.w3.org/2000/svg">
<path d="M87.4688 35.4902C87.4688 34.1686 87.7878 32.9577 88.4258 31.8574C89.0638 30.7507 89.9525 29.875 91.0918 29.2305C92.2376 28.5794 93.5169 28.2539 94.9297 28.2539C96.1536 28.2539 97.2832 28.5241 98.3184 29.0645C99.3535 29.6048 100.229 30.3405 100.945 31.2715L98.8457 32.8145C98.3965 32.1699 97.8236 31.6589 97.127 31.2812C96.4368 30.9036 95.7174 30.7148 94.9688 30.7148C93.6211 30.7148 92.4883 31.1608 91.5703 32.0527C90.6589 32.9447 90.2031 34.0905 90.2031 35.4902C90.2031 36.4277 90.418 37.2676 90.8477 38.0098C91.2773 38.7454 91.8535 39.3118 92.5762 39.709C93.2988 40.0996 94.0964 40.2949 94.9688 40.2949C95.776 40.2949 96.5247 40.1126 97.2148 39.748C97.9115 39.377 98.4746 38.8659 98.9043 38.2148L101.004 39.748C100.32 40.679 99.4577 41.418 98.416 41.9648C97.3809 42.5052 96.2383 42.7754 94.9883 42.7754C93.9076 42.7754 92.8984 42.5866 91.9609 42.209C91.0234 41.8314 90.2259 41.3203 89.5684 40.6758C88.9173 40.0247 88.403 39.2533 88.0254 38.3613C87.6543 37.4629 87.4688 36.5059 87.4688 35.4902ZM101.658 39.6113C101.658 38.6934 101.958 37.9707 102.557 37.4434C103.156 36.916 104.008 36.6133 105.115 36.5352L108.162 36.3105V35.9102C108.162 35.3958 107.996 34.9954 107.664 34.709C107.332 34.416 106.863 34.2695 106.258 34.2695C105.346 34.2695 104.435 34.5755 103.523 35.1875L102.42 33.332C103.676 32.4141 105.063 31.9551 106.58 31.9551C107.824 31.9551 108.82 32.2871 109.568 32.9512C110.324 33.6087 110.701 34.4876 110.701 35.5879V39.6504C110.701 40.054 110.893 40.2559 111.277 40.2559H111.814V42.5117H110.604C110.109 42.5117 109.676 42.4043 109.305 42.1895C108.934 41.9746 108.657 41.6751 108.475 41.291C108.104 41.7598 107.641 42.1243 107.088 42.3848C106.535 42.6452 105.919 42.7754 105.242 42.7754C104.214 42.7754 103.357 42.4759 102.674 41.877C101.997 41.278 101.658 40.5228 101.658 39.6113ZM104.158 39.5918C104.158 39.9499 104.311 40.2363 104.617 40.4512C104.923 40.666 105.324 40.7734 105.818 40.7734C106.469 40.7734 107.023 40.5911 107.479 40.2266C107.934 39.8555 108.162 39.4095 108.162 38.8887V38.2344L105.477 38.4688C104.598 38.5469 104.158 38.9212 104.158 39.5918ZM122.557 35.9297V42.5117H119.939V36.4473C119.939 35.7767 119.741 35.2396 119.344 34.8359C118.953 34.4323 118.439 34.2305 117.801 34.2305C117.163 34.2305 116.642 34.4323 116.238 34.8359C115.835 35.2331 115.633 35.7702 115.633 36.4473V42.5117H113.016V32.1699H115.633V33.0488C116.382 32.2806 117.329 31.8965 118.475 31.8965C119.673 31.8965 120.652 32.2839 121.414 33.0586C122.176 33.8268 122.557 34.7839 122.557 35.9297ZM127.508 35.1289C126.909 35.7344 126.609 36.4701 126.609 37.3359C126.609 38.2018 126.909 38.9408 127.508 39.5527C128.107 40.1647 128.833 40.4707 129.686 40.4707C130.773 40.4707 131.639 40.0247 132.283 39.1328L134.148 40.4902C132.99 42.0137 131.502 42.7754 129.686 42.7754C128.637 42.7754 127.677 42.5312 126.805 42.043C125.932 41.5547 125.245 40.8971 124.744 40.0703C124.249 39.237 124.002 38.3255 124.002 37.3359C124.002 36.3529 124.249 35.4479 124.744 34.6211C125.245 33.7878 125.932 33.1302 126.805 32.6484C127.677 32.1602 128.637 31.916 129.686 31.916C131.502 31.916 132.99 32.6745 134.148 34.1914L132.283 35.5488C131.639 34.6569 130.773 34.2109 129.686 34.2109C128.833 34.2109 128.107 34.5169 127.508 35.1289ZM134.451 37.3359C134.451 36.3854 134.682 35.4967 135.145 34.6699C135.607 33.8431 136.251 33.1823 137.078 32.6875C137.905 32.1862 138.816 31.9355 139.812 31.9355C141.362 31.9355 142.632 32.4531 143.621 33.4883C144.617 34.5234 145.115 35.8451 145.115 37.4531V38.2148H137.137C137.312 38.8984 137.664 39.4551 138.191 39.8848C138.719 40.3145 139.334 40.5293 140.037 40.5293C140.604 40.5293 141.105 40.4251 141.541 40.2168C141.977 40.002 142.381 39.6536 142.752 39.1719L144.578 40.5293C144.051 41.2454 143.403 41.7988 142.635 42.1895C141.867 42.5801 141.007 42.7754 140.057 42.7754C139.015 42.7754 138.064 42.5443 137.205 42.082C136.352 41.6198 135.678 40.972 135.184 40.1387C134.695 39.3053 134.451 38.3711 134.451 37.3359ZM139.754 34.1719C139.142 34.1719 138.605 34.3542 138.143 34.7188C137.68 35.0833 137.358 35.5814 137.176 36.2129H142.479C142.29 35.5814 141.948 35.0833 141.453 34.7188C140.958 34.3542 140.392 34.1719 139.754 34.1719ZM149.188 42.5117H146.57V28.5078H149.188V42.5117ZM153.602 42.5117H150.984V28.5078H153.602V42.5117ZM154.939 39.6113C154.939 38.6934 155.239 37.9707 155.838 37.4434C156.437 36.916 157.29 36.6133 158.396 36.5352L161.443 36.3105V35.9102C161.443 35.3958 161.277 34.9954 160.945 34.709C160.613 34.416 160.145 34.2695 159.539 34.2695C158.628 34.2695 157.716 34.5755 156.805 35.1875L155.701 33.332C156.958 32.4141 158.344 31.9551 159.861 31.9551C161.105 31.9551 162.101 32.2871 162.85 32.9512C163.605 33.6087 163.982 34.4876 163.982 35.5879V39.6504C163.982 40.054 164.174 40.2559 164.559 40.2559H165.096V42.5117H163.885C163.39 42.5117 162.957 42.4043 162.586 42.1895C162.215 41.9746 161.938 41.6751 161.756 41.291C161.385 41.7598 160.923 42.1243 160.369 42.3848C159.816 42.6452 159.201 42.7754 158.523 42.7754C157.495 42.7754 156.639 42.4759 155.955 41.877C155.278 41.278 154.939 40.5228 154.939 39.6113ZM157.439 39.5918C157.439 39.9499 157.592 40.2363 157.898 40.4512C158.204 40.666 158.605 40.7734 159.1 40.7734C159.751 40.7734 160.304 40.5911 160.76 40.2266C161.215 39.8555 161.443 39.4095 161.443 38.8887V38.2344L158.758 38.4688C157.879 38.5469 157.439 38.9212 157.439 39.5918ZM169.949 42.5117C169.038 42.5117 168.335 42.2741 167.84 41.7988C167.352 41.3171 167.107 40.6888 167.107 39.9141V34.4355H165.086V32.1699H167.107V29.1719H169.715V32.1699H171.99V34.4355H169.715V39.4551C169.715 39.7155 169.799 39.9141 169.969 40.0508C170.145 40.1875 170.385 40.2559 170.691 40.2559H171.99V42.5117H169.949ZM175.457 30.6562C175.184 30.9362 174.842 31.0762 174.432 31.0762C174.021 31.0762 173.673 30.9362 173.387 30.6562C173.1 30.3698 172.957 30.0215 172.957 29.6113C172.957 29.2012 173.1 28.8594 173.387 28.5859C173.673 28.3125 174.021 28.1758 174.432 28.1758C174.842 28.1758 175.184 28.3125 175.457 28.5859C175.737 28.8594 175.877 29.2012 175.877 29.6113C175.877 30.0215 175.737 30.3698 175.457 30.6562ZM175.73 32.1699V42.5117H173.113V32.1699H175.73ZM188.533 37.3555C188.533 38.0911 188.383 38.7943 188.084 39.4648C187.785 40.1354 187.381 40.7148 186.873 41.2031C186.365 41.6914 185.76 42.0788 185.057 42.3652C184.36 42.6517 183.624 42.7949 182.85 42.7949C181.827 42.7949 180.88 42.554 180.008 42.0723C179.135 41.584 178.442 40.9232 177.928 40.0898C177.42 39.25 177.166 38.3385 177.166 37.3555C177.166 36.3724 177.42 35.4642 177.928 34.6309C178.442 33.791 179.135 33.1302 180.008 32.6484C180.88 32.1602 181.827 31.916 182.85 31.916C183.878 31.916 184.829 32.1569 185.701 32.6387C186.574 33.1204 187.264 33.7812 187.771 34.6211C188.279 35.4544 188.533 36.3659 188.533 37.3555ZM185.027 39.5723C185.626 38.9668 185.926 38.2279 185.926 37.3555C185.926 36.4831 185.626 35.7441 185.027 35.1387C184.435 34.5332 183.709 34.2305 182.85 34.2305C181.997 34.2305 181.271 34.5365 180.672 35.1484C180.073 35.7539 179.773 36.4896 179.773 37.3555C179.773 38.2214 180.073 38.957 180.672 39.5625C181.271 40.168 181.997 40.4707 182.85 40.4707C183.709 40.4707 184.435 40.1712 185.027 39.5723ZM199.51 35.9297V42.5117H196.893V36.4473C196.893 35.7767 196.694 35.2396 196.297 34.8359C195.906 34.4323 195.392 34.2305 194.754 34.2305C194.116 34.2305 193.595 34.4323 193.191 34.8359C192.788 35.2331 192.586 35.7702 192.586 36.4473V42.5117H189.969V32.1699H192.586V33.0488C193.335 32.2806 194.282 31.8965 195.428 31.8965C196.626 31.8965 197.605 32.2839 198.367 33.0586C199.129 33.8268 199.51 34.7839 199.51 35.9297ZM205.418 42.5117V28.5078H211.365C212.589 28.5078 213.618 28.9212 214.451 29.748C215.285 30.5749 215.701 31.5905 215.701 32.7949C215.701 33.5892 215.512 34.3184 215.135 34.9824C214.757 35.64 214.236 36.1608 213.572 36.5449C212.908 36.9225 212.173 37.1113 211.365 37.1113H208.123V42.5117H205.418ZM211.121 30.8711H208.123V34.8164H211.121C211.681 34.8164 212.13 34.6309 212.469 34.2598C212.814 33.8822 212.986 33.4069 212.986 32.834C212.986 32.2611 212.814 31.7923 212.469 31.4277C212.13 31.0566 211.681 30.8711 211.121 30.8711ZM228.377 37.3555C228.377 38.0911 228.227 38.7943 227.928 39.4648C227.628 40.1354 227.225 40.7148 226.717 41.2031C226.209 41.6914 225.604 42.0788 224.9 42.3652C224.204 42.6517 223.468 42.7949 222.693 42.7949C221.671 42.7949 220.724 42.554 219.852 42.0723C218.979 41.584 218.286 40.9232 217.771 40.0898C217.264 39.25 217.01 38.3385 217.01 37.3555C217.01 36.3724 217.264 35.4642 217.771 34.6309C218.286 33.791 218.979 33.1302 219.852 32.6484C220.724 32.1602 221.671 31.916 222.693 31.916C223.722 31.916 224.673 32.1569 225.545 32.6387C226.417 33.1204 227.107 33.7812 227.615 34.6211C228.123 35.4544 228.377 36.3659 228.377 37.3555ZM224.871 39.5723C225.47 38.9668 225.77 38.2279 225.77 37.3555C225.77 36.4831 225.47 35.7441 224.871 35.1387C224.279 34.5332 223.553 34.2305 222.693 34.2305C221.84 34.2305 221.115 34.5365 220.516 35.1484C219.917 35.7539 219.617 36.4896 219.617 37.3555C219.617 38.2214 219.917 38.957 220.516 39.5625C221.115 40.168 221.84 40.4707 222.693 40.4707C223.553 40.4707 224.279 40.1712 224.871 39.5723ZM232.43 42.5117H229.812V28.5078H232.43V42.5117ZM236.57 30.6562C236.297 30.9362 235.955 31.0762 235.545 31.0762C235.135 31.0762 234.786 30.9362 234.5 30.6562C234.214 30.3698 234.07 30.0215 234.07 29.6113C234.07 29.2012 234.214 28.8594 234.5 28.5859C234.786 28.3125 235.135 28.1758 235.545 28.1758C235.955 28.1758 236.297 28.3125 236.57 28.5859C236.85 28.8594 236.99 29.2012 236.99 29.6113C236.99 30.0215 236.85 30.3698 236.57 30.6562ZM236.844 32.1699V42.5117H234.227V32.1699H236.844ZM241.785 35.1289C241.186 35.7344 240.887 36.4701 240.887 37.3359C240.887 38.2018 241.186 38.9408 241.785 39.5527C242.384 40.1647 243.11 40.4707 243.963 40.4707C245.05 40.4707 245.916 40.0247 246.561 39.1328L248.426 40.4902C247.267 42.0137 245.779 42.7754 243.963 42.7754C242.915 42.7754 241.954 42.5312 241.082 42.043C240.21 41.5547 239.523 40.8971 239.021 40.0703C238.527 39.237 238.279 38.3255 238.279 37.3359C238.279 36.3529 238.527 35.4479 239.021 34.6211C239.523 33.7878 240.21 33.1302 241.082 32.6484C241.954 32.1602 242.915 31.916 243.963 31.916C245.779 31.916 247.267 32.6745 248.426 34.1914L246.561 35.5488C245.916 34.6569 245.05 34.2109 243.963 34.2109C243.11 34.2109 242.384 34.5169 241.785 35.1289ZM252.42 43.4688L252.898 42.3164L248.504 32.1699H251.326L254.178 39.1523L257 32.1699H259.725L254.686 44.4551C254.347 45.2819 253.937 45.8646 253.455 46.2031C252.98 46.5417 252.342 46.7109 251.541 46.7109H249.998V44.5137H251.004C251.368 44.5137 251.655 44.4388 251.863 44.2891C252.078 44.1393 252.264 43.8659 252.42 43.4688Z" fill="black"/>
<path d="M94.9106 73.2322L94.9107 74.531L87.4693 74.5312L87.4692 73.2324L90.4478 73.2323L90.4474 61.8358L87.6056 61.8359L87.6056 60.5273L91.9025 60.5272L91.9028 73.2323L94.9106 73.2322ZM96.0043 69.1111L96.0042 65.9275C96.0041 64.2283 96.4826 62.8708 97.4396 61.8552C98.3966 60.8395 99.6661 60.3317 101.248 60.3316C102.824 60.3316 104.087 60.8426 105.037 61.8647C105.994 62.8803 106.473 64.2345 106.473 65.9272L106.473 69.1108C106.473 70.81 105.995 72.1707 105.038 73.1929C104.087 74.215 102.824 74.7261 101.249 74.7262C99.6665 74.7262 98.397 74.2152 97.4399 73.1931C96.4829 72.171 96.0043 70.8103 96.0043 69.1111ZM105.028 69.0522L105.028 65.9956C105.028 64.6479 104.686 63.5802 104.002 62.7925C103.325 62.0047 102.407 61.6109 101.248 61.6109C100.083 61.611 99.1584 62.0049 98.4748 62.7926C97.7912 63.5804 97.4495 64.6481 97.4495 65.9958L97.4496 69.0524C97.4496 70.4001 97.7915 71.471 98.4751 72.2653C99.1587 73.053 100.083 73.4469 101.249 73.4469C102.414 73.4468 103.335 73.0562 104.012 72.2749C104.689 71.4871 105.028 70.4129 105.028 69.0522ZM108.504 69.1107L108.504 65.9271C108.504 64.2279 108.983 62.8705 109.94 61.8548C110.897 60.8392 112.166 60.3313 113.748 60.3313C115.324 60.3312 116.587 60.8423 117.537 61.8644C118.494 62.88 118.973 64.2341 118.973 65.9268L118.973 69.1104C118.973 70.8097 118.495 72.1703 117.538 73.1925C116.587 74.2147 115.324 74.7258 113.749 74.7258C112.167 74.7259 110.897 74.2148 109.94 73.1927C108.983 72.1706 108.504 70.8099 108.504 69.1107ZM117.528 69.0519L117.528 65.9952C117.528 64.6476 117.186 63.5799 116.502 62.7921C115.825 62.0044 114.907 61.6105 113.748 61.6106C112.583 61.6106 111.658 62.0045 110.975 62.7923C110.291 63.5801 109.949 64.6478 109.95 65.9954L109.95 69.0521C109.95 70.3997 110.291 71.4707 110.975 72.265C111.659 73.0527 112.583 73.4465 113.749 73.4465C114.914 73.4465 115.835 73.0558 116.512 72.2746C117.189 71.4868 117.528 70.4126 117.528 69.0519ZM124.285 67.1279C123.335 67.1279 122.531 66.7959 121.873 66.1318C121.216 65.4678 120.887 64.654 120.887 63.6905C120.887 62.779 121.212 61.9912 121.863 61.3271C122.521 60.6631 123.328 60.331 124.285 60.331C125.223 60.331 126.017 60.663 126.668 61.327C127.319 61.9911 127.645 62.7788 127.645 63.6903C127.645 64.6538 127.319 65.4676 126.668 66.1317C126.024 66.7958 125.229 67.1278 124.285 67.1279ZM124.872 74.5302L123.631 74.5302L131.307 60.5261L132.547 60.5261L124.872 74.5302ZM124.285 66.0536C124.897 66.0536 125.425 65.8192 125.867 65.3505C126.31 64.8817 126.531 64.3218 126.531 63.6708C126.531 63.0523 126.307 62.5217 125.858 62.079C125.415 61.6363 124.891 61.415 124.285 61.415C123.654 61.415 123.117 61.6364 122.674 62.0791C122.231 62.5218 122.01 63.0524 122.01 63.6709C122.01 64.3284 122.228 64.8916 122.664 65.3603C123.101 65.8226 123.641 66.0537 124.285 66.0536ZM131.893 67.9284C132.856 67.9284 133.667 68.2604 134.325 68.9245C134.982 69.5885 135.311 70.4023 135.311 71.3658C135.311 72.2773 134.979 73.0651 134.315 73.7291C133.657 74.3932 132.85 74.7253 131.893 74.7253C130.956 74.7253 130.158 74.3933 129.501 73.7293C128.849 73.0652 128.524 72.2775 128.524 71.366C128.524 70.409 128.853 69.5984 129.51 68.9344C130.168 68.2638 130.962 67.9285 131.893 67.9284ZM131.893 69.0124C131.281 69.0124 130.757 69.2468 130.321 69.7156C129.885 70.1778 129.666 70.7345 129.666 71.3855C129.666 72.004 129.885 72.5379 130.321 72.9871C130.764 73.4298 131.288 73.6511 131.893 73.6511C132.525 73.6511 133.062 73.4297 133.504 72.987C133.947 72.5443 134.168 72.0104 134.168 71.3854C134.168 70.7278 133.95 70.168 133.514 69.7057C133.078 69.2435 132.537 69.0124 131.893 69.0124ZM145.78 65.7503L145.028 65.7503C144.338 65.7504 143.771 66.0108 143.328 66.5316C142.886 67.0525 142.664 67.7068 142.664 68.4945L142.665 74.5297L141.219 74.5297L141.219 64.4907L142.664 64.4906L142.664 65.809C142.912 65.3728 143.24 65.031 143.651 64.7836C144.067 64.5362 144.546 64.4125 145.086 64.4124L145.78 64.4124L145.78 65.7503ZM146.297 69.5101C146.297 68.5661 146.519 67.6969 146.961 66.9026C147.41 66.1083 148.026 65.4768 148.807 65.008C149.588 64.5393 150.451 64.3049 151.395 64.3048C152.085 64.3048 152.733 64.4383 153.338 64.7052C153.95 64.9656 154.474 65.3236 154.91 65.7794C155.347 66.2286 155.688 66.7689 155.936 67.4004C156.19 68.0254 156.317 68.6895 156.317 69.3926L156.317 69.9492L147.733 69.9495C147.844 70.9456 148.257 71.7789 148.973 72.4494C149.696 73.1135 150.549 73.4455 151.532 73.4455C152.176 73.4454 152.772 73.3022 153.319 73.0157C153.866 72.7293 154.331 72.3256 154.715 71.8048L155.79 72.5664C155.301 73.237 154.689 73.7611 153.954 74.1388C153.218 74.5164 152.417 74.7052 151.551 74.7052C150.073 74.7053 148.827 74.204 147.811 73.2014C146.802 72.1989 146.297 70.9684 146.297 69.5101ZM151.395 65.5646C150.496 65.5646 149.709 65.8641 149.032 66.4631C148.354 67.0556 147.935 67.8173 147.772 68.7483L154.871 68.7481C154.741 67.8236 154.347 67.0619 153.69 66.463C153.032 65.864 152.267 65.5646 151.395 65.5646ZM156.951 65.7695L156.951 64.4902L158.846 64.4902L158.846 62.4492C158.846 61.7981 159.028 61.2805 159.393 60.8964C159.764 60.5058 160.275 60.3105 160.926 60.3104L162.43 60.3104L162.43 61.5897L161.17 61.5897C160.89 61.5897 160.672 61.6776 160.516 61.8534C160.366 62.0227 160.291 62.2603 160.291 62.5663L160.291 64.4901L162.43 64.4901L162.43 65.7694L160.291 65.7694L160.292 74.5292L158.846 74.5292L158.846 65.7695L156.951 65.7695ZM163.739 70.9256L163.739 64.49L165.184 64.49L165.184 70.6912C165.184 71.4854 165.425 72.1365 165.907 72.6443C166.395 73.1521 167.033 73.406 167.821 73.4059C168.648 73.4059 169.328 73.1357 169.862 72.5953C170.396 72.055 170.663 71.3714 170.663 70.5445L170.662 64.4899L172.108 64.4898L172.108 74.5289L170.663 74.5289L170.663 73.152C170.331 73.6403 169.888 74.0211 169.335 74.2946C168.788 74.568 168.185 74.7048 167.528 74.7048C166.421 74.7048 165.513 74.3435 164.803 73.6209C164.094 72.8982 163.739 71.9998 163.739 70.9256ZM182.577 68.093L182.577 74.5286L181.131 74.5286L181.131 68.3275C181.131 67.5267 180.89 66.8756 180.409 66.3743C179.927 65.8665 179.295 65.6127 178.514 65.6127C177.681 65.6127 176.994 65.8829 176.453 66.4233C175.92 66.9572 175.653 67.6375 175.653 68.4643L175.653 74.5288L174.208 74.5288L174.207 64.4898L175.653 64.4897L175.653 65.8667C175.991 65.3719 176.431 64.9845 176.971 64.7045C177.518 64.4246 178.123 64.2846 178.787 64.2845C179.901 64.2845 180.809 64.6523 181.512 65.388C182.222 66.1171 182.576 67.0188 182.577 68.093ZM194.862 74.5282L193.417 74.5283L193.416 72.8877C192.948 73.4671 192.378 73.9196 191.708 74.2451C191.037 74.5642 190.308 74.7237 189.52 74.7237C188.062 74.7237 186.828 74.2192 185.819 73.2101C184.81 72.201 184.305 70.9673 184.305 69.509C184.305 68.5585 184.533 67.6861 184.989 66.8918C185.451 66.091 186.082 65.4595 186.883 64.9972C187.684 64.535 188.563 64.3038 189.52 64.3038C190.308 64.3038 191.037 64.4698 191.707 64.8018C192.378 65.1273 192.948 65.583 193.416 66.1689L193.416 60.5244L194.861 60.5243L194.862 74.5282ZM192.323 72.292C193.071 71.5237 193.446 70.596 193.446 69.5088C193.446 68.4215 193.068 67.497 192.313 66.7353C191.564 65.9736 190.659 65.5928 189.598 65.5928C188.53 65.5929 187.619 65.9738 186.864 66.7355C186.115 67.4972 185.741 68.4217 185.741 69.509C185.741 70.6027 186.115 71.5337 186.864 72.3019C187.612 73.0636 188.524 73.4444 189.598 73.4444C190.666 73.4444 191.574 73.0602 192.323 72.292ZM200.965 70.9246L200.965 64.489L202.41 64.489L202.411 70.6901C202.411 71.4844 202.652 72.1354 203.133 72.6432C203.622 73.151 204.26 73.4049 205.047 73.4049C205.874 73.4049 206.555 73.1347 207.088 72.5943C207.622 72.0539 207.889 71.3703 207.889 70.5435L207.889 64.4888L209.334 64.4888L209.335 74.5278L207.889 74.5279L207.889 73.1509C207.557 73.6392 207.114 74.0201 206.561 74.2935C206.014 74.567 205.412 74.7037 204.754 74.7037C203.648 74.7038 202.739 74.3425 202.03 73.6198C201.32 72.8972 200.965 71.9988 200.965 70.9246ZM211.434 64.4887L212.879 64.4887L212.879 66.1488C213.348 65.5629 213.918 65.1071 214.588 64.7816C215.265 64.4495 216.001 64.2835 216.795 64.2835C218.253 64.2835 219.487 64.7912 220.496 65.8068C221.512 66.8159 222.02 68.0496 222.02 69.508C222.02 70.4585 221.786 71.3341 221.317 72.1349C220.855 72.9292 220.223 73.5575 219.422 74.0197C218.622 74.4755 217.746 74.7034 216.795 74.7034C216.008 74.7034 215.275 74.5407 214.598 74.2152C213.921 73.8832 213.348 73.421 212.879 72.8285L212.88 78.3852L211.434 78.3852L211.434 64.4887ZM213.983 66.725C213.234 67.4932 212.86 68.421 212.86 69.5082C212.86 70.5955 213.237 71.5199 213.993 72.2816C214.748 73.0433 215.656 73.4241 216.717 73.4241C217.785 73.4241 218.693 73.0432 219.442 72.2815C220.197 71.5197 220.575 70.5952 220.575 69.508C220.575 68.4208 220.197 67.493 219.442 66.7248C218.693 65.9501 217.785 65.5628 216.717 65.5628C215.649 65.5628 214.738 65.9502 213.983 66.725ZM231.004 74.5272C230.334 74.5273 229.807 74.3482 229.422 73.9902C229.038 73.6256 228.846 73.1438 228.846 72.5449L228.846 65.7675L226.971 65.7676L226.971 64.4883L228.846 64.4882L228.846 61.4707L230.291 61.4706L230.291 64.4882L232.664 64.4881L232.664 65.7674L230.291 65.7675L230.291 72.33C230.291 72.6164 230.379 72.8411 230.555 73.0038C230.737 73.1666 230.995 73.2479 231.327 73.2479L232.665 73.2479L232.665 74.5272L231.004 74.5272ZM243.182 66.8902C243.651 67.6909 243.885 68.5633 243.885 69.5073C243.885 70.4514 243.651 71.3238 243.182 72.1246C242.713 72.9253 242.072 73.5601 241.258 74.0289C240.451 74.4912 239.566 74.7223 238.602 74.7223C237.873 74.7224 237.183 74.5857 236.532 74.3122C235.881 74.0388 235.321 73.6677 234.852 73.199C234.383 72.7303 234.012 72.1769 233.739 71.5389C233.465 70.8944 233.329 70.2173 233.329 69.5076C233.328 68.5636 233.56 67.6945 234.022 66.9002C234.484 66.0994 235.119 65.4679 235.926 65.0056C236.74 64.5368 237.632 64.3024 238.602 64.3024C239.565 64.3024 240.451 64.5335 241.258 64.9957C242.072 65.4579 242.713 66.0894 243.182 66.8902ZM242.44 69.5074C242.44 68.4136 242.062 67.4892 241.307 66.734C240.558 65.9723 239.657 65.5914 238.602 65.5915C237.541 65.5915 236.636 65.9724 235.887 66.7341C235.138 67.4894 234.764 68.4139 234.764 69.5076C234.764 70.5948 235.138 71.5193 235.887 72.281C236.636 73.0427 237.541 73.4235 238.602 73.4235C239.657 73.4235 240.558 73.0426 241.307 72.2809C242.062 71.5191 242.44 70.5946 242.44 69.5074ZM257.86 64.3702C257.879 65.184 257.707 65.9197 257.342 66.5773C256.978 67.2283 256.398 67.964 255.604 68.7844L251.249 73.2474L258.065 73.2472L258.065 74.5265L249.12 74.5267L249.12 73.5892L254.5 68.0227C254.963 67.5474 255.317 67.1503 255.565 66.8312C255.812 66.5122 256.017 66.1476 256.18 65.7375C256.349 65.3273 256.431 64.8911 256.424 64.4289C256.424 63.6411 256.118 62.9738 255.506 62.4269C254.901 61.8801 254.158 61.6067 253.279 61.6067C252.615 61.6067 251.997 61.7597 251.424 62.0657C250.851 62.3652 250.363 62.7982 249.959 63.3646L248.924 62.5248C249.438 61.8347 250.08 61.2975 250.848 60.9134C251.623 60.5228 252.462 60.3274 253.367 60.3274C254.65 60.3274 255.718 60.718 256.57 61.4992C257.43 62.2804 257.86 63.2374 257.86 64.3702ZM266.141 74.5263L266.141 70.8251L258.846 70.8253L258.846 69.7706L265.74 60.5224L267.586 60.5223L267.586 69.5262L269.588 69.5262L269.588 70.825L267.586 70.825L267.586 74.5262L266.141 74.5263ZM260.584 69.5264L266.141 69.5263L266.141 62.0458L260.584 69.5264ZM276.453 68.4615L276.454 74.526L275.008 74.526L275.008 60.5221L276.453 60.5221L276.453 65.8834C276.785 65.3821 277.228 64.9914 277.782 64.7115C278.341 64.425 278.953 64.2818 279.617 64.2817C280.718 64.2817 281.619 64.6495 282.323 65.3852C283.026 66.1143 283.377 67.016 283.377 68.0902L283.377 74.5258L281.932 74.5258L281.932 68.3246C281.932 67.5239 281.691 66.8728 281.209 66.3715C280.728 65.8637 280.096 65.6099 279.315 65.6099C278.481 65.6099 277.795 65.8801 277.254 66.4205C276.72 66.9544 276.453 67.6347 276.453 68.4615ZM294.959 66.8887C295.428 67.6895 295.662 68.5619 295.662 69.5059C295.663 70.4499 295.428 71.3223 294.959 72.1231C294.491 72.9239 293.849 73.5587 293.036 74.0275C292.228 74.4897 291.343 74.7209 290.379 74.7209C289.65 74.7209 288.96 74.5842 288.309 74.3108C287.658 74.0374 287.098 73.6663 286.629 73.1976C286.161 72.7288 285.79 72.1755 285.516 71.5374C285.243 70.8929 285.106 70.2158 285.106 69.5062C285.106 68.5622 285.337 67.693 285.799 66.8988C286.261 66.098 286.896 65.4664 287.703 65.0042C288.517 64.5354 289.409 64.301 290.379 64.301C291.343 64.3009 292.228 64.532 293.035 64.9943C293.849 65.4565 294.491 66.088 294.959 66.8887ZM294.217 69.5059C294.217 68.4122 293.84 67.4877 293.084 66.7325C292.336 65.9708 291.434 65.59 290.379 65.59C289.318 65.5901 288.413 65.971 287.664 66.7327C286.916 67.4879 286.541 68.4124 286.541 69.5062C286.541 70.5934 286.916 71.5179 287.665 72.2796C288.413 73.0413 289.318 73.4221 290.379 73.4221C291.434 73.422 292.336 73.0412 293.084 72.2794C293.84 71.5177 294.217 70.5932 294.217 69.5059ZM297.332 70.9219L297.332 64.4863L298.778 64.4863L298.778 70.6875C298.778 71.4817 299.019 72.1328 299.5 72.6406C299.989 73.1484 300.627 73.4023 301.415 73.4022C302.241 73.4022 302.922 73.132 303.456 72.5916C303.989 72.0512 304.256 71.3676 304.256 70.5408L304.256 64.4861L305.701 64.4861L305.702 74.5252L304.256 74.5252L304.256 73.1482C303.924 73.6365 303.482 74.0174 302.928 74.2909C302.381 74.5643 301.779 74.701 301.122 74.7011C300.015 74.7011 299.107 74.3398 298.397 73.6172C297.687 72.8945 297.332 71.9961 297.332 70.9219ZM312.362 65.7457L311.61 65.7457C310.92 65.7457 310.353 66.0061 309.91 66.527C309.468 67.0478 309.246 67.7021 309.246 68.4899L309.247 74.5251L307.801 74.5251L307.801 64.486L309.246 64.486L309.246 65.8044C309.494 65.3682 309.823 65.0263 310.233 64.7789C310.649 64.5315 311.128 64.4078 311.668 64.4078L312.362 64.4078L312.362 65.7457ZM317.225 74.7202C316.125 74.7202 315.2 74.424 314.452 73.8316C313.703 73.2326 313.254 72.4514 313.104 71.4878L314.481 71.4878C314.611 72.1193 314.92 72.6174 315.409 72.9819C315.903 73.3465 316.496 73.5288 317.186 73.5287C317.811 73.5287 318.312 73.3855 318.69 73.099C319.074 72.806 319.266 72.4284 319.266 71.9662C319.266 71.5625 319.126 71.224 318.846 70.9506C318.573 70.6771 318.133 70.4558 317.528 70.2865L315.907 69.8471C314.168 69.3849 313.299 68.4833 313.299 67.1421C313.299 66.2893 313.599 65.6024 314.198 65.0816C314.796 64.5607 315.571 64.3003 316.522 64.3002C317.576 64.3002 318.459 64.5997 319.168 65.1986C319.884 65.791 320.311 66.5593 320.448 67.5033L319.041 67.5033C318.924 66.8848 318.631 66.3933 318.162 66.0287C317.7 65.6641 317.16 65.4819 316.541 65.4819C315.981 65.4819 315.535 65.6219 315.203 65.9018C314.871 66.1818 314.705 66.5496 314.705 67.0054C314.705 67.7411 315.252 68.2684 316.346 68.5874L317.928 69.0072C318.833 69.2481 319.517 69.6094 319.979 70.0912C320.448 70.5664 320.682 71.1458 320.682 71.8294C320.682 72.6823 320.363 73.3789 319.725 73.9193C319.094 74.4532 318.26 74.7201 317.225 74.7202ZM335.682 66.8876C336.151 67.6884 336.385 68.5608 336.385 69.5048C336.385 70.4488 336.151 71.3212 335.682 72.122C335.213 72.9228 334.572 73.5576 333.758 74.0263C332.951 74.4886 332.066 74.7197 331.102 74.7198C330.373 74.7198 329.683 74.5831 329.032 74.3097C328.381 74.0362 327.821 73.6652 327.352 73.1964C326.883 72.7277 326.512 72.1743 326.239 71.5363C325.965 70.8918 325.829 70.2147 325.829 69.5051C325.828 68.5611 326.06 67.6919 326.522 66.8976C326.984 66.0968 327.619 65.4653 328.426 65.003C329.24 64.5343 330.132 64.2999 331.102 64.2998C332.065 64.2998 332.951 64.5309 333.758 64.9931C334.572 65.4553 335.213 66.0868 335.682 66.8876ZM334.94 69.5048C334.94 68.4111 334.562 67.4866 333.807 66.7314C333.058 65.9697 332.157 65.5889 331.102 65.5889C330.041 65.5889 329.136 65.9698 328.387 66.7316C327.638 67.4868 327.264 68.4113 327.264 69.505C327.264 70.5923 327.638 71.5167 328.387 72.2784C329.136 73.0401 330.041 73.421 331.102 73.4209C332.157 73.4209 333.058 73.04 333.807 72.2783C334.562 71.5165 334.94 70.5921 334.94 69.5048ZM342.616 65.7448L341.864 65.7449C341.173 65.7449 340.607 66.0053 340.164 66.5262C339.722 67.047 339.5 67.7013 339.5 68.4891L339.501 74.5242L338.055 74.5243L338.055 64.4852L339.5 64.4852L339.5 65.8035C339.748 65.3673 340.076 65.0255 340.487 64.7781C340.903 64.5307 341.382 64.407 341.922 64.407L342.615 64.4069L342.616 65.7448ZM349.422 68.44L349.422 74.5239L347.977 74.524L347.977 64.4849L349.422 64.4849L349.422 65.8228C349.748 65.341 350.171 64.9634 350.692 64.6899C351.219 64.4165 351.795 64.2797 352.42 64.2797C353.169 64.2797 353.83 64.4685 354.403 64.8461C354.982 65.2171 355.415 65.7152 355.701 66.3402C355.994 65.7152 356.437 65.2171 357.03 64.846C357.629 64.4684 358.306 64.2796 359.061 64.2795C360.135 64.2795 361.014 64.6408 361.698 65.3634C362.381 66.0796 362.723 66.9715 362.723 68.0392L362.723 74.5236L361.278 74.5236L361.278 68.3224C361.278 67.5217 361.047 66.8706 360.584 66.3693C360.122 65.8615 359.513 65.6076 358.758 65.6077C357.977 65.6077 357.336 65.8746 356.834 66.4085C356.333 66.9424 356.082 67.6195 356.082 68.4398L356.083 74.5238L354.637 74.5238L354.637 68.3226C354.637 67.5284 354.403 66.8773 353.934 66.3695C353.472 65.8617 352.866 65.6078 352.117 65.6079C351.33 65.6079 350.682 65.8748 350.174 66.4087C349.673 66.9426 349.422 67.6196 349.422 68.44ZM374.276 66.8865C374.744 67.6873 374.979 68.5597 374.979 69.5037C374.979 70.4477 374.745 71.3201 374.276 72.1209C373.807 72.9217 373.166 73.5565 372.352 74.0253C371.545 74.4875 370.659 74.7187 369.696 74.7187C368.967 74.7187 368.277 74.582 367.626 74.3086C366.974 74.0352 366.415 73.6641 365.946 73.1954C365.477 72.7266 365.106 72.1732 364.832 71.5352C364.559 70.8907 364.422 70.2136 364.422 69.504C364.422 68.56 364.653 67.6908 365.116 66.8966C365.578 66.0958 366.213 65.4642 367.02 65.002C367.834 64.5332 368.726 64.2988 369.696 64.2988C370.659 64.2987 371.545 64.5298 372.352 64.9921C373.166 65.4543 373.807 66.0858 374.276 66.8865ZM373.534 69.5037C373.534 68.41 373.156 67.4855 372.401 66.7303C371.652 65.9686 370.75 65.5878 369.696 65.5878C368.634 65.5879 367.729 65.9687 366.981 66.7305C366.232 67.4857 365.858 68.4102 365.858 69.504C365.858 70.5912 366.232 71.5157 366.981 72.2774C367.73 73.0391 368.635 73.4199 369.696 73.4199C370.75 73.4198 371.652 73.0389 372.401 72.2772C373.156 71.5155 373.534 70.591 373.534 69.5037ZM381.209 65.7438L380.457 65.7438C379.767 65.7438 379.201 66.0042 378.758 66.5251C378.315 67.0459 378.094 67.7002 378.094 68.488L378.094 74.5231L376.649 74.5232L376.649 64.4841L378.094 64.4841L378.094 65.8024C378.341 65.3662 378.67 65.0244 379.08 64.777C379.497 64.5296 379.976 64.4059 380.516 64.4059L381.209 64.4059L381.209 65.7438ZM381.727 69.5035C381.727 68.5595 381.948 67.6904 382.391 66.8961C382.84 66.1018 383.455 65.4703 384.237 65.0015C385.018 64.5327 385.88 64.2983 386.824 64.2983C387.515 64.2983 388.162 64.4317 388.768 64.6986C389.38 64.959 389.904 65.3171 390.34 65.7728C390.776 66.222 391.118 66.7624 391.366 67.3939C391.619 68.0189 391.746 68.6829 391.746 69.386L391.746 69.9427L383.163 69.9429C383.273 70.939 383.687 71.7723 384.403 72.4429C385.125 73.1069 385.978 73.4389 386.961 73.4389C387.606 73.4389 388.202 73.2957 388.749 73.0092C389.295 72.7227 389.761 72.319 390.145 71.7982L391.219 72.5599C390.731 73.2305 390.119 73.7546 389.383 74.1322C388.648 74.5098 387.847 74.6987 386.981 74.6987C385.503 74.6987 384.256 74.1975 383.241 73.1949C382.232 72.1923 381.727 70.9618 381.727 69.5035ZM386.824 65.5581C385.926 65.5581 385.138 65.8576 384.461 66.4566C383.784 67.049 383.364 67.8108 383.202 68.7418L390.301 68.7416C390.171 67.8171 389.777 67.0554 389.119 66.4564C388.462 65.8575 387.697 65.558 386.824 65.5581ZM397.45 74.5226L397.449 60.5187L398.895 60.5187L398.895 66.1827C399.364 65.5903 399.936 65.128 400.614 64.796C401.291 64.4639 402.023 64.2979 402.811 64.2978C403.761 64.2978 404.637 64.5289 405.438 64.9911C406.239 65.4534 406.87 66.0848 407.332 66.8856C407.801 67.6799 408.036 68.5523 408.036 69.5028C408.036 70.4598 407.804 71.3387 407.342 72.1395C406.88 72.9403 406.249 73.5718 405.448 74.0341C404.647 74.4899 403.768 74.7177 402.811 74.7178C402.017 74.7178 401.281 74.5551 400.604 74.2295C399.933 73.904 399.364 73.4483 398.895 72.8624L398.895 74.5226L397.45 74.5226ZM400.008 66.7296C399.253 67.4913 398.875 68.4158 398.875 69.503C398.875 70.5903 399.25 71.518 399.999 72.2862C400.754 73.0544 401.665 73.4385 402.733 73.4385C403.807 73.4384 404.719 73.0576 405.467 72.2958C406.216 71.5276 406.59 70.5966 406.59 69.5028C406.59 68.4156 406.213 67.4911 405.457 66.7294C404.709 65.9677 403.8 65.5869 402.733 65.5869C401.672 65.5869 400.763 65.9678 400.008 66.7296ZM409.364 69.5027C409.364 68.5587 409.585 67.6896 410.028 66.8953C410.477 66.101 411.092 65.4695 411.873 65.0007C412.655 64.5319 413.517 64.2975 414.461 64.2975C415.151 64.2975 415.799 64.4309 416.405 64.6979C417.017 64.9583 417.541 65.3163 417.977 65.772C418.413 66.2212 418.755 66.7616 419.002 67.3931C419.256 68.0181 419.383 68.6822 419.383 69.3853L419.383 69.9419L410.799 69.9422C410.91 70.9382 411.323 71.7716 412.04 72.4421C412.762 73.1062 413.615 73.4382 414.598 73.4381C415.243 73.4381 415.838 73.2949 416.385 73.0084C416.932 72.7219 417.398 72.3183 417.782 71.7974L418.856 72.5591C418.368 73.2297 417.756 73.7538 417.02 74.1314C416.284 74.5091 415.484 74.6979 414.618 74.6979C413.14 74.698 411.893 74.1967 410.877 73.1941C409.868 72.1915 409.364 70.9611 409.364 69.5027ZM414.461 65.5573C413.563 65.5573 412.775 65.8568 412.098 66.4558C411.421 67.0483 411.001 67.81 410.838 68.741L417.938 68.7408C417.808 67.8163 417.414 67.0546 416.756 66.4557C416.099 65.8567 415.334 65.5573 414.461 65.5573ZM420.018 65.7622L420.018 64.4829L421.912 64.4829L421.912 62.4418C421.912 61.7908 422.095 61.2732 422.459 60.8891C422.83 60.4985 423.341 60.3031 423.992 60.3031L425.496 60.3031L425.496 61.5824L424.236 61.5824C423.957 61.5824 423.738 61.6703 423.582 61.8461C423.432 62.0154 423.358 62.253 423.358 62.559L423.358 64.4828L425.496 64.4828L425.496 65.7621L423.358 65.7621L423.358 74.5219L421.913 74.5219L421.912 65.7622L420.018 65.7622ZM435.819 66.8848C436.287 67.6856 436.522 68.558 436.522 69.502C436.522 70.446 436.288 71.3184 435.819 72.1192C435.35 72.92 434.709 73.5548 433.895 74.0235C433.088 74.4858 432.202 74.717 431.239 74.717C430.51 74.717 429.82 74.5803 429.168 74.3069C428.517 74.0335 427.958 73.6624 427.489 73.1936C427.02 72.7249 426.649 72.1715 426.375 71.5335C426.102 70.889 425.965 70.2119 425.965 69.5023C425.965 68.5583 426.196 67.6891 426.659 66.8948C427.121 66.094 427.755 65.4625 428.563 65.0003C429.377 64.5315 430.268 64.2971 431.239 64.2971C432.202 64.297 433.087 64.5281 433.895 64.9903C434.709 65.4526 435.35 66.0841 435.819 66.8848ZM435.077 69.502C435.077 68.4083 434.699 67.4838 433.944 66.7286C433.195 65.9669 432.293 65.5861 431.239 65.5861C430.177 65.5861 429.272 65.967 428.524 66.7288C427.775 67.484 427.401 68.4085 427.401 69.5022C427.401 70.5895 427.775 71.514 428.524 72.2756C429.273 73.0373 430.178 73.4182 431.239 73.4182C432.293 73.4181 433.195 73.0372 433.944 72.2755C434.699 71.5138 435.077 70.5893 435.077 69.502ZM442.752 65.742L442 65.7421C441.31 65.7421 440.744 66.0025 440.301 66.5234C439.858 67.0442 439.637 67.6985 439.637 68.4863L439.637 74.5214L438.192 74.5215L438.192 64.4824L439.637 64.4824L439.637 65.8007C439.884 65.3645 440.213 65.0227 440.623 64.7753C441.04 64.5279 441.518 64.4042 442.059 64.4042L442.752 64.4042L442.752 65.742ZM443.27 69.5018C443.27 68.5578 443.491 67.6886 443.934 66.8944C444.383 66.1001 444.998 65.4685 445.78 64.9998C446.561 64.531 447.423 64.2966 448.367 64.2966C449.058 64.2966 449.705 64.43 450.311 64.6969C450.923 64.9573 451.447 65.3154 451.883 65.7711C452.319 66.2203 452.661 66.7607 452.909 67.3922C453.162 68.0172 453.289 68.6812 453.289 69.3843L453.289 69.941L444.705 69.9412C444.816 70.9373 445.23 71.7706 445.946 72.4412C446.668 73.1052 447.521 73.4372 448.504 73.4372C449.149 73.4372 449.745 73.2939 450.292 73.0075C450.838 72.721 451.304 72.3173 451.688 71.7965L452.762 72.5582C452.274 73.2288 451.662 73.7529 450.926 74.1305C450.191 74.5081 449.39 74.6969 448.524 74.697C447.046 74.697 445.799 74.1957 444.784 73.1932C443.775 72.1906 443.27 70.9601 443.27 69.5018ZM448.367 65.5563C447.469 65.5564 446.681 65.8559 446.004 66.4548C445.327 67.0473 444.907 67.809 444.745 68.74L451.844 68.7398C451.714 67.8154 451.32 67.0537 450.662 66.4547C450.005 65.8558 449.24 65.5563 448.367 65.5563ZM462.274 74.5208C461.603 74.5208 461.076 74.3418 460.692 73.9837C460.308 73.6192 460.116 73.1374 460.116 72.5384L460.116 65.7611L458.241 65.7611L458.24 64.4819L460.115 64.4818L460.115 61.4642L461.561 61.4642L461.561 64.4818L463.934 64.4817L463.934 65.761L461.561 65.7611L461.561 72.3236C461.561 72.61 461.649 72.8346 461.825 72.9974C462.007 73.1601 462.264 73.2415 462.596 73.2415L463.934 73.2415L463.934 74.5208L462.274 74.5208ZM466.707 68.4562L466.708 74.5207L465.262 74.5207L465.262 60.5168L466.707 60.5168L466.707 65.8781C467.039 65.3768 467.482 64.9862 468.035 64.7062C468.595 64.4197 469.207 64.2765 469.871 64.2765C470.972 64.2764 471.873 64.6442 472.576 65.3799C473.28 66.109 473.631 67.0107 473.631 68.0849L473.631 74.5205L472.186 74.5205L472.186 68.3194C472.186 67.5186 471.945 66.8675 471.463 66.3663C470.981 65.8585 470.35 65.6046 469.569 65.6046C468.735 65.6046 468.048 65.8748 467.508 66.4152C466.974 66.9491 466.707 67.6294 466.707 68.4562ZM475.36 69.5009C475.36 68.5569 475.581 67.6878 476.024 66.8935C476.473 66.0992 477.088 65.4677 477.869 64.9989C478.651 64.5301 479.513 64.2957 480.457 64.2957C481.147 64.2957 481.795 64.4291 482.401 64.696C483.013 64.9564 483.537 65.3145 483.973 65.7702C484.409 66.2194 484.751 66.7598 484.998 67.3913C485.252 68.0163 485.379 68.6803 485.379 69.3834L485.379 69.9401L476.795 69.9403C476.906 70.9364 477.319 71.7697 478.036 72.4403C478.758 73.1043 479.611 73.4363 480.594 73.4363C481.239 73.4363 481.834 73.293 482.381 73.0066C482.928 72.7201 483.394 72.3164 483.778 71.7956L484.852 72.5573C484.364 73.2279 483.752 73.752 483.016 74.1296C482.28 74.5072 481.48 74.696 480.614 74.6961C479.136 74.6961 477.889 74.1948 476.874 73.1923C475.864 72.1897 475.36 70.9592 475.36 69.5009ZM480.457 65.5555C479.559 65.5555 478.771 65.855 478.094 66.454C477.417 67.0464 476.997 67.8082 476.834 68.7391L483.934 68.739C483.804 67.8145 483.41 67.0528 482.752 66.4538C482.095 65.8549 481.33 65.5554 480.457 65.5555ZM494.364 74.5199C493.693 74.5199 493.166 74.3409 492.782 73.9828C492.398 73.6183 492.206 73.1365 492.206 72.5375L492.205 65.7602L490.33 65.7603L490.33 64.481L492.205 64.4809L492.205 61.4633L493.651 61.4633L493.651 64.4809L496.024 64.4808L496.024 65.7601L493.651 65.7602L493.651 72.3227C493.651 72.6091 493.739 72.8337 493.915 72.9965C494.097 73.1592 494.354 73.2406 494.686 73.2406L496.024 73.2406L496.024 74.5199L494.364 74.5199ZM501.912 65.7404L501.16 65.7404C500.47 65.7404 499.904 66.0009 499.461 66.5217C499.019 67.0426 498.797 67.6969 498.797 68.4846L498.797 74.5198L497.352 74.5198L497.352 64.4808L498.797 64.4807L498.797 65.7991C499.045 65.3629 499.373 65.0211 499.783 64.7737C500.2 64.5263 500.679 64.4025 501.219 64.4025L501.912 64.4025L501.912 65.7404ZM504.676 62.4298C504.494 62.6121 504.272 62.7032 504.012 62.7032C503.752 62.7032 503.527 62.6121 503.338 62.4298C503.149 62.241 503.055 62.0164 503.055 61.756C503.055 61.4891 503.149 61.2645 503.338 61.0822C503.527 60.8934 503.751 60.7989 504.012 60.7989C504.272 60.7989 504.494 60.8933 504.676 61.0821C504.865 61.2644 504.959 61.489 504.959 61.7559C504.959 62.0164 504.865 62.241 504.676 62.4298ZM504.715 64.4806L504.715 74.5196L503.27 74.5197L503.27 64.4806L504.715 64.4806ZM506.805 64.4805L508.25 64.4805L508.25 66.1406C508.719 65.5547 509.289 65.0989 509.959 64.7734C510.636 64.4413 511.372 64.2753 512.166 64.2753C513.625 64.2752 514.858 64.783 515.867 65.7986C516.883 66.8077 517.391 68.0414 517.391 69.4997C517.391 70.4503 517.157 71.3259 516.688 72.1267C516.226 72.921 515.594 73.5493 514.793 74.0115C513.993 74.4673 513.117 74.6952 512.167 74.6952C511.379 74.6952 510.646 74.5325 509.969 74.207C509.292 73.875 508.719 73.4127 508.25 72.8203L508.251 78.3769L506.805 78.377L506.805 64.4805ZM509.354 66.7168C508.605 67.485 508.231 68.4128 508.231 69.5C508.231 70.5872 508.609 71.5117 509.364 72.2734C510.119 73.0351 511.027 73.4159 512.088 73.4159C513.156 73.4159 514.064 73.035 514.813 72.2732C515.568 71.5115 515.946 70.587 515.946 69.4998C515.946 68.4125 515.568 67.4848 514.813 66.7166C514.064 65.9419 513.156 65.5545 512.088 65.5546C511.02 65.5546 510.109 65.942 509.354 66.7168ZM518.28 73.0642C518.469 72.8754 518.693 72.781 518.954 72.7809C519.214 72.7809 519.439 72.8753 519.627 73.0641C519.816 73.2529 519.911 73.4775 519.911 73.7379C519.911 74.0049 519.816 74.236 519.627 74.4313C519.439 74.6201 519.214 74.7145 518.954 74.7145C518.693 74.7145 518.469 74.6202 518.28 74.4314C518.091 74.236 517.997 74.0049 517.997 73.738C517.997 73.4776 518.091 73.253 518.28 73.0642Z" fill="#19202B" fill-opacity="0.6"/>
<rect x="42.3516" y="0.613281" width="49.3573" height="49.3573" rx="10" transform="rotate(45 42.3516 0.613281)" fill="#FFF9E2"/>
<path d="M2.22852 38.6455V33.3428C2.22852 30.8525 2.98047 28.8555 4.48438 27.3516C5.98828 25.8477 7.98535 25.0957 10.4756 25.0957C12.9658 25.0957 14.958 25.8477 16.4521 27.3516C17.9463 28.8457 18.6934 30.8428 18.6934 33.3428V38.6455C18.6934 41.1553 17.9463 43.167 16.4521 44.6807C14.958 46.1846 12.9658 46.9365 10.4756 46.9365C7.98535 46.9365 5.98828 46.1797 4.48438 44.666C2.98047 43.1523 2.22852 41.1455 2.22852 38.6455ZM14.8262 38.5576V33.4307C14.8262 31.8975 14.4404 30.6963 13.6689 29.8271C12.8975 28.9482 11.833 28.5088 10.4756 28.5088C9.11816 28.5088 8.04883 28.9482 7.26758 29.8271C6.48633 30.6963 6.0957 31.8975 6.0957 33.4307V38.5576C6.0957 40.0908 6.48633 41.3018 7.26758 42.1904C8.04883 43.0693 9.11816 43.5088 10.4756 43.5088C11.833 43.5088 12.8975 43.0693 13.6689 42.1904C14.4404 41.3115 14.8262 40.1006 14.8262 38.5576ZM29.46 46.7754C26.9307 46.7754 24.9141 45.8672 23.4102 44.0508C21.9062 42.2344 21.1543 39.793 21.1543 36.7266V35.9502C21.1543 32.6006 21.9209 29.9443 23.4541 27.9814C24.9873 26.0186 27.0625 25.0371 29.6797 25.0371C32.4141 25.0371 34.6895 26.0674 36.5059 28.1279L33.9277 30.457C32.7266 29.041 31.3105 28.333 29.6797 28.333C28.4004 28.333 27.3164 28.8896 26.4277 30.0029C25.5488 31.1064 25.0801 32.5811 25.0215 34.4268C26.3008 33.0596 27.9707 32.376 30.0312 32.376C31.3008 32.376 32.4824 32.6885 33.5762 33.3135C34.6699 33.9385 35.5391 34.7832 36.1836 35.8477C36.8281 36.9121 37.1504 38.0645 37.1504 39.3047C37.1504 41.4043 36.4082 43.1768 34.9238 44.6221C33.4395 46.0576 31.6182 46.7754 29.46 46.7754ZM29.3428 43.4795C30.4854 43.4795 31.4521 43.0986 32.2432 42.3369C33.0342 41.5752 33.4297 40.6377 33.4297 39.5244C33.4297 38.4014 33.0342 37.459 32.2432 36.6973C31.4521 35.9355 30.4854 35.5547 29.3428 35.5547C28.2197 35.5547 27.2676 35.9355 26.4863 36.6973C25.7148 37.459 25.3291 38.4014 25.3291 39.5244C25.3291 40.6377 25.7148 41.5752 26.4863 42.3369C27.2578 43.0986 28.21 43.4795 29.3428 43.4795Z" fill="black" fill-opacity="0.2"/>
</svg>
