<svg width="222" height="71" viewBox="0 0 222 71" fill="none" xmlns="http://www.w3.org/2000/svg">
<path d="M90.2617 42.2617H87.7617V28.2578H90.7305L97.8008 38.5605L97.7812 28.2578H100.281V42.2617H97.3223L90.2422 31.959L90.2617 42.2617ZM113.182 37.1055C113.182 37.8411 113.032 38.5443 112.732 39.2148C112.433 39.8854 112.029 40.4648 111.521 40.9531C111.014 41.4414 110.408 41.8288 109.705 42.1152C109.008 42.4017 108.273 42.5449 107.498 42.5449C106.476 42.5449 105.529 42.304 104.656 41.8223C103.784 41.334 103.09 40.6732 102.576 39.8398C102.068 39 101.814 38.0885 101.814 37.1055C101.814 36.1224 102.068 35.2142 102.576 34.3809C103.09 33.541 103.784 32.8802 104.656 32.3984C105.529 31.9102 106.476 31.666 107.498 31.666C108.527 31.666 109.477 31.9069 110.35 32.3887C111.222 32.8704 111.912 33.5312 112.42 34.3711C112.928 35.2044 113.182 36.1159 113.182 37.1055ZM109.676 39.3223C110.275 38.7168 110.574 37.9779 110.574 37.1055C110.574 36.2331 110.275 35.4941 109.676 34.8887C109.083 34.2832 108.357 33.9805 107.498 33.9805C106.645 33.9805 105.919 34.2865 105.32 34.8984C104.721 35.5039 104.422 36.2396 104.422 37.1055C104.422 37.9714 104.721 38.707 105.32 39.3125C105.919 39.918 106.645 40.2207 107.498 40.2207C108.357 40.2207 109.083 39.9212 109.676 39.3223ZM118.387 37.9258H121.004C121.102 38.6549 121.408 39.2279 121.922 39.6445C122.436 40.0547 123.117 40.2598 123.963 40.2598C124.718 40.2598 125.301 40.1003 125.711 39.7812C126.121 39.4557 126.326 39.0358 126.326 38.5215C126.326 38.1113 126.173 37.7565 125.867 37.457C125.561 37.151 125.141 36.9329 124.607 36.8027L122.225 36.1973C120.968 35.8717 120.034 35.3867 119.422 34.7422C118.81 34.0911 118.504 33.2448 118.504 32.2031C118.504 30.9531 118.96 29.944 119.871 29.1758C120.789 28.4076 121.945 28.0234 123.338 28.0234C124.77 28.0234 125.965 28.4368 126.922 29.2637C127.885 30.084 128.465 31.1647 128.66 32.5059H126.023C125.867 31.7962 125.561 31.2461 125.105 30.8555C124.65 30.4583 124.054 30.2598 123.318 30.2598C122.693 30.2598 122.179 30.416 121.775 30.7285C121.378 31.0345 121.18 31.4577 121.18 31.998C121.18 32.8314 121.753 33.3978 122.898 33.6973L125.262 34.3223C126.57 34.6673 127.521 35.1556 128.113 35.7871C128.706 36.4121 129.002 37.2487 129.002 38.2969C129.002 39.5078 128.536 40.5137 127.605 41.3145C126.674 42.1087 125.454 42.5059 123.943 42.5059C122.413 42.5059 121.131 42.0827 120.096 41.2363C119.067 40.39 118.497 39.2865 118.387 37.9258ZM130.555 38.502V31.9199H133.172V37.9844C133.172 38.6289 133.37 39.1595 133.768 39.5762C134.165 39.9928 134.682 40.2012 135.32 40.2012C135.958 40.2012 136.476 39.9961 136.873 39.5859C137.277 39.1758 137.479 38.6419 137.479 37.9844V31.9199H140.096V42.2617H137.479V41.3438C136.723 42.1185 135.776 42.5059 134.637 42.5059C133.445 42.5059 132.465 42.1217 131.697 41.3535C130.936 40.5853 130.555 39.6348 130.555 38.502ZM147.664 34.2246H146.727C146.089 34.2246 145.561 34.446 145.145 34.8887C144.728 35.3314 144.52 35.9368 144.52 36.7051V42.2617H141.902V31.9199H144.5V33.043C145.053 32.2292 145.874 31.8223 146.961 31.8223H147.664V34.2246ZM151.668 34.8789C151.069 35.4844 150.77 36.2201 150.77 37.0859C150.77 37.9518 151.069 38.6908 151.668 39.3027C152.267 39.9147 152.993 40.2207 153.846 40.2207C154.933 40.2207 155.799 39.7747 156.443 38.8828L158.309 40.2402C157.15 41.7637 155.662 42.5254 153.846 42.5254C152.798 42.5254 151.837 42.2812 150.965 41.793C150.092 41.3047 149.406 40.6471 148.904 39.8203C148.41 38.987 148.162 38.0755 148.162 37.0859C148.162 36.1029 148.41 35.1979 148.904 34.3711C149.406 33.5378 150.092 32.8802 150.965 32.3984C151.837 31.9102 152.798 31.666 153.846 31.666C155.662 31.666 157.15 32.4245 158.309 33.9414L156.443 35.2988C155.799 34.4069 154.933 33.9609 153.846 33.9609C152.993 33.9609 152.267 34.2669 151.668 34.8789ZM162 36.1973V42.2617H159.383V28.2578H162V32.8184C162.742 32.0371 163.702 31.6465 164.881 31.6465C166.066 31.6465 167.036 32.0339 167.791 32.8086C168.546 33.5768 168.924 34.5339 168.924 35.6797V42.2617H166.307V36.1973C166.307 35.5267 166.108 34.9896 165.711 34.5859C165.32 34.1823 164.806 33.9805 164.168 33.9805C163.53 33.9805 163.009 34.1823 162.605 34.5859C162.202 34.9831 162 35.5202 162 36.1973ZM170.271 39.3613C170.271 38.4434 170.571 37.7207 171.17 37.1934C171.769 36.666 172.622 36.3633 173.729 36.2852L176.775 36.0605V35.6602C176.775 35.1458 176.609 34.7454 176.277 34.459C175.945 34.166 175.477 34.0195 174.871 34.0195C173.96 34.0195 173.048 34.3255 172.137 34.9375L171.033 33.082C172.29 32.1641 173.676 31.7051 175.193 31.7051C176.437 31.7051 177.433 32.0371 178.182 32.7012C178.937 33.3587 179.314 34.2376 179.314 35.3379V39.4004C179.314 39.804 179.507 40.0059 179.891 40.0059H180.428V42.2617H179.217C178.722 42.2617 178.289 42.1543 177.918 41.9395C177.547 41.7246 177.27 41.4251 177.088 41.041C176.717 41.5098 176.255 41.8743 175.701 42.1348C175.148 42.3952 174.533 42.5254 173.855 42.5254C172.827 42.5254 171.971 42.2259 171.287 41.627C170.61 41.028 170.271 40.2728 170.271 39.3613ZM172.771 39.3418C172.771 39.6999 172.924 39.9863 173.23 40.2012C173.536 40.416 173.937 40.5234 174.432 40.5234C175.083 40.5234 175.636 40.3411 176.092 39.9766C176.548 39.6055 176.775 39.1595 176.775 38.6387V37.9844L174.09 38.2188C173.211 38.2969 172.771 38.6712 172.771 39.3418ZM187.391 34.2246H186.453C185.815 34.2246 185.288 34.446 184.871 34.8887C184.454 35.3314 184.246 35.9368 184.246 36.7051V42.2617H181.629V31.9199H184.227V33.043C184.78 32.2292 185.6 31.8223 186.688 31.8223H187.391V34.2246ZM199.188 31.9199V42.6621C199.188 43.8014 198.833 44.7194 198.123 45.416C197.413 46.1126 196.469 46.4609 195.291 46.4609H192.391V44.2637H194.695C195.314 44.2637 195.779 44.1074 196.092 43.7949C196.411 43.4889 196.57 43.043 196.57 42.457V41.1973C195.607 41.972 194.526 42.3594 193.328 42.3594C192.339 42.3594 191.427 42.1217 190.594 41.6465C189.76 41.1712 189.1 40.5234 188.611 39.7031C188.13 38.8763 187.889 37.9746 187.889 36.998C187.889 36.0215 188.13 35.123 188.611 34.3027C189.1 33.4824 189.76 32.8346 190.594 32.3594C191.434 31.8841 192.345 31.6465 193.328 31.6465C194.559 31.6465 195.646 32.0371 196.59 32.8184V31.9199H199.188ZM190.496 36.998C190.496 37.8509 190.792 38.5768 191.385 39.1758C191.984 39.7682 192.706 40.0645 193.553 40.0645C194.412 40.0645 195.135 39.7682 195.721 39.1758C196.313 38.5768 196.609 37.8509 196.609 36.998C196.609 36.1387 196.313 35.4128 195.721 34.8203C195.128 34.2214 194.406 33.9219 193.553 33.9219C192.713 33.9219 191.993 34.2246 191.395 34.8301C190.796 35.429 190.496 36.1517 190.496 36.998ZM200.623 37.0859C200.623 36.1354 200.854 35.2467 201.316 34.4199C201.779 33.5931 202.423 32.9323 203.25 32.4375C204.077 31.9362 204.988 31.6855 205.984 31.6855C207.534 31.6855 208.803 32.2031 209.793 33.2383C210.789 34.2734 211.287 35.5951 211.287 37.2031V37.9648H203.309C203.484 38.6484 203.836 39.2051 204.363 39.6348C204.891 40.0645 205.506 40.2793 206.209 40.2793C206.775 40.2793 207.277 40.1751 207.713 39.9668C208.149 39.752 208.553 39.4036 208.924 38.9219L210.75 40.2793C210.223 40.9954 209.575 41.5488 208.807 41.9395C208.038 42.3301 207.179 42.5254 206.229 42.5254C205.187 42.5254 204.236 42.2943 203.377 41.832C202.524 41.3698 201.85 40.722 201.355 39.8887C200.867 39.0553 200.623 38.1211 200.623 37.0859ZM205.926 33.9219C205.314 33.9219 204.777 34.1042 204.314 34.4688C203.852 34.8333 203.53 35.3314 203.348 35.9629H208.65C208.462 35.3314 208.12 34.8333 207.625 34.4688C207.13 34.1042 206.564 33.9219 205.926 33.9219ZM216.922 42.5059C215.607 42.5059 214.533 42.1803 213.699 41.5293C212.872 40.8783 212.355 40.0352 212.146 39H214.627C214.751 39.5013 215.018 39.8757 215.428 40.123C215.838 40.3639 216.336 40.4844 216.922 40.4844C217.391 40.4844 217.755 40.3867 218.016 40.1914C218.276 39.9961 218.406 39.7389 218.406 39.4199C218.406 39.2051 218.318 39.013 218.143 38.8438C217.967 38.6745 217.706 38.5475 217.361 38.4629L215.223 37.9648C213.289 37.5026 212.322 36.487 212.322 34.918C212.322 33.9414 212.684 33.1569 213.406 32.5645C214.129 31.9655 215.053 31.666 216.18 31.666C217.456 31.666 218.491 31.998 219.285 32.6621C220.086 33.3197 220.564 34.166 220.721 35.2012H218.26C218.13 34.6934 217.866 34.3125 217.469 34.0586C217.072 33.8047 216.635 33.6777 216.16 33.6777C215.757 33.6777 215.441 33.7689 215.213 33.9512C214.992 34.1335 214.881 34.3646 214.881 34.6445C214.881 35.1784 215.294 35.543 216.121 35.7383L218.104 36.2266C219.998 36.6823 220.945 37.6816 220.945 39.2246C220.945 40.1751 220.581 40.9596 219.852 41.5781C219.122 42.1966 218.146 42.5059 216.922 42.5059Z" fill="black"/>
<rect x="42.3516" y="0.363281" width="49.3573" height="49.3573" rx="10" transform="rotate(45 42.3516 0.363281)" fill="#FFF9E2"/>
<path d="M2.22852 38.3955V33.0928C2.22852 30.6025 2.98047 28.6055 4.48438 27.1016C5.98828 25.5977 7.98535 24.8457 10.4756 24.8457C12.9658 24.8457 14.958 25.5977 16.4521 27.1016C17.9463 28.5957 18.6934 30.5928 18.6934 33.0928V38.3955C18.6934 40.9053 17.9463 42.917 16.4521 44.4307C14.958 45.9346 12.9658 46.6865 10.4756 46.6865C7.98535 46.6865 5.98828 45.9297 4.48438 44.416C2.98047 42.9023 2.22852 40.8955 2.22852 38.3955ZM14.8262 38.3076V33.1807C14.8262 31.6475 14.4404 30.4463 13.6689 29.5771C12.8975 28.6982 11.833 28.2588 10.4756 28.2588C9.11816 28.2588 8.04883 28.6982 7.26758 29.5771C6.48633 30.4463 6.0957 31.6475 6.0957 33.1807V38.3076C6.0957 39.8408 6.48633 41.0518 7.26758 41.9404C8.04883 42.8193 9.11816 43.2588 10.4756 43.2588C11.833 43.2588 12.8975 42.8193 13.6689 41.9404C14.4404 41.0615 14.8262 39.8506 14.8262 38.3076ZM34.3672 31.3203C34.3672 32.502 34.1084 33.6055 33.5908 34.6309C33.083 35.6562 32.1943 36.8135 30.9248 38.1025L26.208 42.8779H34.5137V46.2617H20.3047V43.8887L28.2441 35.7002C29.084 34.8311 29.6553 34.1182 29.958 33.5615C30.2607 33.0049 30.4121 32.3799 30.4121 31.6865C30.4121 30.71 30.0654 29.9043 29.3721 29.2695C28.6885 28.6348 27.8242 28.3174 26.7793 28.3174C25.9199 28.3174 25.1289 28.5273 24.4062 28.9473C23.6836 29.3672 22.9658 30.0166 22.2529 30.8955L19.7041 28.5371C21.667 26.1348 24.167 24.9336 27.2041 24.9336C29.3037 24.9336 31.0225 25.5342 32.3604 26.7354C33.6982 27.9268 34.3672 29.4551 34.3672 31.3203Z" fill="black" fill-opacity="0.2"/>
</svg>
