<svg width="764" height="111" viewBox="0 0 764 111" fill="none" xmlns="http://www.w3.org/2000/svg">
<path d="M90.4668 42.6289H87.7617V28.625H96.5898V30.9883H90.4668V34.4648H96.3848V36.7695H90.4668V42.6289ZM103.973 34.5918H103.035C102.397 34.5918 101.87 34.8132 101.453 35.2559C101.036 35.6986 100.828 36.304 100.828 37.0723V42.6289H98.2109V32.2871H100.809V33.4102C101.362 32.5964 102.182 32.1895 103.27 32.1895H103.973V34.5918ZM104.471 37.4531C104.471 36.5026 104.702 35.6139 105.164 34.7871C105.626 33.9603 106.271 33.2995 107.098 32.8047C107.924 32.3034 108.836 32.0527 109.832 32.0527C111.382 32.0527 112.651 32.5703 113.641 33.6055C114.637 34.6406 115.135 35.9622 115.135 37.5703V38.332H107.156C107.332 39.0156 107.684 39.5723 108.211 40.002C108.738 40.4316 109.354 40.6465 110.057 40.6465C110.623 40.6465 111.124 40.5423 111.561 40.334C111.997 40.1191 112.4 39.7708 112.771 39.2891L114.598 40.6465C114.07 41.3626 113.423 41.916 112.654 42.3066C111.886 42.6973 111.027 42.8926 110.076 42.8926C109.035 42.8926 108.084 42.6615 107.225 42.1992C106.372 41.737 105.698 41.0892 105.203 40.2559C104.715 39.4225 104.471 38.4883 104.471 37.4531ZM109.773 34.2891C109.161 34.2891 108.624 34.4714 108.162 34.8359C107.7 35.2005 107.378 35.6986 107.195 36.3301H112.498C112.309 35.6986 111.967 35.2005 111.473 34.8359C110.978 34.4714 110.411 34.2891 109.773 34.2891ZM116.229 37.4531C116.229 36.5026 116.46 35.6139 116.922 34.7871C117.384 33.9603 118.029 33.2995 118.855 32.8047C119.682 32.3034 120.594 32.0527 121.59 32.0527C123.139 32.0527 124.409 32.5703 125.398 33.6055C126.395 34.6406 126.893 35.9622 126.893 37.5703V38.332H118.914C119.09 39.0156 119.441 39.5723 119.969 40.002C120.496 40.4316 121.111 40.6465 121.814 40.6465C122.381 40.6465 122.882 40.5423 123.318 40.334C123.755 40.1191 124.158 39.7708 124.529 39.2891L126.355 40.6465C125.828 41.3626 125.18 41.916 124.412 42.3066C123.644 42.6973 122.785 42.8926 121.834 42.8926C120.792 42.8926 119.842 42.6615 118.982 42.1992C118.13 41.737 117.456 41.0892 116.961 40.2559C116.473 39.4225 116.229 38.4883 116.229 37.4531ZM121.531 34.2891C120.919 34.2891 120.382 34.4714 119.92 34.8359C119.458 35.2005 119.135 35.6986 118.953 36.3301H124.256C124.067 35.6986 123.725 35.2005 123.23 34.8359C122.736 34.4714 122.169 34.2891 121.531 34.2891ZM142.85 28.625L146.17 38.7324L148.758 28.625H151.551L147.576 42.6289H144.852L141.609 32.707L138.357 42.6289H135.633L131.648 28.625H134.549L137.137 38.752L140.457 28.625H142.85ZM151.189 39.7285C151.189 38.8105 151.489 38.0879 152.088 37.5605C152.687 37.0332 153.54 36.7305 154.646 36.6523L157.693 36.4277V36.0273C157.693 35.513 157.527 35.1126 157.195 34.8262C156.863 34.5332 156.395 34.3867 155.789 34.3867C154.878 34.3867 153.966 34.6927 153.055 35.3047L151.951 33.4492C153.208 32.5312 154.594 32.0723 156.111 32.0723C157.355 32.0723 158.351 32.4043 159.1 33.0684C159.855 33.7259 160.232 34.6048 160.232 35.7051V39.7676C160.232 40.1712 160.424 40.373 160.809 40.373H161.346V42.6289H160.135C159.64 42.6289 159.207 42.5215 158.836 42.3066C158.465 42.0918 158.188 41.7923 158.006 41.4082C157.635 41.877 157.173 42.2415 156.619 42.502C156.066 42.7624 155.451 42.8926 154.773 42.8926C153.745 42.8926 152.889 42.5931 152.205 41.9941C151.528 41.3952 151.189 40.64 151.189 39.7285ZM153.689 39.709C153.689 40.0671 153.842 40.3535 154.148 40.5684C154.454 40.7832 154.855 40.8906 155.35 40.8906C156.001 40.8906 156.554 40.7083 157.01 40.3438C157.465 39.9727 157.693 39.5267 157.693 39.0059V38.3516L155.008 38.5859C154.129 38.6641 153.689 39.0384 153.689 39.709ZM164.891 30.7734C164.617 31.0534 164.275 31.1934 163.865 31.1934C163.455 31.1934 163.107 31.0534 162.82 30.7734C162.534 30.487 162.391 30.1387 162.391 29.7285C162.391 29.3184 162.534 28.9766 162.82 28.7031C163.107 28.4297 163.455 28.293 163.865 28.293C164.275 28.293 164.617 28.4297 164.891 28.7031C165.171 28.9766 165.311 29.3184 165.311 29.7285C165.311 30.1387 165.171 30.487 164.891 30.7734ZM165.164 32.2871V42.6289H162.547V32.2871H165.164ZM171.121 42.6289C170.21 42.6289 169.507 42.3913 169.012 41.916C168.523 41.4342 168.279 40.806 168.279 40.0312V34.5527H166.258V32.2871H168.279V29.2891H170.887V32.2871H173.162V34.5527H170.887V39.5723C170.887 39.8327 170.971 40.0312 171.141 40.168C171.316 40.3047 171.557 40.373 171.863 40.373H173.162V42.6289H171.121ZM176.629 30.7734C176.355 31.0534 176.014 31.1934 175.604 31.1934C175.193 31.1934 174.845 31.0534 174.559 30.7734C174.272 30.487 174.129 30.1387 174.129 29.7285C174.129 29.3184 174.272 28.9766 174.559 28.7031C174.845 28.4297 175.193 28.293 175.604 28.293C176.014 28.293 176.355 28.4297 176.629 28.7031C176.909 28.9766 177.049 29.3184 177.049 29.7285C177.049 30.1387 176.909 30.487 176.629 30.7734ZM176.902 32.2871V42.6289H174.285V32.2871H176.902ZM188.24 36.0469V42.6289H185.623V36.5645C185.623 35.8939 185.424 35.3568 185.027 34.9531C184.637 34.5495 184.122 34.3477 183.484 34.3477C182.846 34.3477 182.326 34.5495 181.922 34.9531C181.518 35.3503 181.316 35.8874 181.316 36.5645V42.6289H178.699V32.2871H181.316V33.166C182.065 32.3978 183.012 32.0137 184.158 32.0137C185.356 32.0137 186.336 32.401 187.098 33.1758C187.859 33.944 188.24 34.901 188.24 36.0469ZM200.984 32.2871V43.0293C200.984 44.1686 200.63 45.0866 199.92 45.7832C199.21 46.4798 198.266 46.8281 197.088 46.8281H194.188V44.6309H196.492C197.111 44.6309 197.576 44.4746 197.889 44.1621C198.208 43.8561 198.367 43.4102 198.367 42.8242V41.5645C197.404 42.3392 196.323 42.7266 195.125 42.7266C194.135 42.7266 193.224 42.4889 192.391 42.0137C191.557 41.5384 190.896 40.8906 190.408 40.0703C189.926 39.2435 189.686 38.3418 189.686 37.3652C189.686 36.3887 189.926 35.4902 190.408 34.6699C190.896 33.8496 191.557 33.2018 192.391 32.7266C193.23 32.2513 194.142 32.0137 195.125 32.0137C196.355 32.0137 197.443 32.4043 198.387 33.1855V32.2871H200.984ZM192.293 37.3652C192.293 38.2181 192.589 38.944 193.182 39.543C193.781 40.1354 194.503 40.4316 195.35 40.4316C196.209 40.4316 196.932 40.1354 197.518 39.543C198.11 38.944 198.406 38.2181 198.406 37.3652C198.406 36.5059 198.11 35.7799 197.518 35.1875C196.925 34.5885 196.202 34.2891 195.35 34.2891C194.51 34.2891 193.79 34.5918 193.191 35.1973C192.592 35.7962 192.293 36.5189 192.293 37.3652ZM206.287 30.9883V28.625H217.605V30.9883H213.289V42.6289H210.584V30.9883H206.287ZM221.258 30.7734C220.984 31.0534 220.643 31.1934 220.232 31.1934C219.822 31.1934 219.474 31.0534 219.188 30.7734C218.901 30.487 218.758 30.1387 218.758 29.7285C218.758 29.3184 218.901 28.9766 219.188 28.7031C219.474 28.4297 219.822 28.293 220.232 28.293C220.643 28.293 220.984 28.4297 221.258 28.7031C221.538 28.9766 221.678 29.3184 221.678 29.7285C221.678 30.1387 221.538 30.487 221.258 30.7734ZM221.531 32.2871V42.6289H218.914V32.2871H221.531ZM225.926 36.5059V42.6289H223.328V32.2871H225.926V33.127C226.668 32.3848 227.596 32.0137 228.709 32.0137C229.458 32.0137 230.125 32.1764 230.711 32.502C231.303 32.821 231.769 33.2637 232.107 33.8301C232.459 33.2572 232.924 32.8112 233.504 32.4922C234.09 32.1732 234.731 32.0137 235.428 32.0137C236.593 32.0137 237.54 32.3913 238.27 33.1465C239.005 33.9017 239.373 34.8424 239.373 35.9688V42.6289H236.766V36.5059C236.766 35.8678 236.574 35.3503 236.189 34.9531C235.812 34.5495 235.317 34.3477 234.705 34.3477C234.1 34.3477 233.605 34.5462 233.221 34.9434C232.843 35.334 232.654 35.8548 232.654 36.5059V42.6289H230.047V36.5059C230.047 35.8678 229.855 35.3503 229.471 34.9531C229.093 34.5495 228.598 34.3477 227.986 34.3477C227.374 34.3477 226.876 34.543 226.492 34.9336C226.115 35.3242 225.926 35.8483 225.926 36.5059ZM240.818 37.4531C240.818 36.5026 241.049 35.6139 241.512 34.7871C241.974 33.9603 242.618 33.2995 243.445 32.8047C244.272 32.3034 245.184 32.0527 246.18 32.0527C247.729 32.0527 248.999 32.5703 249.988 33.6055C250.984 34.6406 251.482 35.9622 251.482 37.5703V38.332H243.504C243.68 39.0156 244.031 39.5723 244.559 40.002C245.086 40.4316 245.701 40.6465 246.404 40.6465C246.971 40.6465 247.472 40.5423 247.908 40.334C248.344 40.1191 248.748 39.7708 249.119 39.2891L250.945 40.6465C250.418 41.3626 249.77 41.916 249.002 42.3066C248.234 42.6973 247.374 42.8926 246.424 42.8926C245.382 42.8926 244.432 42.6615 243.572 42.1992C242.719 41.737 242.046 41.0892 241.551 40.2559C241.062 39.4225 240.818 38.4883 240.818 37.4531ZM246.121 34.2891C245.509 34.2891 244.972 34.4714 244.51 34.8359C244.048 35.2005 243.725 35.6986 243.543 36.3301H248.846C248.657 35.6986 248.315 35.2005 247.82 34.8359C247.326 34.4714 246.759 34.2891 246.121 34.2891ZM259.646 37.1504C259.646 38.153 259.939 38.9635 260.525 39.582C261.111 40.2005 261.85 40.5098 262.742 40.5098C263.628 40.5098 264.36 40.1973 264.939 39.5723C265.525 38.9473 265.818 38.14 265.818 37.1504V28.625H268.523V42.6289H265.848V41.6328C264.852 42.4857 263.702 42.9121 262.4 42.9121C260.825 42.9121 259.52 42.3978 258.484 41.3691C257.456 40.334 256.941 38.9863 256.941 37.3262V28.625H259.646V37.1504ZM270.418 32.2871H273.016V33.2734C273.986 32.4466 275.099 32.0332 276.355 32.0332C277.111 32.0332 277.83 32.1797 278.514 32.4727C279.197 32.7591 279.783 33.1465 280.271 33.6348C280.766 34.123 281.157 34.7025 281.443 35.373C281.736 36.0371 281.883 36.737 281.883 37.4727C281.883 38.2083 281.736 38.9115 281.443 39.582C281.157 40.2526 280.766 40.832 280.271 41.3203C279.783 41.8086 279.197 42.196 278.514 42.4824C277.83 42.7689 277.111 42.9121 276.355 42.9121C275.125 42.9121 274.018 42.5052 273.035 41.6914V46.8281H270.418V32.2871ZM272.996 37.4727C272.996 38.3516 273.302 39.0938 273.914 39.6992C274.526 40.3047 275.268 40.6074 276.141 40.6074C277.007 40.6074 277.745 40.3047 278.357 39.6992C278.969 39.0872 279.275 38.3451 279.275 37.4727C279.275 36.6068 278.966 35.8646 278.348 35.2461C277.736 34.6211 277 34.3086 276.141 34.3086C275.275 34.3086 274.533 34.6178 273.914 35.2363C273.302 35.8548 272.996 36.6003 272.996 37.4727ZM286.814 30.9883V28.625H298.133V30.9883H293.816V42.6289H291.111V30.9883H286.814ZM308.045 37.4727C308.045 38.2083 307.895 38.9115 307.596 39.582C307.296 40.2526 306.893 40.832 306.385 41.3203C305.877 41.8086 305.271 42.196 304.568 42.4824C303.872 42.7689 303.136 42.9121 302.361 42.9121C301.339 42.9121 300.392 42.6712 299.52 42.1895C298.647 41.7012 297.954 41.0404 297.439 40.207C296.932 39.3672 296.678 38.4557 296.678 37.4727C296.678 36.4896 296.932 35.5814 297.439 34.748C297.954 33.9082 298.647 33.2474 299.52 32.7656C300.392 32.2773 301.339 32.0332 302.361 32.0332C303.39 32.0332 304.34 32.2741 305.213 32.7559C306.085 33.2376 306.775 33.8984 307.283 34.7383C307.791 35.5716 308.045 36.4831 308.045 37.4727ZM304.539 39.6895C305.138 39.084 305.438 38.3451 305.438 37.4727C305.438 36.6003 305.138 35.8613 304.539 35.2559C303.947 34.6504 303.221 34.3477 302.361 34.3477C301.508 34.3477 300.783 34.6536 300.184 35.2656C299.585 35.8711 299.285 36.6068 299.285 37.4727C299.285 38.3385 299.585 39.0742 300.184 39.6797C300.783 40.2852 301.508 40.5879 302.361 40.5879C303.221 40.5879 303.947 40.2884 304.539 39.6895ZM321.971 40.3242V42.6289H313.025V40.3242H316.189V30.9297H313.504V28.625H318.787V40.3242H321.971ZM330.096 42.6289H327.391V28.625H330.096V34.4258H336.238V28.625H338.934V42.6289H336.238V36.7891H330.096V42.6289ZM351.814 37.4727C351.814 38.2083 351.665 38.9115 351.365 39.582C351.066 40.2526 350.662 40.832 350.154 41.3203C349.646 41.8086 349.041 42.196 348.338 42.4824C347.641 42.7689 346.906 42.9121 346.131 42.9121C345.109 42.9121 344.161 42.6712 343.289 42.1895C342.417 41.7012 341.723 41.0404 341.209 40.207C340.701 39.3672 340.447 38.4557 340.447 37.4727C340.447 36.4896 340.701 35.5814 341.209 34.748C341.723 33.9082 342.417 33.2474 343.289 32.7656C344.161 32.2773 345.109 32.0332 346.131 32.0332C347.16 32.0332 348.11 32.2741 348.982 32.7559C349.855 33.2376 350.545 33.8984 351.053 34.7383C351.561 35.5716 351.814 36.4831 351.814 37.4727ZM348.309 39.6895C348.908 39.084 349.207 38.3451 349.207 37.4727C349.207 36.6003 348.908 35.8613 348.309 35.2559C347.716 34.6504 346.99 34.3477 346.131 34.3477C345.278 34.3477 344.552 34.6536 343.953 35.2656C343.354 35.8711 343.055 36.6068 343.055 37.4727C343.055 38.3385 343.354 39.0742 343.953 39.6797C344.552 40.2852 345.278 40.5879 346.131 40.5879C346.99 40.5879 347.716 40.2884 348.309 39.6895ZM353.25 38.8691V32.2871H355.867V38.3516C355.867 38.9961 356.066 39.5267 356.463 39.9434C356.86 40.36 357.378 40.5684 358.016 40.5684C358.654 40.5684 359.171 40.3633 359.568 39.9531C359.972 39.543 360.174 39.0091 360.174 38.3516V32.2871H362.791V42.6289H360.174V41.7109C359.419 42.4857 358.471 42.873 357.332 42.873C356.141 42.873 355.161 42.4889 354.393 41.7207C353.631 40.9525 353.25 40.002 353.25 38.8691ZM370.359 34.5918H369.422C368.784 34.5918 368.257 34.8132 367.84 35.2559C367.423 35.6986 367.215 36.304 367.215 37.0723V42.6289H364.598V32.2871H367.195V33.4102C367.749 32.5964 368.569 32.1895 369.656 32.1895H370.359V34.5918ZM383.25 28.625L389.158 42.6289H386.277L384.891 39.2109H378.816L377.43 42.6289H374.637L380.535 28.625H383.25ZM379.734 36.8672H383.953L381.854 31.6328L379.734 36.8672ZM393.113 42.6289C392.202 42.6289 391.499 42.3913 391.004 41.916C390.516 41.4342 390.271 40.806 390.271 40.0312V34.5527H388.25V32.2871H390.271V29.2891H392.879V32.2871H395.154V34.5527H392.879V39.5723C392.879 39.8327 392.964 40.0312 393.133 40.168C393.309 40.3047 393.549 40.373 393.855 40.373H395.154V42.6289H393.113ZM399.783 30.9883V28.625H411.102V30.9883H406.785V42.6289H404.08V30.9883H399.783ZM415.027 36.5645V42.6289H412.41V28.625H415.027V33.1855C415.77 32.4043 416.73 32.0137 417.908 32.0137C419.093 32.0137 420.063 32.401 420.818 33.1758C421.574 33.944 421.951 34.901 421.951 36.0469V42.6289H419.334V36.5645C419.334 35.8939 419.135 35.3568 418.738 34.9531C418.348 34.5495 417.833 34.3477 417.195 34.3477C416.557 34.3477 416.036 34.5495 415.633 34.9531C415.229 35.3503 415.027 35.8874 415.027 36.5645ZM423.396 37.4531C423.396 36.5026 423.628 35.6139 424.09 34.7871C424.552 33.9603 425.197 33.2995 426.023 32.8047C426.85 32.3034 427.762 32.0527 428.758 32.0527C430.307 32.0527 431.577 32.5703 432.566 33.6055C433.562 34.6406 434.061 35.9622 434.061 37.5703V38.332H426.082C426.258 39.0156 426.609 39.5723 427.137 40.002C427.664 40.4316 428.279 40.6465 428.982 40.6465C429.549 40.6465 430.05 40.5423 430.486 40.334C430.923 40.1191 431.326 39.7708 431.697 39.2891L433.523 40.6465C432.996 41.3626 432.348 41.916 431.58 42.3066C430.812 42.6973 429.952 42.8926 429.002 42.8926C427.96 42.8926 427.01 42.6615 426.15 42.1992C425.298 41.737 424.624 41.0892 424.129 40.2559C423.641 39.4225 423.396 38.4883 423.396 37.4531ZM428.699 34.2891C428.087 34.2891 427.55 34.4714 427.088 34.8359C426.626 35.2005 426.303 35.6986 426.121 36.3301H431.424C431.235 35.6986 430.893 35.2005 430.398 34.8359C429.904 34.4714 429.337 34.2891 428.699 34.2891ZM447.137 28.625L453.045 42.6289H450.164L448.777 39.2109H442.703L441.316 42.6289H438.523L444.422 28.625H447.137ZM443.621 36.8672H447.84L445.74 31.6328L443.621 36.8672ZM456.18 30.7734C455.906 31.0534 455.564 31.1934 455.154 31.1934C454.744 31.1934 454.396 31.0534 454.109 30.7734C453.823 30.487 453.68 30.1387 453.68 29.7285C453.68 29.3184 453.823 28.9766 454.109 28.7031C454.396 28.4297 454.744 28.293 455.154 28.293C455.564 28.293 455.906 28.4297 456.18 28.7031C456.46 28.9766 456.6 29.3184 456.6 29.7285C456.6 30.1387 456.46 30.487 456.18 30.7734ZM456.453 32.2871V42.6289H453.836V32.2871H456.453ZM464.012 34.5918H463.074C462.436 34.5918 461.909 34.8132 461.492 35.2559C461.076 35.6986 460.867 36.304 460.867 37.0723V42.6289H458.25V32.2871H460.848V33.4102C461.401 32.5964 462.221 32.1895 463.309 32.1895H464.012V34.5918ZM465.281 32.2871H467.879V33.2734C468.849 32.4466 469.962 32.0332 471.219 32.0332C471.974 32.0332 472.693 32.1797 473.377 32.4727C474.061 32.7591 474.646 33.1465 475.135 33.6348C475.63 34.123 476.02 34.7025 476.307 35.373C476.6 36.0371 476.746 36.737 476.746 37.4727C476.746 38.2083 476.6 38.9115 476.307 39.582C476.02 40.2526 475.63 40.832 475.135 41.3203C474.646 41.8086 474.061 42.196 473.377 42.4824C472.693 42.7689 471.974 42.9121 471.219 42.9121C469.988 42.9121 468.882 42.5052 467.898 41.6914V46.8281H465.281V32.2871ZM467.859 37.4727C467.859 38.3516 468.165 39.0938 468.777 39.6992C469.389 40.3047 470.132 40.6074 471.004 40.6074C471.87 40.6074 472.609 40.3047 473.221 39.6992C473.833 39.0872 474.139 38.3451 474.139 37.4727C474.139 36.6068 473.829 35.8646 473.211 35.2461C472.599 34.6211 471.863 34.3086 471.004 34.3086C470.138 34.3086 469.396 34.6178 468.777 35.2363C468.165 35.8548 467.859 36.6003 467.859 37.4727ZM489.178 37.4727C489.178 38.2083 489.028 38.9115 488.729 39.582C488.429 40.2526 488.025 40.832 487.518 41.3203C487.01 41.8086 486.404 42.196 485.701 42.4824C485.005 42.7689 484.269 42.9121 483.494 42.9121C482.472 42.9121 481.525 42.6712 480.652 42.1895C479.78 41.7012 479.087 41.0404 478.572 40.207C478.064 39.3672 477.811 38.4557 477.811 37.4727C477.811 36.4896 478.064 35.5814 478.572 34.748C479.087 33.9082 479.78 33.2474 480.652 32.7656C481.525 32.2773 482.472 32.0332 483.494 32.0332C484.523 32.0332 485.473 32.2741 486.346 32.7559C487.218 33.2376 487.908 33.8984 488.416 34.7383C488.924 35.5716 489.178 36.4831 489.178 37.4727ZM485.672 39.6895C486.271 39.084 486.57 38.3451 486.57 37.4727C486.57 36.6003 486.271 35.8613 485.672 35.2559C485.079 34.6504 484.354 34.3477 483.494 34.3477C482.641 34.3477 481.915 34.6536 481.316 35.2656C480.717 35.8711 480.418 36.6068 480.418 37.4727C480.418 38.3385 480.717 39.0742 481.316 39.6797C481.915 40.2852 482.641 40.5879 483.494 40.5879C484.354 40.5879 485.079 40.2884 485.672 39.6895ZM496.375 34.5918H495.438C494.799 34.5918 494.272 34.8132 493.855 35.2559C493.439 35.6986 493.23 36.304 493.23 37.0723V42.6289H490.613V32.2871H493.211V33.4102C493.764 32.5964 494.585 32.1895 495.672 32.1895H496.375V34.5918ZM501.902 42.6289C500.991 42.6289 500.288 42.3913 499.793 41.916C499.305 41.4342 499.061 40.806 499.061 40.0312V34.5527H497.039V32.2871H499.061V29.2891H501.668V32.2871H503.943V34.5527H501.668V39.5723C501.668 39.8327 501.753 40.0312 501.922 40.168C502.098 40.3047 502.339 40.373 502.645 40.373H503.943V42.6289H501.902ZM505.291 40.2656C505.584 39.9727 505.942 39.8262 506.365 39.8262C506.788 39.8262 507.146 39.9727 507.439 40.2656C507.739 40.5586 507.889 40.9134 507.889 41.3301C507.889 41.7467 507.739 42.1016 507.439 42.3945C507.146 42.681 506.788 42.8242 506.365 42.8242C505.942 42.8242 505.584 42.681 505.291 42.3945C504.998 42.1016 504.852 41.7467 504.852 41.3301C504.852 40.9134 504.998 40.5586 505.291 40.2656ZM523.982 28.625L527.303 38.7324L529.891 28.625H532.684L528.709 42.6289H525.984L522.742 32.707L519.49 42.6289H516.766L512.781 28.625H515.682L518.27 38.752L521.59 28.625H523.982ZM532.615 37.4531C532.615 36.5026 532.846 35.6139 533.309 34.7871C533.771 33.9603 534.415 33.2995 535.242 32.8047C536.069 32.3034 536.98 32.0527 537.977 32.0527C539.526 32.0527 540.796 32.5703 541.785 33.6055C542.781 34.6406 543.279 35.9622 543.279 37.5703V38.332H535.301C535.477 39.0156 535.828 39.5723 536.355 40.002C536.883 40.4316 537.498 40.6465 538.201 40.6465C538.768 40.6465 539.269 40.5423 539.705 40.334C540.141 40.1191 540.545 39.7708 540.916 39.2891L542.742 40.6465C542.215 41.3626 541.567 41.916 540.799 42.3066C540.031 42.6973 539.171 42.8926 538.221 42.8926C537.179 42.8926 536.229 42.6615 535.369 42.1992C534.516 41.737 533.842 41.0892 533.348 40.2559C532.859 39.4225 532.615 38.4883 532.615 37.4531ZM537.918 34.2891C537.306 34.2891 536.769 34.4714 536.307 34.8359C535.844 35.2005 535.522 35.6986 535.34 36.3301H540.643C540.454 35.6986 540.112 35.2005 539.617 34.8359C539.122 34.4714 538.556 34.2891 537.918 34.2891ZM551.443 37.1504C551.443 38.153 551.736 38.9635 552.322 39.582C552.908 40.2005 553.647 40.5098 554.539 40.5098C555.424 40.5098 556.157 40.1973 556.736 39.5723C557.322 38.9473 557.615 38.14 557.615 37.1504V28.625H560.32V42.6289H557.645V41.6328C556.648 42.4857 555.499 42.9121 554.197 42.9121C552.622 42.9121 551.316 42.3978 550.281 41.3691C549.253 40.334 548.738 38.9863 548.738 37.3262V28.625H551.443V37.1504ZM571.756 36.0469V42.6289H569.139V36.5645C569.139 35.8939 568.94 35.3568 568.543 34.9531C568.152 34.5495 567.638 34.3477 567 34.3477C566.362 34.3477 565.841 34.5495 565.438 34.9531C565.034 35.3503 564.832 35.8874 564.832 36.5645V42.6289H562.215V32.2871H564.832V33.166C565.581 32.3978 566.528 32.0137 567.674 32.0137C568.872 32.0137 569.852 32.401 570.613 33.1758C571.375 33.944 571.756 34.901 571.756 36.0469ZM584.666 42.6289H582.068V41.6719C581.098 42.4987 579.985 42.9121 578.729 42.9121C577.973 42.9121 577.254 42.7689 576.57 42.4824C575.887 42.1895 575.298 41.7988 574.803 41.3105C574.314 40.8223 573.924 40.2461 573.631 39.582C573.344 38.9115 573.201 38.2083 573.201 37.4727C573.201 36.737 573.344 36.0339 573.631 35.3633C573.924 34.6927 574.314 34.1133 574.803 33.625C575.298 33.1367 575.887 32.7493 576.57 32.4629C577.254 32.1764 577.973 32.0332 578.729 32.0332C579.972 32.0332 581.079 32.4368 582.049 33.2441V28.625H584.666V42.6289ZM582.088 37.4727C582.088 36.5938 581.782 35.8516 581.17 35.2461C580.558 34.6341 579.816 34.3281 578.943 34.3281C578.077 34.3281 577.339 34.6341 576.727 35.2461C576.115 35.8581 575.809 36.6003 575.809 37.4727C575.809 38.3385 576.115 39.0807 576.727 39.6992C577.345 40.3177 578.084 40.627 578.943 40.627C579.809 40.627 580.548 40.321 581.16 39.709C581.779 39.0905 582.088 38.3451 582.088 37.4727ZM586.092 37.4531C586.092 36.5026 586.323 35.6139 586.785 34.7871C587.247 33.9603 587.892 33.2995 588.719 32.8047C589.546 32.3034 590.457 32.0527 591.453 32.0527C593.003 32.0527 594.272 32.5703 595.262 33.6055C596.258 34.6406 596.756 35.9622 596.756 37.5703V38.332H588.777C588.953 39.0156 589.305 39.5723 589.832 40.002C590.359 40.4316 590.975 40.6465 591.678 40.6465C592.244 40.6465 592.745 40.5423 593.182 40.334C593.618 40.1191 594.021 39.7708 594.393 39.2891L596.219 40.6465C595.691 41.3626 595.044 41.916 594.275 42.3066C593.507 42.6973 592.648 42.8926 591.697 42.8926C590.656 42.8926 589.705 42.6615 588.846 42.1992C587.993 41.737 587.319 41.0892 586.824 40.2559C586.336 39.4225 586.092 38.4883 586.092 37.4531ZM591.395 34.2891C590.783 34.2891 590.245 34.4714 589.783 34.8359C589.321 35.2005 588.999 35.6986 588.816 36.3301H594.119C593.93 35.6986 593.589 35.2005 593.094 34.8359C592.599 34.4714 592.033 34.2891 591.395 34.2891ZM603.973 34.5918H603.035C602.397 34.5918 601.87 34.8132 601.453 35.2559C601.036 35.6986 600.828 36.304 600.828 37.0723V42.6289H598.211V32.2871H600.809V33.4102C601.362 32.5964 602.182 32.1895 603.27 32.1895H603.973V34.5918ZM609.422 42.873C608.107 42.873 607.033 42.5475 606.199 41.8965C605.372 41.2454 604.855 40.4023 604.646 39.3672H607.127C607.251 39.8685 607.518 40.2428 607.928 40.4902C608.338 40.7311 608.836 40.8516 609.422 40.8516C609.891 40.8516 610.255 40.7539 610.516 40.5586C610.776 40.3633 610.906 40.1061 610.906 39.7871C610.906 39.5723 610.818 39.3802 610.643 39.2109C610.467 39.0417 610.206 38.9147 609.861 38.8301L607.723 38.332C605.789 37.8698 604.822 36.8542 604.822 35.2852C604.822 34.3086 605.184 33.5241 605.906 32.9316C606.629 32.3327 607.553 32.0332 608.68 32.0332C609.956 32.0332 610.991 32.3652 611.785 33.0293C612.586 33.6868 613.064 34.5332 613.221 35.5684H610.76C610.63 35.0605 610.366 34.6797 609.969 34.4258C609.572 34.1719 609.135 34.0449 608.66 34.0449C608.257 34.0449 607.941 34.1361 607.713 34.3184C607.492 34.5007 607.381 34.7318 607.381 35.0117C607.381 35.5456 607.794 35.9102 608.621 36.1055L610.604 36.5938C612.498 37.0495 613.445 38.0488 613.445 39.5918C613.445 40.5423 613.081 41.3268 612.352 41.9453C611.622 42.5638 610.646 42.873 609.422 42.873ZM618.465 42.6289C617.553 42.6289 616.85 42.3913 616.355 41.916C615.867 41.4342 615.623 40.806 615.623 40.0312V34.5527H613.602V32.2871H615.623V29.2891H618.23V32.2871H620.506V34.5527H618.23V39.5723C618.23 39.8327 618.315 40.0312 618.484 40.168C618.66 40.3047 618.901 40.373 619.207 40.373H620.506V42.6289H618.465ZM621.268 39.7285C621.268 38.8105 621.567 38.0879 622.166 37.5605C622.765 37.0332 623.618 36.7305 624.725 36.6523L627.771 36.4277V36.0273C627.771 35.513 627.605 35.1126 627.273 34.8262C626.941 34.5332 626.473 34.3867 625.867 34.3867C624.956 34.3867 624.044 34.6927 623.133 35.3047L622.029 33.4492C623.286 32.5312 624.673 32.0723 626.189 32.0723C627.433 32.0723 628.429 32.4043 629.178 33.0684C629.933 33.7259 630.311 34.6048 630.311 35.7051V39.7676C630.311 40.1712 630.503 40.373 630.887 40.373H631.424V42.6289H630.213C629.718 42.6289 629.285 42.5215 628.914 42.3066C628.543 42.0918 628.266 41.7923 628.084 41.4082C627.713 41.877 627.251 42.2415 626.697 42.502C626.144 42.7624 625.529 42.8926 624.852 42.8926C623.823 42.8926 622.967 42.5931 622.283 41.9941C621.606 41.3952 621.268 40.64 621.268 39.7285ZM623.768 39.709C623.768 40.0671 623.921 40.3535 624.227 40.5684C624.533 40.7832 624.933 40.8906 625.428 40.8906C626.079 40.8906 626.632 40.7083 627.088 40.3438C627.544 39.9727 627.771 39.5267 627.771 39.0059V38.3516L625.086 38.5859C624.207 38.6641 623.768 39.0384 623.768 39.709ZM642.166 36.0469V42.6289H639.549V36.5645C639.549 35.8939 639.35 35.3568 638.953 34.9531C638.562 34.5495 638.048 34.3477 637.41 34.3477C636.772 34.3477 636.251 34.5495 635.848 34.9531C635.444 35.3503 635.242 35.8874 635.242 36.5645V42.6289H632.625V32.2871H635.242V33.166C635.991 32.3978 636.938 32.0137 638.084 32.0137C639.282 32.0137 640.262 32.401 641.023 33.1758C641.785 33.944 642.166 34.901 642.166 36.0469ZM655.076 42.6289H652.479V41.6719C651.508 42.4987 650.395 42.9121 649.139 42.9121C648.383 42.9121 647.664 42.7689 646.98 42.4824C646.297 42.1895 645.708 41.7988 645.213 41.3105C644.725 40.8223 644.334 40.2461 644.041 39.582C643.755 38.9115 643.611 38.2083 643.611 37.4727C643.611 36.737 643.755 36.0339 644.041 35.3633C644.334 34.6927 644.725 34.1133 645.213 33.625C645.708 33.1367 646.297 32.7493 646.98 32.4629C647.664 32.1764 648.383 32.0332 649.139 32.0332C650.382 32.0332 651.489 32.4368 652.459 33.2441V28.625H655.076V42.6289ZM652.498 37.4727C652.498 36.5938 652.192 35.8516 651.58 35.2461C650.968 34.6341 650.226 34.3281 649.354 34.3281C648.488 34.3281 647.749 34.6341 647.137 35.2461C646.525 35.8581 646.219 36.6003 646.219 37.4727C646.219 38.3385 646.525 39.0807 647.137 39.6992C647.755 40.3177 648.494 40.627 649.354 40.627C650.219 40.627 650.958 40.321 651.57 39.709C652.189 39.0905 652.498 38.3451 652.498 37.4727ZM663.67 42.6289H660.965V28.625H669.793V30.9883H663.67V34.4648H669.588V36.7695H663.67V42.6289ZM674.227 42.6289H671.609V28.625H674.227V42.6289ZM678.367 30.7734C678.094 31.0534 677.752 31.1934 677.342 31.1934C676.932 31.1934 676.583 31.0534 676.297 30.7734C676.01 30.487 675.867 30.1387 675.867 29.7285C675.867 29.3184 676.01 28.9766 676.297 28.7031C676.583 28.4297 676.932 28.293 677.342 28.293C677.752 28.293 678.094 28.4297 678.367 28.7031C678.647 28.9766 678.787 29.3184 678.787 29.7285C678.787 30.1387 678.647 30.487 678.367 30.7734ZM678.641 32.2871V42.6289H676.023V32.2871H678.641ZM691.375 32.2871V43.0293C691.375 44.1686 691.02 45.0866 690.311 45.7832C689.601 46.4798 688.657 46.8281 687.479 46.8281H684.578V44.6309H686.883C687.501 44.6309 687.967 44.4746 688.279 44.1621C688.598 43.8561 688.758 43.4102 688.758 42.8242V41.5645C687.794 42.3392 686.714 42.7266 685.516 42.7266C684.526 42.7266 683.615 42.4889 682.781 42.0137C681.948 41.5384 681.287 40.8906 680.799 40.0703C680.317 39.2435 680.076 38.3418 680.076 37.3652C680.076 36.3887 680.317 35.4902 680.799 34.6699C681.287 33.8496 681.948 33.2018 682.781 32.7266C683.621 32.2513 684.533 32.0137 685.516 32.0137C686.746 32.0137 687.833 32.4043 688.777 33.1855V32.2871H691.375ZM682.684 37.3652C682.684 38.2181 682.98 38.944 683.572 39.543C684.171 40.1354 684.894 40.4316 685.74 40.4316C686.6 40.4316 687.322 40.1354 687.908 39.543C688.501 38.944 688.797 38.2181 688.797 37.3652C688.797 36.5059 688.501 35.7799 687.908 35.1875C687.316 34.5885 686.593 34.2891 685.74 34.2891C684.9 34.2891 684.181 34.5918 683.582 35.1973C682.983 35.7962 682.684 36.5189 682.684 37.3652ZM695.789 36.5645V42.6289H693.172V28.625H695.789V33.1855C696.531 32.4043 697.492 32.0137 698.67 32.0137C699.855 32.0137 700.825 32.401 701.58 33.1758C702.335 33.944 702.713 34.901 702.713 36.0469V42.6289H700.096V36.5645C700.096 35.8939 699.897 35.3568 699.5 34.9531C699.109 34.5495 698.595 34.3477 697.957 34.3477C697.319 34.3477 696.798 34.5495 696.395 34.9531C695.991 35.3503 695.789 35.8874 695.789 36.5645ZM708.484 42.6289C707.573 42.6289 706.87 42.3913 706.375 41.916C705.887 41.4342 705.643 40.806 705.643 40.0312V34.5527H703.621V32.2871H705.643V29.2891H708.25V32.2871H710.525V34.5527H708.25V39.5723C708.25 39.8327 708.335 40.0312 708.504 40.168C708.68 40.3047 708.921 40.373 709.227 40.373H710.525V42.6289H708.484ZM715.828 42.873C714.513 42.873 713.439 42.5475 712.605 41.8965C711.779 41.2454 711.261 40.4023 711.053 39.3672H713.533C713.657 39.8685 713.924 40.2428 714.334 40.4902C714.744 40.7311 715.242 40.8516 715.828 40.8516C716.297 40.8516 716.661 40.7539 716.922 40.5586C717.182 40.3633 717.312 40.1061 717.312 39.7871C717.312 39.5723 717.225 39.3802 717.049 39.2109C716.873 39.0417 716.613 38.9147 716.268 38.8301L714.129 38.332C712.195 37.8698 711.229 36.8542 711.229 35.2852C711.229 34.3086 711.59 33.5241 712.312 32.9316C713.035 32.3327 713.96 32.0332 715.086 32.0332C716.362 32.0332 717.397 32.3652 718.191 33.0293C718.992 33.6868 719.471 34.5332 719.627 35.5684H717.166C717.036 35.0605 716.772 34.6797 716.375 34.4258C715.978 34.1719 715.542 34.0449 715.066 34.0449C714.663 34.0449 714.347 34.1361 714.119 34.3184C713.898 34.5007 713.787 34.7318 713.787 35.0117C713.787 35.5456 714.201 35.9102 715.027 36.1055L717.01 36.5938C718.904 37.0495 719.852 38.0488 719.852 39.5918C719.852 40.5423 719.487 41.3268 718.758 41.9453C718.029 42.5638 717.052 42.873 715.828 42.873ZM724.93 35.6074C724.93 34.2858 725.249 33.0749 725.887 31.9746C726.525 30.8678 727.413 29.9922 728.553 29.3477C729.699 28.6966 730.978 28.3711 732.391 28.3711C733.615 28.3711 734.744 28.6413 735.779 29.1816C736.814 29.722 737.69 30.4577 738.406 31.3887L736.307 32.9316C735.857 32.2871 735.285 31.776 734.588 31.3984C733.898 31.0208 733.178 30.832 732.43 30.832C731.082 30.832 729.949 31.278 729.031 32.1699C728.12 33.0618 727.664 34.2077 727.664 35.6074C727.664 36.5449 727.879 37.3848 728.309 38.127C728.738 38.8626 729.314 39.429 730.037 39.8262C730.76 40.2168 731.557 40.4121 732.43 40.4121C733.237 40.4121 733.986 40.2298 734.676 39.8652C735.372 39.4941 735.936 38.9831 736.365 38.332L738.465 39.8652C737.781 40.7962 736.919 41.5352 735.877 42.082C734.842 42.6224 733.699 42.8926 732.449 42.8926C731.368 42.8926 730.359 42.7038 729.422 42.3262C728.484 41.9486 727.687 41.4375 727.029 40.793C726.378 40.1419 725.864 39.3704 725.486 38.4785C725.115 37.5801 724.93 36.623 724.93 35.6074ZM739.314 39.7285C739.314 38.8105 739.614 38.0879 740.213 37.5605C740.812 37.0332 741.665 36.7305 742.771 36.6523L745.818 36.4277V36.0273C745.818 35.513 745.652 35.1126 745.32 34.8262C744.988 34.5332 744.52 34.3867 743.914 34.3867C743.003 34.3867 742.091 34.6927 741.18 35.3047L740.076 33.4492C741.333 32.5312 742.719 32.0723 744.236 32.0723C745.48 32.0723 746.476 32.4043 747.225 33.0684C747.98 33.7259 748.357 34.6048 748.357 35.7051V39.7676C748.357 40.1712 748.549 40.373 748.934 40.373H749.471V42.6289H748.26C747.765 42.6289 747.332 42.5215 746.961 42.3066C746.59 42.0918 746.313 41.7923 746.131 41.4082C745.76 41.877 745.298 42.2415 744.744 42.502C744.191 42.7624 743.576 42.8926 742.898 42.8926C741.87 42.8926 741.014 42.5931 740.33 41.9941C739.653 41.3952 739.314 40.64 739.314 39.7285ZM741.814 39.709C741.814 40.0671 741.967 40.3535 742.273 40.5684C742.579 40.7832 742.98 40.8906 743.475 40.8906C744.126 40.8906 744.679 40.7083 745.135 40.3438C745.59 39.9727 745.818 39.5267 745.818 39.0059V38.3516L743.133 38.5859C742.254 38.6641 741.814 39.0384 741.814 39.709ZM760.213 36.0469V42.6289H757.596V36.5645C757.596 35.8939 757.397 35.3568 757 34.9531C756.609 34.5495 756.095 34.3477 755.457 34.3477C754.819 34.3477 754.298 34.5495 753.895 34.9531C753.491 35.3503 753.289 35.8874 753.289 36.5645V42.6289H750.672V32.2871H753.289V33.166C754.038 32.3978 754.985 32.0137 756.131 32.0137C757.329 32.0137 758.309 32.401 759.07 33.1758C759.832 33.944 760.213 34.901 760.213 36.0469ZM87.7617 72.6289V58.625H93.2891C94.4479 58.625 95.4277 58.9863 96.2285 59.709C97.0293 60.4251 97.4297 61.304 97.4297 62.3457C97.4297 62.9056 97.2865 63.4297 97 63.918C96.7201 64.4062 96.3359 64.8164 95.8477 65.1484C96.6029 65.4544 97.2083 65.9199 97.6641 66.5449C98.1198 67.1634 98.3477 67.8633 98.3477 68.6445C98.3477 69.7513 97.9342 70.6921 97.1074 71.4668C96.2871 72.2415 95.2812 72.6289 94.0898 72.6289H87.7617ZM93.0254 60.8906H90.4668V64.3281H93.0254C93.5202 64.3281 93.9238 64.1621 94.2363 63.8301C94.5488 63.498 94.7051 63.0911 94.7051 62.6094C94.7051 62.1146 94.5488 61.7044 94.2363 61.3789C93.9303 61.0534 93.5267 60.8906 93.0254 60.8906ZM93.6211 70.373C94.207 70.373 94.6823 70.194 95.0469 69.8359C95.418 69.4714 95.6035 69.0091 95.6035 68.4492C95.6035 67.8958 95.418 67.4336 95.0469 67.0625C94.6758 66.6914 94.2005 66.5059 93.6211 66.5059H90.4668V70.373H93.6211ZM99.4902 67.4531C99.4902 66.5026 99.7214 65.6139 100.184 64.7871C100.646 63.9603 101.29 63.2995 102.117 62.8047C102.944 62.3034 103.855 62.0527 104.852 62.0527C106.401 62.0527 107.671 62.5703 108.66 63.6055C109.656 64.6406 110.154 65.9622 110.154 67.5703V68.332H102.176C102.352 69.0156 102.703 69.5723 103.23 70.002C103.758 70.4316 104.373 70.6465 105.076 70.6465C105.643 70.6465 106.144 70.5423 106.58 70.334C107.016 70.1191 107.42 69.7708 107.791 69.2891L109.617 70.6465C109.09 71.3626 108.442 71.916 107.674 72.3066C106.906 72.6973 106.046 72.8926 105.096 72.8926C104.054 72.8926 103.104 72.6615 102.244 72.1992C101.391 71.737 100.717 71.0892 100.223 70.2559C99.7344 69.4225 99.4902 68.4883 99.4902 67.4531ZM104.793 64.2891C104.181 64.2891 103.644 64.4714 103.182 64.8359C102.719 65.2005 102.397 65.6986 102.215 66.3301H107.518C107.329 65.6986 106.987 65.2005 106.492 64.8359C105.997 64.4714 105.431 64.2891 104.793 64.2891ZM127.938 62.8828C128.322 63.7487 128.514 64.6634 128.514 65.627C128.514 66.5905 128.322 67.5052 127.938 68.3711C127.56 69.237 127.049 69.9824 126.404 70.6074C125.76 71.2259 124.988 71.7174 124.09 72.082C123.198 72.4466 122.254 72.6289 121.258 72.6289H115.711V58.625H121.258C122.254 58.625 123.198 58.8073 124.09 59.1719C124.988 59.5365 125.76 60.0312 126.404 60.6562C127.049 61.2747 127.56 62.0169 127.938 62.8828ZM120.975 60.9883H118.416V70.2656H120.975C121.854 70.2656 122.658 70.0605 123.387 69.6504C124.122 69.2402 124.699 68.6803 125.115 67.9707C125.538 67.2611 125.75 66.4798 125.75 65.627C125.75 64.7676 125.538 63.9831 125.115 63.2734C124.699 62.5638 124.122 62.0072 123.387 61.6035C122.658 61.1934 121.854 60.9883 120.975 60.9883ZM129.744 67.4531C129.744 66.5026 129.975 65.6139 130.438 64.7871C130.9 63.9603 131.544 63.2995 132.371 62.8047C133.198 62.3034 134.109 62.0527 135.105 62.0527C136.655 62.0527 137.924 62.5703 138.914 63.6055C139.91 64.6406 140.408 65.9622 140.408 67.5703V68.332H132.43C132.605 69.0156 132.957 69.5723 133.484 70.002C134.012 70.4316 134.627 70.6465 135.33 70.6465C135.896 70.6465 136.398 70.5423 136.834 70.334C137.27 70.1191 137.674 69.7708 138.045 69.2891L139.871 70.6465C139.344 71.3626 138.696 71.916 137.928 72.3066C137.16 72.6973 136.3 72.8926 135.35 72.8926C134.308 72.8926 133.357 72.6615 132.498 72.1992C131.645 71.737 130.971 71.0892 130.477 70.2559C129.988 69.4225 129.744 68.4883 129.744 67.4531ZM135.047 64.2891C134.435 64.2891 133.898 64.4714 133.436 64.8359C132.973 65.2005 132.651 65.6986 132.469 66.3301H137.771C137.583 65.6986 137.241 65.2005 136.746 64.8359C136.251 64.4714 135.685 64.2891 135.047 64.2891ZM144.48 72.6289H141.863V58.625H144.48V72.6289ZM145.818 69.7285C145.818 68.8105 146.118 68.0879 146.717 67.5605C147.316 67.0332 148.169 66.7305 149.275 66.6523L152.322 66.4277V66.0273C152.322 65.513 152.156 65.1126 151.824 64.8262C151.492 64.5332 151.023 64.3867 150.418 64.3867C149.507 64.3867 148.595 64.6927 147.684 65.3047L146.58 63.4492C147.837 62.5312 149.223 62.0723 150.74 62.0723C151.984 62.0723 152.98 62.4043 153.729 63.0684C154.484 63.7259 154.861 64.6048 154.861 65.7051V69.7676C154.861 70.1712 155.053 70.373 155.438 70.373H155.975V72.6289H154.764C154.269 72.6289 153.836 72.5215 153.465 72.3066C153.094 72.0918 152.817 71.7923 152.635 71.4082C152.264 71.877 151.801 72.2415 151.248 72.502C150.695 72.7624 150.079 72.8926 149.402 72.8926C148.374 72.8926 147.518 72.5931 146.834 71.9941C146.157 71.3952 145.818 70.64 145.818 69.7285ZM148.318 69.709C148.318 70.0671 148.471 70.3535 148.777 70.5684C149.083 70.7832 149.484 70.8906 149.979 70.8906C150.63 70.8906 151.183 70.7083 151.639 70.3438C152.094 69.9727 152.322 69.5267 152.322 69.0059V68.3516L149.637 68.5859C148.758 68.6641 148.318 69.0384 148.318 69.709ZM159.295 73.5859L159.773 72.4336L155.379 62.2871H158.201L161.053 69.2695L163.875 62.2871H166.6L161.561 74.5723C161.222 75.3991 160.812 75.9818 160.33 76.3203C159.855 76.6589 159.217 76.8281 158.416 76.8281H156.873V74.6309H157.879C158.243 74.6309 158.53 74.556 158.738 74.4062C158.953 74.2565 159.139 73.9831 159.295 73.5859ZM166.424 67.4531C166.424 66.5026 166.655 65.6139 167.117 64.7871C167.579 63.9603 168.224 63.2995 169.051 62.8047C169.878 62.3034 170.789 62.0527 171.785 62.0527C173.335 62.0527 174.604 62.5703 175.594 63.6055C176.59 64.6406 177.088 65.9622 177.088 67.5703V68.332H169.109C169.285 69.0156 169.637 69.5723 170.164 70.002C170.691 70.4316 171.307 70.6465 172.01 70.6465C172.576 70.6465 173.077 70.5423 173.514 70.334C173.95 70.1191 174.354 69.7708 174.725 69.2891L176.551 70.6465C176.023 71.3626 175.376 71.916 174.607 72.3066C173.839 72.6973 172.98 72.8926 172.029 72.8926C170.988 72.8926 170.037 72.6615 169.178 72.1992C168.325 71.737 167.651 71.0892 167.156 70.2559C166.668 69.4225 166.424 68.4883 166.424 67.4531ZM171.727 64.2891C171.115 64.2891 170.577 64.4714 170.115 64.8359C169.653 65.2005 169.331 65.6986 169.148 66.3301H174.451C174.262 65.6986 173.921 65.2005 173.426 64.8359C172.931 64.4714 172.365 64.2891 171.727 64.2891ZM189.646 72.6289H187.049V71.6719C186.079 72.4987 184.965 72.9121 183.709 72.9121C182.954 72.9121 182.234 72.7689 181.551 72.4824C180.867 72.1895 180.278 71.7988 179.783 71.3105C179.295 70.8223 178.904 70.2461 178.611 69.582C178.325 68.9115 178.182 68.2083 178.182 67.4727C178.182 66.737 178.325 66.0339 178.611 65.3633C178.904 64.6927 179.295 64.1133 179.783 63.625C180.278 63.1367 180.867 62.7493 181.551 62.4629C182.234 62.1764 182.954 62.0332 183.709 62.0332C184.952 62.0332 186.059 62.4368 187.029 63.2441V58.625H189.646V72.6289ZM187.068 67.4727C187.068 66.5938 186.762 65.8516 186.15 65.2461C185.538 64.6341 184.796 64.3281 183.924 64.3281C183.058 64.3281 182.319 64.6341 181.707 65.2461C181.095 65.8581 180.789 66.6003 180.789 67.4727C180.789 68.3385 181.095 69.0807 181.707 69.6992C182.326 70.3177 183.064 70.627 183.924 70.627C184.79 70.627 185.529 70.321 186.141 69.709C186.759 69.0905 187.068 68.3451 187.068 67.4727ZM191.658 70.2656C191.951 69.9727 192.309 69.8262 192.732 69.8262C193.156 69.8262 193.514 69.9727 193.807 70.2656C194.106 70.5586 194.256 70.9134 194.256 71.3301C194.256 71.7467 194.106 72.1016 193.807 72.3945C193.514 72.681 193.156 72.8242 192.732 72.8242C192.309 72.8242 191.951 72.681 191.658 72.3945C191.365 72.1016 191.219 71.7467 191.219 71.3301C191.219 70.9134 191.365 70.5586 191.658 70.2656ZM202.635 72.6289H199.93V58.625H202.635V64.4258H208.777V58.625H211.473V72.6289H208.777V66.7891H202.635V72.6289ZM224.354 67.4727C224.354 68.2083 224.204 68.9115 223.904 69.582C223.605 70.2526 223.201 70.832 222.693 71.3203C222.186 71.8086 221.58 72.196 220.877 72.4824C220.18 72.7689 219.445 72.9121 218.67 72.9121C217.648 72.9121 216.701 72.6712 215.828 72.1895C214.956 71.7012 214.262 71.0404 213.748 70.207C213.24 69.3672 212.986 68.4557 212.986 67.4727C212.986 66.4896 213.24 65.5814 213.748 64.748C214.262 63.9082 214.956 63.2474 215.828 62.7656C216.701 62.2773 217.648 62.0332 218.67 62.0332C219.699 62.0332 220.649 62.2741 221.521 62.7559C222.394 63.2376 223.084 63.8984 223.592 64.7383C224.1 65.5716 224.354 66.4831 224.354 67.4727ZM220.848 69.6895C221.447 69.084 221.746 68.3451 221.746 67.4727C221.746 66.6003 221.447 65.8613 220.848 65.2559C220.255 64.6504 219.529 64.3477 218.67 64.3477C217.817 64.3477 217.091 64.6536 216.492 65.2656C215.893 65.8711 215.594 66.6068 215.594 67.4727C215.594 68.3385 215.893 69.0742 216.492 69.6797C217.091 70.2852 217.817 70.5879 218.67 70.5879C219.529 70.5879 220.255 70.2884 220.848 69.6895ZM231.512 62.2871H233.631L235.877 68.8105L237.693 62.2871H240.379L237.234 72.6289H234.852L232.537 65.8906L230.213 72.6289H227.84L224.695 62.2871H227.459L229.275 68.8105L231.512 62.2871ZM240.721 67.4531C240.721 66.5026 240.952 65.6139 241.414 64.7871C241.876 63.9603 242.521 63.2995 243.348 62.8047C244.174 62.3034 245.086 62.0527 246.082 62.0527C247.632 62.0527 248.901 62.5703 249.891 63.6055C250.887 64.6406 251.385 65.9622 251.385 67.5703V68.332H243.406C243.582 69.0156 243.934 69.5723 244.461 70.002C244.988 70.4316 245.604 70.6465 246.307 70.6465C246.873 70.6465 247.374 70.5423 247.811 70.334C248.247 70.1191 248.65 69.7708 249.021 69.2891L250.848 70.6465C250.32 71.3626 249.673 71.916 248.904 72.3066C248.136 72.6973 247.277 72.8926 246.326 72.8926C245.285 72.8926 244.334 72.6615 243.475 72.1992C242.622 71.737 241.948 71.0892 241.453 70.2559C240.965 69.4225 240.721 68.4883 240.721 67.4531ZM246.023 64.2891C245.411 64.2891 244.874 64.4714 244.412 64.8359C243.95 65.2005 243.628 65.6986 243.445 66.3301H248.748C248.559 65.6986 248.217 65.2005 247.723 64.8359C247.228 64.4714 246.661 64.2891 246.023 64.2891ZM255.74 72.6289L251.238 62.2871H254.061L256.893 69.25L259.734 62.2871H262.459L257.977 72.6289H255.74ZM262.283 67.4531C262.283 66.5026 262.514 65.6139 262.977 64.7871C263.439 63.9603 264.083 63.2995 264.91 62.8047C265.737 62.3034 266.648 62.0527 267.645 62.0527C269.194 62.0527 270.464 62.5703 271.453 63.6055C272.449 64.6406 272.947 65.9622 272.947 67.5703V68.332H264.969C265.145 69.0156 265.496 69.5723 266.023 70.002C266.551 70.4316 267.166 70.6465 267.869 70.6465C268.436 70.6465 268.937 70.5423 269.373 70.334C269.809 70.1191 270.213 69.7708 270.584 69.2891L272.41 70.6465C271.883 71.3626 271.235 71.916 270.467 72.3066C269.699 72.6973 268.839 72.8926 267.889 72.8926C266.847 72.8926 265.896 72.6615 265.037 72.1992C264.184 71.737 263.51 71.0892 263.016 70.2559C262.527 69.4225 262.283 68.4883 262.283 67.4531ZM267.586 64.2891C266.974 64.2891 266.437 64.4714 265.975 64.8359C265.512 65.2005 265.19 65.6986 265.008 66.3301H270.311C270.122 65.6986 269.78 65.2005 269.285 64.8359C268.79 64.4714 268.224 64.2891 267.586 64.2891ZM280.164 64.5918H279.227C278.589 64.5918 278.061 64.8132 277.645 65.2559C277.228 65.6986 277.02 66.304 277.02 67.0723V72.6289H274.402V62.2871H277V63.4102C277.553 62.5964 278.374 62.1895 279.461 62.1895H280.164V64.5918ZM279.773 74.3867C280.151 74.3281 280.467 74.1784 280.721 73.9375C280.981 73.7031 281.111 73.446 281.111 73.166C281.111 73.0553 281.059 72.9577 280.955 72.873C280.857 72.7884 280.737 72.707 280.594 72.6289C280.451 72.5573 280.304 72.4727 280.154 72.375C280.011 72.2708 279.887 72.1276 279.783 71.9453C279.686 71.7565 279.637 71.5319 279.637 71.2715C279.637 70.9004 279.767 70.5684 280.027 70.2754C280.288 69.9759 280.63 69.8262 281.053 69.8262C281.587 69.8262 282.01 70.028 282.322 70.4316C282.635 70.8353 282.791 71.3757 282.791 72.0527C282.791 72.9512 282.514 73.7324 281.961 74.3965C281.408 75.0605 280.678 75.4772 279.773 75.6465V74.3867ZM298.748 58.625L302.068 68.7324L304.656 58.625H307.449L303.475 72.6289H300.75L297.508 62.707L294.256 72.6289H291.531L287.547 58.625H290.447L293.035 68.752L296.355 58.625H298.748ZM307.381 67.4531C307.381 66.5026 307.612 65.6139 308.074 64.7871C308.536 63.9603 309.181 63.2995 310.008 62.8047C310.835 62.3034 311.746 62.0527 312.742 62.0527C314.292 62.0527 315.561 62.5703 316.551 63.6055C317.547 64.6406 318.045 65.9622 318.045 67.5703V68.332H310.066C310.242 69.0156 310.594 69.5723 311.121 70.002C311.648 70.4316 312.264 70.6465 312.967 70.6465C313.533 70.6465 314.035 70.5423 314.471 70.334C314.907 70.1191 315.311 69.7708 315.682 69.2891L317.508 70.6465C316.98 71.3626 316.333 71.916 315.564 72.3066C314.796 72.6973 313.937 72.8926 312.986 72.8926C311.945 72.8926 310.994 72.6615 310.135 72.1992C309.282 71.737 308.608 71.0892 308.113 70.2559C307.625 69.4225 307.381 68.4883 307.381 67.4531ZM312.684 64.2891C312.072 64.2891 311.535 64.4714 311.072 64.8359C310.61 65.2005 310.288 65.6986 310.105 66.3301H315.408C315.219 65.6986 314.878 65.2005 314.383 64.8359C313.888 64.4714 313.322 64.2891 312.684 64.2891ZM335.828 62.8828C336.212 63.7487 336.404 64.6634 336.404 65.627C336.404 66.5905 336.212 67.5052 335.828 68.3711C335.451 69.237 334.939 69.9824 334.295 70.6074C333.65 71.2259 332.879 71.7174 331.98 72.082C331.089 72.4466 330.145 72.6289 329.148 72.6289H323.602V58.625H329.148C330.145 58.625 331.089 58.8073 331.98 59.1719C332.879 59.5365 333.65 60.0312 334.295 60.6562C334.939 61.2747 335.451 62.0169 335.828 62.8828ZM328.865 60.9883H326.307V70.2656H328.865C329.744 70.2656 330.548 70.0605 331.277 69.6504C332.013 69.2402 332.589 68.6803 333.006 67.9707C333.429 67.2611 333.641 66.4798 333.641 65.627C333.641 64.7676 333.429 63.9831 333.006 63.2734C332.589 62.5638 332.013 62.0072 331.277 61.6035C330.548 61.1934 329.744 60.9883 328.865 60.9883ZM349.002 67.4727C349.002 68.2083 348.852 68.9115 348.553 69.582C348.253 70.2526 347.85 70.832 347.342 71.3203C346.834 71.8086 346.229 72.196 345.525 72.4824C344.829 72.7689 344.093 72.9121 343.318 72.9121C342.296 72.9121 341.349 72.6712 340.477 72.1895C339.604 71.7012 338.911 71.0404 338.396 70.207C337.889 69.3672 337.635 68.4557 337.635 67.4727C337.635 66.4896 337.889 65.5814 338.396 64.748C338.911 63.9082 339.604 63.2474 340.477 62.7656C341.349 62.2773 342.296 62.0332 343.318 62.0332C344.347 62.0332 345.298 62.2741 346.17 62.7559C347.042 63.2376 347.732 63.8984 348.24 64.7383C348.748 65.5716 349.002 66.4831 349.002 67.4727ZM345.496 69.6895C346.095 69.084 346.395 68.3451 346.395 67.4727C346.395 66.6003 346.095 65.8613 345.496 65.2559C344.904 64.6504 344.178 64.3477 343.318 64.3477C342.465 64.3477 341.74 64.6536 341.141 65.2656C340.542 65.8711 340.242 66.6068 340.242 67.4727C340.242 68.3385 340.542 69.0742 341.141 69.6797C341.74 70.2852 342.465 70.5879 343.318 70.5879C344.178 70.5879 344.904 70.2884 345.496 69.6895ZM357.244 72.6289H354.539V58.625H360.242C361.434 58.625 362.439 59.0286 363.26 59.8359C364.087 60.6432 364.5 61.6328 364.5 62.8047C364.5 63.6445 364.262 64.403 363.787 65.0801C363.318 65.7572 362.703 66.252 361.941 66.5645L365.428 72.6289H362.381L359.207 66.9062H357.244V72.6289ZM359.803 60.9883H357.244V64.6504H359.803C360.395 64.6504 360.874 64.4746 361.238 64.123C361.603 63.7715 361.785 63.332 361.785 62.8047C361.785 62.2773 361.603 61.8444 361.238 61.5059C360.874 61.1608 360.395 60.9883 359.803 60.9883ZM365.389 67.4531C365.389 66.5026 365.62 65.6139 366.082 64.7871C366.544 63.9603 367.189 63.2995 368.016 62.8047C368.842 62.3034 369.754 62.0527 370.75 62.0527C372.299 62.0527 373.569 62.5703 374.559 63.6055C375.555 64.6406 376.053 65.9622 376.053 67.5703V68.332H368.074C368.25 69.0156 368.602 69.5723 369.129 70.002C369.656 70.4316 370.271 70.6465 370.975 70.6465C371.541 70.6465 372.042 70.5423 372.479 70.334C372.915 70.1191 373.318 69.7708 373.689 69.2891L375.516 70.6465C374.988 71.3626 374.34 71.916 373.572 72.3066C372.804 72.6973 371.945 72.8926 370.994 72.8926C369.952 72.8926 369.002 72.6615 368.143 72.1992C367.29 71.737 366.616 71.0892 366.121 70.2559C365.633 69.4225 365.389 68.4883 365.389 67.4531ZM370.691 64.2891C370.079 64.2891 369.542 64.4714 369.08 64.8359C368.618 65.2005 368.296 65.6986 368.113 66.3301H373.416C373.227 65.6986 372.885 65.2005 372.391 64.8359C371.896 64.4714 371.329 64.2891 370.691 64.2891ZM380.652 65.2461C380.053 65.8516 379.754 66.5872 379.754 67.4531C379.754 68.319 380.053 69.0579 380.652 69.6699C381.251 70.2819 381.977 70.5879 382.83 70.5879C383.917 70.5879 384.783 70.1419 385.428 69.25L387.293 70.6074C386.134 72.1309 384.646 72.8926 382.83 72.8926C381.782 72.8926 380.822 72.6484 379.949 72.1602C379.077 71.6719 378.39 71.0143 377.889 70.1875C377.394 69.3542 377.146 68.4427 377.146 67.4531C377.146 66.4701 377.394 65.5651 377.889 64.7383C378.39 63.9049 379.077 63.2474 379.949 62.7656C380.822 62.2773 381.782 62.0332 382.83 62.0332C384.646 62.0332 386.134 62.7917 387.293 64.3086L385.428 65.666C384.783 64.7741 383.917 64.3281 382.83 64.3281C381.977 64.3281 381.251 64.6341 380.652 65.2461ZM398.963 67.4727C398.963 68.2083 398.813 68.9115 398.514 69.582C398.214 70.2526 397.811 70.832 397.303 71.3203C396.795 71.8086 396.189 72.196 395.486 72.4824C394.79 72.7689 394.054 72.9121 393.279 72.9121C392.257 72.9121 391.31 72.6712 390.438 72.1895C389.565 71.7012 388.872 71.0404 388.357 70.207C387.85 69.3672 387.596 68.4557 387.596 67.4727C387.596 66.4896 387.85 65.5814 388.357 64.748C388.872 63.9082 389.565 63.2474 390.438 62.7656C391.31 62.2773 392.257 62.0332 393.279 62.0332C394.308 62.0332 395.258 62.2741 396.131 62.7559C397.003 63.2376 397.693 63.8984 398.201 64.7383C398.709 65.5716 398.963 66.4831 398.963 67.4727ZM395.457 69.6895C396.056 69.084 396.355 68.3451 396.355 67.4727C396.355 66.6003 396.056 65.8613 395.457 65.2559C394.865 64.6504 394.139 64.3477 393.279 64.3477C392.426 64.3477 391.701 64.6536 391.102 65.2656C390.503 65.8711 390.203 66.6068 390.203 67.4727C390.203 68.3385 390.503 69.0742 391.102 69.6797C391.701 70.2852 392.426 70.5879 393.279 70.5879C394.139 70.5879 394.865 70.2884 395.457 69.6895ZM402.996 66.5059V72.6289H400.398V62.2871H402.996V63.127C403.738 62.3848 404.666 62.0137 405.779 62.0137C406.528 62.0137 407.195 62.1764 407.781 62.502C408.374 62.821 408.839 63.2637 409.178 63.8301C409.529 63.2572 409.995 62.8112 410.574 62.4922C411.16 62.1732 411.801 62.0137 412.498 62.0137C413.663 62.0137 414.611 62.3913 415.34 63.1465C416.076 63.9017 416.443 64.8424 416.443 65.9688V72.6289H413.836V66.5059C413.836 65.8678 413.644 65.3503 413.26 64.9531C412.882 64.5495 412.387 64.3477 411.775 64.3477C411.17 64.3477 410.675 64.5462 410.291 64.9434C409.913 65.334 409.725 65.8548 409.725 66.5059V72.6289H407.117V66.5059C407.117 65.8678 406.925 65.3503 406.541 64.9531C406.163 64.5495 405.669 64.3477 405.057 64.3477C404.445 64.3477 403.947 64.543 403.562 64.9336C403.185 65.3242 402.996 65.8483 402.996 66.5059ZM420.848 66.5059V72.6289H418.25V62.2871H420.848V63.127C421.59 62.3848 422.518 62.0137 423.631 62.0137C424.38 62.0137 425.047 62.1764 425.633 62.502C426.225 62.821 426.691 63.2637 427.029 63.8301C427.381 63.2572 427.846 62.8112 428.426 62.4922C429.012 62.1732 429.653 62.0137 430.35 62.0137C431.515 62.0137 432.462 62.3913 433.191 63.1465C433.927 63.9017 434.295 64.8424 434.295 65.9688V72.6289H431.688V66.5059C431.688 65.8678 431.495 65.3503 431.111 64.9531C430.734 64.5495 430.239 64.3477 429.627 64.3477C429.021 64.3477 428.527 64.5462 428.143 64.9434C427.765 65.334 427.576 65.8548 427.576 66.5059V72.6289H424.969V66.5059C424.969 65.8678 424.777 65.3503 424.393 64.9531C424.015 64.5495 423.52 64.3477 422.908 64.3477C422.296 64.3477 421.798 64.543 421.414 64.9336C421.036 65.3242 420.848 65.8483 420.848 66.5059ZM435.74 67.4531C435.74 66.5026 435.971 65.6139 436.434 64.7871C436.896 63.9603 437.54 63.2995 438.367 62.8047C439.194 62.3034 440.105 62.0527 441.102 62.0527C442.651 62.0527 443.921 62.5703 444.91 63.6055C445.906 64.6406 446.404 65.9622 446.404 67.5703V68.332H438.426C438.602 69.0156 438.953 69.5723 439.48 70.002C440.008 70.4316 440.623 70.6465 441.326 70.6465C441.893 70.6465 442.394 70.5423 442.83 70.334C443.266 70.1191 443.67 69.7708 444.041 69.2891L445.867 70.6465C445.34 71.3626 444.692 71.916 443.924 72.3066C443.156 72.6973 442.296 72.8926 441.346 72.8926C440.304 72.8926 439.354 72.6615 438.494 72.1992C437.641 71.737 436.967 71.0892 436.473 70.2559C435.984 69.4225 435.74 68.4883 435.74 67.4531ZM441.043 64.2891C440.431 64.2891 439.894 64.4714 439.432 64.8359C438.969 65.2005 438.647 65.6986 438.465 66.3301H443.768C443.579 65.6986 443.237 65.2005 442.742 64.8359C442.247 64.4714 441.681 64.2891 441.043 64.2891ZM457.4 66.0469V72.6289H454.783V66.5645C454.783 65.8939 454.585 65.3568 454.188 64.9531C453.797 64.5495 453.283 64.3477 452.645 64.3477C452.007 64.3477 451.486 64.5495 451.082 64.9531C450.678 65.3503 450.477 65.8874 450.477 66.5645V72.6289H447.859V62.2871H450.477V63.166C451.225 62.3978 452.173 62.0137 453.318 62.0137C454.516 62.0137 455.496 62.401 456.258 63.1758C457.02 63.944 457.4 64.901 457.4 66.0469ZM470.311 72.6289H467.713V71.6719C466.743 72.4987 465.63 72.9121 464.373 72.9121C463.618 72.9121 462.898 72.7689 462.215 72.4824C461.531 72.1895 460.942 71.7988 460.447 71.3105C459.959 70.8223 459.568 70.2461 459.275 69.582C458.989 68.9115 458.846 68.2083 458.846 67.4727C458.846 66.737 458.989 66.0339 459.275 65.3633C459.568 64.6927 459.959 64.1133 460.447 63.625C460.942 63.1367 461.531 62.7493 462.215 62.4629C462.898 62.1764 463.618 62.0332 464.373 62.0332C465.617 62.0332 466.723 62.4368 467.693 63.2441V58.625H470.311V72.6289ZM467.732 67.4727C467.732 66.5938 467.426 65.8516 466.814 65.2461C466.202 64.6341 465.46 64.3281 464.588 64.3281C463.722 64.3281 462.983 64.6341 462.371 65.2461C461.759 65.8581 461.453 66.6003 461.453 67.4727C461.453 68.3385 461.759 69.0807 462.371 69.6992C462.99 70.3177 463.729 70.627 464.588 70.627C465.454 70.627 466.193 70.321 466.805 69.709C467.423 69.0905 467.732 68.3451 467.732 67.4727ZM483.279 72.6289H480.584V66.7891L475.105 58.625H478.387L481.98 64.25L485.584 58.625H488.787L483.279 66.8281V72.6289ZM498.182 67.4727C498.182 68.2083 498.032 68.9115 497.732 69.582C497.433 70.2526 497.029 70.832 496.521 71.3203C496.014 71.8086 495.408 72.196 494.705 72.4824C494.008 72.7689 493.273 72.9121 492.498 72.9121C491.476 72.9121 490.529 72.6712 489.656 72.1895C488.784 71.7012 488.09 71.0404 487.576 70.207C487.068 69.3672 486.814 68.4557 486.814 67.4727C486.814 66.4896 487.068 65.5814 487.576 64.748C488.09 63.9082 488.784 63.2474 489.656 62.7656C490.529 62.2773 491.476 62.0332 492.498 62.0332C493.527 62.0332 494.477 62.2741 495.35 62.7559C496.222 63.2376 496.912 63.8984 497.42 64.7383C497.928 65.5716 498.182 66.4831 498.182 67.4727ZM494.676 69.6895C495.275 69.084 495.574 68.3451 495.574 67.4727C495.574 66.6003 495.275 65.8613 494.676 65.2559C494.083 64.6504 493.357 64.3477 492.498 64.3477C491.645 64.3477 490.919 64.6536 490.32 65.2656C489.721 65.8711 489.422 66.6068 489.422 67.4727C489.422 68.3385 489.721 69.0742 490.32 69.6797C490.919 70.2852 491.645 70.5879 492.498 70.5879C493.357 70.5879 494.083 70.2884 494.676 69.6895ZM499.617 68.8691V62.2871H502.234V68.3516C502.234 68.9961 502.433 69.5267 502.83 69.9434C503.227 70.36 503.745 70.5684 504.383 70.5684C505.021 70.5684 505.538 70.3633 505.936 69.9531C506.339 69.543 506.541 69.0091 506.541 68.3516V62.2871H509.158V72.6289H506.541V71.7109C505.786 72.4857 504.839 72.873 503.699 72.873C502.508 72.873 501.528 72.4889 500.76 71.7207C499.998 70.9525 499.617 70.002 499.617 68.8691ZM517.635 72.6289H515.047V58.625H518.807L522.986 69.2695L527.146 58.625H530.867V72.6289H528.25L528.27 62.2871L524.188 72.6289H521.707L517.605 62.2871L517.635 72.6289ZM532.283 69.7285C532.283 68.8105 532.583 68.0879 533.182 67.5605C533.781 67.0332 534.633 66.7305 535.74 66.6523L538.787 66.4277V66.0273C538.787 65.513 538.621 65.1126 538.289 64.8262C537.957 64.5332 537.488 64.3867 536.883 64.3867C535.971 64.3867 535.06 64.6927 534.148 65.3047L533.045 63.4492C534.301 62.5312 535.688 62.0723 537.205 62.0723C538.449 62.0723 539.445 62.4043 540.193 63.0684C540.949 63.7259 541.326 64.6048 541.326 65.7051V69.7676C541.326 70.1712 541.518 70.373 541.902 70.373H542.439V72.6289H541.229C540.734 72.6289 540.301 72.5215 539.93 72.3066C539.559 72.0918 539.282 71.7923 539.1 71.4082C538.729 71.877 538.266 72.2415 537.713 72.502C537.16 72.7624 536.544 72.8926 535.867 72.8926C534.839 72.8926 533.982 72.5931 533.299 71.9941C532.622 71.3952 532.283 70.64 532.283 69.7285ZM534.783 69.709C534.783 70.0671 534.936 70.3535 535.242 70.5684C535.548 70.7832 535.949 70.8906 536.443 70.8906C537.094 70.8906 537.648 70.7083 538.104 70.3438C538.559 69.9727 538.787 69.5267 538.787 69.0059V68.3516L536.102 68.5859C535.223 68.6641 534.783 69.0384 534.783 69.709ZM543.641 58.625H546.258V66.75L549.861 62.2871H552.859L548.68 67.2676L553.162 72.6289H549.959L546.258 68.0098V72.6289H543.641V58.625ZM552.479 67.4531C552.479 66.5026 552.71 65.6139 553.172 64.7871C553.634 63.9603 554.279 63.2995 555.105 62.8047C555.932 62.3034 556.844 62.0527 557.84 62.0527C559.389 62.0527 560.659 62.5703 561.648 63.6055C562.645 64.6406 563.143 65.9622 563.143 67.5703V68.332H555.164C555.34 69.0156 555.691 69.5723 556.219 70.002C556.746 70.4316 557.361 70.6465 558.064 70.6465C558.631 70.6465 559.132 70.5423 559.568 70.334C560.005 70.1191 560.408 69.7708 560.779 69.2891L562.605 70.6465C562.078 71.3626 561.43 71.916 560.662 72.3066C559.894 72.6973 559.035 72.8926 558.084 72.8926C557.042 72.8926 556.092 72.6615 555.232 72.1992C554.38 71.737 553.706 71.0892 553.211 70.2559C552.723 69.4225 552.479 68.4883 552.479 67.4531ZM557.781 64.2891C557.169 64.2891 556.632 64.4714 556.17 64.8359C555.708 65.2005 555.385 65.6986 555.203 66.3301H560.506C560.317 65.6986 559.975 65.2005 559.48 64.8359C558.986 64.4714 558.419 64.2891 557.781 64.2891ZM568.104 60.9883V58.625H579.422V60.9883H575.105V72.6289H572.4V60.9883H568.104ZM583.348 66.5645V72.6289H580.73V58.625H583.348V63.1855C584.09 62.4043 585.05 62.0137 586.229 62.0137C587.413 62.0137 588.383 62.401 589.139 63.1758C589.894 63.944 590.271 64.901 590.271 66.0469V72.6289H587.654V66.5645C587.654 65.8939 587.456 65.3568 587.059 64.9531C586.668 64.5495 586.154 64.3477 585.516 64.3477C584.878 64.3477 584.357 64.5495 583.953 64.9531C583.549 65.3503 583.348 65.8874 583.348 66.5645ZM591.717 67.4531C591.717 66.5026 591.948 65.6139 592.41 64.7871C592.872 63.9603 593.517 63.2995 594.344 62.8047C595.171 62.3034 596.082 62.0527 597.078 62.0527C598.628 62.0527 599.897 62.5703 600.887 63.6055C601.883 64.6406 602.381 65.9622 602.381 67.5703V68.332H594.402C594.578 69.0156 594.93 69.5723 595.457 70.002C595.984 70.4316 596.6 70.6465 597.303 70.6465C597.869 70.6465 598.37 70.5423 598.807 70.334C599.243 70.1191 599.646 69.7708 600.018 69.2891L601.844 70.6465C601.316 71.3626 600.669 71.916 599.9 72.3066C599.132 72.6973 598.273 72.8926 597.322 72.8926C596.281 72.8926 595.33 72.6615 594.471 72.1992C593.618 71.737 592.944 71.0892 592.449 70.2559C591.961 69.4225 591.717 68.4883 591.717 67.4531ZM597.02 64.2891C596.408 64.2891 595.87 64.4714 595.408 64.8359C594.946 65.2005 594.624 65.6986 594.441 66.3301H599.744C599.555 65.6986 599.214 65.2005 598.719 64.8359C598.224 64.4714 597.658 64.2891 597.02 64.2891ZM607.938 72.6289V58.625H613.465C614.624 58.625 615.604 58.9863 616.404 59.709C617.205 60.4251 617.605 61.304 617.605 62.3457C617.605 62.9056 617.462 63.4297 617.176 63.918C616.896 64.4062 616.512 64.8164 616.023 65.1484C616.779 65.4544 617.384 65.9199 617.84 66.5449C618.296 67.1634 618.523 67.8633 618.523 68.6445C618.523 69.7513 618.11 70.6921 617.283 71.4668C616.463 72.2415 615.457 72.6289 614.266 72.6289H607.938ZM613.201 60.8906H610.643V64.3281H613.201C613.696 64.3281 614.1 64.1621 614.412 63.8301C614.725 63.498 614.881 63.0911 614.881 62.6094C614.881 62.1146 614.725 61.7044 614.412 61.3789C614.106 61.0534 613.702 60.8906 613.201 60.8906ZM613.797 70.373C614.383 70.373 614.858 70.194 615.223 69.8359C615.594 69.4714 615.779 69.0091 615.779 68.4492C615.779 67.8958 615.594 67.4336 615.223 67.0625C614.852 66.6914 614.376 66.5059 613.797 66.5059H610.643V70.373H613.797ZM631.033 67.4727C631.033 68.2083 630.883 68.9115 630.584 69.582C630.285 70.2526 629.881 70.832 629.373 71.3203C628.865 71.8086 628.26 72.196 627.557 72.4824C626.86 72.7689 626.124 72.9121 625.35 72.9121C624.327 72.9121 623.38 72.6712 622.508 72.1895C621.635 71.7012 620.942 71.0404 620.428 70.207C619.92 69.3672 619.666 68.4557 619.666 67.4727C619.666 66.4896 619.92 65.5814 620.428 64.748C620.942 63.9082 621.635 63.2474 622.508 62.7656C623.38 62.2773 624.327 62.0332 625.35 62.0332C626.378 62.0332 627.329 62.2741 628.201 62.7559C629.074 63.2376 629.764 63.8984 630.271 64.7383C630.779 65.5716 631.033 66.4831 631.033 67.4727ZM627.527 69.6895C628.126 69.084 628.426 68.3451 628.426 67.4727C628.426 66.6003 628.126 65.8613 627.527 65.2559C626.935 64.6504 626.209 64.3477 625.35 64.3477C624.497 64.3477 623.771 64.6536 623.172 65.2656C622.573 65.8711 622.273 66.6068 622.273 67.4727C622.273 68.3385 622.573 69.0742 623.172 69.6797C623.771 70.2852 624.497 70.5879 625.35 70.5879C626.209 70.5879 626.935 70.2884 627.527 69.6895ZM643.475 67.4727C643.475 68.2083 643.325 68.9115 643.025 69.582C642.726 70.2526 642.322 70.832 641.814 71.3203C641.307 71.8086 640.701 72.196 639.998 72.4824C639.301 72.7689 638.566 72.9121 637.791 72.9121C636.769 72.9121 635.822 72.6712 634.949 72.1895C634.077 71.7012 633.383 71.0404 632.869 70.207C632.361 69.3672 632.107 68.4557 632.107 67.4727C632.107 66.4896 632.361 65.5814 632.869 64.748C633.383 63.9082 634.077 63.2474 634.949 62.7656C635.822 62.2773 636.769 62.0332 637.791 62.0332C638.82 62.0332 639.77 62.2741 640.643 62.7559C641.515 63.2376 642.205 63.8984 642.713 64.7383C643.221 65.5716 643.475 66.4831 643.475 67.4727ZM639.969 69.6895C640.568 69.084 640.867 68.3451 640.867 67.4727C640.867 66.6003 640.568 65.8613 639.969 65.2559C639.376 64.6504 638.65 64.3477 637.791 64.3477C636.938 64.3477 636.212 64.6536 635.613 65.2656C635.014 65.8711 634.715 66.6068 634.715 67.4727C634.715 68.3385 635.014 69.0742 635.613 69.6797C636.212 70.2852 636.938 70.5879 637.791 70.5879C638.65 70.5879 639.376 70.2884 639.969 69.6895ZM644.91 58.625H647.527V66.75L651.131 62.2871H654.129L649.949 67.2676L654.432 72.6289H651.229L647.527 68.0098V72.6289H644.91V58.625ZM657.449 60.7734C657.176 61.0534 656.834 61.1934 656.424 61.1934C656.014 61.1934 655.665 61.0534 655.379 60.7734C655.092 60.487 654.949 60.1387 654.949 59.7285C654.949 59.3184 655.092 58.9766 655.379 58.7031C655.665 58.4297 656.014 58.293 656.424 58.293C656.834 58.293 657.176 58.4297 657.449 58.7031C657.729 58.9766 657.869 59.3184 657.869 59.7285C657.869 60.1387 657.729 60.487 657.449 60.7734ZM657.723 62.2871V72.6289H655.105V62.2871H657.723ZM669.061 66.0469V72.6289H666.443V66.5645C666.443 65.8939 666.245 65.3568 665.848 64.9531C665.457 64.5495 664.943 64.3477 664.305 64.3477C663.667 64.3477 663.146 64.5495 662.742 64.9531C662.339 65.3503 662.137 65.8874 662.137 66.5645V72.6289H659.52V62.2871H662.137V63.166C662.885 62.3978 663.833 62.0137 664.979 62.0137C666.176 62.0137 667.156 62.401 667.918 63.1758C668.68 63.944 669.061 64.901 669.061 66.0469ZM681.805 62.2871V73.0293C681.805 74.1686 681.45 75.0866 680.74 75.7832C680.031 76.4798 679.087 76.8281 677.908 76.8281H675.008V74.6309H677.312C677.931 74.6309 678.396 74.4746 678.709 74.1621C679.028 73.8561 679.188 73.4102 679.188 72.8242V71.5645C678.224 72.3392 677.143 72.7266 675.945 72.7266C674.956 72.7266 674.044 72.4889 673.211 72.0137C672.378 71.5384 671.717 70.8906 671.229 70.0703C670.747 69.2435 670.506 68.3418 670.506 67.3652C670.506 66.3887 670.747 65.4902 671.229 64.6699C671.717 63.8496 672.378 63.2018 673.211 62.7266C674.051 62.2513 674.962 62.0137 675.945 62.0137C677.176 62.0137 678.263 62.4043 679.207 63.1855V62.2871H681.805ZM673.113 67.3652C673.113 68.2181 673.41 68.944 674.002 69.543C674.601 70.1354 675.324 70.4316 676.17 70.4316C677.029 70.4316 677.752 70.1354 678.338 69.543C678.93 68.944 679.227 68.2181 679.227 67.3652C679.227 66.5059 678.93 65.7799 678.338 65.1875C677.745 64.5885 677.023 64.2891 676.17 64.2891C675.33 64.2891 674.611 64.5918 674.012 65.1973C673.413 65.7962 673.113 66.5189 673.113 67.3652ZM692.244 58.4102C693.566 58.4102 694.679 58.8073 695.584 59.6016C696.495 60.3893 696.951 61.3529 696.951 62.4922C696.951 63.0521 696.814 63.5762 696.541 64.0645C696.268 64.5462 695.89 64.9531 695.408 65.2852C696.033 65.6237 696.528 66.0762 696.893 66.6426C697.264 67.209 697.449 67.8242 697.449 68.4883C697.449 69.2891 697.231 70.0247 696.795 70.6953C696.365 71.3659 695.753 71.903 694.959 72.3066C694.171 72.7103 693.286 72.9121 692.303 72.9121C690.135 72.9121 688.383 72.1504 687.049 70.627L688.826 69.0059C689.783 70.1387 690.89 70.7051 692.146 70.7051C692.928 70.7051 693.562 70.5 694.051 70.0898C694.539 69.6797 694.783 69.1719 694.783 68.5664C694.783 68.013 694.578 67.541 694.168 67.1504C693.758 66.7598 693.211 66.5645 692.527 66.5645H690.428V64.3672H692.225C692.863 64.3672 693.364 64.1947 693.729 63.8496C694.1 63.5046 694.285 63.0586 694.285 62.5117C694.285 61.9648 694.074 61.5124 693.65 61.1543C693.227 60.7897 692.68 60.6074 692.01 60.6074C690.949 60.6074 689.956 61.1478 689.031 62.2285L687.322 60.7246C687.973 59.9694 688.693 59.3965 689.48 59.0059C690.268 58.6087 691.189 58.4102 692.244 58.4102ZM698.973 67.3848V63.8496C698.973 62.1895 699.474 60.8581 700.477 59.8555C701.479 58.8529 702.811 58.3516 704.471 58.3516C706.131 58.3516 707.459 58.8529 708.455 59.8555C709.451 60.8516 709.949 62.1829 709.949 63.8496V67.3848C709.949 69.0579 709.451 70.3991 708.455 71.4082C707.459 72.4108 706.131 72.9121 704.471 72.9121C702.811 72.9121 701.479 72.4076 700.477 71.3984C699.474 70.3893 698.973 69.0514 698.973 67.3848ZM707.371 67.3262V63.9082C707.371 62.8861 707.114 62.0853 706.6 61.5059C706.085 60.9199 705.376 60.627 704.471 60.627C703.566 60.627 702.853 60.9199 702.332 61.5059C701.811 62.0853 701.551 62.8861 701.551 63.9082V67.3262C701.551 68.3483 701.811 69.1556 702.332 69.748C702.853 70.334 703.566 70.627 704.471 70.627C705.376 70.627 706.085 70.334 706.6 69.748C707.114 69.1621 707.371 68.3548 707.371 67.3262ZM90.3301 102.629H87.7422V88.625H91.502L95.6816 99.2695L99.8418 88.625H103.562V102.629H100.945L100.965 92.2871L96.8828 102.629H94.4023L90.3008 92.2871L90.3301 102.629ZM107.781 90.7734C107.508 91.0534 107.166 91.1934 106.756 91.1934C106.346 91.1934 105.997 91.0534 105.711 90.7734C105.424 90.487 105.281 90.1387 105.281 89.7285C105.281 89.3184 105.424 88.9766 105.711 88.7031C105.997 88.4297 106.346 88.293 106.756 88.293C107.166 88.293 107.508 88.4297 107.781 88.7031C108.061 88.9766 108.201 89.3184 108.201 89.7285C108.201 90.1387 108.061 90.487 107.781 90.7734ZM108.055 92.2871V102.629H105.438V92.2871H108.055ZM119.393 96.0469V102.629H116.775V96.5645C116.775 95.8939 116.577 95.3568 116.18 94.9531C115.789 94.5495 115.275 94.3477 114.637 94.3477C113.999 94.3477 113.478 94.5495 113.074 94.9531C112.671 95.3503 112.469 95.8874 112.469 96.5645V102.629H109.852V92.2871H112.469V93.166C113.217 92.3978 114.165 92.0137 115.311 92.0137C116.508 92.0137 117.488 92.401 118.25 93.1758C119.012 93.944 119.393 94.901 119.393 96.0469ZM121.199 98.8691V92.2871H123.816V98.3516C123.816 98.9961 124.015 99.5267 124.412 99.9434C124.809 100.36 125.327 100.568 125.965 100.568C126.603 100.568 127.12 100.363 127.518 99.9531C127.921 99.543 128.123 99.0091 128.123 98.3516V92.2871H130.74V102.629H128.123V101.711C127.368 102.486 126.421 102.873 125.281 102.873C124.09 102.873 123.11 102.489 122.342 101.721C121.58 100.952 121.199 100.002 121.199 98.8691ZM136.707 102.629C135.796 102.629 135.092 102.391 134.598 101.916C134.109 101.434 133.865 100.806 133.865 100.031V94.5527H131.844V92.2871H133.865V89.2891H136.473V92.2871H138.748V94.5527H136.473V99.5723C136.473 99.8327 136.557 100.031 136.727 100.168C136.902 100.305 137.143 100.373 137.449 100.373H138.748V102.629H136.707ZM139.51 97.4531C139.51 96.5026 139.741 95.6139 140.203 94.7871C140.665 93.9603 141.31 93.2995 142.137 92.8047C142.964 92.3034 143.875 92.0527 144.871 92.0527C146.421 92.0527 147.69 92.5703 148.68 93.6055C149.676 94.6406 150.174 95.9622 150.174 97.5703V98.332H142.195C142.371 99.0156 142.723 99.5723 143.25 100.002C143.777 100.432 144.393 100.646 145.096 100.646C145.662 100.646 146.163 100.542 146.6 100.334C147.036 100.119 147.439 99.7708 147.811 99.2891L149.637 100.646C149.109 101.363 148.462 101.916 147.693 102.307C146.925 102.697 146.066 102.893 145.115 102.893C144.074 102.893 143.123 102.661 142.264 102.199C141.411 101.737 140.737 101.089 140.242 100.256C139.754 99.4225 139.51 98.4883 139.51 97.4531ZM144.812 94.2891C144.201 94.2891 143.663 94.4714 143.201 94.8359C142.739 95.2005 142.417 95.6986 142.234 96.3301H147.537C147.348 95.6986 147.007 95.2005 146.512 94.8359C146.017 94.4714 145.451 94.2891 144.812 94.2891ZM155.809 102.873C154.493 102.873 153.419 102.548 152.586 101.896C151.759 101.245 151.242 100.402 151.033 99.3672H153.514C153.637 99.8685 153.904 100.243 154.314 100.49C154.725 100.731 155.223 100.852 155.809 100.852C156.277 100.852 156.642 100.754 156.902 100.559C157.163 100.363 157.293 100.106 157.293 99.7871C157.293 99.5723 157.205 99.3802 157.029 99.2109C156.854 99.0417 156.593 98.9147 156.248 98.8301L154.109 98.332C152.176 97.8698 151.209 96.8542 151.209 95.2852C151.209 94.3086 151.57 93.5241 152.293 92.9316C153.016 92.3327 153.94 92.0332 155.066 92.0332C156.342 92.0332 157.378 92.3652 158.172 93.0293C158.973 93.6868 159.451 94.5332 159.607 95.5684H157.146C157.016 95.0605 156.753 94.6797 156.355 94.4258C155.958 94.1719 155.522 94.0449 155.047 94.0449C154.643 94.0449 154.327 94.1361 154.1 94.3184C153.878 94.5007 153.768 94.7318 153.768 95.0117C153.768 95.5456 154.181 95.9102 155.008 96.1055L156.99 96.5938C158.885 97.0495 159.832 98.0488 159.832 99.5918C159.832 100.542 159.467 101.327 158.738 101.945C158.009 102.564 157.033 102.873 155.809 102.873ZM164.607 90.9883V88.625H175.926V90.9883H171.609V102.629H168.904V90.9883H164.607ZM185.838 97.4727C185.838 98.2083 185.688 98.9115 185.389 99.582C185.089 100.253 184.686 100.832 184.178 101.32C183.67 101.809 183.064 102.196 182.361 102.482C181.665 102.769 180.929 102.912 180.154 102.912C179.132 102.912 178.185 102.671 177.312 102.189C176.44 101.701 175.747 101.04 175.232 100.207C174.725 99.3672 174.471 98.4557 174.471 97.4727C174.471 96.4896 174.725 95.5814 175.232 94.748C175.747 93.9082 176.44 93.2474 177.312 92.7656C178.185 92.2773 179.132 92.0332 180.154 92.0332C181.183 92.0332 182.133 92.2741 183.006 92.7559C183.878 93.2376 184.568 93.8984 185.076 94.7383C185.584 95.5716 185.838 96.4831 185.838 97.4727ZM182.332 99.6895C182.931 99.084 183.23 98.3451 183.23 97.4727C183.23 96.6003 182.931 95.8613 182.332 95.2559C181.74 94.6504 181.014 94.3477 180.154 94.3477C179.301 94.3477 178.576 94.6536 177.977 95.2656C177.378 95.8711 177.078 96.6068 177.078 97.4727C177.078 98.3385 177.378 99.0742 177.977 99.6797C178.576 100.285 179.301 100.588 180.154 100.588C181.014 100.588 181.74 100.288 182.332 99.6895ZM198.895 88.625L204.803 102.629H201.922L200.535 99.2109H194.461L193.074 102.629H190.281L196.18 88.625H198.895ZM195.379 96.8672H199.598L197.498 91.6328L195.379 96.8672ZM215.135 96.0469V102.629H212.518V96.5645C212.518 95.8939 212.319 95.3568 211.922 94.9531C211.531 94.5495 211.017 94.3477 210.379 94.3477C209.741 94.3477 209.22 94.5495 208.816 94.9531C208.413 95.3503 208.211 95.8874 208.211 96.5645V102.629H205.594V92.2871H208.211V93.166C208.96 92.3978 209.907 92.0137 211.053 92.0137C212.251 92.0137 213.23 92.401 213.992 93.1758C214.754 93.944 215.135 94.901 215.135 96.0469ZM223.729 102.629H221.023V88.625H223.729V94.4258H229.871V88.625H232.566V102.629H229.871V96.7891H223.729V102.629ZM245.447 97.4727C245.447 98.2083 245.298 98.9115 244.998 99.582C244.699 100.253 244.295 100.832 243.787 101.32C243.279 101.809 242.674 102.196 241.971 102.482C241.274 102.769 240.538 102.912 239.764 102.912C238.742 102.912 237.794 102.671 236.922 102.189C236.049 101.701 235.356 101.04 234.842 100.207C234.334 99.3672 234.08 98.4557 234.08 97.4727C234.08 96.4896 234.334 95.5814 234.842 94.748C235.356 93.9082 236.049 93.2474 236.922 92.7656C237.794 92.2773 238.742 92.0332 239.764 92.0332C240.792 92.0332 241.743 92.2741 242.615 92.7559C243.488 93.2376 244.178 93.8984 244.686 94.7383C245.193 95.5716 245.447 96.4831 245.447 97.4727ZM241.941 99.6895C242.54 99.084 242.84 98.3451 242.84 97.4727C242.84 96.6003 242.54 95.8613 241.941 95.2559C241.349 94.6504 240.623 94.3477 239.764 94.3477C238.911 94.3477 238.185 94.6536 237.586 95.2656C236.987 95.8711 236.688 96.6068 236.688 97.4727C236.688 98.3385 236.987 99.0742 237.586 99.6797C238.185 100.285 238.911 100.588 239.764 100.588C240.623 100.588 241.349 100.288 241.941 99.6895ZM246.883 98.8691V92.2871H249.5V98.3516C249.5 98.9961 249.699 99.5267 250.096 99.9434C250.493 100.36 251.01 100.568 251.648 100.568C252.286 100.568 252.804 100.363 253.201 99.9531C253.605 99.543 253.807 99.0091 253.807 98.3516V92.2871H256.424V102.629H253.807V101.711C253.051 102.486 252.104 102.873 250.965 102.873C249.773 102.873 248.794 102.489 248.025 101.721C247.264 100.952 246.883 100.002 246.883 98.8691ZM263.992 94.5918H263.055C262.417 94.5918 261.889 94.8132 261.473 95.2559C261.056 95.6986 260.848 96.304 260.848 97.0723V102.629H258.23V92.2871H260.828V93.4102C261.382 92.5964 262.202 92.1895 263.289 92.1895H263.992V94.5918ZM276.883 88.625L282.791 102.629H279.91L278.523 99.2109H272.449L271.062 102.629H268.27L274.168 88.625H276.883ZM273.367 96.8672H277.586L275.486 91.6328L273.367 96.8672ZM281.883 94.5527V92.2871H283.924V90.4512C283.924 89.6829 284.168 89.0579 284.656 88.5762C285.151 88.0944 285.848 87.8535 286.746 87.8535H288.709V90.1094H287.205C286.756 90.1094 286.531 90.3438 286.531 90.8125V92.2871H288.709V94.5527H286.531V102.629H283.924V94.5527H281.883ZM294.168 102.629C293.257 102.629 292.553 102.391 292.059 101.916C291.57 101.434 291.326 100.806 291.326 100.031V94.5527H289.305V92.2871H291.326V89.2891H293.934V92.2871H296.209V94.5527H293.934V99.5723C293.934 99.8327 294.018 100.031 294.188 100.168C294.363 100.305 294.604 100.373 294.91 100.373H296.209V102.629H294.168ZM296.971 97.4531C296.971 96.5026 297.202 95.6139 297.664 94.7871C298.126 93.9603 298.771 93.2995 299.598 92.8047C300.424 92.3034 301.336 92.0527 302.332 92.0527C303.882 92.0527 305.151 92.5703 306.141 93.6055C307.137 94.6406 307.635 95.9622 307.635 97.5703V98.332H299.656C299.832 99.0156 300.184 99.5723 300.711 100.002C301.238 100.432 301.854 100.646 302.557 100.646C303.123 100.646 303.624 100.542 304.061 100.334C304.497 100.119 304.9 99.7708 305.271 99.2891L307.098 100.646C306.57 101.363 305.923 101.916 305.154 102.307C304.386 102.697 303.527 102.893 302.576 102.893C301.535 102.893 300.584 102.661 299.725 102.199C298.872 101.737 298.198 101.089 297.703 100.256C297.215 99.4225 296.971 98.4883 296.971 97.4531ZM302.273 94.2891C301.661 94.2891 301.124 94.4714 300.662 94.8359C300.2 95.2005 299.878 95.6986 299.695 96.3301H304.998C304.809 95.6986 304.467 95.2005 303.973 94.8359C303.478 94.4714 302.911 94.2891 302.273 94.2891ZM314.852 94.5918H313.914C313.276 94.5918 312.749 94.8132 312.332 95.2559C311.915 95.6986 311.707 96.304 311.707 97.0723V102.629H309.09V92.2871H311.688V93.4102C312.241 92.5964 313.061 92.1895 314.148 92.1895H314.852V94.5918ZM329.051 100.266V102.629H320.223V88.625H322.928V100.266H329.051ZM329.92 99.7285C329.92 98.8105 330.219 98.0879 330.818 97.5605C331.417 97.0332 332.27 96.7305 333.377 96.6523L336.424 96.4277V96.0273C336.424 95.513 336.258 95.1126 335.926 94.8262C335.594 94.5332 335.125 94.3867 334.52 94.3867C333.608 94.3867 332.697 94.6927 331.785 95.3047L330.682 93.4492C331.938 92.5312 333.325 92.0723 334.842 92.0723C336.085 92.0723 337.081 92.4043 337.83 93.0684C338.585 93.7259 338.963 94.6048 338.963 95.7051V99.7676C338.963 100.171 339.155 100.373 339.539 100.373H340.076V102.629H338.865C338.37 102.629 337.938 102.521 337.566 102.307C337.195 102.092 336.919 101.792 336.736 101.408C336.365 101.877 335.903 102.242 335.35 102.502C334.796 102.762 334.181 102.893 333.504 102.893C332.475 102.893 331.619 102.593 330.936 101.994C330.258 101.395 329.92 100.64 329.92 99.7285ZM332.42 99.709C332.42 100.067 332.573 100.354 332.879 100.568C333.185 100.783 333.585 100.891 334.08 100.891C334.731 100.891 335.285 100.708 335.74 100.344C336.196 99.9727 336.424 99.5267 336.424 99.0059V98.3516L333.738 98.5859C332.859 98.6641 332.42 99.0384 332.42 99.709ZM350.818 96.0469V102.629H348.201V96.5645C348.201 95.8939 348.003 95.3568 347.605 94.9531C347.215 94.5495 346.701 94.3477 346.062 94.3477C345.424 94.3477 344.904 94.5495 344.5 94.9531C344.096 95.3503 343.895 95.8874 343.895 96.5645V102.629H341.277V92.2871H343.895V93.166C344.643 92.3978 345.59 92.0137 346.736 92.0137C347.934 92.0137 348.914 92.401 349.676 93.1758C350.438 93.944 350.818 94.901 350.818 96.0469ZM363.729 102.629H361.131V101.672C360.161 102.499 359.048 102.912 357.791 102.912C357.036 102.912 356.316 102.769 355.633 102.482C354.949 102.189 354.36 101.799 353.865 101.311C353.377 100.822 352.986 100.246 352.693 99.582C352.407 98.9115 352.264 98.2083 352.264 97.4727C352.264 96.737 352.407 96.0339 352.693 95.3633C352.986 94.6927 353.377 94.1133 353.865 93.625C354.36 93.1367 354.949 92.7493 355.633 92.4629C356.316 92.1764 357.036 92.0332 357.791 92.0332C359.035 92.0332 360.141 92.4368 361.111 93.2441V88.625H363.729V102.629ZM361.15 97.4727C361.15 96.5938 360.844 95.8516 360.232 95.2461C359.62 94.6341 358.878 94.3281 358.006 94.3281C357.14 94.3281 356.401 94.6341 355.789 95.2461C355.177 95.8581 354.871 96.6003 354.871 97.4727C354.871 98.3385 355.177 99.0807 355.789 99.6992C356.408 100.318 357.146 100.627 358.006 100.627C358.872 100.627 359.611 100.321 360.223 99.709C360.841 99.0905 361.15 98.3451 361.15 97.4727ZM367.859 90.7734C367.586 91.0534 367.244 91.1934 366.834 91.1934C366.424 91.1934 366.076 91.0534 365.789 90.7734C365.503 90.487 365.359 90.1387 365.359 89.7285C365.359 89.3184 365.503 88.9766 365.789 88.7031C366.076 88.4297 366.424 88.293 366.834 88.293C367.244 88.293 367.586 88.4297 367.859 88.7031C368.139 88.9766 368.279 89.3184 368.279 89.7285C368.279 90.1387 368.139 90.487 367.859 90.7734ZM368.133 92.2871V102.629H365.516V92.2871H368.133ZM379.471 96.0469V102.629H376.854V96.5645C376.854 95.8939 376.655 95.3568 376.258 94.9531C375.867 94.5495 375.353 94.3477 374.715 94.3477C374.077 94.3477 373.556 94.5495 373.152 94.9531C372.749 95.3503 372.547 95.8874 372.547 96.5645V102.629H369.93V92.2871H372.547V93.166C373.296 92.3978 374.243 92.0137 375.389 92.0137C376.587 92.0137 377.566 92.401 378.328 93.1758C379.09 93.944 379.471 94.901 379.471 96.0469ZM392.215 92.2871V103.029C392.215 104.169 391.86 105.087 391.15 105.783C390.441 106.48 389.497 106.828 388.318 106.828H385.418V104.631H387.723C388.341 104.631 388.807 104.475 389.119 104.162C389.438 103.856 389.598 103.41 389.598 102.824V101.564C388.634 102.339 387.553 102.727 386.355 102.727C385.366 102.727 384.454 102.489 383.621 102.014C382.788 101.538 382.127 100.891 381.639 100.07C381.157 99.2435 380.916 98.3418 380.916 97.3652C380.916 96.3887 381.157 95.4902 381.639 94.6699C382.127 93.8496 382.788 93.2018 383.621 92.7266C384.461 92.2513 385.372 92.0137 386.355 92.0137C387.586 92.0137 388.673 92.4043 389.617 93.1855V92.2871H392.215ZM383.523 97.3652C383.523 98.2181 383.82 98.944 384.412 99.543C385.011 100.135 385.734 100.432 386.58 100.432C387.439 100.432 388.162 100.135 388.748 99.543C389.34 98.944 389.637 98.2181 389.637 97.3652C389.637 96.5059 389.34 95.7799 388.748 95.1875C388.156 94.5885 387.433 94.2891 386.58 94.2891C385.74 94.2891 385.021 94.5918 384.422 95.1973C383.823 95.7962 383.523 96.5189 383.523 97.3652ZM394.236 100.266C394.529 99.9727 394.887 99.8262 395.311 99.8262C395.734 99.8262 396.092 99.9727 396.385 100.266C396.684 100.559 396.834 100.913 396.834 101.33C396.834 101.747 396.684 102.102 396.385 102.395C396.092 102.681 395.734 102.824 395.311 102.824C394.887 102.824 394.529 102.681 394.236 102.395C393.943 102.102 393.797 101.747 393.797 101.33C393.797 100.913 393.943 100.559 394.236 100.266Z" fill="black"/>
<rect x="42.3516" y="0.730469" width="49.3573" height="49.3573" rx="10" transform="rotate(45 42.3516 0.730469)" fill="#FFF9E2"/>
<path d="M2.22852 38.7627V33.46C2.22852 30.9697 2.98047 28.9727 4.48438 27.4688C5.98828 25.9648 7.98535 25.2129 10.4756 25.2129C12.9658 25.2129 14.958 25.9648 16.4521 27.4688C17.9463 28.9629 18.6934 30.96 18.6934 33.46V38.7627C18.6934 41.2725 17.9463 43.2842 16.4521 44.7979C14.958 46.3018 12.9658 47.0537 10.4756 47.0537C7.98535 47.0537 5.98828 46.2969 4.48438 44.7832C2.98047 43.2695 2.22852 41.2627 2.22852 38.7627ZM14.8262 38.6748V33.5479C14.8262 32.0146 14.4404 30.8135 13.6689 29.9443C12.8975 29.0654 11.833 28.626 10.4756 28.626C9.11816 28.626 8.04883 29.0654 7.26758 29.9443C6.48633 30.8135 6.0957 32.0146 6.0957 33.5479V38.6748C6.0957 40.208 6.48633 41.4189 7.26758 42.3076C8.04883 43.1865 9.11816 43.626 10.4756 43.626C11.833 43.626 12.8975 43.1865 13.6689 42.3076C14.4404 41.4287 14.8262 40.2178 14.8262 38.6748ZM28.7861 33.0059C30.7588 33.0059 32.4141 33.6406 33.752 34.9102C35.0996 36.1797 35.7734 37.7471 35.7734 39.6123C35.7734 40.999 35.4316 42.2637 34.748 43.4062C34.0645 44.5391 33.1172 45.4326 31.9062 46.0869C30.7051 46.7314 29.3721 47.0537 27.9072 47.0537C24.8311 47.0537 22.292 45.9014 20.29 43.5967L22.9854 41.1357C24.3916 42.874 26.0029 43.7432 27.8193 43.7432C28.9619 43.7432 29.9043 43.3818 30.6465 42.6592C31.3984 41.9268 31.7744 41.0088 31.7744 39.9053C31.7744 38.8506 31.4082 37.9863 30.6758 37.3125C29.9434 36.6387 29.001 36.3018 27.8486 36.3018C27.1455 36.3018 26.5205 36.4092 25.9736 36.624C25.4365 36.8389 24.8896 37.1953 24.333 37.6934L21.1836 37.21L21.6377 25.623H34.3672V29.0801H25.0654L24.875 34.002C26.0078 33.3379 27.3115 33.0059 28.7861 33.0059Z" fill="black" fill-opacity="0.2"/>
</svg>
