<svg width="267" height="71" viewBox="0 0 267 71" fill="none" xmlns="http://www.w3.org/2000/svg">
<path d="M90.2617 42.8398H87.7617V28.8359H90.7305L97.8008 39.1387L97.7812 28.8359H100.281V42.8398H97.3223L90.2422 32.5371L90.2617 42.8398ZM113.182 37.6836C113.182 38.4193 113.032 39.1224 112.732 39.793C112.433 40.4635 112.029 41.043 111.521 41.5312C111.014 42.0195 110.408 42.4069 109.705 42.6934C109.008 42.9798 108.273 43.123 107.498 43.123C106.476 43.123 105.529 42.8822 104.656 42.4004C103.784 41.9121 103.09 41.2513 102.576 40.418C102.068 39.5781 101.814 38.6667 101.814 37.6836C101.814 36.7005 102.068 35.7923 102.576 34.959C103.09 34.1191 103.784 33.4583 104.656 32.9766C105.529 32.4883 106.476 32.2441 107.498 32.2441C108.527 32.2441 109.477 32.485 110.35 32.9668C111.222 33.4486 111.912 34.1094 112.42 34.9492C112.928 35.7826 113.182 36.694 113.182 37.6836ZM109.676 39.9004C110.275 39.2949 110.574 38.556 110.574 37.6836C110.574 36.8112 110.275 36.0723 109.676 35.4668C109.083 34.8613 108.357 34.5586 107.498 34.5586C106.645 34.5586 105.919 34.8646 105.32 35.4766C104.721 36.082 104.422 36.8177 104.422 37.6836C104.422 38.5495 104.721 39.2852 105.32 39.8906C105.919 40.4961 106.645 40.7988 107.498 40.7988C108.357 40.7988 109.083 40.4993 109.676 39.9004ZM121.404 42.8398H118.699V28.8359H121.404V34.6367H127.547V28.8359H130.242V42.8398H127.547V37H121.404V42.8398ZM134.461 30.9844C134.188 31.2643 133.846 31.4043 133.436 31.4043C133.025 31.4043 132.677 31.2643 132.391 30.9844C132.104 30.6979 131.961 30.3496 131.961 29.9395C131.961 29.5293 132.104 29.1875 132.391 28.9141C132.677 28.6406 133.025 28.5039 133.436 28.5039C133.846 28.5039 134.188 28.6406 134.461 28.9141C134.741 29.1875 134.881 29.5293 134.881 29.9395C134.881 30.3496 134.741 30.6979 134.461 30.9844ZM134.734 32.498V42.8398H132.117V32.498H134.734ZM147.635 42.8398H145.037V41.8828C144.067 42.7096 142.954 43.123 141.697 43.123C140.942 43.123 140.223 42.9798 139.539 42.6934C138.855 42.4004 138.266 42.0098 137.771 41.5215C137.283 41.0332 136.893 40.457 136.6 39.793C136.313 39.1224 136.17 38.4193 136.17 37.6836C136.17 36.9479 136.313 36.2448 136.6 35.5742C136.893 34.9036 137.283 34.3242 137.771 33.8359C138.266 33.3477 138.855 32.9603 139.539 32.6738C140.223 32.3874 140.942 32.2441 141.697 32.2441C142.941 32.2441 144.048 32.6478 145.018 33.4551V28.8359H147.635V42.8398ZM145.057 37.6836C145.057 36.8047 144.751 36.0625 144.139 35.457C143.527 34.8451 142.785 34.5391 141.912 34.5391C141.046 34.5391 140.307 34.8451 139.695 35.457C139.083 36.069 138.777 36.8112 138.777 37.6836C138.777 38.5495 139.083 39.2917 139.695 39.9102C140.314 40.5286 141.053 40.8379 141.912 40.8379C142.778 40.8379 143.517 40.5319 144.129 39.9199C144.747 39.3014 145.057 38.556 145.057 37.6836ZM160.525 42.8398H157.928V41.8828C156.958 42.7096 155.844 43.123 154.588 43.123C153.833 43.123 153.113 42.9798 152.43 42.6934C151.746 42.4004 151.157 42.0098 150.662 41.5215C150.174 41.0332 149.783 40.457 149.49 39.793C149.204 39.1224 149.061 38.4193 149.061 37.6836C149.061 36.9479 149.204 36.2448 149.49 35.5742C149.783 34.9036 150.174 34.3242 150.662 33.8359C151.157 33.3477 151.746 32.9603 152.43 32.6738C153.113 32.3874 153.833 32.2441 154.588 32.2441C155.831 32.2441 156.938 32.6478 157.908 33.4551V28.8359H160.525V42.8398ZM157.947 37.6836C157.947 36.8047 157.641 36.0625 157.029 35.457C156.417 34.8451 155.675 34.5391 154.803 34.5391C153.937 34.5391 153.198 34.8451 152.586 35.457C151.974 36.069 151.668 36.8112 151.668 37.6836C151.668 38.5495 151.974 39.2917 152.586 39.9102C153.204 40.5286 153.943 40.8379 154.803 40.8379C155.669 40.8379 156.408 40.5319 157.02 39.9199C157.638 39.3014 157.947 38.556 157.947 37.6836ZM161.951 37.6641C161.951 36.7135 162.182 35.8249 162.645 34.998C163.107 34.1712 163.751 33.5104 164.578 33.0156C165.405 32.5143 166.316 32.2637 167.312 32.2637C168.862 32.2637 170.132 32.7812 171.121 33.8164C172.117 34.8516 172.615 36.1732 172.615 37.7812V38.543H164.637C164.812 39.2266 165.164 39.7832 165.691 40.2129C166.219 40.6426 166.834 40.8574 167.537 40.8574C168.104 40.8574 168.605 40.7533 169.041 40.5449C169.477 40.3301 169.881 39.9818 170.252 39.5L172.078 40.8574C171.551 41.5736 170.903 42.127 170.135 42.5176C169.367 42.9082 168.507 43.1035 167.557 43.1035C166.515 43.1035 165.564 42.8724 164.705 42.4102C163.852 41.9479 163.178 41.3001 162.684 40.4668C162.195 39.6335 161.951 38.6992 161.951 37.6641ZM167.254 34.5C166.642 34.5 166.105 34.6823 165.643 35.0469C165.18 35.4115 164.858 35.9095 164.676 36.541H169.979C169.79 35.9095 169.448 35.4115 168.953 35.0469C168.458 34.6823 167.892 34.5 167.254 34.5ZM183.611 36.2578V42.8398H180.994V36.7754C180.994 36.1048 180.796 35.5677 180.398 35.1641C180.008 34.7604 179.493 34.5586 178.855 34.5586C178.217 34.5586 177.697 34.7604 177.293 35.1641C176.889 35.5612 176.688 36.0983 176.688 36.7754V42.8398H174.07V32.498H176.688V33.377C177.436 32.6087 178.383 32.2246 179.529 32.2246C180.727 32.2246 181.707 32.612 182.469 33.3867C183.23 34.1549 183.611 35.112 183.611 36.2578ZM189.227 35.8184C189.227 34.4967 189.546 33.2858 190.184 32.1855C190.822 31.0788 191.71 30.2031 192.85 29.5586C193.995 28.9076 195.275 28.582 196.688 28.582C197.911 28.582 199.041 28.8522 200.076 29.3926C201.111 29.9329 201.987 30.6686 202.703 31.5996L200.604 33.1426C200.154 32.498 199.581 31.987 198.885 31.6094C198.195 31.2318 197.475 31.043 196.727 31.043C195.379 31.043 194.246 31.4889 193.328 32.3809C192.417 33.2728 191.961 34.4186 191.961 35.8184C191.961 36.7559 192.176 37.5957 192.605 38.3379C193.035 39.0736 193.611 39.64 194.334 40.0371C195.057 40.4277 195.854 40.623 196.727 40.623C197.534 40.623 198.283 40.4408 198.973 40.0762C199.669 39.7051 200.232 39.194 200.662 38.543L202.762 40.0762C202.078 41.0072 201.215 41.7461 200.174 42.293C199.139 42.8333 197.996 43.1035 196.746 43.1035C195.665 43.1035 194.656 42.9147 193.719 42.5371C192.781 42.1595 191.984 41.6484 191.326 41.0039C190.675 40.3529 190.161 39.5814 189.783 38.6895C189.412 37.791 189.227 36.834 189.227 35.8184ZM206.492 36.7754V42.8398H203.875V28.8359H206.492V33.3965C207.234 32.6152 208.195 32.2246 209.373 32.2246C210.558 32.2246 211.528 32.612 212.283 33.3867C213.038 34.1549 213.416 35.112 213.416 36.2578V42.8398H210.799V36.7754C210.799 36.1048 210.6 35.5677 210.203 35.1641C209.812 34.7604 209.298 34.5586 208.66 34.5586C208.022 34.5586 207.501 34.7604 207.098 35.1641C206.694 35.5612 206.492 36.0983 206.492 36.7754ZM214.764 39.9395C214.764 39.0215 215.063 38.2988 215.662 37.7715C216.261 37.2441 217.114 36.9414 218.221 36.8633L221.268 36.6387V36.2383C221.268 35.724 221.102 35.3236 220.77 35.0371C220.438 34.7441 219.969 34.5977 219.363 34.5977C218.452 34.5977 217.54 34.9036 216.629 35.5156L215.525 33.6602C216.782 32.7422 218.169 32.2832 219.686 32.2832C220.929 32.2832 221.925 32.6152 222.674 33.2793C223.429 33.9368 223.807 34.8158 223.807 35.916V39.9785C223.807 40.3822 223.999 40.584 224.383 40.584H224.92V42.8398H223.709C223.214 42.8398 222.781 42.7324 222.41 42.5176C222.039 42.3027 221.762 42.0033 221.58 41.6191C221.209 42.0879 220.747 42.4525 220.193 42.7129C219.64 42.9733 219.025 43.1035 218.348 43.1035C217.319 43.1035 216.463 42.804 215.779 42.2051C215.102 41.6061 214.764 40.8509 214.764 39.9395ZM217.264 39.9199C217.264 40.278 217.417 40.5645 217.723 40.7793C218.029 40.9941 218.429 41.1016 218.924 41.1016C219.575 41.1016 220.128 40.9193 220.584 40.5547C221.04 40.1836 221.268 39.7376 221.268 39.2168V38.5625L218.582 38.7969C217.703 38.875 217.264 39.2493 217.264 39.9199ZM231.883 34.8027H230.945C230.307 34.8027 229.78 35.0241 229.363 35.4668C228.947 35.9095 228.738 36.515 228.738 37.2832V42.8398H226.121V32.498H228.719V33.6211C229.272 32.8073 230.092 32.4004 231.18 32.4004H231.883V34.8027ZM243.68 32.498V43.2402C243.68 44.3796 243.325 45.2975 242.615 45.9941C241.906 46.6908 240.962 47.0391 239.783 47.0391H236.883V44.8418H239.188C239.806 44.8418 240.271 44.6855 240.584 44.373C240.903 44.0671 241.062 43.6211 241.062 43.0352V41.7754C240.099 42.5501 239.018 42.9375 237.82 42.9375C236.831 42.9375 235.919 42.6999 235.086 42.2246C234.253 41.7493 233.592 41.1016 233.104 40.2812C232.622 39.4544 232.381 38.5527 232.381 37.5762C232.381 36.5996 232.622 35.7012 233.104 34.8809C233.592 34.0605 234.253 33.4128 235.086 32.9375C235.926 32.4622 236.837 32.2246 237.82 32.2246C239.051 32.2246 240.138 32.6152 241.082 33.3965V32.498H243.68ZM234.988 37.5762C234.988 38.429 235.285 39.1549 235.877 39.7539C236.476 40.3464 237.199 40.6426 238.045 40.6426C238.904 40.6426 239.627 40.3464 240.213 39.7539C240.805 39.1549 241.102 38.429 241.102 37.5762C241.102 36.7168 240.805 35.9909 240.213 35.3984C239.62 34.7995 238.898 34.5 238.045 34.5C237.205 34.5 236.486 34.8027 235.887 35.4082C235.288 36.0072 234.988 36.7298 234.988 37.5762ZM245.115 37.6641C245.115 36.7135 245.346 35.8249 245.809 34.998C246.271 34.1712 246.915 33.5104 247.742 33.0156C248.569 32.5143 249.48 32.2637 250.477 32.2637C252.026 32.2637 253.296 32.7812 254.285 33.8164C255.281 34.8516 255.779 36.1732 255.779 37.7812V38.543H247.801C247.977 39.2266 248.328 39.7832 248.855 40.2129C249.383 40.6426 249.998 40.8574 250.701 40.8574C251.268 40.8574 251.769 40.7533 252.205 40.5449C252.641 40.3301 253.045 39.9818 253.416 39.5L255.242 40.8574C254.715 41.5736 254.067 42.127 253.299 42.5176C252.531 42.9082 251.671 43.1035 250.721 43.1035C249.679 43.1035 248.729 42.8724 247.869 42.4102C247.016 41.9479 246.342 41.3001 245.848 40.4668C245.359 39.6335 245.115 38.6992 245.115 37.6641ZM250.418 34.5C249.806 34.5 249.269 34.6823 248.807 35.0469C248.344 35.4115 248.022 35.9095 247.84 36.541H253.143C252.954 35.9095 252.612 35.4115 252.117 35.0469C251.622 34.6823 251.056 34.5 250.418 34.5ZM261.414 43.084C260.099 43.084 259.025 42.7585 258.191 42.1074C257.365 41.4564 256.847 40.6133 256.639 39.5781H259.119C259.243 40.0794 259.51 40.4538 259.92 40.7012C260.33 40.9421 260.828 41.0625 261.414 41.0625C261.883 41.0625 262.247 40.9648 262.508 40.7695C262.768 40.5742 262.898 40.3171 262.898 39.998C262.898 39.7832 262.811 39.5911 262.635 39.4219C262.459 39.2526 262.199 39.1257 261.854 39.041L259.715 38.543C257.781 38.0807 256.814 37.0651 256.814 35.4961C256.814 34.5195 257.176 33.735 257.898 33.1426C258.621 32.5436 259.546 32.2441 260.672 32.2441C261.948 32.2441 262.983 32.5762 263.777 33.2402C264.578 33.8978 265.057 34.7441 265.213 35.7793H262.752C262.622 35.2715 262.358 34.8906 261.961 34.6367C261.564 34.3828 261.128 34.2559 260.652 34.2559C260.249 34.2559 259.933 34.347 259.705 34.5293C259.484 34.7116 259.373 34.9427 259.373 35.2227C259.373 35.7565 259.786 36.1211 260.613 36.3164L262.596 36.8047C264.49 37.2604 265.438 38.2598 265.438 39.8027C265.438 40.7533 265.073 41.5378 264.344 42.1562C263.615 42.7747 262.638 43.084 261.414 43.084Z" fill="black"/>
<rect x="42.3516" y="0.941406" width="49.3573" height="49.3573" rx="10" transform="rotate(45 42.3516 0.941406)" fill="#FFF9E2"/>
<path d="M2.22852 38.9736V33.6709C2.22852 31.1807 2.98047 29.1836 4.48438 27.6797C5.98828 26.1758 7.98535 25.4238 10.4756 25.4238C12.9658 25.4238 14.958 26.1758 16.4521 27.6797C17.9463 29.1738 18.6934 31.1709 18.6934 33.6709V38.9736C18.6934 41.4834 17.9463 43.4951 16.4521 45.0088C14.958 46.5127 12.9658 47.2646 10.4756 47.2646C7.98535 47.2646 5.98828 46.5078 4.48438 44.9941C2.98047 43.4805 2.22852 41.4736 2.22852 38.9736ZM14.8262 38.8857V33.7588C14.8262 32.2256 14.4404 31.0244 13.6689 30.1553C12.8975 29.2764 11.833 28.8369 10.4756 28.8369C9.11816 28.8369 8.04883 29.2764 7.26758 30.1553C6.48633 31.0244 6.0957 32.2256 6.0957 33.7588V38.8857C6.0957 40.4189 6.48633 41.6299 7.26758 42.5186C8.04883 43.3975 9.11816 43.8369 10.4756 43.8369C11.833 43.8369 12.8975 43.3975 13.6689 42.5186C14.4404 41.6396 14.8262 40.4287 14.8262 38.8857ZM31.4961 46.8398V41.7129H20.8467V38.8271L30.3682 25.834H35.4072V38.2559H37.9561V41.7129H35.4072V46.8398H31.4961ZM25.3584 38.2559H31.4961V29.833L25.3584 38.2559Z" fill="black" fill-opacity="0.2"/>
</svg>
