<svg width="273" height="70" viewBox="0 0 273 70" fill="none" xmlns="http://www.w3.org/2000/svg">
<path d="M90.2617 42.0508H87.7617V28.0469H90.7305L97.8008 38.3496L97.7812 28.0469H100.281V42.0508H97.3223L90.2422 31.748L90.2617 42.0508ZM113.182 36.8945C113.182 37.6302 113.032 38.3333 112.732 39.0039C112.433 39.6745 112.029 40.2539 111.521 40.7422C111.014 41.2305 110.408 41.6178 109.705 41.9043C109.008 42.1908 108.273 42.334 107.498 42.334C106.476 42.334 105.529 42.0931 104.656 41.6113C103.784 41.123 103.09 40.4622 102.576 39.6289C102.068 38.7891 101.814 37.8776 101.814 36.8945C101.814 35.9115 102.068 35.0033 102.576 34.1699C103.09 33.3301 103.784 32.6693 104.656 32.1875C105.529 31.6992 106.476 31.4551 107.498 31.4551C108.527 31.4551 109.477 31.696 110.35 32.1777C111.222 32.6595 111.912 33.3203 112.42 34.1602C112.928 34.9935 113.182 35.9049 113.182 36.8945ZM109.676 39.1113C110.275 38.5059 110.574 37.7669 110.574 36.8945C110.574 36.0221 110.275 35.2832 109.676 34.6777C109.083 34.0723 108.357 33.7695 107.498 33.7695C106.645 33.7695 105.919 34.0755 105.32 34.6875C104.721 35.293 104.422 36.0286 104.422 36.8945C104.422 37.7604 104.721 38.4961 105.32 39.1016C105.919 39.707 106.645 40.0098 107.498 40.0098C108.357 40.0098 109.083 39.7103 109.676 39.1113ZM127.547 39.6875V42.0508H118.719V28.0469H121.424V39.6875H127.547ZM128.875 38.291V31.709H131.492V37.7734C131.492 38.418 131.691 38.9486 132.088 39.3652C132.485 39.7819 133.003 39.9902 133.641 39.9902C134.279 39.9902 134.796 39.7852 135.193 39.375C135.597 38.9648 135.799 38.431 135.799 37.7734V31.709H138.416V42.0508H135.799V41.1328C135.044 41.9076 134.096 42.2949 132.957 42.2949C131.766 42.2949 130.786 41.9108 130.018 41.1426C129.256 40.3743 128.875 39.4238 128.875 38.291ZM151.16 31.709V42.4512C151.16 43.5905 150.805 44.5085 150.096 45.2051C149.386 45.9017 148.442 46.25 147.264 46.25H144.363V44.0527H146.668C147.286 44.0527 147.752 43.8965 148.064 43.584C148.383 43.278 148.543 42.832 148.543 42.2461V40.9863C147.579 41.7611 146.499 42.1484 145.301 42.1484C144.311 42.1484 143.4 41.9108 142.566 41.4355C141.733 40.9603 141.072 40.3125 140.584 39.4922C140.102 38.6654 139.861 37.7637 139.861 36.7871C139.861 35.8105 140.102 34.9121 140.584 34.0918C141.072 33.2715 141.733 32.6237 142.566 32.1484C143.406 31.6732 144.318 31.4355 145.301 31.4355C146.531 31.4355 147.618 31.8262 148.562 32.6074V31.709H151.16ZM142.469 36.7871C142.469 37.64 142.765 38.3659 143.357 38.9648C143.956 39.5573 144.679 39.8535 145.525 39.8535C146.385 39.8535 147.107 39.5573 147.693 38.9648C148.286 38.3659 148.582 37.64 148.582 36.7871C148.582 35.9277 148.286 35.2018 147.693 34.6094C147.101 34.0104 146.378 33.7109 145.525 33.7109C144.686 33.7109 143.966 34.0137 143.367 34.6191C142.768 35.2181 142.469 35.9408 142.469 36.7871ZM163.895 31.709V42.4512C163.895 43.5905 163.54 44.5085 162.83 45.2051C162.12 45.9017 161.176 46.25 159.998 46.25H157.098V44.0527H159.402C160.021 44.0527 160.486 43.8965 160.799 43.584C161.118 43.278 161.277 42.832 161.277 42.2461V40.9863C160.314 41.7611 159.233 42.1484 158.035 42.1484C157.046 42.1484 156.134 41.9108 155.301 41.4355C154.467 40.9603 153.807 40.3125 153.318 39.4922C152.837 38.6654 152.596 37.7637 152.596 36.7871C152.596 35.8105 152.837 34.9121 153.318 34.0918C153.807 33.2715 154.467 32.6237 155.301 32.1484C156.141 31.6732 157.052 31.4355 158.035 31.4355C159.266 31.4355 160.353 31.8262 161.297 32.6074V31.709H163.895ZM155.203 36.7871C155.203 37.64 155.499 38.3659 156.092 38.9648C156.691 39.5573 157.413 39.8535 158.26 39.8535C159.119 39.8535 159.842 39.5573 160.428 38.9648C161.02 38.3659 161.316 37.64 161.316 36.7871C161.316 35.9277 161.02 35.2018 160.428 34.6094C159.835 34.0104 159.113 33.7109 158.26 33.7109C157.42 33.7109 156.701 34.0137 156.102 34.6191C155.503 35.2181 155.203 35.9408 155.203 36.7871ZM165.232 39.1504C165.232 38.2324 165.532 37.5098 166.131 36.9824C166.73 36.4551 167.583 36.1523 168.689 36.0742L171.736 35.8496V35.4492C171.736 34.9349 171.57 34.5345 171.238 34.248C170.906 33.9551 170.438 33.8086 169.832 33.8086C168.921 33.8086 168.009 34.1146 167.098 34.7266L165.994 32.8711C167.251 31.9531 168.637 31.4941 170.154 31.4941C171.398 31.4941 172.394 31.8262 173.143 32.4902C173.898 33.1478 174.275 34.0267 174.275 35.127V39.1895C174.275 39.5931 174.467 39.7949 174.852 39.7949H175.389V42.0508H174.178C173.683 42.0508 173.25 41.9434 172.879 41.7285C172.508 41.5137 172.231 41.2142 172.049 40.8301C171.678 41.2988 171.215 41.6634 170.662 41.9238C170.109 42.1842 169.493 42.3145 168.816 42.3145C167.788 42.3145 166.932 42.015 166.248 41.416C165.571 40.8171 165.232 40.0618 165.232 39.1504ZM167.732 39.1309C167.732 39.4889 167.885 39.7754 168.191 39.9902C168.497 40.2051 168.898 40.3125 169.393 40.3125C170.044 40.3125 170.597 40.1302 171.053 39.7656C171.508 39.3945 171.736 38.9486 171.736 38.4277V37.7734L169.051 38.0078C168.172 38.0859 167.732 38.4603 167.732 39.1309ZM187.332 31.709V42.4512C187.332 43.5905 186.977 44.5085 186.268 45.2051C185.558 45.9017 184.614 46.25 183.436 46.25H180.535V44.0527H182.84C183.458 44.0527 183.924 43.8965 184.236 43.584C184.555 43.278 184.715 42.832 184.715 42.2461V40.9863C183.751 41.7611 182.671 42.1484 181.473 42.1484C180.483 42.1484 179.572 41.9108 178.738 41.4355C177.905 40.9603 177.244 40.3125 176.756 39.4922C176.274 38.6654 176.033 37.7637 176.033 36.7871C176.033 35.8105 176.274 34.9121 176.756 34.0918C177.244 33.2715 177.905 32.6237 178.738 32.1484C179.578 31.6732 180.49 31.4355 181.473 31.4355C182.703 31.4355 183.79 31.8262 184.734 32.6074V31.709H187.332ZM178.641 36.7871C178.641 37.64 178.937 38.3659 179.529 38.9648C180.128 39.5573 180.851 39.8535 181.697 39.8535C182.557 39.8535 183.279 39.5573 183.865 38.9648C184.458 38.3659 184.754 37.64 184.754 36.7871C184.754 35.9277 184.458 35.2018 183.865 34.6094C183.273 34.0104 182.55 33.7109 181.697 33.7109C180.857 33.7109 180.138 34.0137 179.539 34.6191C178.94 35.2181 178.641 35.9408 178.641 36.7871ZM188.768 36.875C188.768 35.9245 188.999 35.0358 189.461 34.209C189.923 33.3822 190.568 32.7214 191.395 32.2266C192.221 31.7253 193.133 31.4746 194.129 31.4746C195.678 31.4746 196.948 31.9922 197.938 33.0273C198.934 34.0625 199.432 35.3841 199.432 36.9922V37.7539H191.453C191.629 38.4375 191.98 38.9941 192.508 39.4238C193.035 39.8535 193.65 40.0684 194.354 40.0684C194.92 40.0684 195.421 39.9642 195.857 39.7559C196.294 39.541 196.697 39.1927 197.068 38.7109L198.895 40.0684C198.367 40.7845 197.719 41.3379 196.951 41.7285C196.183 42.1191 195.324 42.3145 194.373 42.3145C193.331 42.3145 192.381 42.0833 191.521 41.6211C190.669 41.1589 189.995 40.5111 189.5 39.6777C189.012 38.8444 188.768 37.9102 188.768 36.875ZM194.07 33.7109C193.458 33.7109 192.921 33.8932 192.459 34.2578C191.997 34.6224 191.674 35.1204 191.492 35.752H196.795C196.606 35.1204 196.264 34.6224 195.77 34.2578C195.275 33.8932 194.708 33.7109 194.07 33.7109ZM204.695 35.0293C204.695 33.7077 205.014 32.4967 205.652 31.3965C206.29 30.2897 207.179 29.4141 208.318 28.7695C209.464 28.1185 210.743 27.793 212.156 27.793C213.38 27.793 214.51 28.0632 215.545 28.6035C216.58 29.1439 217.456 29.8796 218.172 30.8105L216.072 32.3535C215.623 31.709 215.05 31.1979 214.354 30.8203C213.663 30.4427 212.944 30.2539 212.195 30.2539C210.848 30.2539 209.715 30.6999 208.797 31.5918C207.885 32.4837 207.43 33.6296 207.43 35.0293C207.43 35.9668 207.645 36.8066 208.074 37.5488C208.504 38.2845 209.08 38.8509 209.803 39.248C210.525 39.6387 211.323 39.834 212.195 39.834C213.003 39.834 213.751 39.6517 214.441 39.2871C215.138 38.916 215.701 38.4049 216.131 37.7539L218.23 39.2871C217.547 40.2181 216.684 40.957 215.643 41.5039C214.607 42.0443 213.465 42.3145 212.215 42.3145C211.134 42.3145 210.125 42.1257 209.188 41.748C208.25 41.3704 207.452 40.8594 206.795 40.2148C206.144 39.5638 205.63 38.7923 205.252 37.9004C204.881 37.002 204.695 36.0449 204.695 35.0293ZM221.961 35.9863V42.0508H219.344V28.0469H221.961V32.6074C222.703 31.8262 223.663 31.4355 224.842 31.4355C226.027 31.4355 226.997 31.8229 227.752 32.5977C228.507 33.3659 228.885 34.3229 228.885 35.4688V42.0508H226.268V35.9863C226.268 35.3158 226.069 34.7786 225.672 34.375C225.281 33.9714 224.767 33.7695 224.129 33.7695C223.491 33.7695 222.97 33.9714 222.566 34.375C222.163 34.7721 221.961 35.3092 221.961 35.9863ZM230.232 39.1504C230.232 38.2324 230.532 37.5098 231.131 36.9824C231.73 36.4551 232.583 36.1523 233.689 36.0742L236.736 35.8496V35.4492C236.736 34.9349 236.57 34.5345 236.238 34.248C235.906 33.9551 235.438 33.8086 234.832 33.8086C233.921 33.8086 233.009 34.1146 232.098 34.7266L230.994 32.8711C232.251 31.9531 233.637 31.4941 235.154 31.4941C236.398 31.4941 237.394 31.8262 238.143 32.4902C238.898 33.1478 239.275 34.0267 239.275 35.127V39.1895C239.275 39.5931 239.467 39.7949 239.852 39.7949H240.389V42.0508H239.178C238.683 42.0508 238.25 41.9434 237.879 41.7285C237.508 41.5137 237.231 41.2142 237.049 40.8301C236.678 41.2988 236.215 41.6634 235.662 41.9238C235.109 42.1842 234.493 42.3145 233.816 42.3145C232.788 42.3145 231.932 42.015 231.248 41.416C230.571 40.8171 230.232 40.0618 230.232 39.1504ZM232.732 39.1309C232.732 39.4889 232.885 39.7754 233.191 39.9902C233.497 40.2051 233.898 40.3125 234.393 40.3125C235.044 40.3125 235.597 40.1302 236.053 39.7656C236.508 39.3945 236.736 38.9486 236.736 38.4277V37.7734L234.051 38.0078C233.172 38.0859 232.732 38.4603 232.732 39.1309ZM247.352 34.0137H246.414C245.776 34.0137 245.249 34.235 244.832 34.6777C244.415 35.1204 244.207 35.7259 244.207 36.4941V42.0508H241.59V31.709H244.188V32.832C244.741 32.0182 245.561 31.6113 246.648 31.6113H247.352V34.0137ZM259.148 31.709V42.4512C259.148 43.5905 258.794 44.5085 258.084 45.2051C257.374 45.9017 256.43 46.25 255.252 46.25H252.352V44.0527H254.656C255.275 44.0527 255.74 43.8965 256.053 43.584C256.372 43.278 256.531 42.832 256.531 42.2461V40.9863C255.568 41.7611 254.487 42.1484 253.289 42.1484C252.299 42.1484 251.388 41.9108 250.555 41.4355C249.721 40.9603 249.061 40.3125 248.572 39.4922C248.09 38.6654 247.85 37.7637 247.85 36.7871C247.85 35.8105 248.09 34.9121 248.572 34.0918C249.061 33.2715 249.721 32.6237 250.555 32.1484C251.395 31.6732 252.306 31.4355 253.289 31.4355C254.52 31.4355 255.607 31.8262 256.551 32.6074V31.709H259.148ZM250.457 36.7871C250.457 37.64 250.753 38.3659 251.346 38.9648C251.945 39.5573 252.667 39.8535 253.514 39.8535C254.373 39.8535 255.096 39.5573 255.682 38.9648C256.274 38.3659 256.57 37.64 256.57 36.7871C256.57 35.9277 256.274 35.2018 255.682 34.6094C255.089 34.0104 254.367 33.7109 253.514 33.7109C252.674 33.7109 251.954 34.0137 251.355 34.6191C250.757 35.2181 250.457 35.9408 250.457 36.7871ZM260.584 36.875C260.584 35.9245 260.815 35.0358 261.277 34.209C261.74 33.3822 262.384 32.7214 263.211 32.2266C264.038 31.7253 264.949 31.4746 265.945 31.4746C267.495 31.4746 268.764 31.9922 269.754 33.0273C270.75 34.0625 271.248 35.3841 271.248 36.9922V37.7539H263.27C263.445 38.4375 263.797 38.9941 264.324 39.4238C264.852 39.8535 265.467 40.0684 266.17 40.0684C266.736 40.0684 267.238 39.9642 267.674 39.7559C268.11 39.541 268.514 39.1927 268.885 38.7109L270.711 40.0684C270.184 40.7845 269.536 41.3379 268.768 41.7285C267.999 42.1191 267.14 42.3145 266.189 42.3145C265.148 42.3145 264.197 42.0833 263.338 41.6211C262.485 41.1589 261.811 40.5111 261.316 39.6777C260.828 38.8444 260.584 37.9102 260.584 36.875ZM265.887 33.7109C265.275 33.7109 264.738 33.8932 264.275 34.2578C263.813 34.6224 263.491 35.1204 263.309 35.752H268.611C268.423 35.1204 268.081 34.6224 267.586 34.2578C267.091 33.8932 266.525 33.7109 265.887 33.7109Z" fill="black"/>
<rect x="42.3516" y="0.152344" width="49.3573" height="49.3573" rx="10" transform="rotate(45 42.3516 0.152344)" fill="#FFF9E2"/>
<path d="M2.22852 38.1846V32.8818C2.22852 30.3916 2.98047 28.3945 4.48438 26.8906C5.98828 25.3867 7.98535 24.6348 10.4756 24.6348C12.9658 24.6348 14.958 25.3867 16.4521 26.8906C17.9463 28.3848 18.6934 30.3818 18.6934 32.8818V38.1846C18.6934 40.6943 17.9463 42.7061 16.4521 44.2197C14.958 45.7236 12.9658 46.4756 10.4756 46.4756C7.98535 46.4756 5.98828 45.7188 4.48438 44.2051C2.98047 42.6914 2.22852 40.6846 2.22852 38.1846ZM14.8262 38.0967V32.9697C14.8262 31.4365 14.4404 30.2354 13.6689 29.3662C12.8975 28.4873 11.833 28.0479 10.4756 28.0479C9.11816 28.0479 8.04883 28.4873 7.26758 29.3662C6.48633 30.2354 6.0957 31.4365 6.0957 32.9697V38.0967C6.0957 39.6299 6.48633 40.8408 7.26758 41.7295C8.04883 42.6084 9.11816 43.0479 10.4756 43.0479C11.833 43.0479 12.8975 42.6084 13.6689 41.7295C14.4404 40.8506 14.8262 39.6396 14.8262 38.0967ZM27.9658 24.7227C29.9482 24.7227 31.6182 25.3184 32.9756 26.5098C34.3428 27.6914 35.0264 29.1367 35.0264 30.8457C35.0264 31.6855 34.8213 32.4717 34.4111 33.2041C34.001 33.9268 33.4346 34.5371 32.7119 35.0352C33.6494 35.543 34.3916 36.2217 34.9385 37.0713C35.4951 37.9209 35.7734 38.8438 35.7734 39.8398C35.7734 41.041 35.4463 42.1445 34.792 43.1504C34.1475 44.1562 33.2295 44.9619 32.0381 45.5674C30.8564 46.1729 29.5283 46.4756 28.0537 46.4756C24.8018 46.4756 22.1748 45.333 20.1729 43.0479L22.8389 40.6162C24.2744 42.3154 25.9346 43.165 27.8193 43.165C28.9912 43.165 29.9434 42.8574 30.6758 42.2422C31.4082 41.627 31.7744 40.8652 31.7744 39.957C31.7744 39.127 31.4668 38.4189 30.8516 37.833C30.2363 37.2471 29.416 36.9541 28.3906 36.9541H25.2412V33.6582H27.9365C28.8936 33.6582 29.6455 33.3994 30.1924 32.8818C30.749 32.3643 31.0273 31.6953 31.0273 30.875C31.0273 30.0547 30.71 29.376 30.0752 28.8389C29.4404 28.292 28.6201 28.0186 27.6143 28.0186C26.0225 28.0186 24.5332 28.8291 23.1465 30.4502L20.583 28.1943C21.5596 27.0615 22.6387 26.2021 23.8203 25.6162C25.002 25.0205 26.3838 24.7227 27.9658 24.7227Z" fill="black" fill-opacity="0.2"/>
</svg>
