<svg width="159" height="169" viewBox="0 0 159 169" fill="none" xmlns="http://www.w3.org/2000/svg">
<ellipse cx="59.1159" cy="64.9009" rx="52.0954" ry="38.0739" transform="rotate(12.3752 59.1159 64.9009)" fill="#FFCF17" fill-opacity="0.1"/>
<ellipse cx="59.1144" cy="64.8976" rx="52.0954" ry="38.0739" transform="rotate(-60 59.1144 64.8976)" fill="#FFCF17" fill-opacity="0.1"/>
<g filter="url(#filter0_d_77_280)">
<path d="M78.7187 60.5741C78.5218 67.2091 75.8437 72.5694 70.4426 76.5045C67.2867 78.8039 64.69 81.6001 62.6987 84.961C62.1721 85.8515 61.6454 86.7419 61.1038 87.6229C60.1034 89.2517 58.1216 89.2572 57.1321 87.6229C55.9823 85.7212 54.8489 83.8127 53.4481 82.0766C51.6808 79.8871 49.6664 77.9582 47.4267 76.2588C43.0193 72.9155 40.4185 68.4877 39.6733 63.0161C38.2725 52.7148 45.5209 42.9348 55.7652 41.2299C66.1139 39.5074 75.8518 45.9849 78.2273 56.1762C78.5626 57.6164 78.7567 59.0769 78.7187 60.5741ZM59.1152 69.1569C63.8416 69.1691 67.7021 65.3576 67.7482 60.6814C67.7917 56.187 64.3384 51.9343 59.122 51.9275C54.0128 51.9208 50.5216 56.0337 50.4958 60.471C50.4659 65.306 54.2842 69.1433 59.1152 69.1569Z" fill="#FFCF17"/>
</g>
<defs>
<filter id="filter0_d_77_280" x="19.5" y="20.9531" width="139.223" height="147.894" filterUnits="userSpaceOnUse" color-interpolation-filters="sRGB">
<feFlood flood-opacity="0" result="BackgroundImageFix"/>
<feColorMatrix in="SourceAlpha" type="matrix" values="0 0 0 0 0 0 0 0 0 0 0 0 0 0 0 0 0 0 127 0" result="hardAlpha"/>
<feOffset dx="30" dy="30"/>
<feGaussianBlur stdDeviation="25"/>
<feComposite in2="hardAlpha" operator="out"/>
<feColorMatrix type="matrix" values="0 0 0 0 1 0 0 0 0 0.811765 0 0 0 0 0.0901961 0 0 0 0.07 0"/>
<feBlend mode="normal" in2="BackgroundImageFix" result="effect1_dropShadow_77_280"/>
<feBlend mode="normal" in="SourceGraphic" in2="effect1_dropShadow_77_280" result="shape"/>
</filter>
</defs>
</svg>
