<svg width="271" height="86" viewBox="0 0 271 86" fill="none" xmlns="http://www.w3.org/2000/svg">
<path d="M16.3594 67.2623V50.1495C16.3594 49.2011 16.5267 48.6153 16.8615 48.3922C17.1962 48.1412 17.8935 48.0156 18.9535 48.0156H24.1835L29.0789 58.936L29.1626 59.3544L29.2463 59.3126L29.3299 58.8942L34.0579 48.0156H39.6227C40.6269 48.0156 41.2684 48.1551 41.5474 48.434C41.8542 48.713 42.0076 49.2848 42.0076 50.1495V65.1284C42.0076 65.8257 41.9379 66.3278 41.7984 66.6347C41.6589 66.9136 41.4079 67.0949 41.0453 67.1786C40.6827 67.2344 40.1527 67.2623 39.4553 67.2623H35.1458V55.3796L34.8529 56.5511L30.2086 67.2623H26.0664L21.4639 56.6766L21.2129 55.5051V67.2623H16.3594Z" fill="#FFCF17"/>
<path d="M57.1326 67.4715C55.1801 67.4715 53.6041 67.4017 52.4046 67.2623C51.2052 67.1507 50.2708 66.9136 49.6013 66.551C48.9598 66.1884 48.5274 65.6723 48.3043 65.0029C48.0811 64.3334 47.9695 63.4687 47.9695 62.4088C47.9695 60.9862 48.109 59.9123 48.388 59.187C48.6669 58.4339 49.155 57.9179 49.8524 57.639C50.5497 57.36 51.4841 57.2205 52.6557 57.2205C53.353 57.2205 54.148 57.2345 55.0406 57.2624C55.9611 57.2624 56.8537 57.2763 57.7184 57.3042C58.611 57.3321 59.3781 57.3879 60.0196 57.4716C60.6891 57.5274 61.1493 57.5832 61.4003 57.639C61.4003 56.7742 61.3167 56.0909 61.1493 55.5888C61.0098 55.0867 60.7727 54.7101 60.438 54.4591C60.1033 54.1801 59.657 53.9988 59.0991 53.9151C58.5412 53.8315 57.8578 53.7896 57.0489 53.7896C56.0727 53.7896 55.0964 53.8036 54.1201 53.8315C53.1717 53.8594 52.2373 53.9151 51.3168 53.9988C50.4242 54.0825 49.6013 54.1801 48.8482 54.2917V53.1202C48.8482 52.367 49.0156 51.8092 49.3503 51.4466C49.685 51.0839 50.1453 50.8468 50.731 50.7353C51.3726 50.5958 52.321 50.4982 53.5762 50.4424C54.8593 50.3866 56.24 50.3587 57.7184 50.3587C59.5873 50.3587 61.1493 50.4563 62.4045 50.6516C63.6876 50.8468 64.6918 51.1955 65.417 51.6976C66.1423 52.1997 66.6583 52.9528 66.9651 53.957C67.272 54.9333 67.4254 56.2443 67.4254 57.89V66.2163C66.9791 66.6347 65.8633 66.9554 64.0781 67.1786C62.3208 67.3738 60.0057 67.4715 57.1326 67.4715ZM57.0908 64.8774C57.8718 64.8774 58.5273 64.8634 59.0573 64.8355C59.6152 64.7797 60.0893 64.71 60.4799 64.6263C60.8704 64.5426 61.1772 64.445 61.4003 64.3334V59.6473C61.0935 59.5636 60.6612 59.4939 60.1033 59.4381C59.5733 59.3823 59.0294 59.3405 58.4715 59.3126C57.9136 59.2847 57.4813 59.2707 57.1745 59.2707C56.505 59.2707 55.9611 59.3265 55.5427 59.4381C55.1243 59.5497 54.8174 59.8007 54.6222 60.1912C54.4548 60.5817 54.3711 61.1814 54.3711 61.9904C54.3711 62.6877 54.4409 63.2595 54.5803 63.7058C54.7198 64.1242 54.9848 64.4311 55.3753 64.6263C55.7658 64.7937 56.3376 64.8774 57.0908 64.8774Z" fill="#FFCF17"/>
<path d="M74.4621 67.2623C73.4021 67.2623 72.8722 66.7183 72.8722 65.6305V51.5721C73.709 51.2931 74.9642 51.0421 76.6378 50.8189C78.3114 50.5679 80.1524 50.4424 82.1608 50.4424C84.3086 50.4424 85.9961 50.5679 87.2234 50.8189C88.4787 51.0421 89.3992 51.4466 89.9849 52.0323C90.5986 52.5902 90.9891 53.3433 91.1565 54.2917C91.3517 55.2401 91.4493 56.4256 91.4493 57.8482V64.9192C91.4493 65.5329 91.4075 66.021 91.3238 66.3836C91.2401 66.7183 91.017 66.9554 90.6544 67.0949C90.3196 67.2344 89.7897 67.3041 89.0644 67.3041L85.257 67.2623V56.3837C85.257 55.4632 84.978 54.8077 84.4201 54.4172C83.8623 54.0267 83.1091 53.8315 82.1608 53.8315C81.826 53.8315 81.4634 53.8733 81.0729 53.957C80.6824 54.0128 80.3058 54.0965 79.9432 54.208C79.6085 54.2917 79.3295 54.4172 79.1064 54.5846V67.2623H74.4621Z" fill="#FFCF17"/>
<path d="M106.861 67.5133C104.351 67.5133 102.328 67.3041 100.794 66.8857C99.2879 66.4394 98.1861 65.6305 97.4888 64.459C96.8193 63.2595 96.4846 61.5301 96.4846 59.2707C96.4846 56.8161 96.8193 54.9472 97.4888 53.6641C98.1861 52.381 99.2879 51.5023 100.794 51.0281C102.328 50.554 104.351 50.3169 106.861 50.3169C107.586 50.3169 108.284 50.3587 108.953 50.4424C109.65 50.4982 110.487 50.5958 111.463 50.7353C112.021 50.7911 112.468 50.9166 112.802 51.1118C113.165 51.3071 113.43 51.6279 113.597 52.0742C113.765 52.5205 113.848 53.1899 113.848 54.0825C113.542 53.9709 113.067 53.8733 112.426 53.7896C111.812 53.678 111.143 53.5944 110.417 53.5386C109.692 53.4828 109.051 53.4549 108.493 53.4549C107.07 53.4549 105.941 53.6223 105.104 53.957C104.295 54.2917 103.709 54.8496 103.346 55.6306C103.012 56.4116 102.844 57.4855 102.844 58.8523C102.844 60.1912 103.012 61.2512 103.346 62.0322C103.709 62.8132 104.295 63.3711 105.104 63.7058C105.941 64.0405 107.07 64.2079 108.493 64.2079C109.134 64.2079 109.804 64.18 110.501 64.1242C111.226 64.0684 111.882 63.9987 112.468 63.915C113.081 63.8034 113.542 63.6919 113.848 63.5803V65.2539C113.848 65.9513 113.528 66.4673 112.886 66.802C112.272 67.1089 111.436 67.3041 110.376 67.3878C109.316 67.4715 108.144 67.5133 106.861 67.5133Z" fill="#FFCF17"/>
<path d="M121.114 67.2623C120.138 67.2623 119.524 67.1367 119.273 66.8857C119.022 66.6068 118.897 66.0907 118.897 65.3376V46.1328H125.131V50.9863C125.466 50.9026 125.856 50.8329 126.302 50.7771C126.777 50.7213 127.279 50.6795 127.809 50.6516C128.339 50.6237 128.841 50.6097 129.315 50.6097C131.212 50.6097 132.732 50.7492 133.876 51.0281C135.019 51.3071 135.884 51.7394 136.47 52.3252C137.055 52.911 137.446 53.678 137.641 54.6264C137.864 55.5748 137.976 56.7324 137.976 58.0992V64.6263C137.976 65.3794 137.892 65.9513 137.725 66.3418C137.585 66.7044 137.32 66.9554 136.93 67.0949C136.539 67.2065 135.968 67.2623 135.215 67.2623H131.867V57.2624C131.867 56.2024 131.742 55.4075 131.491 54.8775C131.24 54.3196 130.835 53.957 130.277 53.7896C129.747 53.5944 129.036 53.4967 128.143 53.4967C127.837 53.4967 127.488 53.5107 127.097 53.5386C126.735 53.5665 126.372 53.6223 126.01 53.7059C125.647 53.7617 125.354 53.8315 125.131 53.9151V67.2623H121.114Z" fill="#FFCF17"/>
<path d="M152.749 67.5133C150.797 67.5133 149.193 67.4017 147.938 67.1786C146.682 66.9275 145.692 66.5091 144.967 65.9234C144.242 65.3376 143.726 64.5147 143.419 63.4548C143.112 62.3948 142.959 61.0141 142.959 59.3126C142.959 57.1369 143.265 55.4075 143.879 54.1243C144.493 52.8412 145.553 51.9068 147.059 51.321C148.593 50.7353 150.713 50.4424 153.419 50.4424C155.539 50.4424 157.226 50.6655 158.481 51.1118C159.737 51.5581 160.643 52.2555 161.201 53.2039C161.759 54.1522 162.038 55.3656 162.038 56.844V60.0657H150.406C150.406 59.4799 150.532 58.9918 150.783 58.6013C151.062 58.1829 151.564 57.9737 152.289 57.9737H156.473L156.431 57.095C156.431 55.9514 156.194 55.1006 155.72 54.5428C155.274 53.957 154.423 53.6641 153.168 53.6641C152.136 53.6641 151.327 53.8315 150.741 54.1662C150.183 54.473 149.793 55.0309 149.569 55.8398C149.374 56.6208 149.277 57.7505 149.277 59.2289C149.277 60.5678 149.402 61.572 149.653 62.2414C149.932 62.9109 150.42 63.3711 151.118 63.6221C151.815 63.8453 152.805 63.9569 154.088 63.9569C154.562 63.9569 155.204 63.9429 156.013 63.915C156.822 63.8871 157.645 63.8592 158.481 63.8313C159.346 63.7756 160.099 63.7337 160.741 63.7058C161.41 63.65 161.829 63.5942 161.996 63.5385V64.2916C161.996 64.6821 161.926 65.1005 161.787 65.5468C161.675 65.9652 161.438 66.3139 161.076 66.5928C160.573 66.9833 159.639 67.2344 158.272 67.3459C156.933 67.4575 155.092 67.5133 152.749 67.5133Z" fill="#FFCF17"/>
<path d="M174.827 67.4296C174.158 67.4296 173.447 67.4157 172.693 67.3878C171.94 67.3599 171.187 67.3041 170.434 67.2204C169.709 67.1367 169.039 67.0112 168.426 66.8439C167.924 66.7323 167.505 66.5928 167.171 66.4255C166.864 66.2302 166.627 65.8815 166.459 65.3794C166.32 64.8495 166.25 64.0266 166.25 62.9109C167.115 63.2177 168.007 63.4687 168.928 63.664C169.848 63.8313 170.741 63.9569 171.606 64.0405C172.498 64.0963 173.321 64.1242 174.074 64.1242C174.604 64.1242 175.176 64.1242 175.79 64.1242C176.431 64.0963 177.045 64.0266 177.631 63.915C178.216 63.7756 178.705 63.5664 179.095 63.2874C179.486 62.9806 179.681 62.5622 179.681 62.0322C179.681 61.3906 179.513 60.9722 179.179 60.777C178.844 60.5817 178.398 60.4841 177.84 60.4841H173.07C171.787 60.4841 170.643 60.4144 169.639 60.2749C168.663 60.1354 167.882 59.7589 167.296 59.1452C166.738 58.5037 166.459 57.4297 166.459 55.9235C166.459 54.2778 166.864 53.0644 167.673 52.2834C168.509 51.4744 169.695 50.9445 171.229 50.6934C172.763 50.4424 174.604 50.3169 176.752 50.3169C177.533 50.3169 178.44 50.3308 179.472 50.3587C180.532 50.3866 181.452 50.4563 182.233 50.5679C183.098 50.6516 183.767 50.7911 184.241 50.9863C184.744 51.1537 185.106 51.4326 185.329 51.8231C185.552 52.1857 185.664 52.7576 185.664 53.5386V54.7101C185.497 54.4312 185.064 54.222 184.367 54.0825C183.698 53.9151 182.875 53.8036 181.898 53.7478C180.95 53.692 179.946 53.6641 178.886 53.6641C177.854 53.6641 176.891 53.6641 175.999 53.6641C175.385 53.6641 174.813 53.7059 174.283 53.7896C173.781 53.8454 173.377 54.0128 173.07 54.2917C172.763 54.5428 172.61 54.9612 172.61 55.5469C172.61 55.9932 172.707 56.3279 172.903 56.5511C173.098 56.7464 173.363 56.8719 173.698 56.9277C174.032 56.9834 174.409 57.0113 174.827 57.0113H180.141C181.313 57.0113 182.345 57.1229 183.237 57.3461C184.13 57.5413 184.813 57.9876 185.287 58.685C185.762 59.3544 185.999 60.4144 185.999 61.8648C185.999 63.5385 185.525 64.7658 184.576 65.5468C183.628 66.3278 182.317 66.8439 180.643 67.0949C178.97 67.3181 177.031 67.4296 174.827 67.4296Z" fill="#FFCF17"/>
<path d="M197.405 67.4296C195.898 67.4296 194.713 67.2762 193.848 66.9694C193.011 66.6347 192.426 66.1047 192.091 65.3794C191.756 64.6263 191.589 63.5942 191.589 62.2832V53.8315H189.79V50.5679H191.589V48.434C191.589 47.7367 191.631 47.2207 191.714 46.8859C191.826 46.5512 192.035 46.342 192.342 46.2583C192.649 46.1747 193.137 46.1328 193.806 46.1328H197.823C197.823 46.2444 197.823 46.3839 197.823 46.5512C197.823 46.7186 197.823 46.9278 197.823 47.1788V50.5679H201.881V53.8315H197.865V61.7812C197.865 62.8969 197.962 63.7058 198.158 64.2079C198.381 64.71 198.953 64.961 199.873 64.961C200.124 64.961 200.445 64.9331 200.835 64.8774C201.254 64.8216 201.547 64.7658 201.714 64.71V67.0112C201.519 67.0391 201.031 67.1228 200.25 67.2623C199.497 67.3738 198.548 67.4296 197.405 67.4296Z" fill="#FFCF17"/>
<path d="M215.78 67.5133C213.827 67.5133 212.223 67.4017 210.968 67.1786C209.713 66.9275 208.723 66.5091 207.997 65.9234C207.272 65.3376 206.756 64.5147 206.449 63.4548C206.142 62.3948 205.989 61.0141 205.989 59.3126C205.989 57.1369 206.296 55.4075 206.91 54.1243C207.523 52.8412 208.583 51.9068 210.089 51.321C211.624 50.7353 213.743 50.4424 216.449 50.4424C218.569 50.4424 220.257 50.6655 221.512 51.1118C222.767 51.5581 223.674 52.2555 224.231 53.2039C224.789 54.1522 225.068 55.3656 225.068 56.844V60.0657H213.437C213.437 59.4799 213.562 58.9918 213.813 58.6013C214.092 58.1829 214.594 57.9737 215.319 57.9737H219.504L219.462 57.095C219.462 55.9514 219.225 55.1006 218.75 54.5428C218.304 53.957 217.453 53.6641 216.198 53.6641C215.166 53.6641 214.357 53.8315 213.771 54.1662C213.213 54.473 212.823 55.0309 212.6 55.8398C212.405 56.6208 212.307 57.7505 212.307 59.2289C212.307 60.5678 212.432 61.572 212.684 62.2414C212.962 62.9109 213.451 63.3711 214.148 63.6221C214.845 63.8453 215.835 63.9569 217.119 63.9569C217.593 63.9569 218.234 63.9429 219.043 63.915C219.852 63.8871 220.675 63.8592 221.512 63.8313C222.377 63.7756 223.13 63.7337 223.771 63.7058C224.441 63.65 224.859 63.5942 225.026 63.5385V64.2916C225.026 64.6821 224.957 65.1005 224.817 65.5468C224.706 65.9652 224.469 66.3139 224.106 66.5928C223.604 66.9833 222.669 67.2344 221.303 67.3459C219.964 67.4575 218.123 67.5133 215.78 67.5133Z" fill="#FFCF17"/>
<path d="M236.393 67.2623H231.875C231.261 67.2623 230.815 67.1089 230.536 66.802C230.257 66.4952 230.117 65.8815 230.117 64.961V51.4047C230.898 51.2095 232.028 51.0003 233.506 50.7771C235.013 50.554 236.7 50.4424 238.569 50.4424C240.522 50.4424 242.056 50.554 243.172 50.7771C244.315 51.0003 245.152 51.3489 245.682 51.8231C246.212 52.2694 246.547 52.8552 246.686 53.5804C246.853 54.2778 246.937 55.1285 246.937 56.1327H240.954V55.5469C240.954 54.8775 240.828 54.3893 240.577 54.0825C240.354 53.7757 240.075 53.5804 239.741 53.4967C239.406 53.4131 239.057 53.3712 238.695 53.3712C238.137 53.3712 237.649 53.427 237.23 53.5386C236.84 53.6502 236.561 53.8175 236.393 54.0407V67.2623Z" fill="#FFCF17"/>
<path d="M14.5312 82.7686L17.5187 74.4678C17.7178 73.9557 17.9881 73.5645 18.3295 73.2942C18.6709 73.0097 19.2258 72.8674 19.9939 72.8674C20.6768 72.8674 21.196 72.9955 21.5517 73.2515C21.9215 73.5076 22.2061 73.913 22.4052 74.4678L25.4566 82.7686H23.0881L22.1705 80.2079H17.1132L16.217 82.7686H14.5312ZM17.4546 79.2904H21.7651L20.4207 75.3854C20.3638 75.2004 20.2856 75.0369 20.186 74.8946C20.1006 74.7523 19.9086 74.6812 19.6098 74.6812C19.2969 74.6812 19.0906 74.7595 18.991 74.9159C18.8914 75.0582 18.8132 75.2147 18.7563 75.3854L17.4546 79.2904Z" fill="white"/>
<path d="M40.7985 82.8539C40.0445 82.8539 39.5324 82.6761 39.2621 82.3204C38.9918 81.9506 38.8567 81.4029 38.8567 80.6774L38.878 74.2544H40.8625V80.5707C40.8625 81.1113 40.9265 81.4811 41.0545 81.6803C41.1968 81.8794 41.4315 81.979 41.7587 81.979C41.8867 81.979 42.029 81.9648 42.1855 81.9364C42.342 81.9079 42.4415 81.8866 42.4842 81.8723V82.6832C42.4273 82.6974 42.3349 82.7188 42.2068 82.7472C42.0788 82.7757 41.901 82.797 41.6734 82.8112C41.4457 82.8397 41.1541 82.8539 40.7985 82.8539ZM39.9022 73.0808C39.5751 73.0808 39.3261 73.0381 39.1554 72.9528C38.9989 72.8532 38.9207 72.6754 38.9207 72.4193C38.9207 72.1632 38.9989 71.9925 39.1554 71.9072C39.3119 71.8076 39.5608 71.7578 39.9022 71.7578C40.2294 71.7578 40.4642 71.8076 40.6064 71.9072C40.7629 71.9925 40.8411 72.1632 40.8411 72.4193C40.8411 72.6754 40.7629 72.8532 40.6064 72.9528C40.4642 73.0381 40.2294 73.0808 39.9022 73.0808Z" fill="white"/>
<path d="M57.7072 82.7686H56.3415C56.1281 82.7686 55.9645 82.7117 55.8507 82.5978C55.7369 82.484 55.68 82.2707 55.68 81.9577V74.6812C56.0214 74.5816 56.498 74.4749 57.1097 74.3611C57.7214 74.2473 58.454 74.1904 59.3076 74.1904C60.1469 74.1904 60.8084 74.2473 61.2921 74.3611C61.7758 74.4607 62.1314 74.6172 62.359 74.8306C62.6008 75.0297 62.7502 75.2787 62.8071 75.5774C62.8783 75.8619 62.9138 76.1963 62.9138 76.5803H60.9933L60.972 76.2816C60.972 75.9402 60.8795 75.6984 60.6946 75.5561C60.5239 75.3996 60.3176 75.3 60.0758 75.2574C59.8339 75.2147 59.5921 75.1933 59.3503 75.1933C58.9804 75.1933 58.6461 75.2289 58.3473 75.3C58.0628 75.3712 57.8494 75.4636 57.7072 75.5774V82.7686Z" fill="white"/>
<path d="M76.3595 85.0518L76.3808 75.9829C76.3808 75.613 76.3737 75.2858 76.3595 75.0013C76.3595 74.7168 76.3453 74.5318 76.3168 74.4465C76.4306 74.418 76.644 74.3896 76.957 74.3611C77.2842 74.3327 77.6541 74.3113 78.0666 74.2971C78.4791 74.2687 78.8988 74.2473 79.3256 74.2331C79.7666 74.2046 80.1578 74.1904 80.4992 74.1904C81.7084 74.1904 82.6473 74.3398 83.3159 74.6385C83.9987 74.9373 84.4753 75.4138 84.7456 76.0682C85.0301 76.7084 85.1581 77.5548 85.1297 78.6075C85.087 79.646 84.9448 80.4782 84.7029 81.1041C84.4611 81.7159 84.0628 82.164 83.508 82.4485C82.9674 82.7188 82.2134 82.8539 81.2461 82.8539C80.6628 82.8539 80.1436 82.797 79.6883 82.6832C79.2473 82.5694 78.8917 82.3773 78.6214 82.1071C78.3511 81.8225 78.1662 81.4456 78.0666 80.9761L78.3867 80.7627V85.0518H76.3595ZM80.7766 81.7016C81.5875 81.7016 82.1707 81.4527 82.5264 80.9548C82.8962 80.4569 83.0812 79.6247 83.0812 78.4581C83.1096 77.2916 82.9389 76.4737 82.5691 76.0042C82.1992 75.5348 81.5235 75.3 80.5419 75.3C80.3427 75.3 80.0938 75.3071 79.795 75.3214C79.5105 75.3356 79.2402 75.3569 78.9842 75.3854C78.7281 75.3996 78.5289 75.4209 78.3867 75.4494V79.333C78.3867 79.9732 78.4863 80.464 78.6854 80.8054C78.8846 81.1468 79.162 81.3815 79.5176 81.5096C79.8733 81.6376 80.2929 81.7016 80.7766 81.7016Z" fill="white"/>
<path d="M103.199 82.8966C102.488 82.8966 101.855 82.8468 101.3 82.7472C100.759 82.6334 100.29 82.4271 99.8915 82.1284C99.5074 81.8297 99.2158 81.3887 99.0167 80.8054C98.8175 80.2221 98.7179 79.4611 98.7179 78.5222C98.7179 77.5833 98.8175 76.8222 99.0167 76.2389C99.2158 75.6557 99.5074 75.2147 99.8915 74.9159C100.29 74.6172 100.759 74.418 101.3 74.3185C101.855 74.2046 102.488 74.1477 103.199 74.1477C103.882 74.1477 104.494 74.2046 105.034 74.3185C105.589 74.418 106.058 74.6172 106.443 74.9159C106.827 75.2147 107.118 75.6557 107.317 76.2389C107.531 76.8222 107.637 77.5833 107.637 78.5222C107.637 79.4753 107.531 80.2435 107.317 80.8267C107.118 81.41 106.827 81.851 106.443 82.1497C106.058 82.4343 105.589 82.6334 105.034 82.7472C104.494 82.8468 103.882 82.8966 103.199 82.8966ZM103.199 81.8297C103.711 81.8297 104.145 81.7514 104.501 81.5949C104.871 81.4384 105.148 81.1255 105.333 80.656C105.518 80.1866 105.61 79.4753 105.61 78.5222C105.61 77.569 105.518 76.8578 105.333 76.3883C105.148 75.9189 104.871 75.6059 104.501 75.4494C104.145 75.2929 103.711 75.2147 103.199 75.2147C102.687 75.2147 102.246 75.2929 101.876 75.4494C101.506 75.6059 101.222 75.9189 101.022 76.3883C100.838 76.8578 100.745 77.569 100.745 78.5222C100.745 79.4753 100.838 80.1866 101.022 80.656C101.222 81.1255 101.506 81.4384 101.876 81.5949C102.246 81.7514 102.687 81.8297 103.199 81.8297Z" fill="white"/>
<path d="M123.535 82.7686H122.17C121.956 82.7686 121.793 82.7117 121.679 82.5978C121.565 82.484 121.508 82.2707 121.508 81.9577V74.6812C121.85 74.5816 122.326 74.4749 122.938 74.3611C123.549 74.2473 124.282 74.1904 125.136 74.1904C125.975 74.1904 126.636 74.2473 127.12 74.3611C127.604 74.4607 127.959 74.6172 128.187 74.8306C128.429 75.0297 128.578 75.2787 128.635 75.5774C128.706 75.8619 128.742 76.1963 128.742 76.5803H126.821L126.8 76.2816C126.8 75.9402 126.708 75.6984 126.523 75.5561C126.352 75.3996 126.146 75.3 125.904 75.2574C125.662 75.2147 125.42 75.1933 125.178 75.1933C124.808 75.1933 124.474 75.2289 124.175 75.3C123.891 75.3712 123.678 75.4636 123.535 75.5774V82.7686Z" fill="white"/>
<path d="M144.663 82.8326C144.094 82.8326 143.646 82.7686 143.319 82.6405C143.006 82.5125 142.778 82.2849 142.636 81.9577C142.493 81.6305 142.422 81.1895 142.422 80.6347V75.3427H141.569V74.2544H142.422V72.8461C142.422 72.59 142.444 72.4051 142.486 72.2913C142.529 72.1632 142.6 72.085 142.7 72.0566C142.814 72.0139 142.977 71.9925 143.191 71.9925H144.428C144.428 72.021 144.428 72.085 144.428 72.1846C144.428 72.2699 144.428 72.398 144.428 72.5687V74.2544H146.434V75.3427H144.428V80.4426C144.428 80.9974 144.485 81.3958 144.599 81.6376C144.713 81.8652 144.983 81.979 145.41 81.979C145.552 81.979 145.708 81.9648 145.879 81.9364C146.064 81.9079 146.192 81.8794 146.263 81.851V82.6832C146.178 82.6974 145.993 82.7259 145.708 82.7686C145.424 82.8112 145.075 82.8326 144.663 82.8326Z" fill="white"/>
<path d="M176.65 72.9528H186.978V74.1691H182.923V81.9364C182.923 82.2493 182.874 82.4698 182.774 82.5978C182.689 82.7117 182.482 82.7686 182.155 82.7686H180.726V74.1691H176.65V72.9528Z" fill="white"/>
<path d="M203.771 82.8966C202.889 82.8966 202.171 82.8539 201.616 82.7686C201.061 82.6974 200.634 82.5623 200.336 82.3631C200.037 82.164 199.831 81.8937 199.717 81.5523C199.617 81.2108 199.568 80.7841 199.568 80.2719C199.568 79.5464 199.646 78.9987 199.802 78.6289C199.973 78.2448 200.258 77.9816 200.656 77.8393C201.068 77.6971 201.616 77.6259 202.299 77.6259C202.655 77.6259 203.046 77.6331 203.473 77.6473C203.914 77.6615 204.333 77.6828 204.732 77.7113C205.144 77.7255 205.5 77.7469 205.798 77.7753C206.111 77.8038 206.318 77.8393 206.417 77.882C206.417 77.2845 206.367 76.8151 206.268 76.4737C206.168 76.1322 206.005 75.8762 205.777 75.7055C205.564 75.5348 205.293 75.4209 204.966 75.364C204.639 75.3071 204.255 75.2787 203.814 75.2787C203.33 75.2787 202.847 75.2929 202.363 75.3214C201.893 75.3498 201.445 75.3996 201.019 75.4707C200.606 75.5419 200.265 75.6343 199.994 75.7481V75.3427C199.994 75.0155 200.08 74.7808 200.25 74.6385C200.435 74.4963 200.656 74.4038 200.912 74.3611C201.196 74.29 201.616 74.2331 202.171 74.1904C202.726 74.1477 203.316 74.1335 203.942 74.1477C204.739 74.1477 205.414 74.1904 205.969 74.2758C206.538 74.3469 206.993 74.5034 207.335 74.7452C207.69 74.9871 207.947 75.3498 208.103 75.8335C208.274 76.3172 208.359 76.9644 208.359 77.7753V82.1284C208.231 82.3987 207.797 82.5978 207.057 82.7259C206.318 82.8397 205.222 82.8966 203.771 82.8966ZM203.771 82.0004C204.34 82.0004 204.803 81.9861 205.158 81.9577C205.528 81.915 205.813 81.8652 206.012 81.8083C206.211 81.7372 206.346 81.6518 206.417 81.5523V78.6075C206.289 78.5648 206.062 78.5293 205.734 78.5008C205.407 78.4582 205.066 78.4226 204.71 78.3941C204.355 78.3657 204.056 78.3515 203.814 78.3515C203.288 78.3515 202.861 78.387 202.534 78.4581C202.206 78.5293 201.972 78.6929 201.829 78.9489C201.687 79.205 201.616 79.6033 201.616 80.1439C201.616 80.5849 201.666 80.9405 201.765 81.2108C201.865 81.4811 202.064 81.6803 202.363 81.8083C202.676 81.9364 203.145 82.0004 203.771 82.0004Z" fill="white"/>
<path d="M221.269 82.7686L224.513 78.5435L221.888 74.98C221.789 74.8235 221.689 74.6812 221.59 74.5532C221.504 74.4251 221.405 74.3185 221.291 74.2331H223.851L226.007 77.1352L228.247 74.2544H229.784C229.741 74.2971 229.684 74.354 229.613 74.4251C229.556 74.4963 229.485 74.5887 229.399 74.7025L226.86 78.2661L230.189 82.7686H228.525C228.24 82.7686 227.984 82.7188 227.756 82.6192C227.543 82.5054 227.351 82.3418 227.18 82.1284L225.26 79.5891L222.827 82.7686H221.269Z" fill="white"/>
<path d="M245.145 82.8539C244.391 82.8539 243.879 82.6761 243.609 82.3204C243.339 81.9506 243.203 81.4029 243.203 80.6774L243.225 74.2544H245.209V80.5707C245.209 81.1113 245.273 81.4811 245.401 81.6803C245.544 81.8794 245.778 81.979 246.105 81.979C246.234 81.979 246.376 81.9648 246.532 81.9364C246.689 81.9079 246.788 81.8866 246.831 81.8723V82.6832C246.774 82.6974 246.682 82.7188 246.554 82.7472C246.426 82.7757 246.248 82.797 246.02 82.8112C245.793 82.8397 245.501 82.8539 245.145 82.8539ZM244.249 73.0808C243.922 73.0808 243.673 73.0381 243.502 72.9528C243.346 72.8532 243.267 72.6754 243.267 72.4193C243.267 72.1632 243.346 71.9925 243.502 71.9072C243.659 71.8076 243.908 71.7578 244.249 71.7578C244.576 71.7578 244.811 71.8076 244.953 71.9072C245.11 71.9925 245.188 72.1632 245.188 72.4193C245.188 72.6754 245.11 72.8532 244.953 72.9528C244.811 73.0381 244.576 73.0808 244.249 73.0808Z" fill="white"/>
<path d="M247.438 46.5195C260.603 46.6869 268.033 54.446 270.102 58.3047C262.905 53.7301 255.341 52.9584 252.459 53.1443C251.51 49.4623 248.716 47.1936 247.438 46.5195Z" fill="#FFCF17"/>
<path d="M2.61067 31.8398C-0.1315 38.8471 0.83341 53.674 1.65864 60.2116C3.3172 50.0685 9.73395 45.0366 12.735 43.7885C11.9405 41.7456 9.80859 40.6376 8.03393 39.3511C2.93225 35.6527 2.22753 32.8721 2.61067 31.8398Z" fill="#FFCF17"/>
<path d="M96.5371 23.7774C71.1542 28.9361 55.8684 36.579 51.3984 39.7556C80.5933 29.0195 107.466 26.9888 117.252 27.3154L118.622 43.0084L122.274 21.1523C112.185 21.4263 100.912 23.0165 96.5371 23.7774Z" fill="white"/>
<path d="M184.211 41.8949C162.221 23.3219 139.056 20.7229 130.222 21.745C151.512 25.8626 164.426 34.3387 168.222 38.062L127.375 41.8949H184.211Z" fill="white"/>
<path d="M13.729 40.0878C9.68842 39.1768 5.38055 32.1488 3.71094 28.744C20.8659 31.7187 50.6638 24.2809 63.4183 20.1902C85.5015 13.0211 114.132 10.7106 127.717 10.3725C129.045 10.3395 130.198 9.45667 130.563 8.17938L131.491 4.9298C132.227 2.35399 134.581 0.578125 137.26 0.578125H137.549C140.204 0.578125 142.543 2.32324 143.3 4.8683L144.883 10.1916C145.217 11.3155 146.178 12.1386 147.336 12.3232C168.847 15.7529 186.192 24.7996 194.492 30.4364C196.356 31.7024 198.528 32.4607 200.781 32.4945C235.431 33.014 259.14 42.9449 266.839 48.006C234.6 39.9655 209.27 40.6704 200.635 42.028C197.667 42.2486 195.106 41.5961 193.034 40.6113C188.815 38.605 185.754 34.7252 181.645 32.5012C178.362 30.7244 174.785 29.0486 172.702 28.1348C159.705 22.0276 146.773 19.0339 135.483 17.8292C114.588 15.5995 93.6634 20.7833 73.305 25.9921C67.9553 27.3608 62.9563 28.6795 59.2519 29.677L23.8453 39.5967C18.826 40.9548 16.6327 40.7426 13.729 40.0878Z" fill="#FFCF17"/>
</svg>
