<svg width="186" height="59" viewBox="0 0 186 59" fill="none" xmlns="http://www.w3.org/2000/svg">
<path d="M11.6406 45.9767V34.271C11.6406 33.6223 11.7551 33.2216 11.9841 33.0689C12.213 32.8972 12.69 32.8114 13.4151 32.8114H16.9926L20.3412 40.2813L20.3985 40.5675L20.4557 40.5389L20.513 40.2527L23.7471 32.8114H27.5536C28.2405 32.8114 28.6793 32.9068 28.8701 33.0976C29.08 33.2884 29.1849 33.6795 29.1849 34.271V44.5171C29.1849 44.9941 29.1372 45.3376 29.0418 45.5474C28.9464 45.7382 28.7747 45.8623 28.5267 45.9195C28.2786 45.9577 27.9161 45.9767 27.4391 45.9767H24.4912V37.8485L24.2908 38.6499L21.114 45.9767H18.2806L15.1323 38.7358L14.9606 37.9344V45.9767H11.6406Z" fill="#0677EE"/>
<path d="M39.531 46.1198C38.1954 46.1198 37.1173 46.0721 36.2969 45.9767C35.4764 45.9004 34.8372 45.7382 34.3793 45.4902C33.9405 45.2422 33.6447 44.8892 33.4921 44.4312C33.3394 43.9733 33.2631 43.3818 33.2631 42.6568C33.2631 41.6837 33.3585 40.9491 33.5493 40.453C33.7401 39.9378 34.074 39.5849 34.551 39.3941C35.028 39.2032 35.6672 39.1078 36.4686 39.1078C36.9456 39.1078 37.4894 39.1174 38.1 39.1365C38.7296 39.1365 39.3402 39.146 39.9317 39.1651C40.5422 39.1842 41.067 39.2223 41.5058 39.2796C41.9637 39.3177 42.2786 39.3559 42.4503 39.3941C42.4503 38.8026 42.393 38.3351 42.2786 37.9917C42.1832 37.6482 42.021 37.3906 41.792 37.2189C41.563 37.0281 41.2578 36.9041 40.8762 36.8468C40.4945 36.7896 40.0271 36.761 39.4738 36.761C38.8059 36.761 38.1381 36.7705 37.4703 36.7896C36.8216 36.8087 36.1824 36.8468 35.5528 36.9041C34.9422 36.9613 34.3793 37.0281 33.8642 37.1044V36.303C33.8642 35.7879 33.9786 35.4063 34.2076 35.1582C34.4366 34.9102 34.7514 34.748 35.1521 34.6717C35.5909 34.5763 36.2396 34.5095 37.0983 34.4713C37.976 34.4332 38.9204 34.4141 39.9317 34.4141C41.2101 34.4141 42.2786 34.4809 43.1372 34.6144C44.0149 34.748 44.7017 34.9865 45.1978 35.33C45.6939 35.6734 46.0469 36.1886 46.2568 36.8755C46.4667 37.5433 46.5716 38.44 46.5716 39.5658V45.2612C46.2663 45.5474 45.5031 45.7669 44.282 45.9195C43.0799 46.0531 41.4963 46.1198 39.531 46.1198ZM39.5024 44.3454C40.0366 44.3454 40.485 44.3358 40.8475 44.3168C41.2291 44.2786 41.5535 44.2309 41.8206 44.1737C42.0878 44.1164 42.2976 44.0496 42.4503 43.9733V40.7678C42.2404 40.7106 41.9446 40.6629 41.563 40.6247C41.2005 40.5866 40.8285 40.5579 40.4468 40.5389C40.0652 40.5198 39.7695 40.5102 39.5596 40.5102C39.1017 40.5102 38.7296 40.5484 38.4434 40.6247C38.1572 40.7011 37.9473 40.8728 37.8138 41.1399C37.6993 41.407 37.642 41.8172 37.642 42.3706C37.642 42.8476 37.6897 43.2387 37.7851 43.544C37.8805 43.8302 38.0618 44.0401 38.3289 44.1737C38.5961 44.2881 38.9872 44.3454 39.5024 44.3454Z" fill="#0677EE"/>
<path d="M51.385 45.9767C50.6599 45.9767 50.2974 45.6047 50.2974 44.8605V35.2441C50.8698 35.0533 51.7284 34.8816 52.8732 34.7289C54.0181 34.5572 55.2774 34.4713 56.6511 34.4713C58.1203 34.4713 59.2747 34.5572 60.1142 34.7289C60.9728 34.8816 61.6025 35.1582 62.0032 35.5589C62.4229 35.9405 62.69 36.4557 62.8045 37.1044C62.9381 37.7531 63.0049 38.5641 63.0049 39.5372V44.374C63.0049 44.7938 62.9763 45.1277 62.919 45.3757C62.8618 45.6047 62.7091 45.7669 62.4611 45.8623C62.2321 45.9577 61.8696 46.0054 61.3735 46.0054L58.7691 45.9767V38.5354C58.7691 37.9058 58.5783 37.4574 58.1966 37.1903C57.815 36.9232 57.2999 36.7896 56.6511 36.7896C56.4222 36.7896 56.1741 36.8182 55.907 36.8755C55.6399 36.9136 55.3823 36.9709 55.1343 37.0472C54.9053 37.1044 54.7145 37.1903 54.5619 37.3048V45.9767H51.385Z" fill="#0677EE"/>
<path d="M73.547 46.1485C71.8298 46.1485 70.4465 46.0054 69.3971 45.7192C68.3667 45.4139 67.6131 44.8606 67.1361 44.0592C66.6781 43.2387 66.4492 42.0557 66.4492 40.5102C66.4492 38.8312 66.6781 37.5528 67.1361 36.6751C67.6131 35.7974 68.3667 35.1964 69.3971 34.872C70.4465 34.5477 71.8298 34.3855 73.547 34.3855C74.0431 34.3855 74.5201 34.4141 74.978 34.4713C75.4551 34.5095 76.0275 34.5763 76.6953 34.6717C77.0769 34.7098 77.3822 34.7957 77.6111 34.9293C77.8592 35.0628 78.0404 35.2823 78.1549 35.5875C78.2694 35.8928 78.3266 36.3507 78.3266 36.9613C78.1168 36.885 77.7924 36.8182 77.3535 36.761C76.9338 36.6847 76.4758 36.6274 75.9798 36.5893C75.4837 36.5511 75.0448 36.532 74.6632 36.532C73.6901 36.532 72.9174 36.6465 72.345 36.8755C71.7916 37.1044 71.391 37.486 71.1429 38.0203C70.9139 38.5545 70.7995 39.2891 70.7995 40.224C70.7995 41.1399 70.9139 41.8649 71.1429 42.3992C71.391 42.9334 71.7916 43.315 72.345 43.544C72.9174 43.773 73.6901 43.8875 74.6632 43.8875C75.1021 43.8875 75.56 43.8684 76.037 43.8302C76.5331 43.7921 76.9815 43.7444 77.3822 43.6871C77.8019 43.6108 78.1168 43.5345 78.3266 43.4581V44.603C78.3266 45.08 78.1072 45.433 77.6684 45.6619C77.2486 45.8718 76.6762 46.0054 75.9511 46.0626C75.2261 46.1198 74.4247 46.1485 73.547 46.1485Z" fill="#0677EE"/>
<path d="M83.2967 45.9767C82.6289 45.9767 82.2092 45.8909 82.0374 45.7192C81.8657 45.5284 81.7799 45.1754 81.7799 44.6602V31.5234H86.0443V34.8434C86.2733 34.7862 86.5404 34.7385 86.8457 34.7003C87.1701 34.6621 87.5135 34.6335 87.876 34.6144C88.2385 34.5954 88.582 34.5858 88.9063 34.5858C90.2038 34.5858 91.2437 34.6812 92.026 34.872C92.8083 35.0628 93.3998 35.3586 93.8004 35.7593C94.2011 36.1599 94.4682 36.6847 94.6018 37.3334C94.7545 37.9821 94.8308 38.7739 94.8308 39.7089V44.1737C94.8308 44.6888 94.7735 45.08 94.6591 45.3471C94.5637 45.5951 94.3824 45.7669 94.1153 45.8623C93.8481 45.9386 93.457 45.9767 92.9418 45.9767H90.6522V39.1365C90.6522 38.4114 90.5663 37.8676 90.3946 37.5051C90.2229 37.1235 89.9462 36.8755 89.5646 36.761C89.2021 36.6274 88.7156 36.5606 88.105 36.5606C87.8951 36.5606 87.6566 36.5702 87.3895 36.5893C87.1414 36.6083 86.8934 36.6465 86.6453 36.7037C86.3973 36.7419 86.197 36.7896 86.0443 36.8468V45.9767H83.2967Z" fill="#0677EE"/>
<path d="M104.936 46.1485C103.601 46.1485 102.504 46.0721 101.645 45.9195C100.786 45.7478 100.109 45.4616 99.6128 45.0609C99.1168 44.6602 98.7638 44.0973 98.5539 43.3723C98.344 42.6472 98.2391 41.7028 98.2391 40.5389C98.2391 39.0506 98.4489 37.8676 98.8687 36.9899C99.2885 36.1122 100.014 35.4731 101.044 35.0724C102.093 34.6717 103.543 34.4713 105.394 34.4713C106.844 34.4713 107.999 34.624 108.857 34.9293C109.716 35.2346 110.336 35.7116 110.718 36.3603C111.099 37.009 111.29 37.839 111.29 38.8503V41.054H103.334C103.334 40.6533 103.419 40.3194 103.591 40.0523C103.782 39.7661 104.125 39.623 104.621 39.623H107.483L107.455 39.022C107.455 38.2397 107.293 37.6577 106.968 37.2761C106.663 36.8755 106.081 36.6751 105.222 36.6751C104.516 36.6751 103.963 36.7896 103.562 37.0186C103.181 37.2284 102.914 37.61 102.761 38.1634C102.628 38.6976 102.561 39.4704 102.561 40.4816C102.561 41.3975 102.647 42.0844 102.818 42.5423C103.009 43.0002 103.343 43.315 103.82 43.4868C104.297 43.6394 104.974 43.7157 105.852 43.7157C106.176 43.7157 106.615 43.7062 107.169 43.6871C107.722 43.668 108.285 43.649 108.857 43.6299C109.449 43.5917 109.964 43.5631 110.403 43.544C110.861 43.5058 111.147 43.4677 111.261 43.4295V43.9447C111.261 44.2118 111.214 44.498 111.118 44.8033C111.042 45.0895 110.88 45.328 110.632 45.5188C110.288 45.7859 109.649 45.9577 108.714 46.034C107.798 46.1103 106.539 46.1485 104.936 46.1485Z" fill="#0677EE"/>
<path d="M120.038 46.0912C119.581 46.0912 119.094 46.0817 118.579 46.0626C118.064 46.0435 117.548 46.0054 117.033 45.9481C116.537 45.8909 116.079 45.805 115.66 45.6905C115.316 45.6142 115.03 45.5188 114.801 45.4043C114.591 45.2708 114.429 45.0323 114.314 44.6888C114.219 44.3263 114.171 43.7634 114.171 43.0002C114.763 43.2101 115.373 43.3818 116.003 43.5154C116.633 43.6299 117.243 43.7157 117.835 43.773C118.445 43.8111 119.008 43.8302 119.523 43.8302C119.886 43.8302 120.277 43.8302 120.697 43.8302C121.136 43.8111 121.555 43.7634 121.956 43.6871C122.357 43.5917 122.691 43.4486 122.958 43.2578C123.225 43.0479 123.358 42.7617 123.358 42.3992C123.358 41.9603 123.244 41.6741 123.015 41.5406C122.786 41.407 122.481 41.3402 122.099 41.3402H118.836C117.959 41.3402 117.176 41.2925 116.49 41.1971C115.822 41.1017 115.287 40.8442 114.887 40.4244C114.505 39.9855 114.314 39.2509 114.314 38.2206C114.314 37.0949 114.591 36.2649 115.144 35.7306C115.717 35.1773 116.528 34.8148 117.577 34.6431C118.626 34.4713 119.886 34.3855 121.355 34.3855C121.889 34.3855 122.509 34.395 123.215 34.4141C123.94 34.4332 124.57 34.4809 125.104 34.5572C125.696 34.6144 126.154 34.7098 126.478 34.8434C126.821 34.9579 127.07 35.1487 127.222 35.4158C127.375 35.6639 127.451 36.055 127.451 36.5893V37.3906C127.337 37.1998 127.041 37.0567 126.564 36.9613C126.106 36.8468 125.543 36.7705 124.875 36.7324C124.227 36.6942 123.54 36.6751 122.815 36.6751C122.109 36.6751 121.45 36.6751 120.84 36.6751C120.42 36.6751 120.029 36.7037 119.666 36.761C119.323 36.7991 119.046 36.9136 118.836 37.1044C118.626 37.2761 118.522 37.5623 118.522 37.963C118.522 38.2683 118.588 38.4973 118.722 38.6499C118.855 38.7835 119.037 38.8693 119.266 38.9075C119.495 38.9457 119.752 38.9647 120.038 38.9647H123.673C124.475 38.9647 125.181 39.0411 125.791 39.1937C126.402 39.3273 126.869 39.6326 127.194 40.1096C127.518 40.5675 127.68 41.2925 127.68 42.2847C127.68 43.4295 127.356 44.2691 126.707 44.8033C126.058 45.3376 125.161 45.6905 124.017 45.8623C122.872 46.0149 121.546 46.0912 120.038 46.0912Z" fill="#0677EE"/>
<path d="M135.482 46.0912C134.452 46.0912 133.641 45.9863 133.049 45.7764C132.477 45.5474 132.076 45.1849 131.847 44.6888C131.618 44.1737 131.504 43.4677 131.504 42.5709V36.7896H130.273V34.5572H131.504V33.0976C131.504 32.6206 131.532 32.2676 131.59 32.0386C131.666 31.8096 131.809 31.6665 132.019 31.6093C132.229 31.5521 132.563 31.5234 133.021 31.5234H135.768C135.768 31.5998 135.768 31.6952 135.768 31.8096C135.768 31.9241 135.768 32.0672 135.768 32.2389V34.5572H138.544V36.7896H135.797V42.2275C135.797 42.9907 135.864 43.544 135.997 43.8875C136.15 44.2309 136.541 44.4026 137.171 44.4026C137.342 44.4026 137.562 44.3835 137.829 44.3454C138.115 44.3072 138.315 44.2691 138.43 44.2309V45.805C138.296 45.8241 137.962 45.8813 137.428 45.9767C136.913 46.0531 136.264 46.0912 135.482 46.0912Z" fill="#0677EE"/>
<path d="M148.051 46.1485C146.716 46.1485 145.619 46.0721 144.76 45.9195C143.901 45.7478 143.224 45.4616 142.728 45.0609C142.232 44.6602 141.879 44.0973 141.669 43.3723C141.459 42.6472 141.354 41.7028 141.354 40.5389C141.354 39.0506 141.564 37.8676 141.984 36.9899C142.404 36.1122 143.129 35.4731 144.159 35.0724C145.208 34.6717 146.658 34.4713 148.509 34.4713C149.959 34.4713 151.114 34.624 151.972 34.9293C152.831 35.2346 153.451 35.7116 153.833 36.3603C154.214 37.009 154.405 37.839 154.405 38.8503V41.054H146.449C146.449 40.6533 146.534 40.3194 146.706 40.0523C146.897 39.7661 147.24 39.623 147.737 39.623H150.599L150.57 39.022C150.57 38.2397 150.408 37.6577 150.083 37.2761C149.778 36.8755 149.196 36.6751 148.338 36.6751C147.632 36.6751 147.078 36.7896 146.678 37.0186C146.296 37.2284 146.029 37.61 145.876 38.1634C145.743 38.6976 145.676 39.4704 145.676 40.4816C145.676 41.3975 145.762 42.0844 145.933 42.5423C146.124 43.0002 146.458 43.315 146.935 43.4868C147.412 43.6394 148.089 43.7157 148.967 43.7157C149.292 43.7157 149.73 43.7062 150.284 43.6871C150.837 43.668 151.4 43.649 151.972 43.6299C152.564 43.5917 153.079 43.5631 153.518 43.544C153.976 43.5058 154.262 43.4677 154.376 43.4295V43.9447C154.376 44.2118 154.329 44.498 154.233 44.8033C154.157 45.0895 153.995 45.328 153.747 45.5188C153.403 45.7859 152.764 45.9577 151.829 46.034C150.913 46.1103 149.654 46.1485 148.051 46.1485Z" fill="#0677EE"/>
<path d="M162.152 45.9767H159.061C158.641 45.9767 158.336 45.8718 158.145 45.6619C157.954 45.452 157.859 45.0323 157.859 44.4026V35.1296C158.393 34.996 159.166 34.8529 160.177 34.7003C161.207 34.5477 162.362 34.4713 163.64 34.4713C164.976 34.4713 166.025 34.5477 166.788 34.7003C167.571 34.8529 168.143 35.0914 168.506 35.4158C168.868 35.7211 169.097 36.1218 169.192 36.6179C169.307 37.0949 169.364 37.6768 169.364 38.3637H165.271V37.963C165.271 37.5051 165.186 37.1712 165.014 36.9613C164.861 36.7514 164.67 36.6179 164.441 36.5606C164.212 36.5034 163.974 36.4748 163.726 36.4748C163.344 36.4748 163.01 36.5129 162.724 36.5893C162.457 36.6656 162.266 36.7801 162.152 36.9327V45.9767Z" fill="#0677EE"/>
<path d="M10.3906 56.5864L12.4341 50.9084C12.5704 50.5581 12.7552 50.2905 12.9888 50.1056C13.2223 49.911 13.6018 49.8137 14.1273 49.8137C14.5944 49.8137 14.9496 49.9013 15.1928 50.0764C15.4458 50.2516 15.6405 50.5289 15.7767 50.9084L17.864 56.5864H16.2438L15.6161 54.8349H12.1568L11.5437 56.5864H10.3906ZM12.3903 54.2072H15.3388L14.4192 51.5361C14.3803 51.4096 14.3268 51.2977 14.2587 51.2004C14.2003 51.1031 14.0689 51.0544 13.8646 51.0544C13.6505 51.0544 13.5094 51.1079 13.4413 51.215C13.3732 51.3123 13.3196 51.4193 13.2807 51.5361L12.3903 54.2072Z" fill="black"/>
<path d="M28.3584 56.6448C27.8426 56.6448 27.4923 56.5232 27.3074 56.2799C27.1225 56.0269 27.0301 55.6523 27.0301 55.156L27.0447 50.7625H28.4021V55.083C28.4021 55.4528 28.4459 55.7058 28.5335 55.842C28.6308 55.9783 28.7914 56.0464 29.0152 56.0464C29.1028 56.0464 29.2001 56.0366 29.3071 56.0172C29.4142 55.9977 29.4823 55.9831 29.5115 55.9734V56.5281C29.4725 56.5378 29.4093 56.5524 29.3217 56.5718C29.2341 56.5913 29.1125 56.6059 28.9568 56.6156C28.8011 56.6351 28.6016 56.6448 28.3584 56.6448ZM27.7453 49.9597C27.5215 49.9597 27.3512 49.9305 27.2344 49.8721C27.1274 49.804 27.0739 49.6823 27.0739 49.5072C27.0739 49.332 27.1274 49.2152 27.2344 49.1569C27.3415 49.0887 27.5118 49.0547 27.7453 49.0547C27.9691 49.0547 28.1297 49.0887 28.227 49.1569C28.334 49.2152 28.3875 49.332 28.3875 49.5072C28.3875 49.6823 28.334 49.804 28.227 49.8721C28.1297 49.9305 27.9691 49.9597 27.7453 49.9597Z" fill="black"/>
<path d="M39.9245 56.5864H38.9904C38.8444 56.5864 38.7325 56.5475 38.6546 56.4697C38.5768 56.3918 38.5379 56.2459 38.5379 56.0318V51.0544C38.7714 50.9863 39.0974 50.9133 39.5158 50.8354C39.9343 50.7576 40.4354 50.7187 41.0193 50.7187C41.5934 50.7187 42.0459 50.7576 42.3767 50.8354C42.7076 50.9036 42.9508 51.0106 43.1065 51.1566C43.272 51.2928 43.3741 51.4631 43.4131 51.6674C43.4617 51.8621 43.486 52.0907 43.486 52.3535H42.1724L42.1578 52.1491C42.1578 51.9156 42.0945 51.7502 41.968 51.6528C41.8512 51.5458 41.7101 51.4777 41.5447 51.4485C41.3793 51.4193 41.2139 51.4047 41.0484 51.4047C40.7954 51.4047 40.5668 51.429 40.3624 51.4777C40.1678 51.5263 40.0218 51.5896 39.9245 51.6674V56.5864Z" fill="black"/>
<path d="M52.6834 58.1483L52.698 51.9448C52.698 51.6918 52.6931 51.468 52.6834 51.2733C52.6834 51.0787 52.6737 50.9522 52.6542 50.8938C52.732 50.8744 52.878 50.8549 53.0921 50.8354C53.3159 50.816 53.5689 50.8014 53.8511 50.7917C54.1333 50.7722 54.4204 50.7576 54.7123 50.7479C55.0139 50.7284 55.2815 50.7187 55.5151 50.7187C56.3422 50.7187 56.9845 50.8209 57.4418 51.0252C57.9089 51.2296 58.2349 51.5555 58.4198 52.0032C58.6144 52.4411 58.702 53.02 58.6825 53.7401C58.6533 54.4505 58.556 55.0198 58.3906 55.4479C58.2252 55.8663 57.9527 56.1729 57.5732 56.3675C57.2034 56.5524 56.6877 56.6448 56.026 56.6448C55.627 56.6448 55.2718 56.6059 54.9604 56.5281C54.6588 56.4502 54.4155 56.3188 54.2306 56.1339C54.0457 55.9393 53.9192 55.6815 53.8511 55.3603L54.07 55.2144V58.1483H52.6834ZM55.7048 55.8566C56.2595 55.8566 56.6585 55.6863 56.9017 55.3457C57.1548 55.0052 57.2813 54.4359 57.2813 53.638C57.3007 52.84 57.1839 52.2805 56.9309 51.9594C56.6779 51.6383 56.2157 51.4777 55.5443 51.4777C55.4081 51.4777 55.2378 51.4826 55.0334 51.4923C54.8388 51.502 54.6539 51.5166 54.4787 51.5361C54.3036 51.5458 54.1674 51.5604 54.07 51.5799V54.2364C54.07 54.6743 54.1382 55.01 54.2744 55.2436C54.4106 55.4771 54.6004 55.6377 54.8437 55.7252C55.0869 55.8128 55.374 55.8566 55.7048 55.8566Z" fill="black"/>
<path d="M71.0426 56.674C70.556 56.674 70.123 56.64 69.7435 56.5718C69.3737 56.494 69.0526 56.3529 68.7801 56.1485C68.5174 55.9442 68.3179 55.6425 68.1817 55.2436C68.0455 54.8446 67.9773 54.324 67.9773 53.6817C67.9773 53.0395 68.0455 52.5189 68.1817 52.1199C68.3179 51.721 68.5174 51.4193 68.7801 51.215C69.0526 51.0106 69.3737 50.8744 69.7435 50.8063C70.123 50.7284 70.556 50.6895 71.0426 50.6895C71.5097 50.6895 71.9281 50.7284 72.2979 50.8063C72.6774 50.8744 72.9985 51.0106 73.2612 51.215C73.524 51.4193 73.7235 51.721 73.8597 52.1199C74.0057 52.5189 74.0786 53.0395 74.0786 53.6817C74.0786 54.3337 74.0057 54.8592 73.8597 55.2582C73.7235 55.6571 73.524 55.9588 73.2612 56.1631C72.9985 56.3578 72.6774 56.494 72.2979 56.5718C71.9281 56.64 71.5097 56.674 71.0426 56.674ZM71.0426 55.9442C71.3929 55.9442 71.6897 55.8907 71.933 55.7836C72.186 55.6766 72.3757 55.4625 72.5022 55.1414C72.6287 54.8203 72.692 54.3337 72.692 53.6817C72.692 53.0298 72.6287 52.5432 72.5022 52.2221C72.3757 51.901 72.186 51.6869 71.933 51.5799C71.6897 51.4728 71.3929 51.4193 71.0426 51.4193C70.6923 51.4193 70.3906 51.4728 70.1376 51.5799C69.8846 51.6869 69.69 51.901 69.5538 52.2221C69.4273 52.5432 69.364 53.0298 69.364 53.6817C69.364 54.3337 69.4273 54.8203 69.5538 55.1414C69.69 55.4625 69.8846 55.6766 70.1376 55.7836C70.3906 55.8907 70.6923 55.9442 71.0426 55.9442Z" fill="black"/>
<path d="M84.9533 56.5864H84.0191C83.8732 56.5864 83.7613 56.5475 83.6834 56.4697C83.6056 56.3918 83.5667 56.2459 83.5667 56.0318V51.0544C83.8002 50.9863 84.1262 50.9133 84.5446 50.8354C84.963 50.7576 85.4642 50.7187 86.048 50.7187C86.6222 50.7187 87.0747 50.7576 87.4055 50.8354C87.7364 50.9036 87.9796 51.0106 88.1353 51.1566C88.3008 51.2928 88.4029 51.4631 88.4418 51.6674C88.4905 51.8621 88.5148 52.0907 88.5148 52.3535H87.2012L87.1866 52.1491C87.1866 51.9156 87.1233 51.7502 86.9968 51.6528C86.88 51.5458 86.7389 51.4777 86.5735 51.4485C86.4081 51.4193 86.2427 51.4047 86.0772 51.4047C85.8242 51.4047 85.5956 51.429 85.3912 51.4777C85.1966 51.5263 85.0506 51.5896 84.9533 51.6674V56.5864Z" fill="black"/>
<path d="M99.4054 56.6302C99.0161 56.6302 98.7096 56.5864 98.4858 56.4989C98.2717 56.4113 98.116 56.2556 98.0187 56.0318C97.9214 55.808 97.8727 55.5063 97.8727 55.1268V51.5069H97.2889V50.7625H97.8727V49.7991C97.8727 49.6239 97.8873 49.4974 97.9165 49.4196C97.9457 49.332 97.9944 49.2785 98.0625 49.259C98.1403 49.2298 98.2522 49.2152 98.3982 49.2152H99.2448C99.2448 49.2347 99.2448 49.2785 99.2448 49.3466C99.2448 49.405 99.2448 49.4926 99.2448 49.6094V50.7625H100.617V51.5069H99.2448V54.9954C99.2448 55.3749 99.2837 55.6474 99.3616 55.8128C99.4394 55.9685 99.6243 56.0464 99.9162 56.0464C100.014 56.0464 100.121 56.0366 100.237 56.0172C100.364 55.9977 100.451 55.9783 100.5 55.9588V56.5281C100.442 56.5378 100.315 56.5572 100.121 56.5864C99.926 56.6156 99.6876 56.6302 99.4054 56.6302Z" fill="black"/>
<path d="M121.286 49.8721H128.35V50.7041H125.577V56.0172C125.577 56.2313 125.543 56.3821 125.475 56.4697C125.416 56.5475 125.275 56.5864 125.051 56.5864H124.074V50.7041H121.286V49.8721Z" fill="black"/>
<path d="M139.838 56.674C139.234 56.674 138.743 56.6448 138.363 56.5864C137.984 56.5378 137.692 56.4453 137.488 56.3091C137.283 56.1729 137.142 55.988 137.064 55.7544C136.996 55.5209 136.962 55.229 136.962 54.8787C136.962 54.3824 137.016 54.0077 137.123 53.7547C137.239 53.492 137.434 53.312 137.707 53.2147C137.989 53.1174 138.363 53.0687 138.83 53.0687C139.074 53.0687 139.341 53.0736 139.633 53.0833C139.935 53.093 140.222 53.1076 140.494 53.1271C140.777 53.1368 141.02 53.1514 141.224 53.1709C141.438 53.1903 141.579 53.2147 141.648 53.2439C141.648 52.8352 141.614 52.514 141.545 52.2805C141.477 52.047 141.365 51.8718 141.21 51.755C141.064 51.6383 140.879 51.5604 140.655 51.5215C140.431 51.4826 140.168 51.4631 139.867 51.4631C139.536 51.4631 139.205 51.4728 138.874 51.4923C138.553 51.5118 138.247 51.5458 137.955 51.5945C137.673 51.6431 137.439 51.7064 137.254 51.7842V51.5069C137.254 51.2831 137.312 51.1225 137.429 51.0252C137.556 50.9279 137.707 50.8646 137.882 50.8354C138.076 50.7868 138.363 50.7479 138.743 50.7187C139.122 50.6895 139.526 50.6798 139.954 50.6895C140.499 50.6895 140.962 50.7187 141.341 50.7771C141.73 50.8257 142.042 50.9328 142.275 51.0982C142.519 51.2636 142.694 51.5118 142.801 51.8426C142.917 52.1735 142.976 52.6162 142.976 53.1709V56.1485C142.888 56.3334 142.591 56.4697 142.085 56.5572C141.579 56.6351 140.83 56.674 139.838 56.674ZM139.838 56.061C140.227 56.061 140.543 56.0512 140.786 56.0318C141.039 56.0026 141.234 55.9685 141.37 55.9296C141.506 55.8809 141.599 55.8226 141.648 55.7544V53.7401C141.56 53.7109 141.404 53.6866 141.181 53.6672C140.957 53.638 140.723 53.6136 140.48 53.5942C140.237 53.5747 140.032 53.565 139.867 53.565C139.507 53.565 139.215 53.5893 138.991 53.638C138.767 53.6866 138.607 53.7985 138.509 53.9737C138.412 54.1488 138.363 54.4213 138.363 54.7911C138.363 55.0927 138.397 55.336 138.466 55.5209C138.534 55.7058 138.67 55.842 138.874 55.9296C139.088 56.0172 139.409 56.061 139.838 56.061Z" fill="black"/>
<path d="M151.807 56.5864L154.026 53.6963L152.23 51.2587C152.162 51.1517 152.094 51.0544 152.026 50.9668C151.968 50.8792 151.899 50.8063 151.822 50.7479H153.573L155.047 52.733L156.58 50.7625H157.631C157.602 50.7917 157.563 50.8306 157.514 50.8792C157.475 50.9279 157.427 50.9911 157.368 51.069L155.631 53.5066L157.908 56.5864H156.77C156.575 56.5864 156.4 56.5524 156.244 56.4843C156.098 56.4064 155.967 56.2945 155.85 56.1485L154.537 54.4116L152.873 56.5864H151.807Z" fill="black"/>
<path d="M168.139 56.6448C167.623 56.6448 167.273 56.5232 167.088 56.2799C166.903 56.0269 166.811 55.6523 166.811 55.156L166.825 50.7625H168.183V55.083C168.183 55.4528 168.227 55.7058 168.314 55.842C168.411 55.9783 168.572 56.0464 168.796 56.0464C168.883 56.0464 168.981 56.0366 169.088 56.0172C169.195 55.9977 169.263 55.9831 169.292 55.9734V56.5281C169.253 56.5378 169.19 56.5524 169.102 56.5718C169.015 56.5913 168.893 56.6059 168.737 56.6156C168.582 56.6351 168.382 56.6448 168.139 56.6448ZM167.526 49.9597C167.302 49.9597 167.132 49.9305 167.015 49.8721C166.908 49.804 166.854 49.6823 166.854 49.5072C166.854 49.332 166.908 49.2152 167.015 49.1569C167.122 49.0887 167.292 49.0547 167.526 49.0547C167.75 49.0547 167.91 49.0887 168.008 49.1569C168.115 49.2152 168.168 49.332 168.168 49.5072C168.168 49.6823 168.115 49.804 168.008 49.8721C167.91 49.9305 167.75 49.9597 167.526 49.9597Z" fill="black"/>
<path d="M169.703 31.7891C178.709 31.9035 183.791 37.2111 185.206 39.8505C180.284 36.7213 175.109 36.1935 173.138 36.3207C172.489 33.802 170.578 32.2502 169.703 31.7891Z" fill="#0073EC"/>
<path d="M2.23289 21.7422C0.357145 26.5354 1.01718 36.6776 1.58166 41.1495C2.71618 34.2112 7.10547 30.7692 9.1583 29.9155C8.61486 28.5181 7.15652 27.7602 5.94259 26.8801C2.45286 24.3503 1.9708 22.4483 2.23289 21.7422Z" fill="#0073EC"/>
<path d="M66.4859 16.2253C49.123 19.754 38.667 24.9821 35.6094 27.155C55.5797 19.8111 73.9613 18.422 80.6557 18.6454L81.5926 29.38L84.0908 14.4297C77.1895 14.6171 69.4786 15.7048 66.4859 16.2253Z" fill="black"/>
<path d="M126.456 28.6244C111.414 15.9198 95.5684 14.1419 89.5259 14.8411C104.089 17.6577 112.922 23.4556 115.519 26.0025L87.5781 28.6244H126.456Z" fill="black"/>
<path d="M9.83706 27.3854C7.07319 26.7622 4.12645 21.9548 2.98438 19.6258C14.719 21.6606 35.1018 16.5729 43.8264 13.7747C58.56 8.99163 77.554 7.37024 87.1037 7.07868C88.4315 7.03814 89.585 6.15579 89.9499 4.8785L90.3633 3.43152C90.8829 1.61308 92.545 0.359375 94.4362 0.359375C96.3106 0.359375 97.9622 1.59137 98.4964 3.3881L99.3777 6.35257C99.7118 7.47652 100.672 8.29795 101.829 8.4915C115.516 10.7823 126.672 16.3597 132.565 20.1737C134.457 21.398 136.639 22.1595 138.892 22.2127C161.993 22.758 177.79 29.3938 182.973 32.8018C160.921 27.3018 143.594 27.784 137.688 28.7126C136.565 28.796 135.527 28.6968 134.584 28.4776C130.034 27.4195 126.897 23.2681 122.724 21.1673C121.119 20.3597 119.592 19.653 118.581 19.2091C113.267 16.7122 107.969 14.9762 102.917 13.8075C82.4968 9.08327 61.3106 14.7884 41.0689 20.2392L40.9764 20.2641L16.757 27.0495C13.3236 27.9785 11.8233 27.8333 9.83706 27.3854Z" fill="#0677EE"/>
</svg>
