<svg width="185" height="59" viewBox="0 0 185 59" fill="none" xmlns="http://www.w3.org/2000/svg">
<path d="M10.6484 45.9767V34.271C10.6484 33.6223 10.7629 33.2216 10.9919 33.0689C11.2208 32.8972 11.6979 32.8114 12.4229 32.8114H16.0005L19.349 40.2813L19.4063 40.5675L19.4635 40.5389L19.5208 40.2527L22.7549 32.8114H26.5614C27.2483 32.8114 27.6871 32.9068 27.8779 33.0976C28.0878 33.2884 28.1928 33.6795 28.1928 34.271V44.5171C28.1928 44.9941 28.1451 45.3376 28.0496 45.5474C27.9542 45.7382 27.7825 45.8623 27.5345 45.9195C27.2864 45.9577 26.9239 45.9767 26.4469 45.9767H23.499V37.8485L23.2987 38.6499L20.1218 45.9767H17.2884L14.1401 38.7358L13.9684 37.9344V45.9767H10.6484Z" fill="#FFCF17"/>
<path d="M38.5388 46.1198C37.2032 46.1198 36.1252 46.0721 35.3047 45.9767C34.4842 45.9004 33.8451 45.7382 33.3871 45.4902C32.9483 45.2422 32.6525 44.8892 32.4999 44.4312C32.3473 43.9733 32.2709 43.3818 32.2709 42.6568C32.2709 41.6837 32.3663 40.9491 32.5571 40.453C32.7479 39.9378 33.0818 39.5849 33.5589 39.3941C34.0359 39.2032 34.675 39.1078 35.4764 39.1078C35.9534 39.1078 36.4972 39.1174 37.1078 39.1365C37.7374 39.1365 38.348 39.146 38.9395 39.1651C39.5501 39.1842 40.0748 39.2223 40.5136 39.2796C40.9715 39.3177 41.2864 39.3559 41.4581 39.3941C41.4581 38.8026 41.4008 38.3351 41.2864 37.9917C41.191 37.6482 41.0288 37.3906 40.7998 37.2189C40.5709 37.0281 40.2656 36.9041 39.884 36.8468C39.5024 36.7896 39.0349 36.761 38.4816 36.761C37.8138 36.761 37.1459 36.7705 36.4781 36.7896C35.8294 36.8087 35.1902 36.8468 34.5606 36.9041C33.95 36.9613 33.3871 37.0281 32.872 37.1044V36.303C32.872 35.7879 32.9864 35.4063 33.2154 35.1582C33.4444 34.9102 33.7592 34.748 34.1599 34.6717C34.5987 34.5763 35.2475 34.5095 36.1061 34.4713C36.9838 34.4332 37.9282 34.4141 38.9395 34.4141C40.2179 34.4141 41.2864 34.4809 42.145 34.6144C43.0227 34.748 43.7096 34.9865 44.2057 35.33C44.7017 35.6734 45.0547 36.1886 45.2646 36.8755C45.4745 37.5433 45.5794 38.44 45.5794 39.5658V45.2612C45.2741 45.5474 44.5109 45.7669 43.2898 45.9195C42.0877 46.0531 40.5041 46.1198 38.5388 46.1198ZM38.5102 44.3454C39.0444 44.3454 39.4928 44.3358 39.8553 44.3168C40.2369 44.2786 40.5613 44.2309 40.8284 44.1737C41.0956 44.1164 41.3054 44.0496 41.4581 43.9733V40.7678C41.2482 40.7106 40.9525 40.6629 40.5709 40.6247C40.2083 40.5866 39.8363 40.5579 39.4547 40.5389C39.0731 40.5198 38.7773 40.5102 38.5674 40.5102C38.1095 40.5102 37.7374 40.5484 37.4512 40.6247C37.165 40.7011 36.9551 40.8728 36.8216 41.1399C36.7071 41.407 36.6499 41.8172 36.6499 42.3706C36.6499 42.8476 36.6976 43.2387 36.793 43.544C36.8884 43.8302 37.0696 44.0401 37.3367 44.1737C37.6039 44.2881 37.995 44.3454 38.5102 44.3454Z" fill="#FFCF17"/>
<path d="M50.3928 45.9767C49.6678 45.9767 49.3052 45.6047 49.3052 44.8605V35.2441C49.8776 35.0533 50.7362 34.8816 51.8811 34.7289C53.0259 34.5572 54.2852 34.4713 55.659 34.4713C57.1281 34.4713 58.2825 34.5572 59.122 34.7289C59.9806 34.8816 60.6103 35.1582 61.011 35.5589C61.4307 35.9405 61.6979 36.4557 61.8123 37.1044C61.9459 37.7531 62.0127 38.5641 62.0127 39.5372V44.374C62.0127 44.7938 61.9841 45.1277 61.9268 45.3757C61.8696 45.6047 61.7169 45.7669 61.4689 45.8623C61.2399 45.9577 60.8774 46.0054 60.3813 46.0054L57.7769 45.9767V38.5354C57.7769 37.9058 57.5861 37.4574 57.2045 37.1903C56.8229 36.9232 56.3077 36.7896 55.659 36.7896C55.43 36.7896 55.1819 36.8182 54.9148 36.8755C54.6477 36.9136 54.3901 36.9709 54.1421 37.0472C53.9131 37.1044 53.7223 37.1903 53.5697 37.3048V45.9767H50.3928Z" fill="#FFCF17"/>
<path d="M72.5548 46.1485C70.8376 46.1485 69.4543 46.0054 68.4049 45.7192C67.3745 45.4139 66.6209 44.8606 66.1439 44.0592C65.6859 43.2387 65.457 42.0557 65.457 40.5102C65.457 38.8312 65.6859 37.5528 66.1439 36.6751C66.6209 35.7974 67.3745 35.1964 68.4049 34.872C69.4543 34.5477 70.8376 34.3855 72.5548 34.3855C73.0509 34.3855 73.5279 34.4141 73.9859 34.4713C74.4629 34.5095 75.0353 34.5763 75.7031 34.6717C76.0847 34.7098 76.39 34.7957 76.6189 34.9293C76.867 35.0628 77.0482 35.2823 77.1627 35.5875C77.2772 35.8928 77.3344 36.3507 77.3344 36.9613C77.1246 36.885 76.8002 36.8182 76.3614 36.761C75.9416 36.6847 75.4837 36.6274 74.9876 36.5893C74.4915 36.5511 74.0526 36.532 73.671 36.532C72.6979 36.532 71.9252 36.6465 71.3528 36.8755C70.7995 37.1044 70.3988 37.486 70.1507 38.0203C69.9218 38.5545 69.8073 39.2891 69.8073 40.224C69.8073 41.1399 69.9218 41.8649 70.1507 42.3992C70.3988 42.9334 70.7995 43.315 71.3528 43.544C71.9252 43.773 72.6979 43.8875 73.671 43.8875C74.1099 43.8875 74.5678 43.8684 75.0448 43.8302C75.5409 43.7921 75.9893 43.7444 76.39 43.6871C76.8097 43.6108 77.1246 43.5345 77.3344 43.4581V44.603C77.3344 45.08 77.115 45.433 76.6762 45.6619C76.2564 45.8718 75.684 46.0054 74.959 46.0626C74.2339 46.1198 73.4325 46.1485 72.5548 46.1485Z" fill="#FFCF17"/>
<path d="M82.3046 45.9767C81.6367 45.9767 81.217 45.8909 81.0453 45.7192C80.8735 45.5284 80.7877 45.1754 80.7877 44.6602V31.5234H85.0521V34.8434C85.2811 34.7862 85.5482 34.7385 85.8535 34.7003C86.1779 34.6621 86.5213 34.6335 86.8838 34.6144C87.2464 34.5954 87.5898 34.5858 87.9142 34.5858C89.2116 34.5858 90.2515 34.6812 91.0338 34.872C91.8161 35.0628 92.4076 35.3586 92.8083 35.7593C93.2089 36.1599 93.4761 36.6847 93.6096 37.3334C93.7623 37.9821 93.8386 38.7739 93.8386 39.7089V44.1737C93.8386 44.6888 93.7813 45.08 93.6669 45.3471C93.5715 45.5951 93.3902 45.7669 93.1231 45.8623C92.856 45.9386 92.4648 45.9767 91.9496 45.9767H89.66V39.1365C89.66 38.4114 89.5742 37.8676 89.4024 37.5051C89.2307 37.1235 88.954 36.8755 88.5724 36.761C88.2099 36.6274 87.7234 36.5606 87.1128 36.5606C86.9029 36.5606 86.6644 36.5702 86.3973 36.5893C86.1492 36.6083 85.9012 36.6465 85.6532 36.7037C85.4051 36.7419 85.2048 36.7896 85.0521 36.8468V45.9767H82.3046Z" fill="#FFCF17"/>
<path d="M103.944 46.1485C102.608 46.1485 101.511 46.0721 100.653 45.9195C99.7941 45.7478 99.1167 45.4616 98.6207 45.0609C98.1246 44.6602 97.7716 44.0973 97.5617 43.3723C97.3518 42.6472 97.2469 41.7028 97.2469 40.5389C97.2469 39.0506 97.4568 37.8676 97.8765 36.9899C98.2963 36.1122 99.0213 35.4731 100.052 35.0724C101.101 34.6717 102.551 34.4713 104.402 34.4713C105.852 34.4713 107.006 34.624 107.865 34.9293C108.724 35.2346 109.344 35.7116 109.725 36.3603C110.107 37.009 110.298 37.839 110.298 38.8503V41.054H102.341C102.341 40.6533 102.427 40.3194 102.599 40.0523C102.79 39.7661 103.133 39.623 103.629 39.623H106.491L106.463 39.022C106.463 38.2397 106.3 37.6577 105.976 37.2761C105.671 36.8755 105.089 36.6751 104.23 36.6751C103.524 36.6751 102.971 36.7896 102.57 37.0186C102.189 37.2284 101.922 37.61 101.769 38.1634C101.635 38.6976 101.569 39.4704 101.569 40.4816C101.569 41.3975 101.654 42.0844 101.826 42.5423C102.017 43.0002 102.351 43.315 102.828 43.4868C103.305 43.6394 103.982 43.7157 104.86 43.7157C105.184 43.7157 105.623 43.7062 106.176 43.6871C106.73 43.668 107.293 43.649 107.865 43.6299C108.457 43.5917 108.972 43.5631 109.411 43.544C109.868 43.5058 110.155 43.4677 110.269 43.4295V43.9447C110.269 44.2118 110.221 44.498 110.126 44.8033C110.05 45.0895 109.888 45.328 109.64 45.5188C109.296 45.7859 108.657 45.9577 107.722 46.034C106.806 46.1103 105.547 46.1485 103.944 46.1485Z" fill="#FFCF17"/>
<path d="M119.046 46.0912C118.588 46.0912 118.102 46.0817 117.587 46.0626C117.071 46.0435 116.556 46.0054 116.041 45.9481C115.545 45.8909 115.087 45.805 114.667 45.6905C114.324 45.6142 114.038 45.5188 113.809 45.4043C113.599 45.2708 113.437 45.0323 113.322 44.6888C113.227 44.3263 113.179 43.7634 113.179 43.0002C113.771 43.2101 114.381 43.3818 115.011 43.5154C115.64 43.6299 116.251 43.7157 116.842 43.773C117.453 43.8111 118.016 43.8302 118.531 43.8302C118.894 43.8302 119.285 43.8302 119.705 43.8302C120.143 43.8111 120.563 43.7634 120.964 43.6871C121.365 43.5917 121.698 43.4486 121.966 43.2578C122.233 43.0479 122.366 42.7617 122.366 42.3992C122.366 41.9603 122.252 41.6741 122.023 41.5406C121.794 41.407 121.489 41.3402 121.107 41.3402H117.844C116.966 41.3402 116.184 41.2925 115.497 41.1971C114.83 41.1017 114.295 40.8442 113.895 40.4244C113.513 39.9855 113.322 39.2509 113.322 38.2206C113.322 37.0949 113.599 36.2649 114.152 35.7306C114.725 35.1773 115.535 34.8148 116.585 34.6431C117.634 34.4713 118.894 34.3855 120.363 34.3855C120.897 34.3855 121.517 34.395 122.223 34.4141C122.948 34.4332 123.578 34.4809 124.112 34.5572C124.704 34.6144 125.161 34.7098 125.486 34.8434C125.829 34.9579 126.077 35.1487 126.23 35.4158C126.383 35.6639 126.459 36.055 126.459 36.5893V37.3906C126.344 37.1998 126.049 37.0567 125.572 36.9613C125.114 36.8468 124.551 36.7705 123.883 36.7324C123.234 36.6942 122.547 36.6751 121.822 36.6751C121.116 36.6751 120.458 36.6751 119.848 36.6751C119.428 36.6751 119.037 36.7037 118.674 36.761C118.331 36.7991 118.054 36.9136 117.844 37.1044C117.634 37.2761 117.529 37.5623 117.529 37.963C117.529 38.2683 117.596 38.4973 117.73 38.6499C117.863 38.7835 118.045 38.8693 118.273 38.9075C118.502 38.9457 118.76 38.9647 119.046 38.9647H122.681C123.482 38.9647 124.188 39.0411 124.799 39.1937C125.41 39.3273 125.877 39.6326 126.201 40.1096C126.526 40.5675 126.688 41.2925 126.688 42.2847C126.688 43.4295 126.364 44.2691 125.715 44.8033C125.066 45.3376 124.169 45.6905 123.024 45.8623C121.88 46.0149 120.554 46.0912 119.046 46.0912Z" fill="#FFCF17"/>
<path d="M134.49 46.0912C133.46 46.0912 132.649 45.9863 132.057 45.7764C131.485 45.5474 131.084 45.1849 130.855 44.6888C130.626 44.1737 130.512 43.4677 130.512 42.5709V36.7896H129.281V34.5572H130.512V33.0976C130.512 32.6206 130.54 32.2676 130.597 32.0386C130.674 31.8096 130.817 31.6665 131.027 31.6093C131.237 31.5521 131.571 31.5234 132.029 31.5234H134.776C134.776 31.5998 134.776 31.6952 134.776 31.8096C134.776 31.9241 134.776 32.0672 134.776 32.2389V34.5572H137.552V36.7896H134.805V42.2275C134.805 42.9907 134.871 43.544 135.005 43.8875C135.158 44.2309 135.549 44.4026 136.178 44.4026C136.35 44.4026 136.57 44.3835 136.837 44.3454C137.123 44.3072 137.323 44.2691 137.438 44.2309V45.805C137.304 45.8241 136.97 45.8813 136.436 45.9767C135.921 46.0531 135.272 46.0912 134.49 46.0912Z" fill="#FFCF17"/>
<path d="M147.059 46.1485C145.724 46.1485 144.626 46.0721 143.768 45.9195C142.909 45.7478 142.232 45.4616 141.736 45.0609C141.24 44.6602 140.887 44.0973 140.677 43.3723C140.467 42.6472 140.362 41.7028 140.362 40.5389C140.362 39.0506 140.572 37.8676 140.992 36.9899C141.411 36.1122 142.136 35.4731 143.167 35.0724C144.216 34.6717 145.666 34.4713 147.517 34.4713C148.967 34.4713 150.122 34.624 150.98 34.9293C151.839 35.2346 152.459 35.7116 152.84 36.3603C153.222 37.009 153.413 37.839 153.413 38.8503V41.054H145.456C145.456 40.6533 145.542 40.3194 145.714 40.0523C145.905 39.7661 146.248 39.623 146.744 39.623H149.606L149.578 39.022C149.578 38.2397 149.416 37.6577 149.091 37.2761C148.786 36.8755 148.204 36.6751 147.345 36.6751C146.639 36.6751 146.086 36.7896 145.685 37.0186C145.304 37.2284 145.037 37.61 144.884 38.1634C144.75 38.6976 144.684 39.4704 144.684 40.4816C144.684 41.3975 144.77 42.0844 144.941 42.5423C145.132 43.0002 145.466 43.315 145.943 43.4868C146.42 43.6394 147.097 43.7157 147.975 43.7157C148.299 43.7157 148.738 43.7062 149.292 43.6871C149.845 43.668 150.408 43.649 150.98 43.6299C151.572 43.5917 152.087 43.5631 152.526 43.544C152.984 43.5058 153.27 43.4677 153.384 43.4295V43.9447C153.384 44.2118 153.337 44.498 153.241 44.8033C153.165 45.0895 153.003 45.328 152.755 45.5188C152.411 45.7859 151.772 45.9577 150.837 46.034C149.921 46.1103 148.662 46.1485 147.059 46.1485Z" fill="#FFCF17"/>
<path d="M161.16 45.9767H158.069C157.649 45.9767 157.344 45.8718 157.153 45.6619C156.962 45.452 156.867 45.0323 156.867 44.4026V35.1296C157.401 34.996 158.174 34.8529 159.185 34.7003C160.215 34.5477 161.37 34.4713 162.648 34.4713C163.984 34.4713 165.033 34.5477 165.796 34.7003C166.578 34.8529 167.151 35.0914 167.513 35.4158C167.876 35.7211 168.105 36.1218 168.2 36.6179C168.315 37.0949 168.372 37.6768 168.372 38.3637H164.279V37.963C164.279 37.5051 164.193 37.1712 164.022 36.9613C163.869 36.7514 163.678 36.6179 163.449 36.5606C163.22 36.5034 162.982 36.4748 162.734 36.4748C162.352 36.4748 162.018 36.5129 161.732 36.5893C161.465 36.6656 161.274 36.7801 161.16 36.9327V45.9767Z" fill="#FFCF17"/>
<path d="M9.39844 56.5864L11.4419 50.9084C11.5782 50.5581 11.7631 50.2905 11.9966 50.1056C12.2301 49.911 12.6096 49.8137 13.1351 49.8137C13.6022 49.8137 13.9574 49.9013 14.2007 50.0764C14.4537 50.2516 14.6483 50.5289 14.7845 50.9084L16.8718 56.5864H15.2516L14.624 54.8349H11.1646L10.5516 56.5864H9.39844ZM11.3981 54.2072H14.3466L13.427 51.5361C13.3881 51.4096 13.3346 51.2977 13.2665 51.2004C13.2081 51.1031 13.0767 51.0544 12.8724 51.0544C12.6583 51.0544 12.5172 51.1079 12.4491 51.215C12.381 51.3123 12.3275 51.4193 12.2885 51.5361L11.3981 54.2072Z" fill="black"/>
<path d="M27.3662 56.6448C26.8504 56.6448 26.5001 56.5232 26.3152 56.2799C26.1303 56.0269 26.0379 55.6523 26.0379 55.156L26.0525 50.7625H27.41V55.083C27.41 55.4528 27.4537 55.7058 27.5413 55.842C27.6386 55.9783 27.7992 56.0464 28.023 56.0464C28.1106 56.0464 28.2079 56.0366 28.3149 56.0172C28.422 55.9977 28.4901 55.9831 28.5193 55.9734V56.5281C28.4804 56.5378 28.4171 56.5524 28.3295 56.5718C28.2419 56.5913 28.1203 56.6059 27.9646 56.6156C27.8089 56.6351 27.6094 56.6448 27.3662 56.6448ZM26.7531 49.9597C26.5293 49.9597 26.359 49.9305 26.2422 49.8721C26.1352 49.804 26.0817 49.6823 26.0817 49.5072C26.0817 49.332 26.1352 49.2152 26.2422 49.1569C26.3493 49.0887 26.5196 49.0547 26.7531 49.0547C26.9769 49.0547 27.1375 49.0887 27.2348 49.1569C27.3418 49.2152 27.3954 49.332 27.3954 49.5072C27.3954 49.6823 27.3418 49.804 27.2348 49.8721C27.1375 49.9305 26.9769 49.9597 26.7531 49.9597Z" fill="black"/>
<path d="M38.9323 56.5864H37.9982C37.8522 56.5864 37.7403 56.5475 37.6624 56.4697C37.5846 56.3918 37.5457 56.2459 37.5457 56.0318V51.0544C37.7792 50.9863 38.1052 50.9133 38.5236 50.8354C38.9421 50.7576 39.4432 50.7187 40.0271 50.7187C40.6012 50.7187 41.0537 50.7576 41.3845 50.8354C41.7154 50.9036 41.9587 51.0106 42.1144 51.1566C42.2798 51.2928 42.382 51.4631 42.4209 51.6674C42.4695 51.8621 42.4939 52.0907 42.4939 52.3535H41.1802L41.1656 52.1491C41.1656 51.9156 41.1023 51.7502 40.9758 51.6528C40.8591 51.5458 40.718 51.4777 40.5525 51.4485C40.3871 51.4193 40.2217 51.4047 40.0563 51.4047C39.8033 51.4047 39.5746 51.429 39.3702 51.4777C39.1756 51.5263 39.0296 51.5896 38.9323 51.6674V56.5864Z" fill="black"/>
<path d="M51.6912 58.1483L51.7058 51.9448C51.7058 51.6918 51.7009 51.468 51.6912 51.2733C51.6912 51.0787 51.6815 50.9522 51.662 50.8938C51.7399 50.8744 51.8858 50.8549 52.0999 50.8354C52.3237 50.816 52.5767 50.8014 52.8589 50.7917C53.1411 50.7722 53.4282 50.7576 53.7201 50.7479C54.0218 50.7284 54.2894 50.7187 54.5229 50.7187C55.35 50.7187 55.9923 50.8209 56.4496 51.0252C56.9167 51.2296 57.2427 51.5555 57.4276 52.0032C57.6222 52.4411 57.7098 53.02 57.6903 53.7401C57.6611 54.4505 57.5638 55.0198 57.3984 55.4479C57.233 55.8663 56.9605 56.1729 56.581 56.3675C56.2112 56.5524 55.6955 56.6448 55.0338 56.6448C54.6348 56.6448 54.2796 56.6059 53.9682 56.5281C53.6666 56.4502 53.4233 56.3188 53.2384 56.1339C53.0535 55.9393 52.927 55.6815 52.8589 55.3603L53.0779 55.2144V58.1483H51.6912ZM54.7127 55.8566C55.2673 55.8566 55.6663 55.6863 55.9096 55.3457C56.1626 55.0052 56.2891 54.4359 56.2891 53.638C56.3085 52.84 56.1918 52.2805 55.9388 51.9594C55.6857 51.6383 55.2235 51.4777 54.5521 51.4777C54.4159 51.4777 54.2456 51.4826 54.0412 51.4923C53.8466 51.502 53.6617 51.5166 53.4866 51.5361C53.3114 51.5458 53.1752 51.5604 53.0779 51.5799V54.2364C53.0779 54.6743 53.146 55.01 53.2822 55.2436C53.4184 55.4771 53.6082 55.6377 53.8515 55.7252C54.0947 55.8128 54.3818 55.8566 54.7127 55.8566Z" fill="black"/>
<path d="M70.0504 56.674C69.5639 56.674 69.1308 56.64 68.7513 56.5718C68.3815 56.494 68.0604 56.3529 67.788 56.1485C67.5252 55.9442 67.3257 55.6425 67.1895 55.2436C67.0533 54.8446 66.9852 54.324 66.9852 53.6817C66.9852 53.0395 67.0533 52.5189 67.1895 52.1199C67.3257 51.721 67.5252 51.4193 67.788 51.215C68.0604 51.0106 68.3815 50.8744 68.7513 50.8063C69.1308 50.7284 69.5639 50.6895 70.0504 50.6895C70.5175 50.6895 70.9359 50.7284 71.3057 50.8063C71.6852 50.8744 72.0063 51.0106 72.2691 51.215C72.5318 51.4193 72.7313 51.721 72.8675 52.1199C73.0135 52.5189 73.0865 53.0395 73.0865 53.6817C73.0865 54.3337 73.0135 54.8592 72.8675 55.2582C72.7313 55.6571 72.5318 55.9588 72.2691 56.1631C72.0063 56.3578 71.6852 56.494 71.3057 56.5718C70.9359 56.64 70.5175 56.674 70.0504 56.674ZM70.0504 55.9442C70.4007 55.9442 70.6975 55.8907 70.9408 55.7836C71.1938 55.6766 71.3835 55.4625 71.51 55.1414C71.6365 54.8203 71.6998 54.3337 71.6998 53.6817C71.6998 53.0298 71.6365 52.5432 71.51 52.2221C71.3835 51.901 71.1938 51.6869 70.9408 51.5799C70.6975 51.4728 70.4007 51.4193 70.0504 51.4193C69.7001 51.4193 69.3984 51.4728 69.1454 51.5799C68.8924 51.6869 68.6978 51.901 68.5616 52.2221C68.4351 52.5432 68.3718 53.0298 68.3718 53.6817C68.3718 54.3337 68.4351 54.8203 68.5616 55.1414C68.6978 55.4625 68.8924 55.6766 69.1454 55.7836C69.3984 55.8907 69.7001 55.9442 70.0504 55.9442Z" fill="black"/>
<path d="M83.9611 56.5864H83.0269C82.881 56.5864 82.7691 56.5475 82.6912 56.4697C82.6134 56.3918 82.5745 56.2459 82.5745 56.0318V51.0544C82.808 50.9863 83.134 50.9133 83.5524 50.8354C83.9709 50.7576 84.472 50.7187 85.0559 50.7187C85.63 50.7187 86.0825 50.7576 86.4133 50.8354C86.7442 50.9036 86.9874 51.0106 87.1431 51.1566C87.3086 51.2928 87.4107 51.4631 87.4497 51.6674C87.4983 51.8621 87.5226 52.0907 87.5226 52.3535H86.209L86.1944 52.1491C86.1944 51.9156 86.1311 51.7502 86.0046 51.6528C85.8878 51.5458 85.7467 51.4777 85.5813 51.4485C85.4159 51.4193 85.2505 51.4047 85.085 51.4047C84.832 51.4047 84.6034 51.429 84.399 51.4777C84.2044 51.5263 84.0584 51.5896 83.9611 51.6674V56.5864Z" fill="black"/>
<path d="M98.4132 56.6302C98.0239 56.6302 97.7174 56.5864 97.4936 56.4989C97.2795 56.4113 97.1238 56.2556 97.0265 56.0318C96.9292 55.808 96.8805 55.5063 96.8805 55.1268V51.5069H96.2967V50.7625H96.8805V49.7991C96.8805 49.6239 96.8951 49.4974 96.9243 49.4196C96.9535 49.332 97.0022 49.2785 97.0703 49.259C97.1482 49.2298 97.26 49.2152 97.406 49.2152H98.2526C98.2526 49.2347 98.2526 49.2785 98.2526 49.3466C98.2526 49.405 98.2526 49.4926 98.2526 49.6094V50.7625H99.6247V51.5069H98.2526V54.9954C98.2526 55.3749 98.2915 55.6474 98.3694 55.8128C98.4472 55.9685 98.6321 56.0464 98.924 56.0464C99.0214 56.0464 99.1284 56.0366 99.2452 56.0172C99.3717 55.9977 99.4593 55.9783 99.5079 55.9588V56.5281C99.4495 56.5378 99.323 56.5572 99.1284 56.5864C98.9338 56.6156 98.6954 56.6302 98.4132 56.6302Z" fill="black"/>
<path d="M120.293 49.8721H127.358V50.7041H124.585V56.0172C124.585 56.2313 124.551 56.3821 124.483 56.4697C124.424 56.5475 124.283 56.5864 124.059 56.5864H123.081V50.7041H120.293V49.8721Z" fill="black"/>
<path d="M138.845 56.674C138.242 56.674 137.751 56.6448 137.371 56.5864C136.992 56.5378 136.7 56.4453 136.495 56.3091C136.291 56.1729 136.15 55.988 136.072 55.7544C136.004 55.5209 135.97 55.229 135.97 54.8787C135.97 54.3824 136.023 54.0077 136.131 53.7547C136.247 53.492 136.442 53.312 136.714 53.2147C136.997 53.1174 137.371 53.0687 137.838 53.0687C138.082 53.0687 138.349 53.0736 138.641 53.0833C138.943 53.093 139.23 53.1076 139.502 53.1271C139.784 53.1368 140.028 53.1514 140.232 53.1709C140.446 53.1903 140.587 53.2147 140.655 53.2439C140.655 52.8352 140.621 52.514 140.553 52.2805C140.485 52.047 140.373 51.8718 140.218 51.755C140.072 51.6383 139.887 51.5604 139.663 51.5215C139.439 51.4826 139.176 51.4631 138.875 51.4631C138.544 51.4631 138.213 51.4728 137.882 51.4923C137.561 51.5118 137.254 51.5458 136.963 51.5945C136.68 51.6431 136.447 51.7064 136.262 51.7842V51.5069C136.262 51.2831 136.32 51.1225 136.437 51.0252C136.564 50.9279 136.714 50.8646 136.89 50.8354C137.084 50.7868 137.371 50.7479 137.751 50.7187C138.13 50.6895 138.534 50.6798 138.962 50.6895C139.507 50.6895 139.969 50.7187 140.349 50.7771C140.738 50.8257 141.05 50.9328 141.283 51.0982C141.526 51.2636 141.701 51.5118 141.809 51.8426C141.925 52.1735 141.984 52.6162 141.984 53.1709V56.1485C141.896 56.3334 141.599 56.4697 141.093 56.5572C140.587 56.6351 139.838 56.674 138.845 56.674ZM138.845 56.061C139.235 56.061 139.551 56.0512 139.794 56.0318C140.047 56.0026 140.242 55.9685 140.378 55.9296C140.514 55.8809 140.607 55.8226 140.655 55.7544V53.7401C140.568 53.7109 140.412 53.6866 140.188 53.6672C139.965 53.638 139.731 53.6136 139.488 53.5942C139.244 53.5747 139.04 53.565 138.875 53.565C138.515 53.565 138.223 53.5893 137.999 53.638C137.775 53.6866 137.614 53.7985 137.517 53.9737C137.42 54.1488 137.371 54.4213 137.371 54.7911C137.371 55.0927 137.405 55.336 137.473 55.5209C137.542 55.7058 137.678 55.842 137.882 55.9296C138.096 56.0172 138.417 56.061 138.845 56.061Z" fill="black"/>
<path d="M150.815 56.5864L153.034 53.6963L151.238 51.2587C151.17 51.1517 151.102 51.0544 151.034 50.9668C150.975 50.8792 150.907 50.8063 150.829 50.7479H152.581L154.055 52.733L155.588 50.7625H156.639C156.61 50.7917 156.571 50.8306 156.522 50.8792C156.483 50.9279 156.434 50.9911 156.376 51.069L154.639 53.5066L156.916 56.5864H155.778C155.583 56.5864 155.408 56.5524 155.252 56.4843C155.106 56.4064 154.975 56.2945 154.858 56.1485L153.544 54.4116L151.88 56.5864H150.815Z" fill="black"/>
<path d="M167.147 56.6448C166.631 56.6448 166.281 56.5232 166.096 56.2799C165.911 56.0269 165.818 55.6523 165.818 55.156L165.833 50.7625H167.191V55.083C167.191 55.4528 167.234 55.7058 167.322 55.842C167.419 55.9783 167.58 56.0464 167.804 56.0464C167.891 56.0464 167.988 56.0366 168.096 56.0172C168.203 55.9977 168.271 55.9831 168.3 55.9734V56.5281C168.261 56.5378 168.198 56.5524 168.11 56.5718C168.023 56.5913 167.901 56.6059 167.745 56.6156C167.589 56.6351 167.39 56.6448 167.147 56.6448ZM166.534 49.9597C166.31 49.9597 166.14 49.9305 166.023 49.8721C165.916 49.804 165.862 49.6823 165.862 49.5072C165.862 49.332 165.916 49.2152 166.023 49.1569C166.13 49.0887 166.3 49.0547 166.534 49.0547C166.758 49.0547 166.918 49.0887 167.015 49.1569C167.122 49.2152 167.176 49.332 167.176 49.5072C167.176 49.6823 167.122 49.804 167.015 49.8721C166.918 49.9305 166.758 49.9597 166.534 49.9597Z" fill="black"/>
<path d="M168.711 31.7891C177.717 31.9035 182.799 37.2111 184.214 39.8505C179.291 36.7213 174.117 36.1935 172.145 36.3207C171.497 33.802 169.585 32.2502 168.711 31.7891Z" fill="#FFCF17"/>
<path d="M1.2407 21.7422C-0.635042 26.5354 0.024991 36.6776 0.589475 41.1495C1.72399 34.2112 6.11328 30.7692 8.16611 29.9155C7.62267 28.5181 6.16434 27.7602 4.95041 26.8801C1.46068 24.3503 0.978616 22.4483 1.2407 21.7422Z" fill="#FFCF17"/>
<path d="M65.4937 16.2253C48.1308 19.754 37.6748 24.9821 34.6172 27.155C54.5876 19.8111 72.9691 18.422 79.6636 18.6454L80.6004 29.38L83.0986 14.4297C76.1973 14.6171 68.4864 15.7048 65.4937 16.2253Z" fill="black"/>
<path d="M125.464 28.6244C110.422 15.9198 94.5762 14.1419 88.5337 14.8411C103.096 17.6577 111.93 23.4556 114.527 26.0025L86.5859 28.6244H125.464Z" fill="black"/>
<path d="M8.84488 27.3854C6.081 26.7622 3.13426 21.9548 1.99219 19.6258C13.7268 21.6606 34.1096 16.5729 42.8342 13.7747C57.5678 8.99163 76.5618 7.37024 86.1115 7.07868C87.4393 7.03814 88.5928 6.15579 88.9577 4.8785L89.3712 3.43152C89.8907 1.61308 91.5528 0.359375 93.444 0.359375C95.3184 0.359375 96.97 1.59137 97.5042 3.3881L98.3855 6.35257C98.7196 7.47652 99.6802 8.29795 100.837 8.4915C114.524 10.7823 125.68 16.3597 131.573 20.1737C133.465 21.398 135.647 22.1595 137.9 22.2127C161.001 22.758 176.797 29.3938 181.981 32.8018C159.928 27.3018 142.602 27.784 136.695 28.7126C135.573 28.796 134.535 28.6968 133.592 28.4776C129.041 27.4195 125.905 23.2681 121.731 21.1673C120.127 20.3597 118.6 19.653 117.588 19.2091C112.275 16.7122 106.977 14.9762 101.925 13.8075C81.5047 9.08327 60.3184 14.7884 40.0767 20.2392L39.9842 20.2641L15.7648 27.0495C12.3314 27.9785 10.8311 27.8333 8.84488 27.3854Z" fill="#FFCF17"/>
</svg>
