<svg width="58" height="55" viewBox="0 0 58 55" fill="none" xmlns="http://www.w3.org/2000/svg">
<g filter="url(#filter0_d_77_518)">
<path d="M37.6439 18.683C37.6439 19.7928 37.6439 20.9025 37.6439 22.0123C37.6439 23.5026 36.6852 24.4678 35.2008 24.5695C33.3992 24.6929 31.5966 24.7709 29.7918 24.8012C28.452 24.824 27.1138 24.7666 25.7756 24.7119C24.7422 24.6697 23.7099 24.6112 22.677 24.5549C21.3524 24.4824 20.3769 23.4484 20.3758 22.1178C20.3747 19.8036 20.3752 17.4894 20.3752 15.1757C20.3752 15.1487 20.3747 15.1216 20.3752 15.0945C20.3801 14.8818 20.4028 14.8655 20.5977 14.9657C21.3859 15.3706 22.1741 15.7755 22.9596 16.1859C24.5657 17.026 26.1659 17.8786 27.7775 18.709C28.603 19.1345 29.4513 19.1188 30.273 18.6939C31.9073 17.8488 33.5324 16.9859 35.1629 16.1333C35.9121 15.7414 36.6646 15.3554 37.4165 14.9684C37.62 14.8639 37.6428 14.8785 37.6433 15.1102C37.6444 16.3012 37.6439 17.4921 37.6439 18.683Z" fill="url(#paint0_linear_77_518)"/>
<path d="M28.6873 10.8921C30.1289 10.878 31.5672 10.9663 33.0061 11.0248C33.7488 11.0545 34.491 11.1043 35.2337 11.139C36.3207 11.1904 37.2437 11.8784 37.4981 12.8339C37.5961 13.2025 37.4851 13.4494 37.1446 13.6156C34.6014 14.8531 32.1297 16.2281 29.6217 17.5338C29.1566 17.7758 28.7214 17.7963 28.2521 17.5511C25.7094 16.2232 23.1619 14.905 20.6165 13.5831C20.2712 13.4039 20.2278 13.3032 20.3291 12.9367C20.6079 11.9228 21.4773 11.2272 22.568 11.1401C24.6046 10.9766 26.6448 10.904 28.6873 10.8921Z" fill="url(#paint1_linear_77_518)"/>
</g>
<defs>
<filter id="filter0_d_77_518" x="0.28125" y="0.890625" width="57.3633" height="53.916" filterUnits="userSpaceOnUse" color-interpolation-filters="sRGB">
<feFlood flood-opacity="0" result="BackgroundImageFix"/>
<feColorMatrix in="SourceAlpha" type="matrix" values="0 0 0 0 0 0 0 0 0 0 0 0 0 0 0 0 0 0 127 0" result="hardAlpha"/>
<feOffset dy="10"/>
<feGaussianBlur stdDeviation="10"/>
<feComposite in2="hardAlpha" operator="out"/>
<feColorMatrix type="matrix" values="0 0 0 0 1 0 0 0 0 0.811765 0 0 0 0 0.0901961 0 0 0 0.12 0"/>
<feBlend mode="normal" in2="BackgroundImageFix" result="effect1_dropShadow_77_518"/>
<feBlend mode="normal" in="SourceGraphic" in2="effect1_dropShadow_77_518" result="shape"/>
</filter>
<linearGradient id="paint0_linear_77_518" x1="20.8448" y1="15.1688" x2="28.3203" y2="29.3353" gradientUnits="userSpaceOnUse">
<stop stop-color="#FFCF17"/>
<stop offset="1" stop-color="#FFEDA8"/>
</linearGradient>
<linearGradient id="paint1_linear_77_518" x1="20.7505" y1="11.0719" x2="24.7751" y2="22.1077" gradientUnits="userSpaceOnUse">
<stop stop-color="#FFCF17"/>
<stop offset="1" stop-color="#FFEDA8"/>
</linearGradient>
</defs>
</svg>
