<svg width="36" height="44" viewBox="0 0 36 44" fill="#FFCF17" xmlns="http://www.w3.org/2000/svg">
<path d="M35.8332 17.7513C35.6565 23.7077 33.2522 28.5199 28.4034 32.0526C25.5702 34.1169 23.2391 36.6272 21.4514 39.6444C20.9786 40.4438 20.5058 41.2431 20.0196 42.034C19.1215 43.4963 17.3423 43.5012 16.454 42.034C15.4219 40.3268 14.4043 38.6134 13.1468 37.0549C11.5602 35.0893 9.75179 33.3577 7.74112 31.832C3.78438 28.8306 1.44957 24.8556 0.780565 19.9435C-0.477014 10.6957 6.03023 1.91577 15.2269 0.385229C24.5174 -1.16115 33.2595 4.65393 35.392 13.8031C35.693 15.096 35.8673 16.4072 35.8332 17.7513ZM18.2344 25.4564C22.4775 25.4674 25.9431 22.0456 25.9846 17.8475C26.0235 13.8128 22.9235 9.99499 18.2404 9.98889C13.6537 9.9828 10.5195 13.6751 10.4963 17.6587C10.4695 21.9993 13.8974 25.4442 18.2344 25.4564Z" fill="#FFCF17"/>
</svg>
