<svg width="158" height="157" viewBox="0 0 158 157" fill="none" xmlns="http://www.w3.org/2000/svg">
<g filter="url(#filter0_d_77_432)">
<circle cx="49.1914" cy="48.668" r="28.2695" fill="#FFCF17"/>
</g>
<path d="M41.6229 50.5157C32.9299 50.5157 23.8703 50.5157 15.1304 50.515C14.11 50.5149 13.2827 49.6879 13.2822 48.6674C13.2817 47.6462 14.1092 46.818 15.1304 46.8179C23.9027 46.8172 32.9971 46.8172 41.7205 46.8172H42.1604L42.2478 46.6762C42.1237 46.5897 41.9837 46.5201 41.8784 46.4149C39.2602 43.8014 37.7382 42.2762 35.474 40.0186C34.7138 39.2606 34.7649 38.0135 35.5858 37.3216C36.3131 36.7085 37.3894 36.7555 38.0614 37.4287C42.0406 41.4152 44.7769 44.1514 49.0312 48.3962C49.2379 48.6021 49.2398 48.728 49.0321 48.9348C44.7863 53.172 42.0516 55.906 38.0838 59.8808C37.4029 60.5629 36.3092 60.6003 35.584 59.9657C34.7877 59.269 34.7471 58.0437 35.4953 57.2955L35.644 57.1469C37.8308 54.9601 39.3396 53.4515 41.8991 50.8889C41.9987 50.7892 42.1425 50.7122 42.1679 50.5157H41.6876H41.6229Z" fill="black"/>
<defs>
<filter id="filter0_d_77_432" x="0.921875" y="0.398438" width="156.539" height="156.539" filterUnits="userSpaceOnUse" color-interpolation-filters="sRGB">
<feFlood flood-opacity="0" result="BackgroundImageFix"/>
<feColorMatrix in="SourceAlpha" type="matrix" values="0 0 0 0 0 0 0 0 0 0 0 0 0 0 0 0 0 0 127 0" result="hardAlpha"/>
<feOffset dx="30" dy="30"/>
<feGaussianBlur stdDeviation="25"/>
<feComposite in2="hardAlpha" operator="out"/>
<feColorMatrix type="matrix" values="0 0 0 0 1 0 0 0 0 0.811765 0 0 0 0 0.0901961 0 0 0 0.07 0"/>
<feBlend mode="normal" in2="BackgroundImageFix" result="effect1_dropShadow_77_432"/>
<feBlend mode="normal" in="SourceGraphic" in2="effect1_dropShadow_77_432" result="shape"/>
</filter>
</defs>
</svg>
