<svg width="18" height="18" viewBox="0 0 18 18" fill="none" xmlns="http://www.w3.org/2000/svg">
<path d="M10.6911 0.171875C11.1248 0.237095 11.5591 0.296264 11.9834 0.417292C13.5211 0.857025 14.7879 1.71229 15.818 2.92391C16.7277 3.99365 17.3261 5.2167 17.5547 6.60919C17.6488 7.1834 17.671 7.76299 17.6347 8.34325C17.6112 8.72852 17.3624 8.9578 16.9913 8.97326C16.606 8.9894 16.3276 8.78433 16.2678 8.40712C16.2046 8.01311 16.2026 7.6117 16.132 7.21702C15.9195 6.02759 15.5712 4.89396 14.8262 3.91768C14.2406 3.1505 13.4788 2.61058 12.5946 2.2401C11.7259 1.87635 10.8202 1.65648 9.88358 1.56235C9.84458 1.55831 9.80559 1.5489 9.76726 1.54218C9.39745 1.47695 9.19574 1.30348 9.16347 1.0231C9.11909 0.641193 9.28046 0.349382 9.61665 0.202132C9.63749 0.193391 9.65699 0.181961 9.67716 0.171875C10.0147 0.171875 10.3529 0.171875 10.6911 0.171875Z" fill="url(#paint0_linear_77_513)"/>
<path d="M7.39275 5.41444C7.38871 5.95234 7.10497 6.33425 6.69886 6.64691C6.5738 6.74306 6.44537 6.8345 6.31964 6.93065C5.9384 7.22246 5.80594 7.60975 5.92226 8.06831C6.08296 8.70101 6.42117 9.24967 6.79837 9.77211C7.5595 10.8257 8.56671 11.5768 9.73396 12.1254C9.85095 12.1806 9.97265 12.2283 10.097 12.2633C10.4682 12.3675 10.7876 12.2888 11.0357 11.9795C11.2011 11.7731 11.3463 11.5505 11.5393 11.3663C12.1162 10.8163 12.8208 10.6926 13.5517 11.0066C13.939 11.1727 14.2785 11.4127 14.6201 11.6514C15.2589 12.0965 15.8862 12.5564 16.4786 13.0607C16.8383 13.3673 17.1133 13.7337 17.1455 14.232C17.1657 14.5426 17.0965 14.8391 16.968 15.1175C16.4268 16.2901 15.5298 17.0566 14.2947 17.4284C13.7413 17.5952 13.2196 17.4506 12.718 17.2335C10.5469 16.2955 8.54117 15.0892 6.74727 13.5388C4.83167 11.8827 3.29193 9.92944 2.09443 7.70321C1.66411 6.90375 1.26203 6.08951 0.960809 5.23223C0.656223 4.36016 0.658912 3.49414 1.11949 2.66645C1.51283 1.95911 2.13478 1.52005 2.86766 1.21748C3.32152 1.02989 3.77941 0.938443 4.26486 1.09645C4.55465 1.19058 4.78057 1.3775 4.98766 1.58258C5.8752 2.46137 6.60741 3.45716 7.17019 4.57398C7.34568 4.92092 7.39544 5.13743 7.39275 5.41444Z" fill="url(#paint1_linear_77_513)"/>
<path d="M15.3743 7.45167C15.3743 7.61371 15.377 7.7381 15.3736 7.86182C15.3642 8.24844 15.139 8.49789 14.7725 8.53083C14.3449 8.56916 14.0739 8.37888 14.0053 7.97478C13.9522 7.66414 13.9354 7.3488 13.8668 7.04018C13.7418 6.47673 13.5817 5.92807 13.2691 5.43387C12.8731 4.80722 12.2841 4.44212 11.6076 4.19401C11.1417 4.02323 10.6643 3.89413 10.1715 3.82085C9.86821 3.7758 9.58111 3.68166 9.46815 3.34951C9.28526 2.81363 9.66515 2.3154 10.2441 2.36246C11.4698 2.46198 12.5866 2.85263 13.536 3.66082C14.4209 4.41455 15.026 5.34109 15.2802 6.48345C15.3534 6.81426 15.3911 7.15045 15.3743 7.45167Z" fill="url(#paint2_linear_77_513)"/>
<path d="M10.618 4.65786C11.17 4.64777 11.638 4.87033 12.0549 5.20786C12.6513 5.69063 13.0782 6.28635 13.1952 7.06429C13.2329 7.31576 13.2302 7.56992 13.1468 7.81668C13.0533 8.09235 12.857 8.2396 12.5719 8.26784C12.2862 8.29608 12.0683 8.18178 11.919 7.93569C11.8229 7.77701 11.798 7.59748 11.7725 7.4193C11.6669 6.68709 11.2816 6.26618 10.5608 6.10078C10.462 6.07792 10.3625 6.05909 10.2643 6.03488C9.8683 5.93873 9.65852 5.70206 9.68138 5.37932C9.70962 4.97589 9.99739 4.6861 10.3988 4.65853C10.4714 4.65383 10.5447 4.65786 10.618 4.65786Z" fill="url(#paint3_linear_77_513)"/>
<defs>
<linearGradient id="paint0_linear_77_513" x1="9.38734" y1="0.405305" x2="17.4298" y2="8.83764" gradientUnits="userSpaceOnUse">
<stop stop-color="#FFCF17"/>
<stop offset="1" stop-color="#FFEDA8"/>
</linearGradient>
<linearGradient id="paint1_linear_77_513" x1="1.1961" y1="1.4528" x2="16.2299" y2="17.7001" gradientUnits="userSpaceOnUse">
<stop stop-color="#FFCF17"/>
<stop offset="1" stop-color="#FFEDA8"/>
</linearGradient>
<linearGradient id="paint2_linear_77_513" x1="9.58391" y1="2.52317" x2="15.2272" y2="8.43581" gradientUnits="userSpaceOnUse">
<stop stop-color="#FFCF17"/>
<stop offset="1" stop-color="#FFEDA8"/>
</linearGradient>
<linearGradient id="paint3_linear_77_513" x1="9.77595" y1="4.75214" x2="13.0771" y2="8.26214" gradientUnits="userSpaceOnUse">
<stop stop-color="#FFCF17"/>
<stop offset="1" stop-color="#FFEDA8"/>
</linearGradient>
</defs>
</svg>
