<svg width="16" height="19" viewBox="0 0 16 19" fill="none" xmlns="http://www.w3.org/2000/svg">
<path d="M15.5248 7.72003C15.449 10.2751 14.4177 12.3393 12.3377 13.8547C11.1224 14.7402 10.1224 15.817 9.3556 17.1113C9.15278 17.4542 8.94996 17.7971 8.7414 18.1364C8.35615 18.7636 7.59297 18.7657 7.2119 18.1364C6.76915 17.404 6.33268 16.6691 5.79322 16.0005C5.11264 15.1574 4.33691 14.4146 3.47441 13.7601C1.77712 12.4726 0.775583 10.7675 0.488606 8.66041C-0.0508463 4.69344 2.74051 0.927207 6.68552 0.270664C10.6708 -0.392675 14.4208 2.10177 15.3356 6.02639C15.4647 6.58101 15.5394 7.14346 15.5248 7.72003ZM7.9756 11.0252C9.79573 11.0299 11.2824 9.56211 11.3001 7.76132C11.3169 6.03058 9.98705 4.39288 7.97822 4.39026C6.01068 4.38765 4.66623 5.97151 4.6563 7.6803C4.6448 9.54225 6.11522 11.02 7.9756 11.0252Z" fill="url(#paint0_linear_77_531)"/>
<defs>
<linearGradient id="paint0_linear_77_531" x1="0.832771" y1="0.653172" x2="17.5886" y2="15.5615" gradientUnits="userSpaceOnUse">
<stop stop-color="#FFCF17"/>
<stop offset="1" stop-color="#FFEDA8"/>
</linearGradient>
</defs>
</svg>
