<svg width="16" height="16" viewBox="0 0 16 16" fill="none" xmlns="http://www.w3.org/2000/svg">
<path d="M14.0137 4.49678C14.0051 4.48801 13.9911 4.48818 13.9824 4.49688C13.4676 5.01177 12.9555 5.52867 12.436 6.03894C12.3318 6.14105 12.2927 6.24279 12.3065 6.38829C12.5353 8.72235 12.7551 11.0575 12.9885 13.3912C13.0323 13.8298 12.9483 14.1955 12.5979 14.4897C12.4012 14.6552 12.2322 14.8526 12.0479 15.0333C11.6808 15.3941 11.1792 15.288 10.9881 14.8003C10.7569 14.2091 10.5392 13.6128 10.3154 13.0184C9.88603 11.8768 9.45736 10.7352 9.0269 9.59394C8.93583 9.35203 8.928 9.35061 8.75262 9.52457C7.98918 10.2816 7.20903 11.0212 6.41998 11.7512C6.34598 11.8195 6.33069 11.8917 6.34029 11.986C6.40397 12.6238 6.45484 13.2638 6.52777 13.901C6.5758 14.3197 6.4737 14.6687 6.15423 14.954C5.99023 15.1002 5.84224 15.2646 5.68571 15.419C5.32072 15.7783 4.8369 15.7228 4.5772 15.2752C4.13892 14.5196 3.71238 13.7573 3.28833 12.9938C3.20864 12.8501 3.10725 12.7501 2.96388 12.6701C2.21681 12.2546 1.47828 11.8241 0.729785 11.4122C0.226757 11.1354 0.173039 10.573 0.57041 10.2467C0.730141 10.1155 0.867104 9.95716 1.0126 9.80881C1.29471 9.52101 1.63908 9.39294 2.03752 9.4278C2.64513 9.48045 3.2524 9.53915 3.85859 9.60603C4.01868 9.62382 4.13145 9.58718 4.23889 9.46551C4.94291 8.66899 5.73374 7.95572 6.44595 7.16667C6.58184 7.01583 6.58291 7.0112 6.3876 6.93757C4.66294 6.29153 2.94076 5.63802 1.21253 5.00123C0.671798 4.80201 0.559381 4.21787 0.968847 3.87101C1.19332 3.68069 1.39219 3.45906 1.59817 3.24668C1.8198 3.01793 2.08981 2.92579 2.4018 2.95603C4.77393 3.18584 7.1457 3.4153 9.51712 3.65223C9.70425 3.67073 9.83267 3.62768 9.9643 3.49108C10.6541 2.77638 11.3172 2.03571 12.0369 1.35018C12.4951 0.913325 12.9988 0.539789 13.5872 0.297169C14.0988 0.0858538 14.6203 0.00403024 15.134 0.287918C15.6645 0.580699 15.9284 1.1627 15.8331 1.79736C15.7495 2.3541 15.4816 2.82761 15.1586 3.27514C14.9932 3.50459 14.8199 3.72765 14.6171 3.92687C14.4252 4.11538 14.2362 4.30691 14.0461 4.49722C14.0372 4.50613 14.0225 4.50576 14.0137 4.49678Z" fill="url(#paint0_linear_77_540)"/>
<defs>
<linearGradient id="paint0_linear_77_540" x1="-2.30888" y1="7.73511" x2="20.0538" y2="10.2437" gradientUnits="userSpaceOnUse">
<stop stop-color="#FFCF17"/>
<stop offset="1" stop-color="#FFEDA8"/>
</linearGradient>
</defs>
</svg>
