<svg width="161" height="166" viewBox="0 0 161 166" fill="none" xmlns="http://www.w3.org/2000/svg">
<ellipse cx="59.8815" cy="64.9009" rx="52.0954" ry="38.0739" transform="rotate(12.3752 59.8815 64.9009)" fill="#FFCF17" fill-opacity="0.1"/>
<ellipse cx="59.8801" cy="64.8976" rx="52.0954" ry="38.0739" transform="rotate(-60 59.8801 64.8976)" fill="#FFCF17" fill-opacity="0.1"/>
<g filter="url(#filter0_d_77_297)">
<path fill-rule="evenodd" clip-rule="evenodd" d="M39.5159 71.0095C39.3503 71.6117 39.2975 72.2377 39.2974 72.8622C39.2973 73.2053 39.2972 73.5483 39.2969 73.8914C39.2968 73.9902 39.3144 74.0869 39.3321 74.184C39.3382 74.2173 39.3443 74.2507 39.3497 74.2842C39.63 76.0319 40.405 77.525 41.6564 78.7739C41.8417 78.9588 42.027 79.1437 42.2123 79.3285C43.8173 80.9297 45.422 82.5306 47.0183 84.1399C47.2464 84.3696 47.391 84.3929 47.6311 84.1503C48.3854 83.3888 49.1448 82.6324 49.9042 81.8761C50.9933 80.7913 52.0824 79.7066 53.1561 78.6069C56.2073 75.4817 56.1374 70.3752 53.0308 67.3136C49.2567 63.5941 43.0193 64.4197 40.3384 68.9898C39.9636 69.6293 39.7087 70.3085 39.5159 71.0095ZM47.3457 75.9648C49.0684 75.9648 50.4648 74.5684 50.4648 72.8457C50.4648 71.123 49.0684 69.7266 47.3457 69.7266C45.623 69.7266 44.2266 71.123 44.2266 72.8457C44.2266 74.5684 45.623 75.9648 47.3457 75.9648Z" fill="#FFCF17"/>
<path d="M62.5471 85.4466C58.492 85.4466 54.4368 85.4466 50.3824 85.4466C50.2756 85.4466 50.168 85.4515 50.0611 85.4442C49.9728 85.4386 49.8555 85.4788 49.8089 85.376C49.7608 85.2699 49.8684 85.2097 49.9294 85.1471C50.2298 84.8419 50.5768 84.572 50.829 84.2315C51.5558 83.2476 52.4923 83.0163 53.7011 83.0275C60.3649 83.0893 67.0304 83.0556 73.6951 83.0588C74.9544 83.0596 76.0837 82.7335 76.9423 81.7625C77.9944 80.5738 78.2442 79.1908 77.7061 77.7218C77.1816 76.2889 76.1086 75.4529 74.5818 75.2248C74.2621 75.1774 73.9441 75.1637 73.622 75.1637C70.4768 75.1653 67.3324 75.1661 64.1872 75.1637C60.8822 75.1613 58.1779 72.8546 57.7804 69.5785C57.2808 65.4631 60.5489 62.4416 63.9246 62.4199C65.049 62.4127 66.1726 62.4231 67.2971 62.4103C67.5709 62.407 67.7782 62.4809 67.9725 62.6801C68.5685 63.2945 69.1829 63.8921 69.7853 64.5009C69.8728 64.59 70.0471 64.672 69.978 64.8141C69.9138 64.945 69.7355 64.8808 69.6078 64.8808C67.828 64.8848 66.0481 64.872 64.2683 64.8872C62.7857 64.8993 61.5962 65.4936 60.797 66.769C59.2951 69.1665 60.899 72.3775 63.7149 72.6442C64.3575 72.7052 64.9976 72.6916 65.6393 72.6932C68.5034 72.6988 71.3675 72.6819 74.2308 72.7028C77.6386 72.7277 80.3887 75.5669 80.4609 78.9844C80.5228 81.8822 78.5382 84.7133 75.4307 85.392C75.1914 85.4442 74.9528 85.445 74.7127 85.445C70.6575 85.4466 66.6023 85.4466 62.5471 85.4466Z" fill="#FFCF17"/>
<path fill-rule="evenodd" clip-rule="evenodd" d="M80.4199 51.5874C80.0231 47.4447 76.5526 44.3469 72.3834 44.3477C70.0325 44.3477 67.9957 45.2528 66.3773 47.0158C63.5775 50.0662 63.6257 54.9535 66.5179 57.9203C67.643 59.0749 68.7855 60.2123 69.928 61.3497C70.6532 62.0717 71.3784 62.7937 72.0991 63.52C72.3232 63.7465 72.4637 63.7353 72.6822 63.5152C73.3757 62.8163 74.0738 62.1217 74.772 61.4272C75.9327 60.2725 77.0934 59.1179 78.2328 57.9428C79.9436 56.1783 80.6528 54.0162 80.4199 51.5874ZM72.3848 55.2852C74.1074 55.2852 75.5039 53.8887 75.5039 52.166C75.5039 50.4434 74.1074 49.0469 72.3848 49.0469C70.6621 49.0469 69.2656 50.4434 69.2656 52.166C69.2656 53.8887 70.6621 55.2852 72.3848 55.2852Z" fill="#FFCF17"/>
</g>
<defs>
<filter id="filter0_d_77_297" x="19.2969" y="24.3477" width="141.166" height="141.101" filterUnits="userSpaceOnUse" color-interpolation-filters="sRGB">
<feFlood flood-opacity="0" result="BackgroundImageFix"/>
<feColorMatrix in="SourceAlpha" type="matrix" values="0 0 0 0 0 0 0 0 0 0 0 0 0 0 0 0 0 0 127 0" result="hardAlpha"/>
<feOffset dx="30" dy="30"/>
<feGaussianBlur stdDeviation="25"/>
<feComposite in2="hardAlpha" operator="out"/>
<feColorMatrix type="matrix" values="0 0 0 0 1 0 0 0 0 0.811765 0 0 0 0 0.0901961 0 0 0 0.07 0"/>
<feBlend mode="normal" in2="BackgroundImageFix" result="effect1_dropShadow_77_297"/>
<feBlend mode="normal" in="SourceGraphic" in2="effect1_dropShadow_77_297" result="shape"/>
</filter>
</defs>
</svg>
