<svg width="1364" height="209" viewBox="0 0 1364 209" fill="none" xmlns="http://www.w3.org/2000/svg">
<path d="M1.96777 159.81H5.89355C6.04004 160.904 6.49902 161.763 7.27051 162.388C8.04199 163.003 9.0625 163.311 10.332 163.311C11.4648 163.311 12.3389 163.072 12.9541 162.593C13.5693 162.105 13.877 161.475 13.877 160.704C13.877 160.088 13.6475 159.556 13.1885 159.107C12.7295 158.648 12.0996 158.321 11.2988 158.125L7.72461 157.217C5.83984 156.729 4.43848 156.001 3.52051 155.035C2.60254 154.058 2.14355 152.789 2.14355 151.226C2.14355 149.351 2.82715 147.837 4.19434 146.685C5.57129 145.533 7.30469 144.957 9.39453 144.957C11.543 144.957 13.335 145.577 14.7705 146.817C16.2158 148.047 17.085 149.668 17.3779 151.68H13.4229C13.1885 150.616 12.7295 149.791 12.0459 149.205C11.3623 148.609 10.4688 148.311 9.36523 148.311C8.42773 148.311 7.65625 148.545 7.05078 149.014C6.45508 149.473 6.15723 150.108 6.15723 150.918C6.15723 152.168 7.0166 153.018 8.73535 153.467L12.2803 154.405C14.2432 154.922 15.6689 155.655 16.5576 156.602C17.4463 157.54 17.8906 158.794 17.8906 160.367C17.8906 162.183 17.1924 163.692 15.7959 164.893C14.3994 166.084 12.5684 166.68 10.3027 166.68C8.00781 166.68 6.08398 166.045 4.53125 164.776C2.98828 163.506 2.13379 161.851 1.96777 159.81ZM20.2197 160.674V150.801H24.1455V159.898C24.1455 160.865 24.4434 161.661 25.0391 162.286C25.6348 162.911 26.4111 163.223 27.3682 163.223C28.3252 163.223 29.1016 162.916 29.6973 162.3C30.3027 161.685 30.6055 160.884 30.6055 159.898V150.801H34.5312V166.314H30.6055V164.937C29.4727 166.099 28.0518 166.68 26.3428 166.68C24.5557 166.68 23.0859 166.104 21.9336 164.952C20.791 163.799 20.2197 162.374 20.2197 160.674ZM45.8838 154.258H44.4775C43.5205 154.258 42.7295 154.59 42.1045 155.254C41.4795 155.918 41.167 156.827 41.167 157.979V166.314H37.2412V150.801H41.1377V152.486C41.9678 151.265 43.1982 150.655 44.8291 150.655H45.8838V154.258ZM63.5791 150.801V166.915C63.5791 168.624 63.0469 170 61.9824 171.045C60.918 172.09 59.502 172.613 57.7344 172.613H53.3838V169.317H56.8408C57.7686 169.317 58.4668 169.083 58.9355 168.614C59.4141 168.155 59.6533 167.486 59.6533 166.607V164.717C58.208 165.879 56.5869 166.46 54.79 166.46C53.3057 166.46 51.9385 166.104 50.6885 165.391C49.4385 164.678 48.4473 163.707 47.7148 162.476C46.9922 161.236 46.6309 159.883 46.6309 158.418C46.6309 156.954 46.9922 155.606 47.7148 154.375C48.4473 153.145 49.4385 152.173 50.6885 151.46C51.9482 150.748 53.3154 150.391 54.79 150.391C56.6357 150.391 58.2666 150.977 59.6826 152.149V150.801H63.5791ZM50.542 158.418C50.542 159.698 50.9863 160.787 51.875 161.685C52.7734 162.574 53.8574 163.018 55.127 163.018C56.416 163.018 57.5 162.574 58.3789 161.685C59.2676 160.787 59.7119 159.698 59.7119 158.418C59.7119 157.129 59.2676 156.041 58.3789 155.152C57.4902 154.253 56.4062 153.804 55.127 153.804C53.8672 153.804 52.7881 154.258 51.8896 155.167C50.9912 156.065 50.542 157.149 50.542 158.418ZM65.7324 158.55C65.7324 157.125 66.0791 155.792 66.7725 154.551C67.4658 153.311 68.4326 152.32 69.6729 151.578C70.9131 150.826 72.2803 150.45 73.7744 150.45C76.0986 150.45 78.0029 151.226 79.4873 152.779C80.9814 154.332 81.7285 156.314 81.7285 158.726V159.869H69.7607C70.0244 160.894 70.5518 161.729 71.3428 162.374C72.1338 163.018 73.0566 163.34 74.1113 163.34C74.9609 163.34 75.7129 163.184 76.3672 162.872C77.0215 162.549 77.627 162.027 78.1836 161.304L80.9229 163.34C80.1318 164.415 79.1602 165.245 78.0078 165.831C76.8555 166.417 75.5664 166.709 74.1406 166.709C72.5781 166.709 71.1523 166.363 69.8633 165.669C68.584 164.976 67.5732 164.004 66.8311 162.754C66.0986 161.504 65.7324 160.103 65.7324 158.55ZM73.6865 153.804C72.7686 153.804 71.9629 154.078 71.2695 154.625C70.5762 155.171 70.0928 155.918 69.8193 156.866H77.7734C77.4902 155.918 76.9775 155.171 76.2354 154.625C75.4932 154.078 74.6436 153.804 73.6865 153.804ZM83.457 158.99V155.694H94.3262V158.99H83.457ZM100.801 166.314H96.7432V145.308H109.985V148.853H100.801V154.068H109.678V157.525H100.801V166.314ZM121.06 154.258H119.653C118.696 154.258 117.905 154.59 117.28 155.254C116.655 155.918 116.343 156.827 116.343 157.979V166.314H112.417V150.801H116.313V152.486C117.144 151.265 118.374 150.655 120.005 150.655H121.06V154.258ZM121.807 158.55C121.807 157.125 122.153 155.792 122.847 154.551C123.54 153.311 124.507 152.32 125.747 151.578C126.987 150.826 128.354 150.45 129.849 150.45C132.173 150.45 134.077 151.226 135.562 152.779C137.056 154.332 137.803 156.314 137.803 158.726V159.869H125.835C126.099 160.894 126.626 161.729 127.417 162.374C128.208 163.018 129.131 163.34 130.186 163.34C131.035 163.34 131.787 163.184 132.441 162.872C133.096 162.549 133.701 162.027 134.258 161.304L136.997 163.34C136.206 164.415 135.234 165.245 134.082 165.831C132.93 166.417 131.641 166.709 130.215 166.709C128.652 166.709 127.227 166.363 125.938 165.669C124.658 164.976 123.647 164.004 122.905 162.754C122.173 161.504 121.807 160.103 121.807 158.55ZM129.761 153.804C128.843 153.804 128.037 154.078 127.344 154.625C126.65 155.171 126.167 155.918 125.894 156.866H133.848C133.564 155.918 133.052 155.171 132.31 154.625C131.567 154.078 130.718 153.804 129.761 153.804ZM139.443 158.55C139.443 157.125 139.79 155.792 140.483 154.551C141.177 153.311 142.144 152.32 143.384 151.578C144.624 150.826 145.991 150.45 147.485 150.45C149.81 150.45 151.714 151.226 153.198 152.779C154.692 154.332 155.439 156.314 155.439 158.726V159.869H143.472C143.735 160.894 144.263 161.729 145.054 162.374C145.845 163.018 146.768 163.34 147.822 163.34C148.672 163.34 149.424 163.184 150.078 162.872C150.732 162.549 151.338 162.027 151.895 161.304L154.634 163.34C153.843 164.415 152.871 165.245 151.719 165.831C150.566 166.417 149.277 166.709 147.852 166.709C146.289 166.709 144.863 166.363 143.574 165.669C142.295 164.976 141.284 164.004 140.542 162.754C139.81 161.504 139.443 160.103 139.443 158.55ZM147.397 153.804C146.479 153.804 145.674 154.078 144.98 154.625C144.287 155.171 143.804 155.918 143.53 156.866H151.484C151.201 155.918 150.688 155.171 149.946 154.625C149.204 154.078 148.354 153.804 147.397 153.804ZM164.697 161.333C163.789 159.664 163.335 157.813 163.335 155.782C163.335 153.75 163.809 151.905 164.756 150.245C165.713 148.584 167.026 147.286 168.696 146.348C170.376 145.401 172.246 144.927 174.307 144.927C176.23 144.927 177.983 145.333 179.565 146.143C181.147 146.944 182.476 148.047 183.55 149.454L180.4 151.768C179.717 150.801 178.833 150.035 177.749 149.468C176.665 148.902 175.498 148.619 174.248 148.619C173.33 148.619 172.456 148.79 171.626 149.131C170.806 149.463 170.083 149.932 169.458 150.538C168.843 151.143 168.35 151.9 167.979 152.808C167.617 153.716 167.437 154.708 167.437 155.782C167.437 156.846 167.617 157.837 167.979 158.755C168.35 159.664 168.848 160.43 169.473 161.055C170.098 161.68 170.835 162.168 171.685 162.52C172.534 162.872 173.438 163.047 174.395 163.047C175.283 163.047 176.099 162.911 176.841 162.637C177.583 162.354 178.198 161.983 178.687 161.524C179.175 161.055 179.565 160.538 179.858 159.971C180.161 159.395 180.361 158.79 180.459 158.155H173.472V154.668H184.355V166.314H180.459V163.941C179.629 164.859 178.657 165.552 177.544 166.021C176.431 166.48 175.264 166.709 174.043 166.709C172.002 166.709 170.161 166.231 168.521 165.274C166.88 164.307 165.605 162.994 164.697 161.333ZM187.153 160.674V150.801H191.079V159.898C191.079 160.865 191.377 161.661 191.973 162.286C192.568 162.911 193.345 163.223 194.302 163.223C195.259 163.223 196.035 162.916 196.631 162.3C197.236 161.685 197.539 160.884 197.539 159.898V150.801H201.465V166.314H197.539V164.937C196.406 166.099 194.985 166.68 193.276 166.68C191.489 166.68 190.02 166.104 188.867 164.952C187.725 163.799 187.153 162.374 187.153 160.674ZM203.486 161.963C203.486 160.586 203.936 159.502 204.834 158.711C205.732 157.92 207.012 157.466 208.672 157.349L213.242 157.012V156.412C213.242 155.64 212.993 155.04 212.495 154.61C211.997 154.17 211.294 153.951 210.386 153.951C209.019 153.951 207.651 154.41 206.284 155.328L204.629 152.544C206.514 151.167 208.594 150.479 210.869 150.479C212.734 150.479 214.229 150.977 215.352 151.973C216.484 152.959 217.051 154.278 217.051 155.928V162.022C217.051 162.627 217.339 162.93 217.915 162.93H218.721V166.314H216.904C216.162 166.314 215.513 166.153 214.956 165.831C214.399 165.508 213.984 165.059 213.711 164.483C213.154 165.186 212.461 165.733 211.631 166.124C210.801 166.514 209.878 166.709 208.862 166.709C207.319 166.709 206.035 166.26 205.01 165.362C203.994 164.463 203.486 163.331 203.486 161.963ZM207.236 161.934C207.236 162.471 207.466 162.901 207.925 163.223C208.384 163.545 208.984 163.707 209.727 163.707C210.703 163.707 211.533 163.433 212.217 162.886C212.9 162.33 213.242 161.661 213.242 160.879V159.898L209.214 160.25C207.896 160.367 207.236 160.928 207.236 161.934ZM229.165 154.258H227.759C226.802 154.258 226.011 154.59 225.386 155.254C224.761 155.918 224.448 156.827 224.448 157.979V166.314H220.522V150.801H224.419V152.486C225.249 151.265 226.479 150.655 228.11 150.655H229.165V154.258ZM229.18 161.963C229.18 160.586 229.629 159.502 230.527 158.711C231.426 157.92 232.705 157.466 234.365 157.349L238.936 157.012V156.412C238.936 155.64 238.687 155.04 238.188 154.61C237.69 154.17 236.987 153.951 236.079 153.951C234.712 153.951 233.345 154.41 231.978 155.328L230.322 152.544C232.207 151.167 234.287 150.479 236.562 150.479C238.428 150.479 239.922 150.977 241.045 151.973C242.178 152.959 242.744 154.278 242.744 155.928V162.022C242.744 162.627 243.032 162.93 243.608 162.93H244.414V166.314H242.598C241.855 166.314 241.206 166.153 240.649 165.831C240.093 165.508 239.678 165.059 239.404 164.483C238.848 165.186 238.154 165.733 237.324 166.124C236.494 166.514 235.571 166.709 234.556 166.709C233.013 166.709 231.729 166.26 230.703 165.362C229.688 164.463 229.18 163.331 229.18 161.963ZM232.93 161.934C232.93 162.471 233.159 162.901 233.618 163.223C234.077 163.545 234.678 163.707 235.42 163.707C236.396 163.707 237.227 163.433 237.91 162.886C238.594 162.33 238.936 161.661 238.936 160.879V159.898L234.907 160.25C233.589 160.367 232.93 160.928 232.93 161.934ZM260.527 156.441V166.314H256.602V157.217C256.602 156.211 256.304 155.406 255.708 154.8C255.122 154.195 254.351 153.892 253.394 153.892C252.437 153.892 251.655 154.195 251.05 154.8C250.444 155.396 250.142 156.202 250.142 157.217V166.314H246.216V150.801H250.142V152.12C251.265 150.967 252.686 150.391 254.404 150.391C256.201 150.391 257.671 150.972 258.813 152.134C259.956 153.287 260.527 154.722 260.527 156.441ZM269.185 166.314C267.817 166.314 266.763 165.958 266.021 165.245C265.288 164.522 264.922 163.58 264.922 162.417V154.2H261.89V150.801H264.922V146.304H268.833V150.801H272.246V154.2H268.833V161.729C268.833 162.12 268.96 162.417 269.214 162.623C269.478 162.828 269.839 162.93 270.298 162.93H272.246V166.314H269.185ZM273.389 158.55C273.389 157.125 273.735 155.792 274.429 154.551C275.122 153.311 276.089 152.32 277.329 151.578C278.569 150.826 279.937 150.45 281.431 150.45C283.755 150.45 285.659 151.226 287.144 152.779C288.638 154.332 289.385 156.314 289.385 158.726V159.869H277.417C277.681 160.894 278.208 161.729 278.999 162.374C279.79 163.018 280.713 163.34 281.768 163.34C282.617 163.34 283.369 163.184 284.023 162.872C284.678 162.549 285.283 162.027 285.84 161.304L288.579 163.34C287.788 164.415 286.816 165.245 285.664 165.831C284.512 166.417 283.223 166.709 281.797 166.709C280.234 166.709 278.809 166.363 277.52 165.669C276.24 164.976 275.229 164.004 274.487 162.754C273.755 161.504 273.389 160.103 273.389 158.55ZM281.343 153.804C280.425 153.804 279.619 154.078 278.926 154.625C278.232 155.171 277.749 155.918 277.476 156.866H285.43C285.146 155.918 284.634 155.171 283.892 154.625C283.149 154.078 282.3 153.804 281.343 153.804ZM291.025 158.55C291.025 157.125 291.372 155.792 292.065 154.551C292.759 153.311 293.726 152.32 294.966 151.578C296.206 150.826 297.573 150.45 299.067 150.45C301.392 150.45 303.296 151.226 304.78 152.779C306.274 154.332 307.021 156.314 307.021 158.726V159.869H295.054C295.317 160.894 295.845 161.729 296.636 162.374C297.427 163.018 298.35 163.34 299.404 163.34C300.254 163.34 301.006 163.184 301.66 162.872C302.314 162.549 302.92 162.027 303.477 161.304L306.216 163.34C305.425 164.415 304.453 165.245 303.301 165.831C302.148 166.417 300.859 166.709 299.434 166.709C297.871 166.709 296.445 166.363 295.156 165.669C293.877 164.976 292.866 164.004 292.124 162.754C291.392 161.504 291.025 160.103 291.025 158.55ZM298.979 153.804C298.062 153.804 297.256 154.078 296.562 154.625C295.869 155.171 295.386 155.918 295.112 156.866H303.066C302.783 155.918 302.271 155.171 301.528 154.625C300.786 154.078 299.937 153.804 298.979 153.804Z" fill="black"/>
<ellipse cx="154.413" cy="64.1601" rx="52.0954" ry="38.0739" transform="rotate(12.3752 154.413 64.1601)" fill="white" fill-opacity="0.3"/>
<ellipse cx="154.411" cy="64.1569" rx="52.0954" ry="38.0739" transform="rotate(-60 154.411 64.1569)" fill="white" fill-opacity="0.3"/>
<path d="M153.424 40.0292C153.823 39.8353 154.273 39.7905 154.717 39.7905C155.147 39.7905 155.583 39.8317 155.97 40.019C156.465 40.2586 156.896 40.6006 157.305 40.9852C159.059 42.6361 161.054 43.9136 163.295 44.8026C165.516 45.684 167.836 46.1036 170.209 46.2512C172.437 46.3895 174.27 47.8194 174.944 49.9397C175.205 50.7628 175.211 51.6123 175.216 52.4523C175.233 55.1785 175.304 57.9046 175.165 60.6317C175.021 63.4557 174.692 66.2486 174.007 68.9926C172.909 73.3979 170.897 77.3131 167.714 80.5896C164.36 84.0419 160.261 86.2695 155.764 87.8339C154.984 88.1048 154.189 88.0408 153.411 87.7624C151.341 87.022 149.337 86.1359 147.432 85.0334C141.947 81.8586 138.114 77.3178 136.067 71.2945C134.783 67.5176 134.316 63.6034 134.195 59.6477C134.11 56.8924 134.152 54.1324 134.238 51.3733C134.322 48.6369 136.458 46.3848 139.298 46.2428C140.644 46.176 141.979 45.986 143.293 45.6802C146.697 44.8882 149.677 43.2993 152.214 40.8911C152.581 40.542 152.978 40.2457 153.424 40.0292ZM166.632 63.8715C166.631 57.2668 161.309 51.9462 154.706 51.9472C148.1 51.9481 142.781 57.2678 142.782 63.8733C142.783 70.4799 148.102 75.7976 154.708 75.7967C161.314 75.7967 166.632 70.478 166.632 63.8715Z" fill="black"/>
<path d="M154.698 73.1153C149.644 73.1069 145.469 68.9264 145.469 63.8749C145.469 58.8036 149.68 54.609 154.745 54.6344C159.805 54.6607 163.968 58.8487 163.95 63.8984C163.932 68.9565 159.749 73.1238 154.698 73.1153ZM160.508 61.255C160.5 60.541 160.082 60.0058 159.512 59.8553C158.911 59.6963 158.449 59.9333 158.036 60.3482C156.387 62.0029 154.735 63.6519 153.084 65.3029C152.588 65.7986 152.587 65.7977 152.106 65.3188C151.773 64.9868 151.443 64.6528 151.106 64.3245C150.89 64.1138 150.648 63.9473 150.338 63.9021C149.715 63.8118 149.177 64.0545 148.897 64.5597C148.602 65.0912 148.657 65.6744 149.121 66.1617C149.899 66.9782 150.701 67.7731 151.507 68.5624C152.2 69.2416 152.966 69.2538 153.66 68.5642C155.806 66.4326 157.936 64.285 160.07 62.1421C160.346 61.8646 160.505 61.5325 160.508 61.255Z" fill="black"/>
<path d="M547.76 166.314V145.308H556.051C557.789 145.308 559.259 145.85 560.46 146.934C561.661 148.008 562.262 149.327 562.262 150.889C562.262 151.729 562.047 152.515 561.617 153.248C561.197 153.98 560.621 154.595 559.889 155.093C561.021 155.552 561.93 156.25 562.613 157.188C563.297 158.116 563.639 159.166 563.639 160.337C563.639 161.998 563.019 163.409 561.778 164.571C560.548 165.733 559.039 166.314 557.252 166.314H547.76ZM555.655 148.707H551.817V153.863H555.655C556.397 153.863 557.003 153.614 557.472 153.116C557.94 152.618 558.175 152.007 558.175 151.285C558.175 150.542 557.94 149.927 557.472 149.439C557.013 148.951 556.407 148.707 555.655 148.707ZM556.549 162.93C557.428 162.93 558.141 162.662 558.688 162.125C559.244 161.578 559.522 160.884 559.522 160.044C559.522 159.214 559.244 158.521 558.688 157.964C558.131 157.408 557.418 157.129 556.549 157.129H551.817V162.93H556.549ZM582.403 158.58C582.403 159.683 582.179 160.738 581.729 161.744C581.28 162.75 580.675 163.619 579.913 164.351C579.151 165.083 578.243 165.665 577.188 166.094C576.144 166.524 575.04 166.739 573.878 166.739C572.345 166.739 570.924 166.377 569.615 165.655C568.307 164.922 567.267 163.931 566.495 162.681C565.733 161.421 565.353 160.054 565.353 158.58C565.353 157.105 565.733 155.743 566.495 154.493C567.267 153.233 568.307 152.242 569.615 151.519C570.924 150.787 572.345 150.42 573.878 150.42C575.421 150.42 576.847 150.782 578.155 151.504C579.464 152.227 580.499 153.218 581.261 154.478C582.022 155.728 582.403 157.095 582.403 158.58ZM577.145 161.905C578.043 160.997 578.492 159.888 578.492 158.58C578.492 157.271 578.043 156.163 577.145 155.254C576.256 154.346 575.167 153.892 573.878 153.892C572.599 153.892 571.51 154.351 570.611 155.269C569.713 156.177 569.264 157.281 569.264 158.58C569.264 159.878 569.713 160.982 570.611 161.89C571.51 162.798 572.599 163.252 573.878 163.252C575.167 163.252 576.256 162.803 577.145 161.905ZM601.065 158.58C601.065 159.683 600.841 160.738 600.392 161.744C599.942 162.75 599.337 163.619 598.575 164.351C597.813 165.083 596.905 165.665 595.851 166.094C594.806 166.524 593.702 166.739 592.54 166.739C591.007 166.739 589.586 166.377 588.277 165.655C586.969 164.922 585.929 163.931 585.157 162.681C584.396 161.421 584.015 160.054 584.015 158.58C584.015 157.105 584.396 155.743 585.157 154.493C585.929 153.233 586.969 152.242 588.277 151.519C589.586 150.787 591.007 150.42 592.54 150.42C594.083 150.42 595.509 150.782 596.817 151.504C598.126 152.227 599.161 153.218 599.923 154.478C600.685 155.728 601.065 157.095 601.065 158.58ZM595.807 161.905C596.705 160.997 597.154 159.888 597.154 158.58C597.154 157.271 596.705 156.163 595.807 155.254C594.918 154.346 593.829 153.892 592.54 153.892C591.261 153.892 590.172 154.351 589.273 155.269C588.375 156.177 587.926 157.281 587.926 158.58C587.926 159.878 588.375 160.982 589.273 161.89C590.172 162.798 591.261 163.252 592.54 163.252C593.829 163.252 594.918 162.803 595.807 161.905ZM603.219 145.308H607.145V157.496L612.55 150.801H617.047L610.777 158.272L617.501 166.314H612.696L607.145 159.385V166.314H603.219V145.308ZM628.722 166.314H624.664V145.308H637.906V148.853H628.722V154.068H637.599V157.525H628.722V166.314ZM656.524 158.58C656.524 159.683 656.3 160.738 655.851 161.744C655.401 162.75 654.796 163.619 654.034 164.351C653.272 165.083 652.364 165.665 651.31 166.094C650.265 166.524 649.161 166.739 647.999 166.739C646.466 166.739 645.045 166.377 643.736 165.655C642.428 164.922 641.388 163.931 640.616 162.681C639.854 161.421 639.474 160.054 639.474 158.58C639.474 157.105 639.854 155.743 640.616 154.493C641.388 153.233 642.428 152.242 643.736 151.519C645.045 150.787 646.466 150.42 647.999 150.42C649.542 150.42 650.968 150.782 652.276 151.504C653.585 152.227 654.62 153.218 655.382 154.478C656.144 155.728 656.524 157.095 656.524 158.58ZM651.266 161.905C652.164 160.997 652.613 159.888 652.613 158.58C652.613 157.271 652.164 156.163 651.266 155.254C650.377 154.346 649.288 153.892 647.999 153.892C646.72 153.892 645.631 154.351 644.732 155.269C643.834 156.177 643.385 157.281 643.385 158.58C643.385 159.878 643.834 160.982 644.732 161.89C645.631 162.798 646.72 163.252 647.999 163.252C649.288 163.252 650.377 162.803 651.266 161.905ZM667.32 154.258H665.914C664.957 154.258 664.166 154.59 663.541 155.254C662.916 155.918 662.604 156.827 662.604 157.979V166.314H658.678V150.801H662.574V152.486C663.404 151.265 664.635 150.655 666.266 150.655H667.32V154.258ZM679.127 166.314H675.377V145.308H679.83L690.436 160.762L690.406 145.308H694.156V166.314H689.718L679.098 150.86L679.127 166.314ZM713.507 158.58C713.507 159.683 713.282 160.738 712.833 161.744C712.384 162.75 711.778 163.619 711.017 164.351C710.255 165.083 709.347 165.665 708.292 166.094C707.247 166.524 706.144 166.739 704.981 166.739C703.448 166.739 702.027 166.377 700.719 165.655C699.41 164.922 698.37 163.931 697.599 162.681C696.837 161.421 696.456 160.054 696.456 158.58C696.456 157.105 696.837 155.743 697.599 154.493C698.37 153.233 699.41 152.242 700.719 151.519C702.027 150.787 703.448 150.42 704.981 150.42C706.524 150.42 707.95 150.782 709.259 151.504C710.567 152.227 711.603 153.218 712.364 154.478C713.126 155.728 713.507 157.095 713.507 158.58ZM708.248 161.905C709.146 160.997 709.596 159.888 709.596 158.58C709.596 157.271 709.146 156.163 708.248 155.254C707.359 154.346 706.271 153.892 704.981 153.892C703.702 153.892 702.613 154.351 701.715 155.269C700.816 156.177 700.367 157.281 700.367 158.58C700.367 159.878 700.816 160.982 701.715 161.89C702.613 162.798 703.702 163.252 704.981 163.252C706.271 163.252 707.359 162.803 708.248 161.905ZM724.244 150.801H727.423L730.792 160.586L733.517 150.801H737.545L732.828 166.314H729.254L725.782 156.207L722.296 166.314H718.736L714.02 150.801H718.165L720.89 160.586L724.244 150.801ZM744.605 155.811C744.605 153.819 745.094 151.993 746.07 150.333C747.057 148.663 748.409 147.344 750.128 146.377C751.847 145.411 753.736 144.927 755.797 144.927C757.34 144.927 758.8 145.215 760.177 145.792C761.554 146.358 762.735 147.125 763.722 148.091C764.718 149.058 765.504 150.215 766.08 151.563C766.656 152.901 766.944 154.317 766.944 155.811C766.944 157.305 766.656 158.726 766.08 160.074C765.504 161.412 764.718 162.569 763.722 163.545C762.735 164.512 761.554 165.284 760.177 165.86C758.8 166.426 757.34 166.709 755.797 166.709C754.254 166.709 752.789 166.426 751.402 165.86C750.016 165.284 748.824 164.512 747.828 163.545C746.842 162.569 746.056 161.412 745.47 160.074C744.894 158.726 744.605 157.305 744.605 155.811ZM748.736 155.811C748.736 157.842 749.42 159.546 750.787 160.923C752.154 162.3 753.824 162.989 755.797 162.989C757.77 162.989 759.43 162.3 760.777 160.923C762.135 159.546 762.813 157.842 762.813 155.811C762.813 153.79 762.135 152.09 760.777 150.713C759.42 149.336 757.76 148.648 755.797 148.648C753.824 148.648 752.154 149.341 750.787 150.728C749.42 152.105 748.736 153.799 748.736 155.811ZM778.004 154.258H776.598C775.641 154.258 774.85 154.59 774.225 155.254C773.6 155.918 773.287 156.827 773.287 157.979V166.314H769.361V150.801H773.258V152.486C774.088 151.265 775.318 150.655 776.949 150.655H778.004V154.258ZM642.081 197.769V201.314H628.839V180.308H632.896V197.769H642.081ZM643.385 196.963C643.385 195.586 643.834 194.502 644.732 193.711C645.631 192.92 646.91 192.466 648.57 192.349L653.141 192.012V191.412C653.141 190.64 652.892 190.04 652.394 189.61C651.896 189.17 651.192 188.951 650.284 188.951C648.917 188.951 647.55 189.41 646.183 190.328L644.527 187.544C646.412 186.167 648.492 185.479 650.768 185.479C652.633 185.479 654.127 185.977 655.25 186.973C656.383 187.959 656.949 189.278 656.949 190.928V197.022C656.949 197.627 657.237 197.93 657.813 197.93H658.619V201.314H656.803C656.061 201.314 655.411 201.153 654.854 200.831C654.298 200.508 653.883 200.059 653.609 199.483C653.053 200.186 652.359 200.733 651.529 201.124C650.699 201.514 649.776 201.709 648.761 201.709C647.218 201.709 645.934 201.26 644.908 200.362C643.893 199.463 643.385 198.331 643.385 196.963ZM647.135 196.934C647.135 197.471 647.364 197.901 647.823 198.223C648.282 198.545 648.883 198.707 649.625 198.707C650.602 198.707 651.432 198.433 652.115 197.886C652.799 197.33 653.141 196.661 653.141 195.879V194.898L649.112 195.25C647.794 195.367 647.135 195.928 647.135 196.934ZM665.899 201.314C664.532 201.314 663.478 200.958 662.735 200.245C662.003 199.522 661.637 198.58 661.637 197.417V189.2H658.604V185.801H661.637V181.304H665.548V185.801H668.961V189.2H665.548V196.729C665.548 197.12 665.675 197.417 665.929 197.623C666.192 197.828 666.554 197.93 667.013 197.93H668.961V201.314H665.899ZM670.104 193.55C670.104 192.125 670.45 190.792 671.144 189.551C671.837 188.311 672.804 187.32 674.044 186.578C675.284 185.826 676.651 185.45 678.146 185.45C680.47 185.45 682.374 186.226 683.858 187.779C685.353 189.332 686.1 191.314 686.1 193.726V194.869H674.132C674.396 195.894 674.923 196.729 675.714 197.374C676.505 198.018 677.428 198.34 678.482 198.34C679.332 198.34 680.084 198.184 680.738 197.872C681.393 197.549 681.998 197.027 682.555 196.304L685.294 198.34C684.503 199.415 683.531 200.245 682.379 200.831C681.227 201.417 679.938 201.709 678.512 201.709C676.949 201.709 675.523 201.363 674.234 200.669C672.955 199.976 671.944 199.004 671.202 197.754C670.47 196.504 670.104 195.103 670.104 193.55ZM678.058 188.804C677.14 188.804 676.334 189.078 675.641 189.625C674.947 190.171 674.464 190.918 674.19 191.866H682.145C681.861 190.918 681.349 190.171 680.606 189.625C679.864 189.078 679.015 188.804 678.058 188.804ZM696.925 189.258H695.519C694.562 189.258 693.771 189.59 693.146 190.254C692.521 190.918 692.208 191.827 692.208 192.979V201.314H688.282V185.801H692.179V187.486C693.009 186.265 694.239 185.655 695.87 185.655H696.925V189.258Z" fill="black"/>
<ellipse cx="662.413" cy="64.1601" rx="52.0954" ry="38.0739" transform="rotate(12.3752 662.413 64.1601)" fill="white" fill-opacity="0.3"/>
<ellipse cx="662.411" cy="64.1569" rx="52.0954" ry="38.0739" transform="rotate(-60 662.411 64.1569)" fill="white" fill-opacity="0.3"/>
<path d="M662.408 85.2879C656.901 85.2879 651.394 85.2916 645.887 85.2854C643.67 85.2841 641.825 83.7613 641.41 81.5906C641.328 81.1625 641.302 80.7181 641.302 80.2799C641.296 71.0387 641.298 61.7975 641.297 52.5562C641.297 50.4597 642.107 48.8464 644.07 47.9325C644.601 47.6852 645.165 47.5596 645.756 47.5609C647.608 47.5634 649.46 47.5508 651.31 47.5684C651.703 47.5722 651.83 47.4454 651.819 47.0562C651.795 46.2414 651.806 45.4241 651.814 44.6093C651.822 43.664 652.465 43.0162 653.369 43.025C654.244 43.0338 654.878 43.6828 654.887 44.6006C654.896 45.4317 654.901 46.264 654.884 47.0951C654.877 47.4328 654.976 47.5671 655.336 47.5659C659.541 47.5558 663.747 47.5571 667.951 47.5646C668.277 47.5646 668.394 47.4554 668.388 47.1277C668.372 46.2966 668.378 45.4643 668.384 44.6332C668.392 43.6791 669.017 43.0288 669.916 43.025C670.815 43.0225 671.451 43.6753 671.46 44.6219C671.467 45.3588 671.461 46.097 671.462 46.834C671.462 47.5584 671.462 47.5596 672.165 47.5596C674.409 47.5596 676.652 47.5558 678.897 47.5609C681.542 47.5671 683.512 49.5269 683.513 52.1683C683.517 61.6769 683.517 71.1843 683.513 80.693C683.512 83.308 681.541 85.2841 678.931 85.2866C673.422 85.2929 667.916 85.2879 662.408 85.2879ZM663.438 73.8383C663.4 74.918 663.905 75.552 664.669 75.6261C665.519 75.7077 666.173 75.1867 666.308 74.2991C666.724 71.5585 667.14 68.8166 667.547 66.0747C667.597 65.737 667.731 65.506 668.039 65.3365C668.793 64.9197 669.54 64.4866 670.276 64.0372C670.874 63.6718 671.135 63.0265 670.97 62.429C670.713 61.4949 669.709 61.0605 668.83 61.5338C668.07 61.9418 667.327 62.3825 666.589 62.8282C666.306 62.9989 666.059 63.0215 665.751 62.8947C664.839 62.5181 663.913 62.1691 662.995 61.81C661.33 61.1597 659.661 60.5194 658 59.8566C657.443 59.6344 656.931 59.6444 656.446 60.0047C655.985 60.3474 655.832 60.8245 655.91 61.3769C655.992 61.9619 656.344 62.3323 656.882 62.5419C658.721 63.2613 660.563 63.9782 662.401 64.7013C662.538 64.7553 662.755 64.7565 662.76 64.9473C662.764 65.0967 662.57 65.1382 662.452 65.206C661.015 66.0408 659.568 66.8619 658.14 67.7093C657.82 67.8989 657.55 67.9039 657.216 67.7683C656.156 67.3377 655.088 66.9259 654.018 66.5166C653.113 66.1701 652.276 66.4865 651.982 67.2724C651.673 68.0947 652.055 68.8555 652.961 69.2146C653.909 69.5899 654.856 69.9653 655.808 70.3256C656.108 70.4386 656.209 70.593 656.15 70.9282C655.965 71.9765 655.816 73.0323 655.662 74.0856C655.544 74.8828 656.057 75.5922 656.845 75.7416C657.601 75.8847 658.323 75.4038 658.505 74.6355C658.538 74.4987 658.567 74.3593 658.588 74.22C658.754 73.1202 658.917 72.0205 659.081 70.9207C659.116 70.6847 659.167 70.4625 659.401 70.3269C660.938 69.4443 662.472 68.5567 664.008 67.6729C664.099 67.6202 664.211 67.5386 664.31 67.6227C664.406 67.703 664.348 67.8273 664.332 67.934C664.241 68.5379 664.153 69.143 664.062 69.7469C663.842 71.1868 663.622 72.6268 663.438 73.8383ZM651.879 52.2461C651.88 52.2461 651.883 52.2461 651.884 52.2461C651.884 52.6529 651.858 53.0622 651.889 53.4664C651.954 54.3138 652.561 54.8989 653.339 54.9051C654.117 54.9114 654.756 54.3339 654.805 53.4865C654.854 52.6441 654.818 51.7967 654.823 50.953C654.824 50.7371 654.727 50.6392 654.512 50.6404C653.744 50.643 652.979 50.6442 652.212 50.6392C651.971 50.6379 651.874 50.7446 651.878 50.9794C651.883 51.4012 651.879 51.8243 651.879 52.2461ZM671.393 52.2298H671.395C671.395 51.8381 671.383 51.4464 671.398 51.056C671.41 50.7622 671.314 50.6279 670.998 50.6342C670.279 50.6492 669.558 50.6455 668.839 50.6354C668.562 50.6317 668.441 50.7258 668.444 51.0146C668.456 51.7967 668.432 52.5801 668.454 53.361C668.479 54.2611 669.087 54.8913 669.899 54.9039C670.728 54.9164 671.352 54.2749 671.39 53.3547C671.407 52.9818 671.393 52.6064 671.393 52.2298Z" fill="black"/>
<path d="M1116.79 155.782C1116.79 153.799 1117.26 151.983 1118.22 150.333C1119.18 148.672 1120.51 147.359 1122.22 146.392C1123.94 145.416 1125.86 144.927 1127.98 144.927C1129.81 144.927 1131.51 145.333 1133.06 146.143C1134.61 146.954 1135.93 148.057 1137 149.454L1133.85 151.768C1133.18 150.801 1132.32 150.035 1131.27 149.468C1130.24 148.902 1129.16 148.619 1128.04 148.619C1126.01 148.619 1124.31 149.288 1122.94 150.625C1121.57 151.963 1120.89 153.682 1120.89 155.782C1120.89 157.188 1121.21 158.448 1121.85 159.561C1122.5 160.665 1123.36 161.514 1124.45 162.11C1125.53 162.696 1126.73 162.989 1128.04 162.989C1129.25 162.989 1130.37 162.715 1131.4 162.168C1132.45 161.612 1133.29 160.845 1133.94 159.869L1137.09 162.168C1136.06 163.565 1134.77 164.673 1133.21 165.494C1131.65 166.304 1129.94 166.709 1128.06 166.709C1126.44 166.709 1124.93 166.426 1123.52 165.86C1122.12 165.293 1120.92 164.527 1119.93 163.56C1118.96 162.583 1118.19 161.426 1117.62 160.088C1117.06 158.741 1116.79 157.305 1116.79 155.782ZM1138.36 161.963C1138.36 160.586 1138.81 159.502 1139.71 158.711C1140.61 157.92 1141.89 157.466 1143.55 157.349L1148.12 157.012V156.412C1148.12 155.64 1147.87 155.04 1147.37 154.61C1146.87 154.17 1146.17 153.951 1145.26 153.951C1143.89 153.951 1142.53 154.41 1141.16 155.328L1139.5 152.544C1141.39 151.167 1143.47 150.479 1145.75 150.479C1147.61 150.479 1149.1 150.977 1150.23 151.973C1151.36 152.959 1151.93 154.278 1151.93 155.928V162.022C1151.93 162.627 1152.21 162.93 1152.79 162.93H1153.6V166.314H1151.78C1151.04 166.314 1150.39 166.153 1149.83 165.831C1149.28 165.508 1148.86 165.059 1148.59 164.483C1148.03 165.186 1147.34 165.733 1146.51 166.124C1145.68 166.514 1144.75 166.709 1143.74 166.709C1142.2 166.709 1140.91 166.26 1139.89 165.362C1138.87 164.463 1138.36 163.331 1138.36 161.963ZM1142.11 161.934C1142.11 162.471 1142.34 162.901 1142.8 163.223C1143.26 163.545 1143.86 163.707 1144.6 163.707C1145.58 163.707 1146.41 163.433 1147.09 162.886C1147.78 162.33 1148.12 161.661 1148.12 160.879V159.898L1144.09 160.25C1142.77 160.367 1142.11 160.928 1142.11 161.934ZM1161.96 166.68C1159.99 166.68 1158.38 166.192 1157.13 165.215C1155.89 164.239 1155.11 162.974 1154.8 161.421H1158.52C1158.7 162.173 1159.1 162.735 1159.72 163.106C1160.33 163.467 1161.08 163.648 1161.96 163.648C1162.66 163.648 1163.21 163.501 1163.6 163.208C1163.99 162.916 1164.19 162.53 1164.19 162.051C1164.19 161.729 1164.06 161.441 1163.79 161.187C1163.53 160.933 1163.14 160.743 1162.62 160.616L1159.41 159.869C1156.51 159.175 1155.06 157.652 1155.06 155.298C1155.06 153.833 1155.6 152.657 1156.69 151.768C1157.77 150.87 1159.16 150.42 1160.85 150.42C1162.76 150.42 1164.31 150.918 1165.51 151.915C1166.71 152.901 1167.42 154.17 1167.66 155.723H1163.97C1163.77 154.961 1163.38 154.39 1162.78 154.009C1162.19 153.628 1161.53 153.438 1160.82 153.438C1160.21 153.438 1159.74 153.575 1159.4 153.848C1159.07 154.122 1158.9 154.468 1158.9 154.888C1158.9 155.689 1159.52 156.236 1160.76 156.529L1163.73 157.261C1166.58 157.945 1168 159.444 1168 161.758C1168 163.184 1167.45 164.361 1166.36 165.289C1165.26 166.216 1163.8 166.68 1161.96 166.68ZM1173.83 157.217V166.314H1169.9V145.308H1173.83V152.149C1174.94 150.977 1176.38 150.391 1178.15 150.391C1179.92 150.391 1181.38 150.972 1182.51 152.134C1183.65 153.287 1184.21 154.722 1184.21 156.441V166.314H1180.29V157.217C1180.29 156.211 1179.99 155.406 1179.39 154.8C1178.81 154.195 1178.04 153.892 1177.08 153.892C1176.12 153.892 1175.34 154.195 1174.73 154.8C1174.13 155.396 1173.83 156.202 1173.83 157.217ZM1190.85 166.314H1186.92V145.308H1190.85V166.314ZM1193 158.55C1193 157.125 1193.35 155.792 1194.04 154.551C1194.73 153.311 1195.7 152.32 1196.94 151.578C1198.18 150.826 1199.55 150.45 1201.04 150.45C1203.37 150.45 1205.27 151.226 1206.76 152.779C1208.25 154.332 1209 156.314 1209 158.726V159.869H1197.03C1197.29 160.894 1197.82 161.729 1198.61 162.374C1199.4 163.018 1200.33 163.34 1201.38 163.34C1202.23 163.34 1202.98 163.184 1203.64 162.872C1204.29 162.549 1204.9 162.027 1205.45 161.304L1208.19 163.34C1207.4 164.415 1206.43 165.245 1205.28 165.831C1204.12 166.417 1202.83 166.709 1201.41 166.709C1199.85 166.709 1198.42 166.363 1197.13 165.669C1195.85 164.976 1194.84 164.004 1194.1 162.754C1193.37 161.504 1193 160.103 1193 158.55ZM1200.96 153.804C1200.04 153.804 1199.23 154.078 1198.54 154.625C1197.84 155.171 1197.36 155.918 1197.09 156.866H1205.04C1204.76 155.918 1204.25 155.171 1203.5 154.625C1202.76 154.078 1201.91 153.804 1200.96 153.804ZM1217.45 166.68C1215.48 166.68 1213.87 166.192 1212.62 165.215C1211.38 164.239 1210.6 162.974 1210.29 161.421H1214.01C1214.19 162.173 1214.59 162.735 1215.21 163.106C1215.82 163.467 1216.57 163.648 1217.45 163.648C1218.15 163.648 1218.7 163.501 1219.09 163.208C1219.48 162.916 1219.68 162.53 1219.68 162.051C1219.68 161.729 1219.54 161.441 1219.28 161.187C1219.02 160.933 1218.63 160.743 1218.11 160.616L1214.9 159.869C1212 159.175 1210.55 157.652 1210.55 155.298C1210.55 153.833 1211.09 152.657 1212.18 151.768C1213.26 150.87 1214.65 150.42 1216.34 150.42C1218.25 150.42 1219.8 150.918 1220.99 151.915C1222.2 152.901 1222.91 154.17 1223.15 155.723H1219.46C1219.26 154.961 1218.87 154.39 1218.27 154.009C1217.67 153.628 1217.02 153.438 1216.31 153.438C1215.7 153.438 1215.23 153.575 1214.89 153.848C1214.55 154.122 1214.39 154.468 1214.39 154.888C1214.39 155.689 1215.01 156.236 1216.25 156.529L1219.22 157.261C1222.06 157.945 1223.48 159.444 1223.48 161.758C1223.48 163.184 1222.94 164.361 1221.84 165.289C1220.75 166.216 1219.29 166.68 1217.45 166.68ZM1231.95 166.68C1229.98 166.68 1228.37 166.192 1227.12 165.215C1225.88 164.239 1225.1 162.974 1224.79 161.421H1228.51C1228.69 162.173 1229.09 162.735 1229.71 163.106C1230.33 163.467 1231.07 163.648 1231.95 163.648C1232.65 163.648 1233.2 163.501 1233.59 163.208C1233.98 162.916 1234.18 162.53 1234.18 162.051C1234.18 161.729 1234.05 161.441 1233.78 161.187C1233.52 160.933 1233.13 160.743 1232.61 160.616L1229.4 159.869C1226.5 159.175 1225.05 157.652 1225.05 155.298C1225.05 153.833 1225.59 152.657 1226.68 151.768C1227.76 150.87 1229.15 150.42 1230.84 150.42C1232.75 150.42 1234.3 150.918 1235.5 151.915C1236.7 152.901 1237.42 154.17 1237.65 155.723H1233.96C1233.76 154.961 1233.37 154.39 1232.77 154.009C1232.18 153.628 1231.52 153.438 1230.81 153.438C1230.2 153.438 1229.73 153.575 1229.39 153.848C1229.06 154.122 1228.89 154.468 1228.89 154.888C1228.89 155.689 1229.51 156.236 1230.75 156.529L1233.72 157.261C1236.57 157.945 1237.99 159.444 1237.99 161.758C1237.99 163.184 1237.44 164.361 1236.35 165.289C1235.25 166.216 1233.79 166.68 1231.95 166.68ZM1258.49 164.688L1258.11 164.278C1256.5 165.918 1254.52 166.739 1252.17 166.739C1250.11 166.739 1248.42 166.182 1247.1 165.069C1245.78 163.946 1245.12 162.52 1245.12 160.792C1245.12 159.493 1245.45 158.384 1246.1 157.466C1246.76 156.548 1247.82 155.699 1249.29 154.917C1247.99 153.433 1247.33 151.973 1247.33 150.538C1247.33 148.917 1247.89 147.588 1249.02 146.553C1250.15 145.508 1251.61 144.986 1253.4 144.986C1255.13 144.986 1256.56 145.469 1257.66 146.436C1258.76 147.403 1259.31 148.648 1259.31 150.171C1259.31 151.314 1258.98 152.32 1258.32 153.189C1257.66 154.058 1256.61 154.874 1255.17 155.635L1258.08 158.697L1261.01 154.317L1263.93 156.089L1260.44 161.187L1261.26 162.051C1261.76 162.549 1262.3 162.798 1262.87 162.798H1264.13V166.314H1262.07C1261.34 166.314 1260.7 166.192 1260.15 165.948C1259.6 165.694 1259.05 165.274 1258.49 164.688ZM1252.74 153.057L1252.88 153.204L1253.28 153.028C1254.06 152.657 1254.62 152.266 1254.95 151.856C1255.29 151.446 1255.46 150.958 1255.46 150.391C1255.46 149.776 1255.26 149.268 1254.86 148.868C1254.47 148.458 1253.97 148.252 1253.37 148.252C1252.74 148.252 1252.23 148.453 1251.83 148.853C1251.44 149.244 1251.24 149.756 1251.24 150.391C1251.24 151.143 1251.74 152.032 1252.74 153.057ZM1249.16 160.645C1249.16 161.397 1249.48 162.027 1250.1 162.535C1250.73 163.033 1251.51 163.282 1252.44 163.282C1253.74 163.282 1254.87 162.803 1255.83 161.846L1251.65 157.437C1250.78 157.867 1250.15 158.34 1249.75 158.858C1249.36 159.375 1249.16 159.971 1249.16 160.645ZM1018.45 190.782C1018.45 188.799 1018.93 186.983 1019.89 185.333C1020.84 183.672 1022.18 182.359 1023.88 181.392C1025.6 180.416 1027.52 179.927 1029.64 179.927C1031.48 179.927 1033.17 180.333 1034.72 181.143C1036.28 181.954 1037.59 183.057 1038.67 184.454L1035.52 186.768C1034.84 185.801 1033.98 185.035 1032.94 184.468C1031.9 183.902 1030.82 183.619 1029.7 183.619C1027.68 183.619 1025.98 184.288 1024.6 185.625C1023.24 186.963 1022.55 188.682 1022.55 190.782C1022.55 192.188 1022.87 193.448 1023.52 194.561C1024.16 195.665 1025.03 196.514 1026.11 197.11C1027.2 197.696 1028.39 197.989 1029.7 197.989C1030.91 197.989 1032.03 197.715 1033.07 197.168C1034.11 196.612 1034.96 195.845 1035.6 194.869L1038.75 197.168C1037.73 198.565 1036.43 199.673 1034.87 200.494C1033.32 201.304 1031.6 201.709 1029.73 201.709C1028.11 201.709 1026.59 201.426 1025.19 200.86C1023.78 200.293 1022.59 199.527 1021.6 198.56C1020.62 197.583 1019.85 196.426 1019.29 195.088C1018.73 193.741 1018.45 192.305 1018.45 190.782ZM1049.07 189.258H1047.66C1046.7 189.258 1045.91 189.59 1045.29 190.254C1044.66 190.918 1044.35 191.827 1044.35 192.979V201.314H1040.42V185.801H1044.32V187.486C1045.15 186.265 1046.38 185.655 1048.01 185.655H1049.07V189.258ZM1055.64 202.75L1056.36 201.021L1049.77 185.801H1054L1058.28 196.275L1062.51 185.801H1066.6L1059.04 204.229C1058.53 205.469 1057.92 206.343 1057.2 206.851C1056.48 207.359 1055.53 207.613 1054.32 207.613H1052.01V204.317H1053.52C1054.07 204.317 1054.5 204.205 1054.81 203.98C1055.13 203.755 1055.41 203.345 1055.64 202.75ZM1067.79 185.801H1071.68V187.281C1073.14 186.041 1074.81 185.42 1076.69 185.42C1077.83 185.42 1078.9 185.64 1079.93 186.08C1080.96 186.509 1081.83 187.09 1082.57 187.823C1083.31 188.555 1083.89 189.424 1084.32 190.43C1084.76 191.426 1084.98 192.476 1084.98 193.58C1084.98 194.683 1084.76 195.738 1084.32 196.744C1083.89 197.75 1083.31 198.619 1082.57 199.351C1081.83 200.083 1080.96 200.665 1079.93 201.094C1078.9 201.524 1077.83 201.739 1076.69 201.739C1074.85 201.739 1073.19 201.128 1071.71 199.908V207.613H1067.79V185.801ZM1071.65 193.58C1071.65 194.898 1072.11 196.011 1073.03 196.919C1073.95 197.828 1075.06 198.282 1076.37 198.282C1077.67 198.282 1078.78 197.828 1079.7 196.919C1080.61 196.001 1081.07 194.888 1081.07 193.58C1081.07 192.281 1080.61 191.167 1079.68 190.24C1078.76 189.302 1077.66 188.833 1076.37 188.833C1075.07 188.833 1073.96 189.297 1073.03 190.225C1072.11 191.153 1071.65 192.271 1071.65 193.58ZM1093.07 201.314C1091.7 201.314 1090.65 200.958 1089.91 200.245C1089.17 199.522 1088.81 198.58 1088.81 197.417V189.2H1085.77V185.801H1088.81V181.304H1092.72V185.801H1096.13V189.2H1092.72V196.729C1092.72 197.12 1092.84 197.417 1093.1 197.623C1093.36 197.828 1093.72 197.93 1094.18 197.93H1096.13V201.314H1093.07ZM1114.32 193.58C1114.32 194.683 1114.1 195.738 1113.65 196.744C1113.2 197.75 1112.6 198.619 1111.83 199.351C1111.07 200.083 1110.16 200.665 1109.11 201.094C1108.06 201.524 1106.96 201.739 1105.8 201.739C1104.27 201.739 1102.84 201.377 1101.54 200.655C1100.23 199.922 1099.19 198.931 1098.42 197.681C1097.65 196.421 1097.27 195.054 1097.27 193.58C1097.27 192.105 1097.65 190.743 1098.42 189.493C1099.19 188.233 1100.23 187.242 1101.54 186.519C1102.84 185.787 1104.27 185.42 1105.8 185.42C1107.34 185.42 1108.77 185.782 1110.08 186.504C1111.38 187.227 1112.42 188.218 1113.18 189.478C1113.94 190.728 1114.32 192.095 1114.32 193.58ZM1109.07 196.905C1109.96 195.997 1110.41 194.888 1110.41 193.58C1110.41 192.271 1109.96 191.163 1109.07 190.254C1108.18 189.346 1107.09 188.892 1105.8 188.892C1104.52 188.892 1103.43 189.351 1102.53 190.269C1101.63 191.177 1101.18 192.281 1101.18 193.58C1101.18 194.878 1101.63 195.982 1102.53 196.89C1103.43 197.798 1104.52 198.252 1105.8 198.252C1107.09 198.252 1108.18 197.803 1109.07 196.905ZM1121.19 190.24C1120.3 191.148 1119.85 192.251 1119.85 193.55C1119.85 194.849 1120.3 195.958 1121.19 196.875C1122.09 197.793 1123.18 198.252 1124.46 198.252C1126.09 198.252 1127.39 197.583 1128.36 196.246L1131.16 198.282C1129.42 200.567 1127.19 201.709 1124.46 201.709C1122.89 201.709 1121.45 201.343 1120.14 200.611C1118.83 199.878 1117.8 198.892 1117.05 197.652C1116.31 196.402 1115.94 195.035 1115.94 193.55C1115.94 192.076 1116.31 190.718 1117.05 189.478C1117.8 188.228 1118.83 187.242 1120.14 186.519C1121.45 185.787 1122.89 185.42 1124.46 185.42C1127.19 185.42 1129.42 186.558 1131.16 188.833L1128.36 190.87C1127.39 189.532 1126.09 188.863 1124.46 188.863C1123.18 188.863 1122.09 189.322 1121.19 190.24ZM1132.77 195.674V185.801H1136.69V194.898C1136.69 195.865 1136.99 196.661 1137.59 197.286C1138.18 197.911 1138.96 198.223 1139.92 198.223C1140.87 198.223 1141.65 197.916 1142.24 197.3C1142.85 196.685 1143.15 195.884 1143.15 194.898V185.801H1147.08V201.314H1143.15V199.937C1142.02 201.099 1140.6 201.68 1138.89 201.68C1137.1 201.68 1135.63 201.104 1134.48 199.952C1133.34 198.799 1132.77 197.374 1132.77 195.674ZM1158.43 189.258H1157.02C1156.07 189.258 1155.28 189.59 1154.65 190.254C1154.03 190.918 1153.71 191.827 1153.71 192.979V201.314H1149.79V185.801H1153.68V187.486C1154.51 186.265 1155.75 185.655 1157.38 185.655H1158.43V189.258ZM1168.98 189.258H1167.57C1166.61 189.258 1165.82 189.59 1165.2 190.254C1164.57 190.918 1164.26 191.827 1164.26 192.979V201.314H1160.33V185.801H1164.23V187.486C1165.06 186.265 1166.29 185.655 1167.92 185.655H1168.98V189.258ZM1169.72 193.55C1169.72 192.125 1170.07 190.792 1170.76 189.551C1171.46 188.311 1172.42 187.32 1173.67 186.578C1174.91 185.826 1176.27 185.45 1177.77 185.45C1180.09 185.45 1182 186.226 1183.48 187.779C1184.97 189.332 1185.72 191.314 1185.72 193.726V194.869H1173.75C1174.02 195.894 1174.54 196.729 1175.33 197.374C1176.13 198.018 1177.05 198.34 1178.1 198.34C1178.95 198.34 1179.71 198.184 1180.36 197.872C1181.01 197.549 1181.62 197.027 1182.18 196.304L1184.92 198.34C1184.12 199.415 1183.15 200.245 1182 200.831C1180.85 201.417 1179.56 201.709 1178.13 201.709C1176.57 201.709 1175.14 201.363 1173.86 200.669C1172.58 199.976 1171.57 199.004 1170.82 197.754C1170.09 196.504 1169.72 195.103 1169.72 193.55ZM1177.68 188.804C1176.76 188.804 1175.96 189.078 1175.26 189.625C1174.57 190.171 1174.08 190.918 1173.81 191.866H1181.77C1181.48 190.918 1180.97 190.171 1180.23 189.625C1179.49 189.078 1178.64 188.804 1177.68 188.804ZM1202.21 191.441V201.314H1198.29V192.217C1198.29 191.211 1197.99 190.406 1197.4 189.8C1196.81 189.195 1196.04 188.892 1195.08 188.892C1194.12 188.892 1193.34 189.195 1192.74 189.8C1192.13 190.396 1191.83 191.202 1191.83 192.217V201.314H1187.9V185.801H1191.83V187.12C1192.95 185.967 1194.37 185.391 1196.09 185.391C1197.89 185.391 1199.36 185.972 1200.5 187.134C1201.64 188.287 1202.21 189.722 1202.21 191.441ZM1209.64 190.24C1208.74 191.148 1208.29 192.251 1208.29 193.55C1208.29 194.849 1208.74 195.958 1209.64 196.875C1210.54 197.793 1211.63 198.252 1212.91 198.252C1214.54 198.252 1215.84 197.583 1216.8 196.246L1219.6 198.282C1217.86 200.567 1215.63 201.709 1212.91 201.709C1211.34 201.709 1209.9 201.343 1208.59 200.611C1207.28 199.878 1206.25 198.892 1205.5 197.652C1204.75 196.402 1204.38 195.035 1204.38 193.55C1204.38 192.076 1204.75 190.718 1205.5 189.478C1206.25 188.228 1207.28 187.242 1208.59 186.519C1209.9 185.787 1211.34 185.42 1212.91 185.42C1215.63 185.42 1217.86 186.558 1219.6 188.833L1216.8 190.87C1215.84 189.532 1214.54 188.863 1212.91 188.863C1211.63 188.863 1210.54 189.322 1209.64 190.24ZM1225.59 202.75L1226.31 201.021L1219.72 185.801H1223.95L1228.23 196.275L1232.46 185.801H1236.55L1228.99 204.229C1228.48 205.469 1227.87 206.343 1227.15 206.851C1226.43 207.359 1225.48 207.613 1224.28 207.613H1221.96V204.317H1223.47C1224.02 204.317 1224.45 204.205 1224.76 203.98C1225.08 203.755 1225.36 203.345 1225.59 202.75ZM1243.89 201.314V180.308H1252.81C1254.65 180.308 1256.19 180.928 1257.44 182.168C1258.69 183.409 1259.31 184.932 1259.31 186.739C1259.31 187.93 1259.03 189.024 1258.46 190.02C1257.9 191.006 1257.12 191.788 1256.12 192.364C1255.12 192.93 1254.02 193.213 1252.81 193.213H1247.95V201.314H1243.89ZM1252.44 183.853H1247.95V189.771H1252.44C1253.28 189.771 1253.96 189.493 1254.47 188.936C1254.98 188.37 1255.24 187.657 1255.24 186.797C1255.24 185.938 1254.98 185.235 1254.47 184.688C1253.96 184.131 1253.28 183.853 1252.44 183.853ZM1259.46 196.963C1259.46 195.586 1259.91 194.502 1260.81 193.711C1261.71 192.92 1262.99 192.466 1264.65 192.349L1269.22 192.012V191.412C1269.22 190.64 1268.97 190.04 1268.47 189.61C1267.97 189.17 1267.27 188.951 1266.36 188.951C1264.99 188.951 1263.63 189.41 1262.26 190.328L1260.6 187.544C1262.49 186.167 1264.57 185.479 1266.84 185.479C1268.71 185.479 1270.2 185.977 1271.33 186.973C1272.46 187.959 1273.03 189.278 1273.03 190.928V197.022C1273.03 197.627 1273.31 197.93 1273.89 197.93H1274.7V201.314H1272.88C1272.14 201.314 1271.49 201.153 1270.93 200.831C1270.37 200.508 1269.96 200.059 1269.69 199.483C1269.13 200.186 1268.44 200.733 1267.61 201.124C1266.78 201.514 1265.85 201.709 1264.84 201.709C1263.29 201.709 1262.01 201.26 1260.98 200.362C1259.97 199.463 1259.46 198.331 1259.46 196.963ZM1263.21 196.934C1263.21 197.471 1263.44 197.901 1263.9 198.223C1264.36 198.545 1264.96 198.707 1265.7 198.707C1266.68 198.707 1267.51 198.433 1268.19 197.886C1268.88 197.33 1269.22 196.661 1269.22 195.879V194.898L1265.19 195.25C1263.87 195.367 1263.21 195.928 1263.21 196.934ZM1279.68 202.75L1280.39 201.021L1273.8 185.801H1278.04L1282.31 196.275L1286.55 185.801H1290.63L1283.07 204.229C1282.57 205.469 1281.95 206.343 1281.23 206.851C1280.52 207.359 1279.56 207.613 1278.36 207.613H1276.04V204.317H1277.55C1278.1 204.317 1278.53 204.205 1278.84 203.98C1279.16 203.755 1279.44 203.345 1279.68 202.75ZM1295.72 192.129V201.314H1291.82V185.801H1295.72V187.061C1296.83 185.948 1298.22 185.391 1299.89 185.391C1301.01 185.391 1302.01 185.635 1302.89 186.124C1303.78 186.602 1304.48 187.266 1304.99 188.116C1305.52 187.256 1306.21 186.587 1307.08 186.109C1307.96 185.63 1308.92 185.391 1309.97 185.391C1311.72 185.391 1313.14 185.958 1314.23 187.09C1315.33 188.223 1315.89 189.634 1315.89 191.324V201.314H1311.98V192.129C1311.98 191.172 1311.69 190.396 1311.11 189.8C1310.54 189.195 1309.8 188.892 1308.88 188.892C1307.98 188.892 1307.23 189.19 1306.66 189.786C1306.09 190.372 1305.81 191.153 1305.81 192.129V201.314H1301.9V192.129C1301.9 191.172 1301.61 190.396 1301.03 189.8C1300.47 189.195 1299.72 188.892 1298.81 188.892C1297.89 188.892 1297.14 189.185 1296.57 189.771C1296 190.357 1295.72 191.143 1295.72 192.129ZM1318.05 193.55C1318.05 192.125 1318.4 190.792 1319.09 189.551C1319.79 188.311 1320.75 187.32 1322 186.578C1323.24 185.826 1324.6 185.45 1326.1 185.45C1328.42 185.45 1330.33 186.226 1331.81 187.779C1333.3 189.332 1334.05 191.314 1334.05 193.726V194.869H1322.08C1322.35 195.894 1322.87 196.729 1323.67 197.374C1324.46 198.018 1325.38 198.34 1326.43 198.34C1327.28 198.34 1328.04 198.184 1328.69 197.872C1329.34 197.549 1329.95 197.027 1330.51 196.304L1333.25 198.34C1332.45 199.415 1331.48 200.245 1330.33 200.831C1329.18 201.417 1327.89 201.709 1326.46 201.709C1324.9 201.709 1323.47 201.363 1322.19 200.669C1320.91 199.976 1319.9 199.004 1319.15 197.754C1318.42 196.504 1318.05 195.103 1318.05 193.55ZM1326.01 188.804C1325.09 188.804 1324.29 189.078 1323.59 189.625C1322.9 190.171 1322.42 190.918 1322.14 191.866H1330.1C1329.81 190.918 1329.3 190.171 1328.56 189.625C1327.82 189.078 1326.97 188.804 1326.01 188.804ZM1350.54 191.441V201.314H1346.62V192.217C1346.62 191.211 1346.32 190.406 1345.73 189.8C1345.14 189.195 1344.37 188.892 1343.41 188.892C1342.45 188.892 1341.67 189.195 1341.07 189.8C1340.46 190.396 1340.16 191.202 1340.16 192.217V201.314H1336.23V185.801H1340.16V187.12C1341.28 185.967 1342.7 185.391 1344.42 185.391C1346.22 185.391 1347.69 185.972 1348.83 187.134C1349.97 188.287 1350.54 189.722 1350.54 191.441ZM1359.2 201.314C1357.83 201.314 1356.78 200.958 1356.04 200.245C1355.31 199.522 1354.94 198.58 1354.94 197.417V189.2H1351.91V185.801H1354.94V181.304H1358.85V185.801H1362.26V189.2H1358.85V196.729C1358.85 197.12 1358.98 197.417 1359.23 197.623C1359.5 197.828 1359.86 197.93 1360.32 197.93H1362.26V201.314H1359.2Z" fill="black"/>
<ellipse cx="1171.41" cy="64.1641" rx="52.0954" ry="38.0739" transform="rotate(12.3752 1171.41 64.1641)" fill="white" fill-opacity="0.3"/>
<ellipse cx="1171.41" cy="64.1608" rx="52.0954" ry="38.0739" transform="rotate(-60 1171.41 64.1608)" fill="white" fill-opacity="0.3"/>
<path d="M1173.86 61.1268C1173.93 67.8802 1168.52 74.1751 1160.8 74.1686C1153.2 74.162 1147.74 67.9797 1147.76 61.0915C1147.78 53.9019 1153.62 48.0301 1160.79 48.0445C1168.47 48.0589 1173.97 54.3839 1173.86 61.1268ZM1156.27 61.119C1156.27 63.1649 1156.27 65.2095 1156.27 67.2554C1156.28 67.9627 1156.51 68.1893 1157.22 68.2024C1157.33 68.205 1157.45 68.2037 1157.56 68.2037C1159.03 68.2063 1158.79 68.112 1158.81 69.4218C1158.82 69.5672 1158.81 69.7244 1158.87 69.8567C1159 70.1999 1159.27 70.3859 1159.64 70.3138C1160.1 70.2247 1160.24 69.8842 1160.25 69.4402C1160.27 68.095 1160.29 68.0871 1161.56 68.2037C1161.84 68.2299 1161.98 68.3308 1161.97 68.6255C1161.96 68.9516 1161.96 69.2817 1161.98 69.6065C1162.02 70.0348 1162.33 70.3256 1162.72 70.3256C1163.1 70.3256 1163.38 70.0309 1163.41 69.5869C1163.42 69.3419 1163.44 69.0931 1163.41 68.8508C1163.36 68.3714 1163.53 68.1422 1164.02 67.9666C1166.72 66.9804 1167.45 63.5591 1165.41 61.5407C1165.07 61.2107 1165.05 61.0587 1165.4 60.7195C1167.27 58.8988 1166.88 55.6977 1164.55 54.5516C1163.67 54.118 1163.25 53.7028 1163.39 52.7296C1163.45 52.3223 1163.18 52.0564 1162.75 52.025C1162.34 51.9962 1162.03 52.2607 1161.99 52.6956C1161.95 53.0034 1161.98 53.3164 1161.97 53.6269C1161.96 53.7539 1161.99 53.9281 1161.85 53.9727C1161.38 54.1102 1160.9 54.118 1160.45 53.9844C1160.1 53.881 1160.29 53.5037 1160.25 53.247C1160.23 53.0702 1160.25 52.8868 1160.24 52.7074C1160.2 52.2778 1159.9 52.0001 1159.49 52.0237C1159.07 52.0485 1158.84 52.2987 1158.82 52.7179C1158.8 53.0113 1158.8 53.3073 1158.81 53.6007C1158.82 53.915 1158.66 54.046 1158.36 54.0447C1157.99 54.0434 1157.61 54.0447 1157.23 54.0499C1156.5 54.0604 1156.28 54.2805 1156.27 55.0284C1156.27 57.0599 1156.27 59.0888 1156.27 61.119Z" fill="black"/>
<path d="M1178.07 87.7824C1172.86 87.7679 1168.56 83.8555 1167.98 78.6399C1167.78 76.852 1168.09 75.1584 1168.77 73.5146C1168.87 73.2789 1169.01 73.0994 1169.22 72.9514C1170.75 71.8512 1172.03 70.5021 1173.04 68.9067C1173.18 68.6762 1173.37 68.5111 1173.61 68.3933C1174.63 67.8955 1175.71 67.5877 1176.83 67.4161C1177.16 67.3664 1177.31 67.5432 1177.45 67.7803C1179.02 70.32 1181.28 71.8918 1184.19 72.5414C1184.98 72.7183 1185.78 72.751 1186.58 72.7117C1186.97 72.6921 1187.17 72.8348 1187.34 73.1741C1189.1 76.6988 1188.48 81.3093 1185.82 84.2839C1183.77 86.5826 1181.09 87.7902 1178.07 87.7824ZM1182.35 80.0571C1182.35 79.8371 1182.26 79.6445 1182.17 79.4494C1181.09 76.962 1180 74.476 1178.92 71.9861C1178.76 71.6298 1178.56 71.3665 1178.13 71.36C1177.72 71.3534 1177.52 71.6102 1177.37 71.9442C1176.26 74.4917 1175.15 77.0393 1174.04 79.5869C1173.87 79.9628 1173.9 80.3191 1174.13 80.6583C1175.23 82.2995 1176.33 83.9459 1177.45 85.5793C1177.86 86.1896 1178.41 86.1818 1178.83 85.5714C1179.94 83.9368 1181.04 82.2916 1182.15 80.6504C1182.27 80.471 1182.36 80.2824 1182.35 80.0571Z" fill="black"/>
<path d="M1186.44 48.5289C1186.43 52.55 1183.47 55.8677 1179.46 56.3615C1177.61 56.5894 1175.93 56.1546 1174.35 55.2063C1174.08 55.0491 1173.9 54.8421 1173.77 54.5658C1173.12 53.2677 1172.29 52.0902 1171.27 51.0594C1171.03 50.8171 1170.89 50.5473 1170.81 50.2159C1169.74 45.6643 1173.04 41.0407 1177.69 40.5849C1182.44 40.1173 1186.45 43.7625 1186.44 48.5289ZM1178.54 45.6787C1178.55 45.6787 1178.55 45.6781 1178.55 45.6774C1178.55 45.6767 1178.55 45.6761 1178.55 45.6761C1178.66 45.6761 1178.78 45.6761 1178.89 45.6761C1180.08 45.6761 1180.12 45.7075 1180.5 46.8562C1180.62 47.2413 1180.88 47.4718 1181.3 47.4247C1181.69 47.3802 1181.96 46.9846 1181.92 46.5524C1181.81 45.3041 1180.98 44.42 1179.7 44.251C1179.38 44.2078 1179.23 44.0755 1179.24 43.7533C1179.25 43.4756 1179.25 43.1966 1179.24 42.919C1179.22 42.4317 1178.95 42.1252 1178.55 42.116C1178.15 42.1056 1177.83 42.4369 1177.8 42.9216C1177.78 43.1993 1177.78 43.4782 1177.8 43.7559C1177.82 44.0899 1177.67 44.2091 1177.35 44.2536C1175.95 44.4488 1175.06 45.5281 1175.14 46.9034C1175.22 48.187 1176.32 49.1929 1177.68 49.2152C1178.21 49.2231 1178.73 49.2126 1179.25 49.2191C1180 49.227 1180.43 49.5937 1180.45 50.2264C1180.46 50.859 1180.04 51.2821 1179.31 51.3161C1178.81 51.3397 1178.3 51.3371 1177.79 51.3174C1177.08 51.2899 1176.78 51.0162 1176.61 50.3128C1176.48 49.7169 1176.19 49.4837 1175.72 49.5767C1175.29 49.6618 1175.07 50.0679 1175.17 50.618C1175.38 51.7706 1176.16 52.5735 1177.32 52.7333C1177.71 52.787 1177.82 52.9442 1177.8 53.2979C1177.78 53.5913 1177.77 53.8912 1177.82 54.1794C1177.88 54.5802 1178.12 54.8303 1178.55 54.8225C1178.99 54.8146 1179.21 54.5605 1179.23 54.1414C1179.25 53.8152 1179.24 53.4878 1179.25 53.1603C1179.26 52.9141 1179.36 52.7792 1179.63 52.753C1181.01 52.622 1181.99 51.5178 1181.93 50.1596C1181.87 48.7895 1180.76 47.6775 1179.23 47.7666C1178.66 47.7993 1178.09 47.8255 1177.52 47.7259C1176.93 47.6212 1176.56 47.1824 1176.6 46.6414C1176.64 46.1083 1177.08 45.7102 1177.66 45.6853C1177.96 45.6683 1178.25 45.6787 1178.54 45.6787Z" fill="black"/>
<path d="M1195.05 62.386C1195.07 66.9416 1191.59 70.7858 1187.11 71.1683C1182.44 71.5678 1178.3 68.3732 1177.55 63.7731C1177.24 61.853 1177.57 60.031 1178.44 58.2994C1178.59 58.006 1178.78 57.8777 1179.12 57.8502C1182.04 57.6079 1184.4 56.3282 1186.12 53.9404C1186.36 53.609 1186.62 53.5226 1186.99 53.5606C1191.25 53.9902 1194.49 57.1193 1195.04 61.3578C1195.08 61.6945 1195.05 62.0416 1195.05 62.386ZM1180.81 64.7817C1180.83 65.5636 1181.4 66.5211 1182.55 67.0738C1183.72 67.641 1184.85 67.4707 1185.85 66.6442C1186.17 66.3783 1186.33 66.3796 1186.65 66.6442C1188.19 67.9095 1190.38 67.493 1191.32 65.7876C1192.24 64.1386 1191.51 62.1018 1189.73 61.3984C1189.35 61.2491 1189.17 61.1181 1189.28 60.665C1189.39 60.2602 1189.36 59.8214 1189.25 59.401C1188.84 57.803 1187.27 56.7761 1185.72 57.0918C1183.99 57.4441 1182.92 58.9281 1183.22 60.6663C1183.3 61.1208 1183.15 61.2531 1182.77 61.3984C1181.52 61.8805 1180.81 62.9597 1180.81 64.7817Z" fill="black"/>
<path d="M1160.54 55.5008C1161.27 55.5008 1162.01 55.4903 1162.75 55.5034C1164.08 55.527 1165.12 56.6115 1165.11 57.9554C1165.11 59.2757 1164.07 60.3589 1162.77 60.3733C1161.25 60.3903 1159.72 60.3694 1158.2 60.3838C1157.83 60.3877 1157.71 60.2358 1157.71 59.89C1157.72 58.5972 1157.72 57.3031 1157.71 56.0103C1157.71 55.6384 1157.84 55.4825 1158.23 55.4943C1159 55.5152 1159.77 55.5008 1160.54 55.5008Z" fill="black"/>
<path d="M1160.56 61.8788C1160.56 61.8802 1160.56 61.8809 1160.56 61.8809C1161.29 61.8809 1162.03 61.8678 1162.77 61.8835C1164.08 61.9124 1165.1 62.9707 1165.11 64.2949C1165.12 65.5995 1164.09 66.722 1162.79 66.7482C1161.26 66.7796 1159.72 66.7508 1158.18 66.7626C1157.84 66.7652 1157.71 66.6198 1157.71 66.295C1157.72 64.9852 1157.72 63.6767 1157.71 62.3669C1157.71 61.9792 1157.88 61.86 1158.25 61.8691C1159.02 61.8901 1159.78 61.8757 1160.55 61.8757C1160.55 61.8757 1160.56 61.8773 1160.56 61.8788Z" fill="black"/>
<path d="M1180.44 79.7066C1178.97 80.2582 1177.32 80.2716 1175.85 79.7197C1175.56 79.6123 1175.73 79.387 1175.8 79.222C1176.32 78.0209 1176.84 76.8224 1177.36 75.6227C1177.55 75.1878 1177.74 74.7516 1177.93 74.3194C1177.98 74.2225 1177.99 74.0784 1178.14 74.0836C1178.26 74.0889 1178.28 74.2107 1178.32 74.2958C1179.05 75.958 1179.77 77.6201 1180.49 79.2849C1180.56 79.4277 1180.66 79.6241 1180.44 79.7066Z" fill="black"/>
<path d="M1176.63 81.6301C1176.66 81.5739 1176.73 81.5554 1176.79 81.5864C1177.45 81.9378 1178.11 82.0389 1178.79 81.861C1179.17 81.7616 1179.46 81.9927 1179.25 82.3241C1178.96 82.7786 1178.66 83.2213 1178.35 83.6653C1178.26 83.8002 1178.14 83.9679 1177.98 83.7426C1177.52 83.0867 1177.08 82.4222 1176.63 81.7611C1176.6 81.7218 1176.6 81.6706 1176.63 81.6301Z" fill="black"/>
<path d="M1186.26 58.5444C1187.15 58.5497 1187.89 59.2779 1187.89 60.1621C1187.89 61.0527 1187.11 61.8386 1186.23 61.8281C1185.35 61.8164 1184.59 61.0226 1184.61 60.1332C1184.63 59.2465 1185.36 58.5405 1186.26 58.5444Z" fill="black"/>
<path d="M1188.63 62.6499C1189.51 62.6473 1190.25 63.3795 1190.25 64.2649C1190.26 65.1647 1189.5 65.9375 1188.61 65.9349C1187.75 65.9323 1186.98 65.1621 1186.98 64.3016C1186.97 63.3939 1187.71 62.6525 1188.63 62.6499Z" fill="black"/>
<path d="M1183.86 65.8812C1182.96 65.872 1182.24 65.1424 1182.25 64.2557C1182.26 63.3702 1182.99 62.6577 1183.89 62.6577C1184.78 62.6577 1185.53 63.3991 1185.53 64.2622C1185.52 65.1778 1184.78 65.8903 1183.86 65.8812Z" fill="black"/>
</svg>
