<svg width="161" height="170" viewBox="0 0 161 170" fill="none" xmlns="http://www.w3.org/2000/svg">
<ellipse cx="59.7096" cy="64.9009" rx="52.0954" ry="38.0739" transform="rotate(12.3752 59.7096 64.9009)" fill="#FFCF17" fill-opacity="0.1"/>
<ellipse cx="59.7082" cy="64.8976" rx="52.0954" ry="38.0739" transform="rotate(-60 59.7082 64.8976)" fill="#FFCF17" fill-opacity="0.1"/>
<g filter="url(#filter0_d_77_274)">
<path d="M58.4315 41.0278C58.8309 40.8338 59.281 40.7891 59.7249 40.7891C60.1549 40.7891 60.591 40.8303 60.978 41.0176C61.4728 41.2571 61.9041 41.5992 62.3125 41.9837C64.0669 43.6347 66.0621 44.9121 68.3028 45.8011C70.5238 46.6825 72.8436 47.1021 75.217 47.2498C77.4445 47.3881 79.278 48.8179 79.9515 50.9383C80.213 51.7614 80.2187 52.6108 80.2234 53.4509C80.2412 56.177 80.3118 58.9031 80.1726 61.6302C80.0286 64.4542 79.6994 67.2471 79.0146 69.9912C77.9168 74.3964 75.9046 78.3116 72.7222 81.5881C69.3677 85.0404 65.2691 87.268 60.7716 88.8324C59.9918 89.1033 59.1969 89.0394 58.4189 88.7609C56.3485 88.0206 54.3448 87.1344 52.4399 86.0319C46.9546 82.8571 43.1222 78.3163 41.0753 72.293C39.7912 68.5161 39.3237 64.6019 39.2023 60.6463C39.1177 57.891 39.16 55.1309 39.2456 52.3719C39.3303 49.6354 41.4657 47.3834 44.3056 47.2413C45.6518 47.1745 46.9866 46.9845 48.3008 46.6788C51.7052 45.8867 54.6844 44.2979 57.2214 41.8897C57.5888 41.5406 57.9859 41.2442 58.4315 41.0278ZM71.6395 64.87C71.6386 58.2654 66.317 52.9448 59.7133 52.9457C53.1077 52.9466 47.789 58.2663 47.79 64.8719C47.7909 71.4784 53.1096 76.7962 59.7162 76.7952C66.3217 76.7952 71.6395 71.4765 71.6395 64.87Z" fill="#FFCF17"/>
<path d="M59.6979 74.11C54.6436 74.1015 50.4688 69.921 50.4688 64.8695C50.4688 59.7982 54.6803 55.6036 59.745 55.629C64.805 55.6554 68.9676 59.8433 68.9497 64.893C68.9318 69.9512 64.7485 74.1184 59.6979 74.11ZM65.5077 62.2497C65.5002 61.5357 65.0825 61.0004 64.5124 60.8499C63.9113 60.6909 63.4494 60.928 63.0355 61.3428C61.3874 62.9975 59.7346 64.6466 58.0837 66.2975C57.588 66.7932 57.587 66.7923 57.1063 66.3135C56.7733 65.9814 56.4431 65.6475 56.1064 65.3192C55.89 65.1084 55.6482 64.9419 55.3378 64.8968C54.7151 64.8065 54.177 65.0492 53.8967 65.5543C53.6022 66.0858 53.6568 66.6691 54.1215 67.1563C54.8994 67.9729 55.7009 68.7678 56.5071 69.557C57.2004 70.2362 57.9661 70.2484 58.6603 69.5589C60.8061 67.4273 62.9358 65.2796 65.0703 63.1367C65.3459 62.8592 65.5049 62.5272 65.5077 62.2497Z" fill="#FFCF17"/>
</g>
<defs>
<filter id="filter0_d_77_274" x="19.1562" y="20.7891" width="141.102" height="148.217" filterUnits="userSpaceOnUse" color-interpolation-filters="sRGB">
<feFlood flood-opacity="0" result="BackgroundImageFix"/>
<feColorMatrix in="SourceAlpha" type="matrix" values="0 0 0 0 0 0 0 0 0 0 0 0 0 0 0 0 0 0 127 0" result="hardAlpha"/>
<feOffset dx="30" dy="30"/>
<feGaussianBlur stdDeviation="25"/>
<feComposite in2="hardAlpha" operator="out"/>
<feColorMatrix type="matrix" values="0 0 0 0 1 0 0 0 0 0.811765 0 0 0 0 0.0901961 0 0 0 0.07 0"/>
<feBlend mode="normal" in2="BackgroundImageFix" result="effect1_dropShadow_77_274"/>
<feBlend mode="normal" in="SourceGraphic" in2="effect1_dropShadow_77_274" result="shape"/>
</filter>
</defs>
</svg>
