<svg width="126" height="21" viewBox="0 0 126 21" fill="none" xmlns="http://www.w3.org/2000/svg">
<path d="M19.9543 7.77397C19.9543 7.90341 19.9543 8.03286 19.9543 8.1623C19.8336 8.372 19.6628 8.5408 19.496 8.71167C18.1726 10.0677 16.8491 11.4233 15.52 12.7742C15.3978 12.8984 15.3569 13.0165 15.3854 13.1868C15.7157 15.1901 16.0404 17.194 16.3681 19.1973C16.451 19.7042 16.3655 19.8849 15.9161 20.123C15.8255 20.123 15.7349 20.123 15.6443 20.123C15.5179 20.0578 15.39 19.9962 15.2658 19.9273C13.5737 18.9938 11.8816 18.0602 10.1925 17.122C10.0636 17.0505 9.96317 17.0495 9.83528 17.1225C9.38688 17.3793 8.93227 17.6258 8.47869 17.8748C7.11382 18.6246 5.74791 19.3733 4.38253 20.1225C4.29191 20.1225 4.2013 20.1225 4.11069 20.1225C3.66229 19.8838 3.57582 19.7011 3.65867 19.1952C3.98642 17.1903 4.31159 15.1855 4.64193 13.1812C4.66834 13.0196 4.63676 12.9036 4.51715 12.7835C3.7876 12.0488 3.06529 11.3073 2.34247 10.5658C1.65071 9.857 0.963616 9.14453 0.272379 8.43569C0.0890841 8.24774 0.0140058 8.0313 0.0947796 7.77966C0.177625 7.52181 0.366615 7.37838 0.633272 7.33644C0.696959 7.3266 0.760646 7.31418 0.824851 7.30434C2.6666 7.02267 4.50731 6.73478 6.35061 6.46553C6.6152 6.4267 6.75396 6.31486 6.86321 6.07875C7.69891 4.27687 8.54704 2.48069 9.38843 0.681399C9.4749 0.497069 9.58882 0.351055 9.78661 0.282708C10.1371 0.161029 10.4644 0.318435 10.6373 0.687095C11.4943 2.51486 12.3548 4.34108 13.2076 6.17092C13.2884 6.34437 13.3986 6.421 13.5845 6.44896C15.4651 6.73064 17.3447 7.02318 19.2258 7.30278C19.5504 7.35042 19.8062 7.47003 19.9543 7.77397Z" fill="#FFCF17"/>
<path d="M46.2746 7.77397C46.2746 7.90341 46.2746 8.03286 46.2746 8.1623C46.1539 8.372 45.9831 8.5408 45.8164 8.71167C44.4929 10.0677 43.1695 11.4233 41.8403 12.7742C41.7181 12.8984 41.6772 13.0165 41.7057 13.1868C42.036 15.1901 42.3607 17.194 42.6884 19.1973C42.7713 19.7042 42.6858 19.8849 42.2364 20.123C42.1458 20.123 42.0552 20.123 41.9646 20.123C41.8382 20.0578 41.7103 19.9962 41.5861 19.9273C39.894 18.9938 38.2019 18.0602 36.5129 17.122C36.3839 17.0505 36.2835 17.0495 36.1556 17.1225C35.7072 17.3793 35.2526 17.6258 34.799 17.8748C33.4341 18.6246 32.0682 19.3733 30.7028 20.1225C30.6122 20.1225 30.5216 20.1225 30.431 20.1225C29.9826 19.8838 29.8961 19.7011 29.979 19.1952C30.3067 17.1903 30.6319 15.1855 30.9622 13.1812C30.9887 13.0196 30.9571 12.9036 30.8375 12.7835C30.1079 12.0488 29.3856 11.3073 28.6628 10.5658C27.971 9.857 27.2839 9.14453 26.5927 8.43569C26.4094 8.24774 26.3343 8.0313 26.4151 7.77966C26.4979 7.52181 26.6869 7.37838 26.9536 7.33644C27.0173 7.3266 27.081 7.31418 27.1452 7.30434C28.9869 7.02267 30.8276 6.73478 32.6709 6.46553C32.9355 6.4267 33.0743 6.31486 33.1835 6.07875C34.0192 4.27687 34.8674 2.48069 35.7087 0.681399C35.7952 0.497069 35.9091 0.351055 36.1069 0.282708C36.4575 0.161029 36.7847 0.318435 36.9576 0.687095C37.8146 2.51486 38.6751 4.34108 39.5279 6.17092C39.6087 6.34437 39.719 6.421 39.9048 6.44896C41.7854 6.73064 43.665 7.02318 45.5461 7.30278C45.8707 7.35042 46.1265 7.47003 46.2746 7.77397Z" fill="#FFCF17"/>
<path d="M72.5949 7.77397C72.5949 7.90341 72.5949 8.03286 72.5949 8.1623C72.4743 8.372 72.3034 8.5408 72.1367 8.71167C70.8132 10.0677 69.4898 11.4233 68.1606 12.7742C68.0384 12.8984 67.9975 13.0165 68.026 13.1868C68.3563 15.1901 68.681 17.194 69.0087 19.1973C69.0916 19.7042 69.0062 19.8849 68.5567 20.123C68.4661 20.123 68.3755 20.123 68.2849 20.123C68.1586 20.0578 68.0307 19.9962 67.9064 19.9273C66.2143 18.9938 64.5222 18.0602 62.8332 17.122C62.7042 17.0505 62.6038 17.0495 62.4759 17.1225C62.0275 17.3793 61.5729 17.6258 61.1193 17.8748C59.7544 18.6246 58.3885 19.3733 57.0232 20.1225C56.9325 20.1225 56.8419 20.1225 56.7513 20.1225C56.3029 19.8838 56.2164 19.7011 56.2993 19.1952C56.627 17.1903 56.9522 15.1855 57.2826 13.1812C57.309 13.0196 57.2774 12.9036 57.1578 12.7835C56.4282 12.0488 55.7059 11.3073 54.9831 10.5658C54.2913 9.857 53.6042 9.14453 52.913 8.43569C52.7297 8.24774 52.6546 8.0313 52.7354 7.77966C52.8182 7.52181 53.0072 7.37838 53.2739 7.33644C53.3376 7.3266 53.4013 7.31418 53.4655 7.30434C55.3072 7.02267 57.1479 6.73478 58.9912 6.46553C59.2558 6.4267 59.3946 6.31486 59.5038 6.07875C60.3395 4.27687 61.1877 2.48069 62.0291 0.681399C62.1155 0.497069 62.2294 0.351055 62.4272 0.282708C62.7778 0.161029 63.105 0.318435 63.2779 0.687095C64.1349 2.51486 64.9954 4.34108 65.8482 6.17092C65.929 6.34437 66.0393 6.421 66.2252 6.44896C68.1057 6.73064 69.9853 7.02318 71.8664 7.30278C72.191 7.35042 72.4468 7.47003 72.5949 7.77397Z" fill="#FFCF17"/>
<path d="M98.923 7.77397C98.923 7.90341 98.923 8.03286 98.923 8.1623C98.8024 8.372 98.6315 8.5408 98.4648 8.71167C97.1413 10.0677 95.8179 11.4233 94.4887 12.7742C94.3666 12.8984 94.3256 13.0165 94.3541 13.1868C94.6845 15.1901 95.0091 17.194 95.3369 19.1973C95.4197 19.7042 95.3343 19.8849 94.8849 20.123C94.7942 20.123 94.7036 20.123 94.613 20.123C94.4867 20.0578 94.3588 19.9962 94.2345 19.9273C92.5424 18.9938 90.8503 18.0602 89.1613 17.122C89.0324 17.0505 88.9319 17.0495 88.804 17.1225C88.3556 17.3793 87.901 17.6258 87.4474 17.8748C86.0826 18.6246 84.7167 19.3733 83.3513 20.1225C83.2607 20.1225 83.1701 20.1225 83.0794 20.1225C82.631 19.8838 82.5446 19.7011 82.6274 19.1952C82.9552 17.1903 83.2803 15.1855 83.6107 13.1812C83.6371 13.0196 83.6055 12.9036 83.4859 12.7835C82.7563 12.0488 82.034 11.3073 81.3112 10.5658C80.6195 9.857 79.9324 9.14453 79.2411 8.43569C79.0578 8.24774 78.9828 8.0313 79.0635 7.77966C79.1464 7.52181 79.3354 7.37838 79.602 7.33644C79.6657 7.3266 79.7294 7.31418 79.7936 7.30434C81.6353 7.02267 83.4761 6.73478 85.3194 6.46553C85.5839 6.4267 85.7227 6.31486 85.832 6.07875C86.6677 4.27687 87.5158 2.48069 88.3572 0.681399C88.4437 0.497069 88.5576 0.351055 88.7554 0.282708C89.1059 0.161029 89.4331 0.318435 89.6061 0.687095C90.463 2.51486 91.3236 4.34108 92.1763 6.17092C92.2571 6.34437 92.3674 6.421 92.5533 6.44896C94.4339 6.73064 96.3134 7.02318 98.1945 7.30278C98.5192 7.35042 98.7749 7.47003 98.923 7.77397Z" fill="#FFCF17"/>
<path d="M125.251 7.77397C125.251 7.90341 125.251 8.03286 125.251 8.1623C125.131 8.372 124.96 8.5408 124.793 8.71167C123.469 10.0677 122.146 11.4233 120.817 12.7742C120.695 12.8984 120.654 13.0165 120.682 13.1868C121.013 15.1901 121.337 17.194 121.665 19.1973C121.748 19.7042 121.662 19.8849 121.213 20.123C121.122 20.123 121.032 20.123 120.941 20.123C120.815 20.0578 120.687 19.9962 120.563 19.9273C118.871 18.9938 117.178 18.0602 115.489 17.122C115.36 17.0505 115.26 17.0495 115.132 17.1225C114.684 17.3793 114.229 17.6258 113.776 17.8748C112.411 18.6246 111.045 19.3733 109.679 20.1225C109.589 20.1225 109.498 20.1225 109.408 20.1225C108.959 19.8838 108.873 19.7011 108.956 19.1952C109.283 17.1903 109.608 15.1855 109.939 13.1812C109.965 13.0196 109.934 12.9036 109.814 12.7835C109.084 12.0488 108.362 11.3073 107.639 10.5658C106.948 9.857 106.26 9.14453 105.569 8.43569C105.386 8.24774 105.311 8.0313 105.392 7.77966C105.474 7.52181 105.663 7.37838 105.93 7.33644C105.994 7.3266 106.058 7.31418 106.122 7.30434C107.963 7.02267 109.804 6.73478 111.647 6.46553C111.912 6.4267 112.051 6.31486 112.16 6.07875C112.996 4.27687 113.844 2.48069 114.685 0.681399C114.772 0.497069 114.886 0.351055 115.083 0.282708C115.434 0.161029 115.761 0.318435 115.934 0.687095C116.791 2.51486 117.652 4.34108 118.504 6.17092C118.585 6.34437 118.696 6.421 118.881 6.44896C120.762 6.73064 122.642 7.02318 124.523 7.30278C124.847 7.35042 125.103 7.47003 125.251 7.77397Z" fill="#FFCF17"/>
</svg>
