<svg width="408" height="386" viewBox="0 0 408 386" fill="none" xmlns="http://www.w3.org/2000/svg">
<path d="M74.309 212.375C5.70168 251.989 5.70168 316.212 74.309 355.825C142.925 395.439 254.161 395.439 322.777 355.825C391.384 316.212 391.384 251.989 322.777 212.375C254.161 172.761 142.925 172.761 74.309 212.375Z" fill="#FAFAFA"/>
<path d="M171.841 27.3198L168.43 29.0081V21.1094C168.43 15.1488 163.675 13.719 158.515 16.6993C153.356 19.6796 149.17 26.9236 149.17 32.8842V33.9782C147.998 33.513 146.491 33.6939 144.837 34.65C141.125 36.7948 138.11 42.006 138.11 46.2956V46.7952L133.355 49.5429C130.909 50.9556 128.928 54.3924 128.928 57.209C128.928 60.0343 130.909 61.1799 133.355 59.7673L171.841 37.5442C174.287 36.1316 176.268 32.6947 176.268 29.8781C176.268 27.0614 174.287 25.9072 171.841 27.3198Z" fill="#F0F0F0"/>
<path d="M231.429 17.1816L225.244 20.7562C225.279 20.4806 225.296 20.2049 225.296 19.9379V18.1377C225.296 14.9506 223.057 13.6586 220.292 15.2521C219.172 15.8981 218.147 16.9232 217.311 18.1204C216.855 14.1151 213.711 12.6164 209.895 14.8214C205.76 17.2074 202.418 23.0044 202.418 27.7763V30.4551C202.418 31.6869 202.651 32.7291 203.056 33.5646L197.922 36.5277C196.389 37.4149 195.148 39.5597 195.148 41.3341C195.148 43.0999 196.389 43.8234 197.922 42.9362L231.438 23.5815C232.971 22.6943 234.211 20.5495 234.211 18.7751C234.203 17.0093 232.962 16.2944 231.429 17.1816Z" fill="#F0F0F0"/>
<path d="M125.319 318.168C133.996 318.168 141.03 314.107 141.03 309.097C141.03 304.088 133.996 300.027 125.319 300.027C116.642 300.027 109.607 304.088 109.607 309.097C109.607 314.107 116.642 318.168 125.319 318.168Z" fill="#E0E0E0"/>
<path d="M89.2012 305.522C95.3341 309.062 105.283 309.062 111.416 305.522C117.549 301.982 117.549 296.236 111.416 292.696C105.283 289.156 95.3341 289.156 89.2012 292.696C83.0683 296.236 83.0683 301.982 89.2012 305.522Z" fill="#E0E0E0"/>
<path d="M170.532 315.608C169.145 314.807 169.145 312.8 170.532 311.999L282.742 247.225C283.388 246.855 284.18 246.855 284.826 247.225C286.213 248.026 286.213 250.033 284.826 250.834L172.617 315.6C171.979 315.979 171.178 315.979 170.532 315.608Z" fill="#E0E0E0"/>
<path d="M312.795 252.781L306.559 256.381C305.051 257.251 303.199 257.251 301.692 256.381L277.281 242.289C275.886 241.488 275.886 239.473 277.281 238.663L283.517 235.063C285.025 234.193 286.876 234.193 288.384 235.063L312.795 249.154C314.19 249.964 314.19 251.98 312.795 252.781Z" fill="#E0E0E0"/>
<path d="M271.878 278.674L277.804 275.237C279.587 274.203 282.481 274.195 284.273 275.228L286.34 276.417L294.049 271.964C294.747 271.559 295.875 271.559 296.573 271.964L296.625 271.99C297.322 272.394 297.322 273.04 296.625 273.445L288.915 277.899L289.346 278.148C291.129 279.182 291.138 280.853 289.346 281.887L283.42 285.315L274.772 290.311L263.238 283.652L271.878 278.674Z" fill="#E0E0E0"/>
<path d="M357.024 296.632C378.869 296.632 396.578 286.409 396.578 273.798C396.578 261.186 378.869 250.963 357.024 250.963C335.179 250.963 317.471 261.186 317.471 273.798C317.471 286.409 335.179 296.632 357.024 296.632Z" fill="#E0E0E0"/>
<path d="M50.9658 348.322C72.8107 348.322 90.5194 338.098 90.5194 325.487C90.5194 312.876 72.8107 302.652 50.9658 302.652C29.1209 302.652 11.4121 312.876 11.4121 325.487C11.4121 338.098 29.1209 348.322 50.9658 348.322Z" fill="#E0E0E0"/>
<path d="M113.717 276.57L87.4712 276.217L87.2387 297.647C87.2128 299.586 88.479 301.541 91.02 303.048C96.1107 306.063 104.423 306.149 109.582 303.246C112.184 301.782 113.484 299.835 113.484 297.88L113.717 276.57Z" fill="#37474F"/>
<path d="M91.3818 270.903C86.2222 273.806 86.1706 278.604 91.2698 281.619C96.3605 284.633 104.673 284.72 109.832 281.817C114.992 278.914 115.043 274.116 109.944 271.101C104.845 268.095 96.5413 268.001 91.3818 270.903Z" fill="#455A64"/>
<path d="M112.587 276.485C112.587 276.829 112.518 277.174 112.397 277.51C112.001 278.741 110.924 279.878 109.253 280.826C106.927 282.126 103.827 282.824 100.51 282.798C97.2113 282.755 94.1276 281.997 91.8278 280.645C90.217 279.689 89.1575 278.535 88.7872 277.329C88.658 276.976 88.5977 276.597 88.5977 276.226C88.6235 274.624 89.7949 273.082 91.9225 271.902C94.2396 270.593 97.3491 269.887 100.648 269.93C103.964 269.955 107.048 270.731 109.348 272.083C111.467 273.332 112.604 274.891 112.587 276.485Z" fill="#263238"/>
<path d="M112.407 277.519C112.011 278.751 110.934 279.888 109.263 280.835C106.937 282.136 103.836 282.833 100.52 282.808C97.221 282.765 94.1373 282.007 91.8375 280.654C90.2267 279.698 89.1673 278.544 88.7969 277.338C89.1931 276.106 90.2698 274.969 91.9408 274.039C94.2579 272.721 97.3674 272.023 100.666 272.058C103.983 272.101 107.066 272.876 109.366 274.229C110.977 275.176 112.019 276.322 112.407 277.519Z" fill="#F5F5F5"/>
<path opacity="0.15" d="M109.262 280.827C109.701 280.578 110.098 280.319 110.459 280.044C105.67 282.61 97.4269 281.534 94.8601 279.51C92.2932 277.494 91.9487 274.04 96.1263 272.498C94.5758 272.834 93.1546 273.342 91.9487 274.031C90.2776 274.962 89.2095 276.099 88.8047 277.33C89.1751 278.528 90.2345 279.69 91.8453 280.647C94.1451 281.999 97.2288 282.757 100.528 282.8C103.835 282.826 106.936 282.128 109.262 280.827Z" fill="black"/>
<path d="M106.188 284.609C106.766 284.281 107.222 284.557 107.214 285.22C107.205 285.883 106.731 286.676 106.154 287.003C105.577 287.331 105.12 287.055 105.129 286.392C105.146 285.728 105.62 284.927 106.188 284.609Z" fill="#263238"/>
<path d="M87.4366 279.99C85.9981 282.833 83.1212 289.603 86.8509 292.359C87.0059 292.471 87.1524 292.575 87.3074 292.669L87.2902 294.039C86.9198 293.806 86.5322 293.556 86.1618 293.281C80.5888 289.155 86.8767 278.56 87.1437 278.112C87.2127 277.983 87.3332 277.914 87.4538 277.871L87.4366 279.99Z" fill="#E0E0E0"/>
<path d="M106.678 286.071C106.523 286.398 102.466 294.151 95.7993 295.71C95.0241 295.899 94.2747 295.985 93.4995 295.985C91.4322 295.985 89.3563 295.339 87.2891 294.047L87.3063 292.678C90.0626 294.59 92.8362 295.245 95.5409 294.616C101.691 293.177 105.636 285.623 105.662 285.546C105.808 285.261 106.161 285.158 106.437 285.305C106.721 285.442 106.833 285.787 106.678 286.071Z" fill="#E0E0E0"/>
<path d="M138.731 286.562L112.485 286.209L112.252 307.64C112.226 309.578 113.493 311.533 116.034 313.04C121.124 316.055 129.436 316.141 134.596 313.238C137.197 311.774 138.498 309.827 138.498 307.872L138.731 286.562Z" fill="#37474F"/>
<path d="M116.395 280.895C111.236 283.798 111.184 288.595 116.283 291.61C121.374 294.625 129.686 294.711 134.846 291.808C140.005 288.905 140.057 284.108 134.958 281.093C129.859 278.078 121.546 277.992 116.395 280.895Z" fill="#455A64"/>
<path d="M137.602 286.477C137.602 286.821 137.533 287.166 137.413 287.502C137.016 288.734 135.94 289.87 134.269 290.818C131.943 292.119 128.842 292.816 125.526 292.791C122.227 292.747 119.143 291.989 116.843 290.637C115.233 289.681 114.173 288.527 113.803 287.321C113.674 286.968 113.613 286.589 113.613 286.218C113.639 284.616 114.811 283.074 116.938 281.894C119.255 280.585 122.365 279.879 125.664 279.922C128.98 279.948 132.064 280.723 134.363 282.075C136.474 283.324 137.619 284.875 137.602 286.477Z" fill="#263238"/>
<g filter="url(#filter0_d_822_2113)">
<path d="M137.42 287.501C137.024 288.733 135.948 289.87 134.276 290.818C131.951 292.118 128.85 292.816 125.534 292.79C122.235 292.747 119.151 291.989 116.851 290.637C115.24 289.681 114.181 288.526 113.811 287.32C114.207 286.089 115.283 284.952 116.955 284.021C119.272 282.704 122.381 282.006 125.68 282.04C128.996 282.083 132.08 282.859 134.38 284.211C135.991 285.158 137.033 286.304 137.42 287.501Z" fill="url(#paint0_linear_822_2113)"/>
</g>
<path opacity="0.15" d="M134.278 290.818C134.717 290.568 135.113 290.309 135.475 290.034C130.686 292.601 122.443 291.524 119.876 289.5C117.309 287.484 116.964 284.03 121.142 282.488C119.591 282.824 118.17 283.332 116.964 284.022C115.293 284.952 114.225 286.089 113.82 287.321C114.191 288.518 115.25 289.681 116.861 290.637C119.161 291.989 122.244 292.747 125.543 292.79C128.851 292.816 131.952 292.118 134.278 290.818Z" fill="black"/>
<path d="M131.202 294.591C131.779 294.264 132.236 294.539 132.227 295.203C132.219 295.866 131.745 296.658 131.168 296.986C130.591 297.313 130.134 297.037 130.143 296.374C130.151 295.711 130.625 294.918 131.202 294.591Z" fill="#263238"/>
<path d="M112.442 289.972C111.004 292.815 108.127 299.585 111.857 302.342C112.012 302.454 112.158 302.557 112.313 302.652L112.296 304.021C111.926 303.789 111.538 303.539 111.168 303.263C105.595 299.137 111.883 288.543 112.15 288.095C112.219 287.965 112.339 287.897 112.46 287.854L112.442 289.972Z" fill="#E0E0E0"/>
<path d="M131.694 296.054C131.539 296.381 127.482 304.133 120.815 305.692C120.04 305.882 119.29 305.968 118.515 305.968C116.448 305.968 114.372 305.322 112.305 304.03L112.322 302.66C115.078 304.572 117.852 305.227 120.565 304.598C126.715 303.16 130.66 295.606 130.686 295.528C130.833 295.244 131.186 295.141 131.461 295.287C131.737 295.425 131.849 295.769 131.694 296.054Z" fill="#E0E0E0"/>
<path d="M282.165 248.241C282.036 248.241 281.906 248.172 281.838 248.051C281.734 247.871 281.794 247.638 281.975 247.535L286.808 244.744C286.988 244.64 287.221 244.701 287.324 244.882C287.428 245.062 287.367 245.295 287.187 245.398L282.354 248.189C282.294 248.224 282.234 248.241 282.165 248.241Z" fill="#37474F"/>
<path d="M282.871 245.925C283.655 246.381 284.284 247.484 284.275 248.388C284.275 248.845 284.111 249.163 283.844 249.31L172.048 313.852L170.059 310.372L281.846 245.839C282.113 245.675 282.475 245.692 282.871 245.925Z" fill="#455A64"/>
<path d="M172.47 312.929C172.47 313.833 171.832 314.195 171.049 313.738C170.265 313.282 169.636 312.179 169.645 311.275C169.645 310.37 170.282 310.009 171.066 310.465C171.841 310.922 172.478 312.024 172.47 312.929Z" fill="#37474F"/>
<path d="M276.616 237.692C276.487 237.692 276.358 237.623 276.289 237.503C276.185 237.322 276.246 237.089 276.427 236.986L283.085 233.144C283.257 233.041 283.498 233.101 283.602 233.282C283.705 233.463 283.645 233.695 283.464 233.799L276.805 237.64C276.745 237.675 276.676 237.692 276.616 237.692Z" fill="#37474F"/>
<g filter="url(#filter1_d_822_2113)">
<path d="M281.087 227.022C278.589 228.46 276.557 231.975 276.557 234.86C276.557 236.333 277.082 237.35 277.926 237.815L304.689 253.233L311.14 242.173L284.378 226.755L284.369 226.763C283.542 226.238 282.379 226.272 281.087 227.022Z" fill="url(#paint1_linear_822_2113)"/>
</g>
<path d="M303.318 250.279C303.318 247.393 305.343 243.879 307.849 242.441C310.347 241.002 312.371 242.165 312.371 245.059C312.371 247.945 310.347 251.459 307.841 252.898C305.351 254.336 303.318 253.165 303.318 250.279Z" fill="#BA68C8"/>
<g filter="url(#filter2_d_822_2113)">
<path d="M303.318 250.279C303.318 247.393 305.343 243.879 307.849 242.441C310.347 241.002 312.371 242.165 312.371 245.059C312.371 247.945 310.347 251.459 307.841 252.898C305.351 254.336 303.318 253.165 303.318 250.279Z" fill="url(#paint2_linear_822_2113)"/>
</g>
<path d="M306.67 248.348C306.67 247.599 307.195 246.685 307.85 246.306C308.505 245.927 309.03 246.238 309.03 246.987C309.03 247.736 308.505 248.649 307.85 249.028C307.195 249.399 306.67 249.097 306.67 248.348Z" fill="black"/>
<path d="M299.65 252.382C299.177 252.382 298.703 252.261 298.281 252.02L276.428 239.401C275.989 239.152 275.73 238.695 275.73 238.187C275.73 237.679 275.989 237.231 276.428 236.972C276.6 236.869 276.842 236.929 276.945 237.11C277.048 237.291 276.988 237.524 276.807 237.627C276.609 237.739 276.488 237.954 276.488 238.187C276.488 238.419 276.609 238.626 276.807 238.738L298.66 251.357C299.271 251.71 300.038 251.71 300.65 251.357L307.661 247.309C307.842 247.205 308.075 247.266 308.178 247.446C308.281 247.627 308.221 247.86 308.04 247.963L301.029 252.012C300.607 252.261 300.124 252.382 299.65 252.382Z" fill="#37474F"/>
<path d="M283.784 278.394L294.964 271.951C295.18 271.822 295.318 271.555 295.318 271.176C295.318 270.409 294.784 269.479 294.12 269.1C293.793 268.911 293.492 268.893 293.276 269.014L282.096 275.457L283.784 278.394Z" fill="#455A64"/>
<path d="M284.973 273.795L288.366 275.759L283.784 278.395L282.096 275.457L284.973 273.795Z" fill="#37474F"/>
<path d="M272.275 279.142L274.549 277.824L272.275 276.506L276.953 273.801C278.365 272.983 280.648 272.983 282.052 273.801L286.04 276.11C286.703 276.489 287.056 276.997 287.091 277.496C287.091 277.548 287.108 279.805 287.082 280.296C287.056 280.804 286.703 281.304 286.04 281.691L281.363 284.396L272.275 279.142Z" fill="#37474F"/>
<path d="M286.04 276.119L282.052 273.811C280.648 272.993 278.357 272.993 276.953 273.811L272.275 276.516L281.363 281.779L286.04 279.074C287.453 278.256 287.453 276.938 286.04 276.119Z" fill="#455A64"/>
<path d="M281.363 281.77L272.276 276.516L265.445 280.443L274.541 285.706L281.363 281.77Z" fill="#F0F0F0"/>
<path d="M281.364 281.77L274.542 285.706L274.533 288.333L281.364 284.397V281.77Z" fill="#EBEBEB"/>
<g filter="url(#filter3_d_822_2113)">
<path d="M283.396 280.598L274.309 275.335L275.23 274.801L284.369 280.038L283.396 280.598Z" fill="url(#paint3_linear_822_2113)"/>
</g>
<path d="M283.395 280.599L283.387 283.226L284.369 282.666V280.039L283.395 280.599Z" fill="#BA68C8"/>
<g filter="url(#filter4_d_822_2113)">
<path d="M283.395 280.599L283.387 283.226L284.369 282.666V280.039L283.395 280.599Z" fill="url(#paint4_linear_822_2113)"/>
</g>
<path d="M276.616 287.126C276.616 287.126 277.865 285.524 277.193 284.172L274.531 285.705V288.332L276.616 287.126Z" fill="#BA68C8"/>
<g filter="url(#filter5_d_822_2113)">
<path d="M276.616 287.126C276.616 287.126 277.865 285.524 277.193 284.172L274.531 285.705V288.332L276.616 287.126Z" fill="url(#paint5_linear_822_2113)"/>
</g>
<g filter="url(#filter6_d_822_2113)">
<path d="M277.202 284.173C277.202 284.173 277.021 282.399 275.342 281.675C274.101 281.141 271.465 282.226 270.38 280.452C269.613 279.203 270.458 277.566 270.458 277.566L265.453 280.443L274.54 285.706L277.202 284.173Z" fill="url(#paint6_linear_822_2113)"/>
</g>
<path d="M265.445 280.439V283.067L274.533 288.33L274.541 285.702L265.445 280.439Z" fill="#BA68C8"/>
<g filter="url(#filter7_d_822_2113)">
<path d="M265.445 280.439V283.067L274.533 288.33L274.541 285.702L265.445 280.439Z" fill="url(#paint7_linear_822_2113)"/>
</g>
<g filter="url(#filter8_d_822_2113)">
<path d="M291.545 116.824L276.574 125.464V164.587L288.849 171.676V132.561L303.828 123.905L291.545 116.824Z" fill="#FFCF17"/>
</g>
<path d="M276.574 164.586C276.574 174.767 273.903 181.951 268.58 186.172C269.106 195.483 272.482 198.343 278.71 194.742C285.471 190.84 288.848 183.148 288.848 171.692L276.574 164.586Z" fill="#BA68C8"/>
<g filter="url(#filter9_d_822_2113)">
<path d="M276.574 164.586C276.574 174.767 273.903 181.951 268.58 186.172C269.106 195.483 272.482 198.343 278.71 194.742C285.471 190.84 288.848 183.148 288.848 171.692L276.574 164.586Z" fill="#FFCF17"/>
</g>
<g filter="url(#filter10_d_822_2113)">
<path d="M256.219 137.211L241.008 145.997V185.731L253.299 192.812V153.086L268.494 144.309L256.219 137.211Z" fill="#FFCF17"/>
</g>
<path d="M259.941 213.666C255.505 210.419 253.299 203.476 253.299 192.821L241.008 185.732C241.008 196.379 243.222 203.33 247.649 206.569C247.993 206.819 248.347 207.051 248.708 207.258C250.578 208.3 258.795 213.081 260.587 214.114C260.363 213.968 260.147 213.813 259.941 213.666Z" fill="#BA68C8"/>
<g filter="url(#filter11_d_822_2113)">
<path d="M259.941 213.666C255.505 210.419 253.299 203.476 253.299 192.821L241.008 185.732C241.008 196.379 243.222 203.33 247.649 206.569C247.993 206.819 248.347 207.051 248.708 207.258C250.578 208.3 258.795 213.081 260.587 214.114C260.363 213.968 260.147 213.813 259.941 213.666Z" fill="#FFCF17"/>
</g>
<path opacity="0.5" d="M288.847 132.56L276.564 125.463L291.544 116.814L303.827 123.912L288.847 132.56Z" fill="white"/>
<path opacity="0.5" d="M253.291 153.086L241.008 145.997L256.219 137.211L268.502 144.309L253.291 153.086Z" fill="white"/>
<path d="M259.932 213.666C255.505 210.419 253.291 203.476 253.291 192.821V153.086L268.494 144.309V183.424C268.494 194.897 271.896 198.661 278.71 194.733C285.471 190.831 288.848 183.148 288.848 171.675V132.56L303.827 123.912V163.647C303.827 174.293 301.613 183.803 297.186 192.158C292.759 200.522 286.548 206.999 278.563 211.616C270.57 216.224 264.359 216.913 259.932 213.666Z" fill="#BA68C8"/>
<g filter="url(#filter12_d_822_2113)">
<path d="M259.932 213.666C255.505 210.419 253.291 203.476 253.291 192.821V153.086L268.494 144.309V183.424C268.494 194.897 271.896 198.661 278.71 194.733C285.471 190.831 288.848 183.148 288.848 171.675V132.56L303.827 123.912V163.647C303.827 174.293 301.613 183.803 297.186 192.158C292.759 200.522 286.548 206.999 278.563 211.616C270.57 216.224 264.359 216.913 259.932 213.666Z" fill="url(#paint8_linear_822_2113)"/>
</g>
<path d="M224.169 163.846C222.592 162.95 220.852 162.373 218.94 162.123C214.401 161.529 209.302 162.872 203.617 166.154C197.932 169.445 192.824 173.984 188.293 179.815L200.567 186.913C205.107 181.09 210.206 176.534 215.891 173.252C221.576 169.961 226.684 168.626 231.215 169.221C233.17 169.47 234.944 170.056 236.529 170.986C234.91 170.039 226.245 165.026 224.169 163.846Z" fill="#FFCF17"/>
<path d="M188.286 179.814C183.746 185.637 180.189 192.132 177.613 199.29L189.888 206.387C192.48 199.23 196.038 192.735 200.56 186.912L188.286 179.814Z" fill="#FFCF17"/>
<path d="M189.895 206.389L177.621 199.291C175.028 206.449 173.736 213.581 173.736 220.679C173.736 227.776 175.028 233.41 177.621 237.596L189.895 244.685C187.311 240.507 186.011 234.874 186.011 227.776C186.011 220.67 187.311 213.547 189.895 206.389Z" fill="#FFCF17"/>
<path d="M189.895 244.685L177.621 237.596C179.103 239.982 180.894 241.791 183.022 242.996C184.555 243.875 192.712 248.595 195.089 249.965C193.057 248.75 191.325 246.993 189.895 244.685Z" fill="#FFCF17"/>
<path d="M217.141 189.396C217.278 189.327 217.408 189.275 217.545 189.215C217.408 189.275 217.27 189.335 217.141 189.396Z" fill="#37474F"/>
<path d="M223.263 188.343C221.515 187.998 219.611 188.291 217.535 189.213C217.914 190.918 218.121 192.848 218.121 195.044C218.121 199.076 217.475 203.021 216.191 206.862C214.908 210.713 213.168 214.123 210.972 217.095C208.775 220.075 206.312 222.349 203.607 223.917C203.038 224.236 202.487 224.511 201.953 224.744C202.255 226.165 202.711 227.414 203.297 228.491C204.58 230.86 206.312 232.264 208.517 232.703C210.713 233.134 213.177 232.574 215.881 230.998C218.595 229.438 221.049 227.156 223.263 224.184C225.46 221.212 227.208 217.793 228.483 213.951C229.766 210.101 230.395 206.173 230.395 202.133C230.395 198.111 229.758 194.907 228.483 192.538C227.208 190.186 225.46 188.782 223.263 188.343Z" fill="#FFCF17"/>
<path d="M200.568 251.834C196.037 251.239 192.48 248.862 189.896 244.684C187.312 240.507 186.02 234.874 186.02 227.776C186.02 220.678 187.312 213.546 189.896 206.388C192.48 199.23 196.037 192.736 200.568 186.913C205.099 181.09 210.207 176.534 215.892 173.252C221.576 169.97 226.684 168.626 231.215 169.221C233.17 169.479 234.936 170.065 236.53 170.986C238.631 172.201 240.414 174.001 241.887 176.37C244.471 180.548 245.763 186.181 245.763 193.278C245.763 200.376 244.471 207.508 241.887 214.666C239.303 221.824 235.746 228.319 231.215 234.141C226.684 239.964 221.576 244.521 215.892 247.803C210.207 251.076 205.099 252.428 200.568 251.834ZM223.265 224.184C225.461 221.204 227.21 217.793 228.485 213.951C229.759 210.109 230.405 206.173 230.405 202.142C230.405 198.119 229.768 194.915 228.485 192.546C227.201 190.178 225.461 188.782 223.265 188.343C221.06 187.912 218.605 188.472 215.892 190.04C213.178 191.607 210.723 193.881 208.518 196.853C206.313 199.833 204.573 203.244 203.298 207.086C202.015 210.936 201.378 214.873 201.378 218.895C201.378 222.927 202.015 226.122 203.298 228.491C204.573 230.86 206.322 232.264 208.518 232.694C210.715 233.134 213.178 232.565 215.892 230.997C218.605 229.438 221.06 227.164 223.265 224.184Z" fill="#BA68C8"/>
<g filter="url(#filter13_d_822_2113)">
<path d="M200.568 251.834C196.037 251.239 192.48 248.862 189.896 244.684C187.312 240.507 186.02 234.874 186.02 227.776C186.02 220.678 187.312 213.546 189.896 206.388C192.48 199.23 196.037 192.736 200.568 186.913C205.099 181.09 210.207 176.534 215.892 173.252C221.576 169.97 226.684 168.626 231.215 169.221C233.17 169.479 234.936 170.065 236.53 170.986C238.631 172.201 240.414 174.001 241.887 176.37C244.471 180.548 245.763 186.181 245.763 193.278C245.763 200.376 244.471 207.508 241.887 214.666C239.303 221.824 235.746 228.319 231.215 234.141C226.684 239.964 221.576 244.521 215.892 247.803C210.207 251.076 205.099 252.428 200.568 251.834ZM223.265 224.184C225.461 221.204 227.21 217.793 228.485 213.951C229.759 210.109 230.405 206.173 230.405 202.142C230.405 198.119 229.768 194.915 228.485 192.546C227.201 190.178 225.461 188.782 223.265 188.343C221.06 187.912 218.605 188.472 215.892 190.04C213.178 191.607 210.723 193.881 208.518 196.853C206.313 199.833 204.573 203.244 203.298 207.086C202.015 210.936 201.378 214.873 201.378 218.895C201.378 222.927 202.015 226.122 203.298 228.491C204.573 230.86 206.322 232.264 208.518 232.694C210.715 233.134 213.178 232.565 215.892 230.997C218.605 229.438 221.06 227.164 223.265 224.184Z" fill="url(#paint9_linear_822_2113)"/>
</g>
<path d="M174.959 184.131L160.212 192.641L150.427 220.136L146.999 214.459L134.716 207.362L118.66 216.63L139.169 250.464V276.477L151.452 283.566L166.664 274.789V249.086L187.242 191.22L174.959 184.131Z" fill="#8FC3FC"/>
<path opacity="0.5" d="M174.959 184.131L160.212 192.641L150.427 220.136L146.999 214.459L134.716 207.362L118.66 216.63L139.169 250.464V276.477L151.452 283.566L166.664 274.789V249.086L187.242 191.22L174.959 184.131Z" fill="#FFCF17"/>
<path d="M160.215 192.643L172.498 199.74L159.75 235.564L150.43 220.137L160.215 192.643Z" fill="#FFCF17"/>
<path d="M118.66 216.631L130.943 223.728L151.452 257.554L139.169 250.465L118.66 216.631Z" fill="#FFCF17"/>
<path d="M139.17 276.478L151.453 283.567V257.554L139.17 250.465V276.478Z" fill="#FFCF17"/>
<path d="M166.665 249.089V274.792L151.462 283.569V257.556L130.953 223.722L147.009 214.454L159.757 235.565L172.505 199.733L187.252 191.223L166.665 249.089Z" fill="#BA68C8"/>
<g filter="url(#filter14_d_822_2113)">
<path d="M166.665 249.089V274.792L151.462 283.569V257.556L130.953 223.722L147.009 214.454L159.757 235.565L172.505 199.733L187.252 191.223L166.665 249.089Z" fill="url(#paint10_linear_822_2113)"/>
</g>
<path d="M282.732 24.2012L267.831 32.7975V65.4087L256.383 53.5908L244.1 46.5018L231.576 53.7286V125.411L243.859 132.509L258.761 123.904V91.2925L270.208 103.11L282.491 110.199L295.015 102.973V31.2902L282.732 24.2012Z" fill="#37474F"/>
<path d="M295.015 31.291V102.973L282.499 110.2L258.769 85.7032V123.896L243.867 132.501V60.8271L256.383 53.6002L280.113 78.0973V39.896L295.015 31.291Z" fill="#455A64"/>
<path d="M231.576 53.7288L243.859 60.8264L256.383 53.5909L244.1 46.502L231.576 53.7288Z" fill="#455A64"/>
<path opacity="0.2" d="M231.576 53.7288L243.859 60.8264L256.383 53.5909L244.1 46.502L231.576 53.7288Z" fill="white"/>
<path d="M267.83 32.7975L280.113 39.8952L295.015 31.2902L282.732 24.2012L267.83 32.7975Z" fill="#455A64"/>
<path opacity="0.2" d="M267.83 32.7975L280.113 39.8952L295.015 31.2902L282.732 24.2012L267.83 32.7975Z" fill="white"/>
<path d="M258.762 85.7031L282.492 110.2L270.209 103.111L258.762 91.2934V85.7031Z" fill="#263238"/>
<path d="M215.752 77.0558L203.469 69.9668L188.49 78.6149L164.76 164.002L177.043 171.091L192.556 162.132L196.777 145.767L219.508 132.639L223.729 144.13L239.552 135L215.752 77.0558Z" fill="#37474F"/>
<path d="M219.516 132.638L196.785 145.765L192.564 162.131L177.051 171.089L200.781 85.7027L215.76 77.0547L239.568 134.99L223.745 144.12L219.516 132.638ZM215.063 120.252L208.155 101.302L201.246 128.228L215.063 120.252Z" fill="#455A64"/>
<path d="M188.49 78.6051L200.773 85.7027L215.752 77.0546L203.469 69.957L188.49 78.6051Z" fill="#455A64"/>
<path opacity="0.2" d="M188.49 78.6051L200.773 85.7027L215.752 77.0546L203.469 69.957L188.49 78.6051Z" fill="white"/>
<path d="M215.055 120.252L204.805 114.334L208.155 101.311L215.055 120.252Z" fill="#263238"/>
<path d="M160.461 94.7891L145.249 103.566V130.501L136.799 135.385V122.637L124.516 115.539L109.305 124.325V195.999L121.596 203.097L136.799 194.319V166.359L145.249 161.476V175.249L157.532 182.346L172.744 173.56V101.878L160.461 94.7891Z" fill="#37474F"/>
<path d="M172.744 101.879V173.561L157.532 182.339V154.379L136.8 166.352V194.311L121.588 203.089V131.406L136.8 122.629V149.564L157.532 137.591V110.656L172.744 101.879Z" fill="#455A64"/>
<path d="M109.305 124.325L121.596 131.414L136.799 122.637L124.516 115.539L109.305 124.325Z" fill="#455A64"/>
<path opacity="0.2" d="M109.305 124.325L121.596 131.414L136.799 122.637L124.516 115.539L109.305 124.325Z" fill="white"/>
<path d="M145.248 103.566L157.531 110.664L172.743 101.878L160.46 94.7891L145.248 103.566Z" fill="#455A64"/>
<path opacity="0.2" d="M145.248 103.566L157.531 110.664L172.743 101.878L160.46 94.7891L145.248 103.566Z" fill="white"/>
<path d="M145.249 130.502L157.532 137.591L136.799 149.564V135.386L145.249 130.502Z" fill="#455A64"/>
<path opacity="0.2" d="M145.249 130.502L157.532 137.591L136.799 149.564V135.386L145.249 130.502Z" fill="white"/>
<path d="M157.533 154.385V182.345L145.25 175.247V161.474L157.533 154.385Z" fill="#263238"/>
<path d="M350.566 260.747L351.014 252.297L341.435 253.451C341.435 253.451 341.832 257.999 342.107 260.575C342.271 262.099 340.367 265.036 340.367 265.036C340.367 265.036 345.019 267.207 347.387 266.234C349.765 265.252 350.876 262.177 350.807 261.522C350.738 260.867 350.566 260.747 350.566 260.747Z" fill="#FFA8A7"/>
<path d="M328.125 275.132C327.97 275.141 327.806 276.709 328.651 277.346C329.633 278.078 332.475 279.233 336.153 278.647C339.831 278.061 341.786 276.915 343.216 275.71C344.646 274.495 346.662 272.79 348.315 272.385C349.857 272.006 351.511 271.282 351.993 270.817C352.476 270.352 352.329 268.354 352.329 268.354L328.125 275.132Z" fill="#263238"/>
<path d="M350.565 260.729C350.565 260.729 351.03 260.72 351.142 261.176C351.28 261.719 351.461 263.313 351.736 264.208C352.124 265.449 352.451 268.016 352.288 269.041C352.124 270.074 349.617 270.875 348.024 271.513C346.396 272.159 344.535 273.451 342.907 274.803C341.228 276.207 337.627 277.732 335.215 277.809C332.364 277.895 329.126 277.155 328.35 275.949C327.386 274.459 326.653 272.701 330.805 270.712C331.589 270.333 334.337 268.679 335.276 268.076C337.808 266.457 339.574 264.984 340.659 262.245C340.788 261.926 340.918 261.573 341.236 261.4C341.477 261.271 341.779 261.271 342.055 261.297C342.761 261.366 345.578 261.624 346.232 261.883C346.809 262.115 347.628 262.382 347.636 263.054C347.645 263.287 347.576 263.528 347.507 263.752C347.464 263.89 347.429 264.079 347.559 264.157C347.688 264.226 347.843 264.14 347.946 264.036C348.377 263.649 348.678 263.166 349.032 262.718C349.221 262.477 349.428 262.253 349.678 262.055C349.902 261.883 350.186 261.788 350.384 261.59C350.642 261.34 350.565 261.047 350.565 260.729Z" fill="#455A64"/>
<path d="M342.907 274.804C343.622 274.21 344.38 273.633 345.147 273.107C345.147 273.107 340.289 276.113 338.239 274.908C336.912 274.132 337.489 273.107 337.507 272.78C337.524 272.461 332.872 270.368 331.615 270.273C331.27 270.472 330.986 270.627 330.805 270.713C326.653 272.702 327.386 274.451 328.35 275.95C329.134 277.156 331.494 278.034 335.172 277.896C337.584 277.802 341.228 276.208 342.907 274.804Z" fill="#37474F"/>
<path d="M337.825 271.832C335.241 272.909 336.378 273.331 337.11 273.4C337.851 273.469 342.175 270.893 344.793 268.792C347.524 266.604 349.212 264.261 350.228 263.46C350.607 263.158 351.012 262.797 351.374 262.452C351.288 261.918 351.21 261.427 351.15 261.169C351.038 260.712 350.573 260.721 350.573 260.721C350.573 261.039 350.642 261.332 350.401 261.582C350.202 261.78 349.918 261.875 349.694 262.047C349.453 262.237 349.238 262.469 349.048 262.71C348.695 263.158 348.385 263.641 347.963 264.028C345.766 266.845 340.409 270.756 337.825 271.832Z" fill="#37474F"/>
<path d="M337.283 273.028C337.344 273.028 337.395 273.002 337.447 272.968C337.559 272.882 337.568 272.727 337.473 272.623C336.698 271.805 333.114 269.919 331.185 270.186C331.039 270.203 330.944 270.332 330.961 270.461C330.978 270.591 331.099 270.685 331.254 270.668C333.054 270.418 336.465 272.296 337.077 272.942C337.137 273.011 337.206 273.037 337.283 273.028Z" fill="#263238"/>
<path d="M339.522 271.627C339.582 271.627 339.634 271.601 339.685 271.566C339.797 271.48 339.806 271.325 339.711 271.222C338.936 270.404 335.353 268.517 333.423 268.793C333.277 268.81 333.182 268.939 333.199 269.068C333.217 269.198 333.346 269.292 333.492 269.275C335.292 269.025 338.703 270.903 339.315 271.549C339.375 271.61 339.444 271.635 339.522 271.627Z" fill="#263238"/>
<path d="M341.762 270.287C341.822 270.287 341.874 270.261 341.926 270.227C342.038 270.14 342.046 269.985 341.951 269.882C341.176 269.064 337.593 267.177 335.663 267.453C335.517 267.47 335.422 267.599 335.44 267.729C335.457 267.858 335.586 267.953 335.732 267.935C337.533 267.686 340.944 269.555 341.555 270.209C341.615 270.27 341.693 270.296 341.762 270.287Z" fill="#263238"/>
<path d="M343.838 268.793C343.898 268.793 343.95 268.767 344.002 268.732C344.114 268.646 344.122 268.491 344.028 268.388C343.252 267.57 339.66 265.683 337.74 265.959C337.593 265.976 337.498 266.105 337.516 266.235C337.533 266.364 337.662 266.458 337.809 266.441C339.6 266.191 343.02 268.061 343.631 268.715C343.683 268.767 343.761 268.793 343.838 268.793Z" fill="#263238"/>
<path d="M345.862 267.281C345.922 267.281 345.974 267.264 346.017 267.221C346.129 267.135 346.138 266.98 346.043 266.876C344.975 265.713 341.237 264.163 339.316 264.438C339.169 264.456 339.075 264.585 339.092 264.714C339.109 264.843 339.238 264.938 339.385 264.921C341.116 264.68 344.699 266.161 345.647 267.195C345.707 267.255 345.785 267.281 345.862 267.281Z" fill="#263238"/>
<path d="M370.247 264.26L367.861 256.344L377.621 254.596L378.241 262.296C378.241 262.296 379.343 265.027 378.775 266.052C378.198 267.077 371.712 268.377 371.091 267.731C370.471 267.085 370.247 264.26 370.247 264.26Z" fill="#FFA8A7"/>
<path d="M371.65 281.609C372.029 284.072 372.607 285.648 373.726 286.949C374.846 288.25 376.758 288.405 378.619 287.672C380.479 286.94 382.805 285.407 383.167 283.176C383.529 280.945 383.287 279.49 382.659 277.25L371.65 281.609Z" fill="#263238"/>
<path d="M378.24 262.296C379.024 262.227 378.946 265.621 379.687 268.894C380.48 272.4 381.815 273.692 382.495 276.56C383.279 279.842 383.21 281.366 382.065 283.615C380.919 285.854 376.405 288.602 373.847 286.061C371.763 283.994 371.453 281.375 371.341 277.999C371.22 274.501 371.168 272.047 370.781 269.437C370.41 266.947 369.601 264.751 370.255 264.363C370.341 264.725 370.428 265.182 370.514 265.535C370.583 265.81 370.772 267.154 371.211 267.094C371.22 266.766 371.194 266.465 371.142 266.146C371.099 265.862 371.099 265.552 371.289 265.302C371.478 265.052 372.219 264.716 372.529 264.613C373.287 264.355 374.648 264.019 375.423 263.829C375.811 263.734 376.199 263.657 376.586 263.597C376.905 263.545 377.275 263.51 377.585 263.562C377.775 263.597 377.956 263.683 378.042 263.838C378.102 263.95 378.102 264.088 378.12 264.217C378.137 264.449 378.197 264.673 378.275 264.889C378.309 264.983 378.395 265.095 378.507 265.052C378.593 265.018 378.628 264.914 378.619 264.828C378.585 264.424 378.507 264.139 378.438 263.666C378.412 263.45 378.343 263.157 378.318 262.942C378.3 262.727 378.275 262.511 378.24 262.296Z" fill="#455A64"/>
<path d="M382.238 275.631C382.359 276.105 383.091 279.231 382.161 279.972C381.153 280.765 380.352 278.344 380.352 278.344C380.352 278.344 377.802 278.068 374.288 280.058C374.52 280.549 374.107 282.349 373.082 282.151C372.065 281.953 371.35 278.336 371.342 278.292C371.471 281.531 371.816 284.055 373.84 286.062C376.398 288.603 380.912 285.855 382.057 283.616C383.203 281.376 383.272 279.843 382.488 276.561C382.419 276.234 382.333 275.924 382.238 275.631Z" fill="#37474F"/>
<path d="M380.084 278.602C380.204 279.816 381.513 279.188 381.427 277.465C381.341 275.742 379.928 271.849 379.687 268.894C379.308 264.846 379.024 262.227 378.24 262.296C378.249 262.339 378.249 262.382 378.257 262.417L378.507 264.096C378.55 264.338 378.593 264.553 378.611 264.82C378.843 267.292 379.059 272.107 379.489 274.329C379.929 276.56 379.963 277.387 380.084 278.602Z" fill="#37474F"/>
<path d="M374.709 279.953C374.348 278.799 374.063 278.032 373.598 275.819C373.133 273.622 371.643 269.238 370.902 266.878C370.678 266.49 370.558 265.732 370.515 265.543C370.437 265.215 370.351 264.793 370.273 264.44C370.265 264.414 370.256 264.388 370.256 264.371C369.782 264.655 370.024 266.576 370.316 267.558C370.609 268.54 370.962 269.6 371.333 271.012C372.255 273.794 372.487 278.006 373.073 279.609C373.641 281.193 375.071 281.107 374.709 279.953Z" fill="#37474F"/>
<path d="M374.225 280.169C374.259 280.161 374.294 280.143 374.328 280.126C374.354 280.109 377.085 278.36 380.297 278.601C380.452 278.61 380.608 278.507 380.633 278.36C380.659 278.214 380.556 278.093 380.401 278.076C376.955 277.818 374.139 279.626 374.018 279.704C373.88 279.79 373.837 279.954 373.923 280.074C373.992 280.161 374.113 280.195 374.225 280.169Z" fill="#263238"/>
<path d="M373.347 277.635C373.382 277.626 373.408 277.618 373.442 277.592C373.477 277.575 376.543 275.731 380.126 275.895C380.281 275.904 380.436 275.792 380.454 275.645C380.48 275.499 380.368 275.378 380.213 275.369C376.423 275.206 373.279 277.084 373.149 277.17C373.012 277.256 372.96 277.42 373.046 277.532C373.106 277.626 373.227 277.661 373.347 277.635Z" fill="#263238"/>
<path d="M379.721 273.422C379.833 273.396 379.92 273.31 379.954 273.207C379.997 273.06 379.902 272.931 379.747 272.905C376.155 272.414 372.831 274.55 372.684 274.645C372.546 274.731 372.503 274.895 372.589 275.016C372.675 275.128 372.856 275.145 372.986 275.059C373.02 275.041 376.25 272.966 379.592 273.431C379.635 273.439 379.678 273.431 379.721 273.422Z" fill="#263238"/>
<path d="M379.318 271.099C379.421 271.074 379.516 270.996 379.55 270.893C379.593 270.746 379.498 270.617 379.343 270.591C375.381 269.98 372.272 272.236 372.142 272.331C372.013 272.426 371.979 272.59 372.073 272.702C372.168 272.814 372.349 272.822 372.478 272.727C372.504 272.702 375.502 270.548 379.188 271.108C379.231 271.117 379.274 271.108 379.318 271.099Z" fill="#263238"/>
<path d="M378.852 268.488C378.955 268.462 379.05 268.384 379.076 268.281C379.119 268.134 379.033 268.005 378.878 267.979C375.165 267.359 371.771 269.702 371.625 269.797C371.496 269.892 371.461 270.055 371.547 270.167C371.634 270.279 371.814 270.296 371.952 270.202C371.987 270.176 375.26 267.919 378.714 268.496C378.766 268.496 378.809 268.496 378.852 268.488Z" fill="#263238"/>
<path d="M369.582 177.125C372.485 196.54 373.51 224.5 373.51 224.5C373.751 225.973 375.121 230.331 376.49 237.567C377.705 244.018 378.187 257.559 378.239 258.377C378.239 258.377 373.191 261.857 368.824 260.703C368.824 260.703 362.424 240.917 359.582 231.985C356.894 223.526 353.19 209.908 353.19 209.908L352.277 224.017C352.277 224.017 352.992 229.659 353.104 233.561C353.242 238.101 351.046 256.31 351.046 256.31C351.046 256.31 346.058 259.497 341.39 256.344C341.39 256.344 337.212 230.099 336.704 224.663C335.688 214 334.344 192.044 334.93 178.822L369.582 177.125Z" fill="#455A64"/>
<path d="M353.19 209.908L350.003 196.178C350.003 196.178 344.783 195.781 341.967 193.533C341.967 193.533 343.905 196.634 348.866 197.539L351.959 210.028L352.286 224.017L353.19 209.908Z" fill="#263238"/>
<path d="M319.547 124.16C320.529 128.708 319.97 128.2 322.579 131.774C328.066 139.303 334.647 148.157 334.647 148.157C340.522 150.44 340.961 142.826 344.51 138.975C341.288 135.607 339.962 135.599 336.077 131.077C333.622 128.226 329.548 123.514 329.548 123.514C329.548 123.514 327.705 118.69 326.171 114.289C324.251 108.742 323.622 107.949 324.466 105.279C324.871 103.987 325.026 102.281 325.129 101.48C325.362 99.6198 325.319 97.7421 325.474 95.8729C325.482 95.7437 325.491 95.5973 325.439 95.4767C325.232 95.0115 324.604 95.3302 324.319 95.537C323.932 95.8212 323.751 96.3122 323.613 96.7687C323.432 97.3631 323.286 97.966 323.113 98.569C323.07 98.724 322.958 99.2925 322.734 99.2839C322.493 99.2839 322.519 98.6809 322.511 98.5345C322.467 97.9229 322.493 97.3028 322.511 96.6912C322.562 95.1494 322.623 93.6161 322.674 92.0743C322.683 91.859 322.691 91.6436 322.631 91.4455C322.407 90.6272 321.468 90.7392 321.098 91.6178C320.995 91.8503 320.917 92.1001 320.865 92.3499C320.702 93.1252 320.59 93.909 320.521 94.6928C320.495 95.0202 320.469 95.3389 320.4 95.6576C320.383 95.7179 320.288 96.1658 320.168 95.9849C320.133 95.9418 320.133 95.8815 320.133 95.8298C320.107 94.7876 320.193 93.7367 320.245 92.6945C320.271 92.1691 320.288 91.635 320.288 91.1096C320.288 90.7564 320.383 90.1018 320.107 89.8262C320.013 89.7314 319.883 89.6883 319.754 89.6625C319.358 89.5936 318.919 89.7831 318.686 90.119C318.557 90.3085 318.454 90.5411 318.367 90.7478C318.316 90.8942 318.247 91.1785 318.204 91.4455C317.954 90.8512 317.161 91.0062 316.86 91.4886C316.403 92.2207 316.386 93.0476 316.335 94.0727C316.283 95.2355 316.257 95.7954 316.248 97.5353C316.248 97.8713 316.093 98.0866 316.025 97.7076C315.973 97.3803 315.938 97.0788 315.921 96.7515C315.895 96.3466 315.904 96.2175 315.869 95.7868C315.835 95.2183 315.895 94.1502 315.697 93.9176C315.516 93.7023 315.129 93.8056 314.922 93.9779C314.767 94.1071 314.672 94.2966 314.603 94.4775C314.13 95.6748 314.207 97.0185 314.302 98.3019C314.379 99.3356 314.474 100.361 314.56 101.386C314.724 103.281 314.913 105.245 315.878 106.872C316.214 107.432 316.541 108.182 316.705 108.811C317.308 111.119 317.67 113.738 318.152 116.459C318.514 118.484 318.798 120.706 319.547 124.16Z" fill="#FFA8A7"/>
<path d="M321.116 100.197C319.402 100.067 318.67 102.359 318.368 103.677C318.308 103.944 318.411 104.736 318.687 104.15C318.782 103.944 318.876 103.737 318.971 103.539C319.161 103.151 319.367 102.764 319.609 102.402C320.022 101.782 320.539 101.213 321.193 100.851C321.366 100.757 321.59 100.601 321.529 100.403C321.495 100.283 321.357 100.214 321.228 100.197C321.185 100.205 321.15 100.197 321.116 100.197Z" fill="#F28F8F"/>
<path d="M318.203 91.4473C318.22 93.5059 318.151 95.5473 317.781 97.5801C317.652 95.5215 317.738 93.4628 318.203 91.4473Z" fill="#F28F8F"/>
<path d="M342.917 137.082C340.402 135.032 337.688 132.224 335.475 129.855C333.261 127.487 329.807 123.438 329.807 123.438L325.156 111.439C325.156 111.439 324.544 112.749 321.745 113.558C318.937 114.377 317.645 113.438 317.645 113.438C317.645 113.438 318.334 119.45 319.195 123.834C320.056 128.219 319.763 128.339 322.528 132.336C325.293 136.324 332.537 146.213 334.432 148.564C336.336 150.916 338.507 155.705 338.507 155.567C338.515 155.455 342.917 137.082 342.917 137.082Z" fill="#37474F"/>
<path d="M357.998 139.486C359.971 139.865 366.129 142.062 368.421 143.285C368.421 143.285 370.987 148.849 369.833 161.572C369.652 163.604 369.187 169.091 368.998 173.329C368.739 179.04 369.015 180.642 369.213 183.674C369.213 183.674 363.942 188.42 350.005 187.576C339.065 186.913 335.715 182.468 335.715 182.468C335.715 182.468 335.551 167.722 335.723 159.659C335.947 149.065 339.057 142.915 341.391 141.028L348.549 139.728L357.998 139.486Z" fill="#F0F0F0"/>
<g filter="url(#filter15_d_822_2113)">
<path d="M359.256 139.512L359.265 140.218C359.265 140.218 356.732 146.558 356.689 158.979C356.655 171.399 357.197 191.271 357.197 191.271C357.197 191.271 365.673 190.97 371.289 186.318C371.289 186.318 370.075 175.56 370.126 170.624C370.178 165.689 371.436 158.539 372.736 151.502C374.054 144.353 363.968 135.016 363.968 135.016C362.589 136.919 361.022 138.444 359.256 139.512Z" fill="url(#paint11_linear_822_2113)"/>
</g>
<g filter="url(#filter16_d_822_2113)">
<path d="M348.291 138.952C345.75 138.797 344.966 138.324 342.925 137.092C342.925 137.092 337.24 143.716 335.887 153.483C334.544 163.243 334.139 186.861 334.139 186.861C335.103 187.447 337.636 188.403 338.833 188.549C338.833 188.549 339.109 176.921 339.565 166.206C340.125 153.277 340.883 145.137 348.299 139.762L348.291 138.952Z" fill="url(#paint12_linear_822_2113)"/>
</g>
<path opacity="0.3" d="M361.322 160.797C360.099 162.037 358.902 163.286 357.713 164.561C359.057 163.381 360.383 162.184 361.693 160.96L361.796 160.866C361.262 159.806 360.754 158.738 360.203 157.696C360.203 157.696 359.023 155.422 358.781 154.957C359.918 154.526 361.047 154.069 362.175 153.613L362.347 153.544V153.363C362.425 149.513 362.451 145.508 362.356 141.666C362.072 145.43 361.908 149.375 361.796 153.165C360.521 153.656 359.246 154.147 357.98 154.672L358.127 154.948C359.057 156.671 360.349 159.091 361.322 160.797ZM336.205 157.368L336.248 157.463C336.989 159.091 337.738 160.711 338.531 162.304C337.945 160.659 337.316 159.031 336.67 157.403C337.635 155.982 338.574 154.543 339.495 153.105L339.599 152.941L339.495 152.786L338.109 150.745C338.384 149.875 338.729 149.022 339.108 148.178C340.357 145.533 341.924 143.07 343.647 140.701C340.994 143.647 338.669 147.024 337.454 150.831L337.532 150.951L338.901 152.958C338.005 154.388 337.118 155.818 336.257 157.274L336.205 157.368Z" fill="white"/>
<path d="M361.045 117.473C361.045 117.473 363.061 117.576 364.008 119.109C364.956 120.642 365.533 123.442 364.327 126.569C363.001 130.014 360.425 133.33 359.865 134.304C359.305 135.268 358.22 135.501 358.22 135.501L358.513 131.263L358.797 128.309C358.797 128.309 356.506 126.043 356.394 123.907C356.247 121.159 357.384 119.652 357.384 119.652L361.045 117.473Z" fill="#263238"/>
<path d="M346.317 121.806C347.488 121.307 348.961 121.169 350.21 121.143C351.399 121.117 352.587 121.091 353.776 121.066C355.051 121.04 356.326 121.005 357.601 120.979C357.601 120.979 361.692 120.48 361.821 117.603C361.881 116.19 361.227 115.208 361.089 115.002C360.598 114.261 359.797 113.408 359.065 112.891C357.333 111.668 355.749 111.014 353.587 110.764C352.028 110.583 350.46 110.738 348.909 110.97C347.859 111.126 346.79 111.324 345.748 111.1C345.007 110.945 344.224 110.462 344.129 109.713C343.285 110.652 343.078 112.125 343.629 113.262C342.613 113.176 341.614 113.916 341.304 114.89C340.959 115.984 341.433 116.888 342.053 117.749C341.975 117.646 341.536 118.438 341.502 118.507C341.261 118.973 341.157 119.507 341.235 120.041C341.347 120.79 341.984 121.35 342.656 121.703C343.819 122.349 345.102 122.323 346.317 121.806Z" fill="#263238"/>
<path d="M362.348 132.668C360.099 133.641 359.169 131.858 359.169 131.858L359.264 140.222C355.681 146.458 344.38 145.252 347.644 140.334L347.704 137.87C347.704 137.87 346.964 137.862 345.809 137.603C342.769 136.923 342.063 135.062 341.675 132.909C341.072 129.558 341.382 124.95 342.795 119.687C343.062 118.671 343.561 117.568 344.517 117.146C346.903 116.095 348.997 117.852 352.201 119.265C353.527 119.851 356.792 120.221 357.67 119.851C356.482 121.057 356.318 125.019 357.92 126.698C358.187 127.267 358.48 127.611 358.713 127.827C359.402 128.481 360.048 126.905 360.677 126.302C361.305 125.708 363.579 125.243 364.458 127.344C365.354 129.489 364.432 131.763 362.348 132.668Z" fill="#FFA8A7"/>
<path d="M347.711 137.871C350.27 137.966 352.449 137.759 354.249 136.898C355.731 136.192 357.832 134.142 358.358 132.135C358.177 135.373 356.919 136.846 354.576 137.949C352.242 139.051 349.357 139.163 347.686 139.129L347.711 137.871Z" fill="#F28F8F"/>
<path d="M351.785 122.073L353.689 123.442C354.059 122.891 353.939 122.142 353.413 121.763C352.888 121.384 352.156 121.521 351.785 122.073Z" fill="#263238"/>
<path d="M343.465 122.373L345.627 121.417C345.386 120.805 344.705 120.521 344.102 120.788C343.508 121.055 343.224 121.761 343.465 122.373Z" fill="#263238"/>
<path d="M352.708 125.145C352.665 125.671 352.208 126.067 351.683 126.024C351.157 125.981 350.761 125.524 350.804 124.999C350.847 124.474 351.304 124.077 351.829 124.12C352.354 124.163 352.751 124.62 352.708 125.145Z" fill="#263238"/>
<path d="M345.567 124.544C345.524 125.069 345.067 125.465 344.542 125.422C344.017 125.379 343.62 124.923 343.663 124.397C343.706 123.872 344.163 123.476 344.688 123.519C345.3 123.562 345.619 123.932 345.567 124.544Z" fill="#263238"/>
<path d="M348.72 123.459L347.669 129.506L344.508 128.179C345.74 126.086 347.144 124.518 348.72 123.459Z" fill="#F28F8F"/>
<path d="M350.925 130.186L346.988 131.124C347.29 132.227 348.41 132.916 349.495 132.658C350.589 132.391 351.226 131.288 350.925 130.186Z" fill="#B16668"/>
<path d="M348.555 132.64C348.908 131.572 349.855 130.796 350.992 130.676C351.018 131.597 350.424 132.424 349.494 132.648C349.175 132.726 348.856 132.709 348.555 132.64Z" fill="#F28F8F"/>
<path d="M346.266 64.0219L368.231 19.5929L355.948 12.5039L339.203 22.1684L329.909 40.8427L318.393 34.1843L303.336 42.8755V114.558L315.619 121.655L330.676 112.964V95.0395L334.233 87.916L339.436 93.7216L351.719 100.811L369.385 90.6121L346.266 64.0219Z" fill="#37474F"/>
<path d="M336.359 83.6703L330.674 95.0403V112.957L315.617 121.648V49.9739L330.674 41.2828V71.0773L351.484 29.2582L368.229 19.5938L346.264 64.0227L369.383 90.6129L351.717 100.811L336.359 83.6703Z" fill="#455A64"/>
<path d="M303.336 42.8767L315.619 49.9743L330.676 41.2832L318.393 34.1855L303.336 42.8767Z" fill="#455A64"/>
<path opacity="0.2" d="M303.336 42.8767L315.619 49.9743L330.676 41.2832L318.393 34.1855L303.336 42.8767Z" fill="white"/>
<path d="M339.203 22.1684L351.486 29.266L368.231 19.5929L355.948 12.5039L339.203 22.1684Z" fill="#455A64"/>
<path opacity="0.2" d="M339.203 22.1684L351.486 29.266L368.231 19.5929L355.948 12.5039L339.203 22.1684Z" fill="white"/>
<path d="M336.36 83.668L351.718 100.809L339.435 93.72L334.232 87.9145L336.36 83.668Z" fill="#263238"/>
<path d="M352.898 93.5577C352.924 93.3251 353.045 93.1012 353.243 92.9892C353.458 92.8686 353.734 92.9117 353.949 93.0237C354.165 93.1442 354.337 93.3251 354.5 93.5146C355.035 94.1176 355.534 94.755 355.999 95.4182C356.103 95.5647 356.861 96.6155 356.835 96.0126C356.826 95.8058 356.697 95.5044 356.611 95.3235C355.698 93.4543 354.836 91.5507 354.027 89.6299C353.854 89.2251 353.742 88.5273 354.165 88.2173C354.561 87.933 355.103 88.1828 355.405 88.4843C355.586 88.6652 355.749 88.8633 355.887 89.07C356.327 89.7246 356.731 90.4051 357.093 91.1114C357.24 91.4043 357.377 91.6885 357.567 91.9556C357.601 92.0072 357.86 92.3862 357.903 92.1709C357.911 92.1192 357.894 92.0675 357.877 92.0159C357.507 91.0339 357.041 90.1036 356.602 89.1475C356.378 88.6652 356.163 88.1828 355.965 87.6918C355.836 87.3645 355.5 86.796 355.655 86.4342C355.706 86.3137 355.81 86.2189 355.922 86.1586C356.266 85.9519 356.74 85.9605 357.076 86.1844C357.265 86.3137 357.446 86.4859 357.601 86.6496C357.705 86.7702 357.877 87.0114 358.015 87.2353C358.023 86.5893 358.816 86.4342 359.281 86.7702C359.987 87.2784 360.306 88.0364 360.737 88.9666C361.159 89.8797 361.538 90.81 361.943 91.723C362.253 92.4293 362.459 93.1873 362.804 93.8936C362.873 94.0401 362.968 94.1779 363.131 94.152C363.174 92.7566 362.287 91.0856 363.683 90.0261C363.76 89.9658 363.846 89.9141 363.941 89.8969C364.423 89.828 365.121 92.9289 365.276 93.4026C365.586 94.376 365.776 95.2976 365.879 96.314C365.957 97.1496 365.845 98.0368 366.103 98.8551C366.327 99.5958 366.637 100.311 367.025 100.974C367.61 101.965 368.394 102.921 369.721 104.333C371.099 105.806 372.296 106.866 373.993 108.804C372.959 109.588 371.874 110.311 370.668 110.94C369.109 111.758 367.541 112.163 365.939 112.499C364.647 110.346 363.648 108.692 362.279 106.538C362.218 106.435 362.149 106.34 362.08 106.246C361.986 106.125 361.891 106.004 361.796 105.892C360.478 104.411 358.902 103.429 357.61 101.896C356.482 100.561 355.827 99.2599 355.035 97.9248C354.69 97.3391 354.397 96.7189 354.044 96.1504C353.682 95.5647 353.312 94.9703 353.053 94.3243C352.959 94.0917 352.881 93.8506 352.898 93.6008C352.89 93.6008 352.898 93.5749 352.898 93.5577Z" fill="#FFA8A7"/>
<path d="M358.031 87.2363C358.781 89.1485 359.616 91.0177 360.719 92.7576C360.073 90.811 359.22 88.9246 358.031 87.2363Z" fill="#F28F8F"/>
<path d="M363.975 135.015C365.594 132.199 367.128 128.615 368.351 125.609C369.582 122.603 370.142 120.682 370.142 120.682L362.123 106.78C362.123 106.78 363.217 107.073 365.792 105.522C368.402 103.946 368.17 102.594 368.17 102.594C368.17 102.594 376.714 110.424 379.841 113.972C382.796 117.323 382.477 118.606 381.323 123.318C380.169 128.03 376.404 138.78 375.466 141.656C374.527 144.533 372.726 151.502 372.726 151.502C368.695 152.587 362.735 144.017 363.975 135.015Z" fill="#37474F"/>
<path d="M82.2293 326.389C82.6341 326.303 82.7289 327.535 82.6427 328.077C82.5566 328.62 81.0751 330.567 78.1464 331.523C75.2264 332.479 71.0316 332.376 69.2486 332.496C67.4656 332.617 64.8643 333.771 63.1502 334.331C59.1793 335.623 56.7416 334.408 55.5874 333.521C55.1309 333.177 55.0275 332.608 54.9931 332.108C54.8983 330.928 54.9845 330.679 55.1223 330.679L82.2293 326.389Z" fill="#37474F"/>
<path d="M55.2523 326.85C55.0886 327.668 54.9508 328.521 54.8733 329.357C54.7785 330.373 54.7268 331.665 55.4848 332.38C56.7596 333.586 58.1981 333.793 59.6797 333.793C61.4627 333.793 63.1682 333.396 64.8047 332.656C66.3035 331.984 67.4922 331.407 69.1632 331.312C71.0065 331.217 73.5562 331.26 75.365 330.873C76.9069 330.537 78.4229 330.192 79.7838 329.4C80.938 328.728 81.6271 327.927 82.2473 326.618C82.0836 324.318 80.8002 323.353 79.4565 322.776C78.0352 322.164 76.2867 322.156 74.7535 322.345C73.0307 322.561 71.7473 322.94 70.2055 323.008C69.1632 323.052 68.0607 323.026 67.0701 322.629C66.5964 322.44 66.2088 321.803 65.9504 321.38C65.6403 320.864 65.4938 320.39 65.0029 320.399C65.0029 320.399 56.9233 321.294 56.1911 321.424C55.3642 321.561 55.5968 322.69 55.6226 323.293C55.6485 323.818 55.6313 323.827 55.6571 324.352C55.6829 324.869 55.5279 325.61 55.4073 326.109C55.3556 326.351 55.2953 326.6 55.2523 326.85Z" fill="#455A64"/>
<path d="M71.5157 322.549C71.6277 322.472 71.7482 322.403 71.8774 322.369C72.5665 322.179 73.1781 322.808 73.5399 323.316C73.7638 323.626 73.893 323.971 74.0308 324.324C74.1945 324.755 74.3065 325.228 74.2117 325.685C74.1859 325.805 74.117 325.943 73.9964 325.926C73.8844 325.909 73.8414 325.78 73.8241 325.676C73.6863 325.047 73.4365 324.436 73.0834 323.893C72.9283 323.652 72.8077 323.445 72.5752 323.273C72.3512 323.109 72.1014 322.98 71.8258 322.911C71.7138 322.885 71.2487 322.937 71.3348 322.722C71.352 322.679 71.3865 322.644 71.4209 322.618C71.4468 322.592 71.4812 322.567 71.5157 322.549Z" fill="#FAFAFA"/>
<path d="M69.4818 322.781C69.8005 322.713 70.1536 322.764 70.4379 322.937C70.7738 323.143 70.9202 323.462 71.0925 323.798C71.4284 324.453 71.7471 325.434 71.4198 326.149C71.3165 326.382 71.1184 326.287 71.015 326.106C70.9116 325.9 70.903 325.607 70.8427 325.391C70.7135 324.866 70.4809 324.358 70.2312 323.884C70.1278 323.695 70.0244 323.505 69.878 323.35C69.7832 323.247 69.6627 323.152 69.5335 323.092C69.4732 323.066 69.4042 323.04 69.3353 323.031C69.275 323.023 69.2061 323.031 69.1372 323.031C69.1286 322.928 69.232 322.859 69.3267 322.833C69.387 322.807 69.4301 322.79 69.4818 322.781Z" fill="#FAFAFA"/>
<path d="M67.3718 322.438C67.613 322.489 67.837 322.593 68.0092 322.774C68.1729 322.937 68.2763 323.153 68.3624 323.368C68.5519 323.85 68.75 324.359 68.8189 324.875C68.8706 325.246 68.8448 325.625 68.6811 325.961C68.6208 326.09 68.4916 326.236 68.3452 326.185C68.1901 326.133 68.1815 325.9 68.1557 325.771C68.104 325.53 68.0954 325.272 68.0695 325.022C67.9576 324.109 67.5613 323.273 66.9412 322.593C66.9067 322.558 66.8809 322.515 66.8809 322.472C66.8895 322.403 66.9842 322.386 67.0531 322.395C67.1565 322.403 67.2685 322.412 67.3718 322.438Z" fill="#FAFAFA"/>
<path d="M73.6846 322.498C74.3995 322.403 76.0102 323.213 76.9836 325.314C77.9655 327.425 77.8622 330.233 77.8622 330.233C77.8622 330.233 79.9553 329.862 81.6177 327.907C82.0828 327.364 82.3412 326.925 82.4705 326.537C82.4963 325.082 82.0225 323.919 81.3507 323.281C80.1706 322.162 78.4824 321.524 75.9327 321.679C73.0816 321.852 72.918 322.627 72.918 322.627L73.6846 322.498Z" fill="#FAFAFA"/>
<path d="M54.8203 308.887C54.8203 308.887 56.0176 320.197 56.2588 322.514C56.3621 323.496 58.5328 324.581 61.5475 324.28C63.6665 324.073 64.9757 322.79 65.1739 321.696C65.3634 320.602 65.9835 307.328 65.9835 307.328L54.8203 308.887Z" fill="#C8856A"/>
<path d="M24.1484 306.028L27.301 294.408L38.2747 298.431L30.4536 311.851L24.1484 306.028Z" fill="#C8856A"/>
<path d="M20.1711 309.25C19.9299 310.249 20.1797 311.291 20.3175 312.291C20.4553 313.298 20.6018 314.289 20.6793 315.305C20.731 315.943 20.7913 316.528 20.9291 317.14C21.0927 317.829 20.998 318.647 21.0152 319.354C21.0325 320.129 21.0497 320.904 21.0583 321.679C21.0583 321.981 21.1272 322.368 21.0583 322.67C20.9808 322.989 25.9594 325.848 27.975 326.951C28.0956 327.02 28.2076 327.072 28.3368 327.123C30.1715 327.847 31.6013 326.357 31.6013 326.357C33.014 322.61 30.249 320.25 30.249 320.25C30.249 320.25 29.9906 320.267 30.0423 318.294C30.0423 316.89 30.0595 315.469 30.1887 314.074C30.2749 313.195 30.6366 312.911 30.9639 312.092C31.2654 311.352 31.8511 310.559 31.8167 309.724C31.7908 309.052 31.231 308.035 30.9209 307.493C30.1887 306.235 28.578 305.193 27.2773 304.616C26.5365 304.289 25.3306 303.918 24.5726 304.383C24.1592 304.633 23.9697 305.115 23.6768 305.494C23.3323 305.942 22.8327 306.252 22.3676 306.571C21.4631 307.191 20.5759 307.958 20.2314 309C20.2142 309.086 20.1969 309.164 20.1711 309.25Z" fill="#455A64"/>
<path d="M30.248 320.243C30.4978 320.553 30.7132 320.863 30.8941 321.182H30.9027C31.7899 322.706 32.0138 324.429 31.6004 326.35C35.1233 326.031 36.045 323.998 36.045 323.998C36.045 323.998 36.2431 322.241 34.2189 320.966C33.9605 320.803 33.7107 320.665 33.4523 320.562C33.4351 320.553 33.4265 320.544 33.4179 320.536C31.7124 319.821 30.248 320.243 30.248 320.243Z" fill="#FAFAFA"/>
<path d="M19.3518 309.802C18.4215 310.164 18.6627 312.705 19.2485 315.151C19.8342 317.597 20.1529 318.45 19.8514 320.491C19.5585 322.524 19.3863 323.437 20.2132 324.187C21.0401 324.936 27.6467 328.02 27.6467 328.02C27.6467 328.02 26.3461 324.884 26.1738 320.371C26.0015 315.857 25.7 312.954 23.6069 310.904C21.5138 308.846 19.3518 309.802 19.3518 309.802Z" fill="#263238"/>
<path d="M36.0533 323.997C36.0533 323.997 33.4865 326.064 30.5406 326.4C27.5948 326.736 27.4483 325.599 27.1383 322.111C26.8282 318.622 26.7076 313.79 25.338 311.662C23.9598 309.535 21.6514 308.596 20.7384 308.811C20.5489 308.717 19.653 309.388 19.3516 309.793C19.3516 309.793 21.3671 309.544 23.2105 311.344C25.0538 313.144 25.3897 316.943 25.4672 320.388C25.5534 323.842 25.6998 327.839 28.4561 328.261C31.2039 328.683 34.1239 327.503 35.95 325.978C37.0008 325.117 36.0533 323.997 36.0533 323.997Z" fill="#37474F"/>
<path d="M30.0387 318.955C30.0387 318.955 30.4091 319.196 30.4435 319.592C30.4866 319.989 30.3229 320.902 29.4444 321.401C29.074 321.617 28.7553 321.531 29.3496 320.798C29.9526 320.083 30.0387 318.955 30.0387 318.955Z" fill="#FAFAFA"/>
<path d="M30.1006 316.525C30.1006 316.525 30.3332 316.741 30.3504 317.051C30.3677 317.37 29.7819 318.662 29.1359 318.954C28.4899 319.239 28.8344 318.532 29.1359 318.196C29.4374 317.869 30.1006 316.525 30.1006 316.525Z" fill="#FAFAFA"/>
<path d="M30.2555 313.848C30.2555 313.848 30.5398 313.994 30.557 314.278C30.5742 314.563 29.2477 315.553 28.8343 315.519C28.4208 315.484 28.3175 315.355 28.8343 315.002C29.3511 314.666 30.2555 313.848 30.2555 313.848Z" fill="#FAFAFA"/>
<path d="M33.9964 305.984C33.9964 305.984 37.9328 299.67 45.1251 287.904C47.1666 284.571 48.2863 282.125 48.7773 279.592C49.2683 277.06 51.2666 269.342 51.2666 269.342L53.1875 282.495C52.662 285.82 52.6104 291.005 53.3339 299.782C53.9713 307.578 55.3323 317.199 55.3323 317.199C56.03 317.725 58.8983 318.19 60.6899 318.035C65.169 317.664 65.9873 315.838 65.9873 315.838C65.9873 315.838 67.4688 300.317 67.977 294.528C69.1743 280.919 69.5275 277.714 70.1993 262.038C70.7678 248.773 69.5103 240.564 65.7806 228.677C56.073 233.079 42.8942 232.252 37.459 227.402C37.459 227.402 33.1005 234.767 32.9972 246.413C32.911 256.232 33.738 275.277 33.738 275.277C31.5759 278.541 30.2236 281.134 29.0349 285.871C27.6654 291.341 26.6834 295.036 25.2363 301.152C30.7749 300.997 33.9964 305.984 33.9964 305.984Z" fill="#37474F"/>
<path d="M33.0221 302.178C33.7284 300.86 34.4261 299.534 35.141 298.216C36.4675 295.744 39.4392 290.705 40.7054 288.207C43.2464 283.168 45.4687 277.931 46.7866 272.427C47.1484 270.928 47.4412 269.421 47.6394 267.896C47.7427 267.087 47.8202 266.285 47.8719 265.467C47.9581 264.192 47.8633 262.892 48.0356 261.626C48.0614 261.462 48.3457 261.074 48.449 261.41C48.8625 262.788 48.7419 264.373 48.673 265.795C48.6041 267.259 48.449 268.723 48.2165 270.17C47.7599 273.03 47.0106 275.838 46.0286 278.569C44.0389 284.124 39.6201 291.92 36.8293 297.105C36.0368 298.569 35.2444 300.042 34.4433 301.498C33.892 302.497 33.3666 303.531 32.7981 304.539C32.5914 304.323 32.3502 304.091 32.0918 303.858C32.4105 303.298 32.7292 302.738 33.0221 302.178Z" fill="#263238"/>
<path d="M63.9209 244.321C63.3868 239.626 62.4479 234.872 60.8027 230.41C61.0611 230.341 61.3109 230.272 61.5607 230.203C63.4213 234.691 64.4377 239.437 65.0148 244.261C67.4094 243.709 67.8487 240.324 67.7711 238.291C67.7281 237.077 67.5386 235.879 67.3232 234.691C67.1768 233.873 66.9701 233.02 66.8236 232.167C67.5127 234.553 68.0898 236.81 68.5722 239.032C68.5722 239.127 68.5722 239.213 68.5722 239.308C68.4516 241.496 67.4955 244.528 65.1009 245.079C65.6005 249.653 65.7297 254.295 65.8245 258.869C66.0829 271.118 65.8245 283.375 65.0492 295.606C64.6961 301.222 64.0156 311.972 63.2835 317.571C62.9647 317.666 62.6116 317.752 62.2154 317.829C62.5771 312.945 63.4557 302.988 63.7917 298.096C64.2051 292.057 64.4894 286.002 64.653 279.955C64.8253 273.659 64.8597 267.362 64.765 261.074C64.6702 255.484 64.5497 249.877 63.9209 244.321Z" fill="#263238"/>
<path d="M65.7707 228.678L64.9783 223.949C64.9783 223.949 58.6301 227.498 51.0846 227.05C43.5304 226.594 38.5431 222.666 38.5431 222.666L37.4492 227.403C37.4492 227.403 40.6621 232.107 51.1535 231.96C61.6621 231.805 65.7707 228.678 65.7707 228.678Z" fill="#263238"/>
<path d="M51.2747 269.343L48.1911 250.72C48.1911 250.72 44.7112 250.962 39.3535 246.25C39.3535 246.25 40.2063 250.247 45.9688 252.977L49.1989 270.928L48.7854 279.585L51.2747 269.343Z" fill="#263238"/>
<path d="M75.8996 150.373C75.4001 150.7 75.0383 151.208 74.6851 151.691C74.2028 152.337 73.6946 152.974 73.1605 153.577C73.1002 153.646 72.971 153.715 72.9193 153.637C72.9021 153.603 72.9107 153.56 72.9193 153.525C73.0485 153.086 73.2639 152.673 73.4706 152.268C74.0563 151.139 74.6248 149.994 75.1244 148.822C75.245 148.538 75.3656 148.245 75.3914 147.944C75.4259 147.634 75.3742 147.229 75.1416 147.013C75.0038 146.893 74.6765 146.634 74.2631 146.884C74.4439 146.522 74.5042 146.23 74.3923 145.902C74.1942 145.282 73.5051 145.041 72.9969 145.454C72.8074 145.609 72.6695 145.816 72.5317 146.023C71.4895 147.625 70.6626 149.339 69.7065 150.984C69.5773 151.208 69.3361 151.208 69.405 150.907C69.7065 149.494 70.4386 148.211 70.7229 146.789C70.8348 146.23 70.9899 145.627 70.4903 145.239C69.8873 144.765 69.4308 145.23 69.1466 145.782C68.1732 147.677 67.2774 149.623 66.5022 151.605C66.3385 152.018 65.4513 154.387 65.1757 152.888C65.0637 152.302 64.9776 151.725 64.8656 151.148C64.7795 150.709 64.6503 150.226 64.3143 149.925C64.0646 149.701 63.5047 149.339 63.2721 149.761C63.2118 149.873 63.2032 150.002 63.2032 150.132C63.1774 151.906 62.962 153.672 63.0051 155.455C63.0223 156.221 63.0137 157.841 63.2807 159.098C63.5391 160.313 61.4374 165.352 59.2754 170.081C60.9809 172.243 63.3669 173.638 67.6478 172.88C68.6642 169.133 69.6203 165.567 69.8357 164.826C69.8357 164.826 70.4645 163.078 70.8435 162.225C71.1708 161.476 71.5756 160.787 71.9546 160.063C72.3422 159.322 72.6868 158.547 73.0658 157.798C73.8324 156.264 74.6421 154.757 75.5465 153.301C75.9513 152.655 76.3906 152.001 76.606 151.269C76.7868 150.726 76.5801 149.925 75.8996 150.373Z" fill="#C8856A"/>
<path d="M68.5876 156.728C68.4843 155.961 68.0622 155.151 67.3473 154.798C67.2353 154.738 67.1922 154.996 67.2698 155.048C67.8469 155.47 68.1828 156.237 68.1914 156.943C68.2 157.796 68.045 158.536 67.6574 159.329C67.6229 159.389 67.6832 159.553 67.778 159.458C68.4412 158.735 68.7255 157.684 68.5876 156.728Z" fill="#AF6152"/>
<path d="M72.0672 151.371C72.3515 150.915 72.5754 150.441 72.8424 149.976C73.1009 149.52 73.3593 149.063 73.5918 148.598C73.8072 148.176 74.2809 147.435 74.2723 146.944C74.2723 146.875 74.1517 147.073 74.1259 147.116C73.7555 147.702 72.9027 149.373 72.6099 149.89C72.0931 150.82 71.4729 151.819 71.025 152.784C70.9905 152.87 71.0853 152.879 71.1283 152.827C71.5332 152.397 71.7485 151.888 72.0672 151.371Z" fill="#AF6152"/>
<path d="M59.2841 170.072C57.1135 174.827 54.5466 179.091 54.5466 179.091C54.5466 179.091 41.7037 190.831 38.4736 194.225C35.2435 197.619 32.6336 205.319 35.9757 211.09C37.4055 207.964 38.0602 206.671 41.9449 203.795C46.9494 200.091 56.4244 193.165 59.2841 190.452C61.9888 187.885 63.8062 186.283 65.2275 181.606C65.7357 179.943 66.7262 176.326 67.6565 172.863C64.1594 173.053 61.4547 171.984 59.2841 170.072Z" fill="#E0E0E0"/>
<path d="M57.9512 176.395C57.9512 176.395 61.5172 179.383 61.3363 179.78C61.1554 180.176 59.9495 180.891 59.9495 180.891L57.9512 176.395Z" fill="#AF6152"/>
<path d="M49.6138 168.997C51.5605 169.385 54.7734 169.453 57.4781 173.984C57.9432 174.768 57.9776 176.163 58.3997 177.188C58.8821 178.343 59.7693 179.523 60.0621 180.47C61.5954 185.423 60.6909 187.749 60.0621 188.808C59.5539 189.661 56.031 190.901 54.0068 190.858C51.4658 190.798 45.7033 189.764 42.2578 186.603C38.2008 182.882 35.9354 177.042 38.5023 173.778C42.1114 169.186 47.6844 168.618 49.6138 168.997Z" fill="#C8856A"/>
<path d="M59.9069 188.996C59.2006 189.694 56.8663 190.555 55.0144 190.796L54.1875 189.453C54.1875 189.453 55.8155 189.634 57.2712 189.556C58.7355 189.478 59.8983 189.005 59.9069 188.996Z" fill="#AF6152"/>
<path d="M55.3152 189.29L54.7553 195.845C54.7553 195.845 49.7508 197.361 44.4707 195.854L45.0306 192.305C47.675 188.713 51.4736 187.765 55.3152 189.29Z" fill="#C8856A"/>
<path d="M51.6792 165.981C51.8515 165.963 52.0238 165.955 52.1961 165.963C53.1436 166.024 54.0738 166.334 54.8835 166.833C56.1066 167.583 57.0455 168.737 57.6485 170.038C58.0275 170.856 58.2859 171.786 58.0964 172.673C57.8983 173.595 57.2523 174.362 56.5459 174.982C56.7182 174 56.2531 172.949 55.4176 172.406C55.8568 173.414 55.8999 174.586 55.5295 175.628C55.1591 176.662 54.3839 177.549 53.402 178.048C53.8843 178.591 54.1772 179.297 54.2289 180.029C54.2461 180.236 54.2375 180.46 54.1341 180.65C53.8671 181.166 53.2642 180.891 52.911 180.641C52.6698 180.469 52.4631 180.262 52.2219 180.081C51.5242 179.556 51.1194 179.289 50.0082 179.401C49.2071 179.478 48.3199 180.383 48.2596 181.089C48.1304 182.588 49.0004 183.966 49.6464 184.543C50.5078 185.31 51.3778 185.646 52.1272 185.482C52.4975 185.396 53.3331 184.991 53.4881 184.405C53.4881 184.405 55.0041 188.402 52.0496 190.65C52.0496 190.65 48.6473 192.648 45.0295 192.33C44.6247 192.295 43.7375 191.356 43.3843 191.115C42.7039 190.641 42.0062 190.185 41.3085 189.728C40.1456 188.97 39.2757 188.083 38.2851 187.118C36.1748 185.068 34.9947 182.278 34.3487 179.366C33.8663 177.187 34.788 174.405 34.788 174.405C35.167 173.268 35.2531 172.208 35.8905 171.14C36.5107 170.107 37.3376 169.211 38.2851 168.47C40.3093 166.868 42.8331 165.929 45.3827 165.645C46.8556 165.481 48.3458 165.541 49.7929 165.86C50.1288 165.929 50.4733 166.067 50.8093 166.075C51.1021 166.058 51.3864 166.006 51.6792 165.981Z" fill="#263238"/>
<g filter="url(#filter17_d_822_2113)">
<path d="M36.4598 199.695C37.2436 196.723 38.2084 194.777 43.8503 195.035L44.6341 195.061C46.6411 195.354 48.2088 195.397 52.9118 194.932C57.6148 194.467 58.9069 194.191 60.3023 194.579C60.3023 194.579 66.3059 200.651 68.3388 207.094C69.915 212.073 67.4688 215.449 66.3404 216.759C66.4782 222.745 67.4688 233.038 67.4688 233.038C67.4688 233.038 62.8002 238.611 49.5697 238.12C40.9475 237.802 36.2272 233.09 35.2539 231.574C35.2539 231.574 37.7432 225.122 37.8466 221.022C37.1231 215.053 34.1686 208.369 36.4598 199.695Z" fill="url(#paint13_linear_822_2113)"/>
</g>
<path d="M29.5337 176.566C28.7585 178.099 28.4828 179.891 28.7585 181.597C29.1892 184.284 30.7138 186.67 31.3512 189.314C31.98 191.89 29.8955 194.586 29.2581 197.041C28.1814 201.218 29.8266 205.964 33.2548 208.574C32.9361 207.498 32.8499 206.352 32.9964 205.232C33.0394 206.783 33.9956 208.195 35.2187 209.16C36.4332 210.125 37.9061 210.711 39.3446 211.27C37.8889 210.116 37.5444 207.989 37.9492 206.171C38.354 204.362 39.3791 202.76 40.2663 201.124C41.1448 199.513 41.653 197.799 42.1354 196.042C42.7039 193.992 42.1096 191.7 41.231 189.84C40.2318 187.729 39.1293 185.662 38.3799 183.449C37.6305 181.235 37.2601 178.84 37.7769 176.558C37.8975 176.015 38.0784 175.464 38.0698 174.904C38.0439 173.276 36.7261 172.406 35.2101 172.578C33.4529 172.776 31.7732 173.655 30.6018 174.981C30.1711 175.472 29.818 175.998 29.5337 176.566Z" fill="#263238"/>
<path d="M104.093 85.3574L55.9434 113.162V129.235L68.2264 136.333L72.4556 133.886V175.309L84.7386 182.398L99.9416 173.621V118.02L116.376 108.528V92.4464L104.093 85.3574Z" fill="#37474F"/>
<path d="M84.7388 126.798L68.2266 136.334V120.252L116.385 92.4473V108.529L99.9505 118.021V173.622L84.7475 182.399V126.798H84.7388Z" fill="#455A64"/>
<path d="M55.9434 113.162L68.2264 120.251L116.376 92.4464L104.093 85.3574L55.9434 113.162Z" fill="#455A64"/>
<path opacity="0.2" d="M55.9434 113.162L68.2264 120.251L116.376 92.4464L104.093 85.3574L55.9434 113.162Z" fill="white"/>
<path d="M84.7381 126.797L72.4551 133.886V175.309L84.7381 182.398V126.797Z" fill="#263238"/>
<path d="M88.6667 185.531C86.0568 188.382 83.2746 191.397 83.2746 191.397C83.2746 191.397 71.6634 193.275 65.8062 193.8C64.0748 193.955 62.3866 194.317 60.3107 194.576C60.3107 194.576 58.5708 198.839 61.5941 204.318C62.8431 206.574 65.3152 207.711 66.3488 207.961C68.33 205.17 75.8066 204.137 82.7836 202.044C87.366 200.674 88.727 199.899 90.1224 198.159C91.044 197.013 93.4903 193.12 95.5231 189.821C92.7926 189.235 90.2947 188.451 88.6667 185.531Z" fill="#E0E0E0"/>
<path d="M103.337 174.499C103.01 173.931 102.898 173.603 102.949 172.94C102.992 172.432 102.889 171.683 102.579 171.252C102.467 171.105 102.329 170.95 102.243 170.787C101.985 170.313 102.079 169.667 102.062 169.142C102.036 168.513 101.985 168.229 101.588 167.729C101.287 167.35 101.192 167.014 101.106 166.549C101.037 166.17 101.028 164.921 100.365 165.102C100.029 165.197 99.6417 165.748 99.478 166.023C99.1593 166.549 98.9354 167.221 98.7976 167.824C98.6425 168.504 98.6511 169.176 98.5478 169.856C98.3066 171.416 97.7036 173.009 96.8509 174.344C96.7217 174.551 96.4202 174.982 96.136 174.861C96.0068 174.809 95.9206 174.654 95.8603 174.534C95.7397 174.284 95.7139 173.982 95.645 173.715C95.5675 173.423 95.4813 173.13 95.4038 172.837C95.2488 172.217 94.8525 171.476 94.2668 171.166C93.8275 170.933 93.2418 170.899 93.2246 171.528C93.2073 172.105 93.4227 172.665 93.3882 173.25C93.3538 173.879 93.1815 174.508 93.1126 175.137C93.0092 176.093 92.992 177.075 93.1643 178.022C93.3193 178.849 93.3796 179.676 93.104 180.52C93.0437 180.701 90.9247 183.061 88.668 185.525C90.2959 188.445 92.7939 189.228 95.5072 189.823C97.1007 187.247 98.4358 185.034 98.5908 184.801C98.944 184.267 99.3833 183.811 99.7709 183.302C100.202 182.742 100.581 182.131 100.994 181.562C101.769 180.503 102.484 179.375 102.992 178.16C103.432 177.109 103.957 175.593 103.337 174.499Z" fill="#C8856A"/>
<path d="M62.8895 86.4364L59.1168 79.3474L62.1487 70.5959V65.2383L52.8633 70.5959V75.9536L56.8514 82.8617C56.9203 82.9823 57.015 83.0512 57.1184 83.1029L62.8895 86.4364Z" fill="#BA68C8"/>
<g filter="url(#filter18_d_822_2113)">
<path d="M62.8895 86.4364L59.1168 79.3474L62.1487 70.5959V65.2383L52.8633 70.5959V75.9536L56.8514 82.8617C56.9203 82.9823 57.015 83.0512 57.1184 83.1029L62.8895 86.4364Z" fill="url(#paint14_linear_822_2113)"/>
</g>
<g filter="url(#filter19_d_822_2113)">
<path d="M85.0602 22.6264C85.0602 20.852 83.8112 18.69 82.278 17.8028L80.0126 16.4935C78.4794 15.6063 75.9815 15.6063 74.4482 16.4935L39.6924 36.5977C38.1591 37.4849 36.9102 39.6469 36.9102 41.4213V79.6571C36.9102 81.4315 38.1591 83.5935 39.6924 84.4807L41.9577 85.79C43.4909 86.6772 45.9889 86.6772 47.5221 85.79L58.7026 79.3298L62.6821 86.2293C62.9405 86.6686 63.5951 86.6083 63.7588 86.1259L67.9708 73.9721L82.278 65.6858C83.8112 64.7986 85.0602 62.6366 85.0602 60.8622V22.6264Z" fill="url(#paint15_linear_822_2113)"/>
</g>
<path opacity="0.2" d="M36.9102 79.6585C36.9102 81.4329 38.1591 83.5949 39.6924 84.4821L41.9577 85.7914C43.3445 86.5925 45.5065 86.6614 47.0484 86.0153C45.7391 86.5149 44.7399 85.7742 44.7399 84.1806V45.9449C44.7399 45.0577 45.05 44.0757 45.5582 43.2057L37.7284 38.6836C37.2289 39.5536 36.9102 40.5355 36.9102 41.4227V79.6585Z" fill="black"/>
<path opacity="0.3" d="M84.9655 21.8345C84.6382 20.6544 83.5615 20.2754 82.2781 21.0162L47.5222 41.1204C46.7556 41.5597 46.0579 42.3177 45.5583 43.1963L37.7285 38.6741C38.2367 37.7955 38.9258 37.0375 39.6924 36.5982L74.4397 16.5027C75.9815 15.6241 78.4795 15.6241 80.0127 16.5027L82.2867 17.812C83.596 18.5613 84.6985 20.2496 84.9655 21.8345Z" fill="white"/>
<path d="M54.4025 54.195C54.3938 52.1019 54.8934 49.9141 55.7117 47.976L55.7289 47.9329C56.6937 45.6848 58.1063 43.7898 59.6826 42.8681C62.3873 41.2746 64.6354 44.5392 64.9972 48.3722C65.3159 44.1429 67.521 38.2685 70.2256 36.6836C71.8019 35.7619 73.2232 35.9859 74.2051 37.097L74.2224 37.1142V37.1229C75.0579 38.0876 75.5747 39.6811 75.5919 41.7742C75.6264 48.2516 71.7503 54.1089 68.5115 60.2762L65.0144 66.2282L61.6379 64.2988C58.3475 61.9731 54.4369 60.6811 54.4025 54.195Z" fill="#FAFAFA"/>
<defs>
<filter id="filter0_d_822_2113" x="78.8105" y="267.039" width="93.6094" height="80.752" filterUnits="userSpaceOnUse" color-interpolation-filters="sRGB">
<feFlood flood-opacity="0" result="BackgroundImageFix"/>
<feColorMatrix in="SourceAlpha" type="matrix" values="0 0 0 0 0 0 0 0 0 0 0 0 0 0 0 0 0 0 127 0" result="hardAlpha"/>
<feOffset dy="20"/>
<feGaussianBlur stdDeviation="17.5"/>
<feComposite in2="hardAlpha" operator="out"/>
<feColorMatrix type="matrix" values="0 0 0 0 0 0 0 0 0 0.45098 0 0 0 0 0.92549 0 0 0 0.2 0"/>
<feBlend mode="normal" in2="BackgroundImageFix" result="effect1_dropShadow_822_2113"/>
<feBlend mode="normal" in="SourceGraphic" in2="effect1_dropShadow_822_2113" result="shape"/>
</filter>
<filter id="filter1_d_822_2113" x="241.557" y="211.408" width="104.584" height="96.8252" filterUnits="userSpaceOnUse" color-interpolation-filters="sRGB">
<feFlood flood-opacity="0" result="BackgroundImageFix"/>
<feColorMatrix in="SourceAlpha" type="matrix" values="0 0 0 0 0 0 0 0 0 0 0 0 0 0 0 0 0 0 127 0" result="hardAlpha"/>
<feOffset dy="20"/>
<feGaussianBlur stdDeviation="17.5"/>
<feComposite in2="hardAlpha" operator="out"/>
<feColorMatrix type="matrix" values="0 0 0 0 0 0 0 0 0 0.45098 0 0 0 0 0.92549 0 0 0 0.2 0"/>
<feBlend mode="normal" in2="BackgroundImageFix" result="effect1_dropShadow_822_2113"/>
<feBlend mode="normal" in="SourceGraphic" in2="effect1_dropShadow_822_2113" result="shape"/>
</filter>
<filter id="filter2_d_822_2113" x="268.318" y="226.824" width="79.0527" height="81.6885" filterUnits="userSpaceOnUse" color-interpolation-filters="sRGB">
<feFlood flood-opacity="0" result="BackgroundImageFix"/>
<feColorMatrix in="SourceAlpha" type="matrix" values="0 0 0 0 0 0 0 0 0 0 0 0 0 0 0 0 0 0 127 0" result="hardAlpha"/>
<feOffset dy="20"/>
<feGaussianBlur stdDeviation="17.5"/>
<feComposite in2="hardAlpha" operator="out"/>
<feColorMatrix type="matrix" values="0 0 0 0 0 0 0 0 0 0.45098 0 0 0 0 0.92549 0 0 0 0.2 0"/>
<feBlend mode="normal" in2="BackgroundImageFix" result="effect1_dropShadow_822_2113"/>
<feBlend mode="normal" in="SourceGraphic" in2="effect1_dropShadow_822_2113" result="shape"/>
</filter>
<filter id="filter3_d_822_2113" x="239.309" y="259.801" width="80.0605" height="75.7969" filterUnits="userSpaceOnUse" color-interpolation-filters="sRGB">
<feFlood flood-opacity="0" result="BackgroundImageFix"/>
<feColorMatrix in="SourceAlpha" type="matrix" values="0 0 0 0 0 0 0 0 0 0 0 0 0 0 0 0 0 0 127 0" result="hardAlpha"/>
<feOffset dy="20"/>
<feGaussianBlur stdDeviation="17.5"/>
<feComposite in2="hardAlpha" operator="out"/>
<feColorMatrix type="matrix" values="0 0 0 0 0 0 0 0 0 0.45098 0 0 0 0 0.92549 0 0 0 0.2 0"/>
<feBlend mode="normal" in2="BackgroundImageFix" result="effect1_dropShadow_822_2113"/>
<feBlend mode="normal" in="SourceGraphic" in2="effect1_dropShadow_822_2113" result="shape"/>
</filter>
<filter id="filter4_d_822_2113" x="248.387" y="265.039" width="70.9824" height="73.1875" filterUnits="userSpaceOnUse" color-interpolation-filters="sRGB">
<feFlood flood-opacity="0" result="BackgroundImageFix"/>
<feColorMatrix in="SourceAlpha" type="matrix" values="0 0 0 0 0 0 0 0 0 0 0 0 0 0 0 0 0 0 127 0" result="hardAlpha"/>
<feOffset dy="20"/>
<feGaussianBlur stdDeviation="17.5"/>
<feComposite in2="hardAlpha" operator="out"/>
<feColorMatrix type="matrix" values="0 0 0 0 0 0 0 0 0 0.45098 0 0 0 0 0.92549 0 0 0 0.2 0"/>
<feBlend mode="normal" in2="BackgroundImageFix" result="effect1_dropShadow_822_2113"/>
<feBlend mode="normal" in="SourceGraphic" in2="effect1_dropShadow_822_2113" result="shape"/>
</filter>
<filter id="filter5_d_822_2113" x="239.531" y="269.172" width="72.8594" height="74.1602" filterUnits="userSpaceOnUse" color-interpolation-filters="sRGB">
<feFlood flood-opacity="0" result="BackgroundImageFix"/>
<feColorMatrix in="SourceAlpha" type="matrix" values="0 0 0 0 0 0 0 0 0 0 0 0 0 0 0 0 0 0 127 0" result="hardAlpha"/>
<feOffset dy="20"/>
<feGaussianBlur stdDeviation="17.5"/>
<feComposite in2="hardAlpha" operator="out"/>
<feColorMatrix type="matrix" values="0 0 0 0 0 0 0 0 0 0.45098 0 0 0 0 0.92549 0 0 0 0.2 0"/>
<feBlend mode="normal" in2="BackgroundImageFix" result="effect1_dropShadow_822_2113"/>
<feBlend mode="normal" in="SourceGraphic" in2="effect1_dropShadow_822_2113" result="shape"/>
</filter>
<filter id="filter6_d_822_2113" x="230.453" y="262.566" width="81.748" height="78.1396" filterUnits="userSpaceOnUse" color-interpolation-filters="sRGB">
<feFlood flood-opacity="0" result="BackgroundImageFix"/>
<feColorMatrix in="SourceAlpha" type="matrix" values="0 0 0 0 0 0 0 0 0 0 0 0 0 0 0 0 0 0 127 0" result="hardAlpha"/>
<feOffset dy="20"/>
<feGaussianBlur stdDeviation="17.5"/>
<feComposite in2="hardAlpha" operator="out"/>
<feColorMatrix type="matrix" values="0 0 0 0 0 0 0 0 0 0.45098 0 0 0 0 0.92549 0 0 0 0.2 0"/>
<feBlend mode="normal" in2="BackgroundImageFix" result="effect1_dropShadow_822_2113"/>
<feBlend mode="normal" in="SourceGraphic" in2="effect1_dropShadow_822_2113" result="shape"/>
</filter>
<filter id="filter7_d_822_2113" x="230.445" y="265.439" width="79.0957" height="77.8896" filterUnits="userSpaceOnUse" color-interpolation-filters="sRGB">
<feFlood flood-opacity="0" result="BackgroundImageFix"/>
<feColorMatrix in="SourceAlpha" type="matrix" values="0 0 0 0 0 0 0 0 0 0 0 0 0 0 0 0 0 0 127 0" result="hardAlpha"/>
<feOffset dy="20"/>
<feGaussianBlur stdDeviation="17.5"/>
<feComposite in2="hardAlpha" operator="out"/>
<feColorMatrix type="matrix" values="0 0 0 0 0 0 0 0 0 0.45098 0 0 0 0 0.92549 0 0 0 0.2 0"/>
<feBlend mode="normal" in2="BackgroundImageFix" result="effect1_dropShadow_822_2113"/>
<feBlend mode="normal" in="SourceGraphic" in2="effect1_dropShadow_822_2113" result="shape"/>
</filter>
<filter id="filter8_d_822_2113" x="241.574" y="101.824" width="97.2539" height="124.852" filterUnits="userSpaceOnUse" color-interpolation-filters="sRGB">
<feFlood flood-opacity="0" result="BackgroundImageFix"/>
<feColorMatrix in="SourceAlpha" type="matrix" values="0 0 0 0 0 0 0 0 0 0 0 0 0 0 0 0 0 0 127 0" result="hardAlpha"/>
<feOffset dy="20"/>
<feGaussianBlur stdDeviation="17.5"/>
<feComposite in2="hardAlpha" operator="out"/>
<feColorMatrix type="matrix" values="0 0 0 0 0 0 0 0 0 0.45098 0 0 0 0 0.92549 0 0 0 0.2 0"/>
<feBlend mode="normal" in2="BackgroundImageFix" result="effect1_dropShadow_822_2113"/>
<feBlend mode="normal" in="SourceGraphic" in2="effect1_dropShadow_822_2113" result="shape"/>
</filter>
<filter id="filter9_d_822_2113" x="233.58" y="149.586" width="90.2676" height="101.661" filterUnits="userSpaceOnUse" color-interpolation-filters="sRGB">
<feFlood flood-opacity="0" result="BackgroundImageFix"/>
<feColorMatrix in="SourceAlpha" type="matrix" values="0 0 0 0 0 0 0 0 0 0 0 0 0 0 0 0 0 0 127 0" result="hardAlpha"/>
<feOffset dy="20"/>
<feGaussianBlur stdDeviation="17.5"/>
<feComposite in2="hardAlpha" operator="out"/>
<feColorMatrix type="matrix" values="0 0 0 0 0 0 0 0 0 0.45098 0 0 0 0 0.92549 0 0 0 0.2 0"/>
<feBlend mode="normal" in2="BackgroundImageFix" result="effect1_dropShadow_822_2113"/>
<feBlend mode="normal" in="SourceGraphic" in2="effect1_dropShadow_822_2113" result="shape"/>
</filter>
<filter id="filter10_d_822_2113" x="206.008" y="122.211" width="97.4863" height="125.601" filterUnits="userSpaceOnUse" color-interpolation-filters="sRGB">
<feFlood flood-opacity="0" result="BackgroundImageFix"/>
<feColorMatrix in="SourceAlpha" type="matrix" values="0 0 0 0 0 0 0 0 0 0 0 0 0 0 0 0 0 0 127 0" result="hardAlpha"/>
<feOffset dy="20"/>
<feGaussianBlur stdDeviation="17.5"/>
<feComposite in2="hardAlpha" operator="out"/>
<feColorMatrix type="matrix" values="0 0 0 0 0 0 0 0 0 0.45098 0 0 0 0 0.92549 0 0 0 0.2 0"/>
<feBlend mode="normal" in2="BackgroundImageFix" result="effect1_dropShadow_822_2113"/>
<feBlend mode="normal" in="SourceGraphic" in2="effect1_dropShadow_822_2113" result="shape"/>
</filter>
<filter id="filter11_d_822_2113" x="206.008" y="170.732" width="89.5781" height="98.3818" filterUnits="userSpaceOnUse" color-interpolation-filters="sRGB">
<feFlood flood-opacity="0" result="BackgroundImageFix"/>
<feColorMatrix in="SourceAlpha" type="matrix" values="0 0 0 0 0 0 0 0 0 0 0 0 0 0 0 0 0 0 127 0" result="hardAlpha"/>
<feOffset dy="20"/>
<feGaussianBlur stdDeviation="17.5"/>
<feComposite in2="hardAlpha" operator="out"/>
<feColorMatrix type="matrix" values="0 0 0 0 0 0 0 0 0 0.45098 0 0 0 0 0.92549 0 0 0 0.2 0"/>
<feBlend mode="normal" in2="BackgroundImageFix" result="effect1_dropShadow_822_2113"/>
<feBlend mode="normal" in="SourceGraphic" in2="effect1_dropShadow_822_2113" result="shape"/>
</filter>
<filter id="filter12_d_822_2113" x="218.291" y="108.912" width="120.535" height="161.764" filterUnits="userSpaceOnUse" color-interpolation-filters="sRGB">
<feFlood flood-opacity="0" result="BackgroundImageFix"/>
<feColorMatrix in="SourceAlpha" type="matrix" values="0 0 0 0 0 0 0 0 0 0 0 0 0 0 0 0 0 0 127 0" result="hardAlpha"/>
<feOffset dy="20"/>
<feGaussianBlur stdDeviation="17.5"/>
<feComposite in2="hardAlpha" operator="out"/>
<feColorMatrix type="matrix" values="0 0 0 0 0 0 0 0 0 0.45098 0 0 0 0 0.92549 0 0 0 0.2 0"/>
<feBlend mode="normal" in2="BackgroundImageFix" result="effect1_dropShadow_822_2113"/>
<feBlend mode="normal" in="SourceGraphic" in2="effect1_dropShadow_822_2113" result="shape"/>
</filter>
<filter id="filter13_d_822_2113" x="151.02" y="154.084" width="129.744" height="152.886" filterUnits="userSpaceOnUse" color-interpolation-filters="sRGB">
<feFlood flood-opacity="0" result="BackgroundImageFix"/>
<feColorMatrix in="SourceAlpha" type="matrix" values="0 0 0 0 0 0 0 0 0 0 0 0 0 0 0 0 0 0 127 0" result="hardAlpha"/>
<feOffset dy="20"/>
<feGaussianBlur stdDeviation="17.5"/>
<feComposite in2="hardAlpha" operator="out"/>
<feColorMatrix type="matrix" values="0 0 0 0 0 0 0 0 0 0.45098 0 0 0 0 0.92549 0 0 0 0.2 0"/>
<feBlend mode="normal" in2="BackgroundImageFix" result="effect1_dropShadow_822_2113"/>
<feBlend mode="normal" in="SourceGraphic" in2="effect1_dropShadow_822_2113" result="shape"/>
</filter>
<filter id="filter14_d_822_2113" x="95.9531" y="176.223" width="126.299" height="162.347" filterUnits="userSpaceOnUse" color-interpolation-filters="sRGB">
<feFlood flood-opacity="0" result="BackgroundImageFix"/>
<feColorMatrix in="SourceAlpha" type="matrix" values="0 0 0 0 0 0 0 0 0 0 0 0 0 0 0 0 0 0 127 0" result="hardAlpha"/>
<feOffset dy="20"/>
<feGaussianBlur stdDeviation="17.5"/>
<feComposite in2="hardAlpha" operator="out"/>
<feColorMatrix type="matrix" values="0 0 0 0 0 0 0 0 0 0.45098 0 0 0 0 0.92549 0 0 0 0.2 0"/>
<feBlend mode="normal" in2="BackgroundImageFix" result="effect1_dropShadow_822_2113"/>
<feBlend mode="normal" in="SourceGraphic" in2="effect1_dropShadow_822_2113" result="shape"/>
</filter>
<filter id="filter15_d_822_2113" x="321.688" y="120.016" width="86.168" height="126.256" filterUnits="userSpaceOnUse" color-interpolation-filters="sRGB">
<feFlood flood-opacity="0" result="BackgroundImageFix"/>
<feColorMatrix in="SourceAlpha" type="matrix" values="0 0 0 0 0 0 0 0 0 0 0 0 0 0 0 0 0 0 127 0" result="hardAlpha"/>
<feOffset dy="20"/>
<feGaussianBlur stdDeviation="17.5"/>
<feComposite in2="hardAlpha" operator="out"/>
<feColorMatrix type="matrix" values="0 0 0 0 0 0 0 0 0 0.45098 0 0 0 0 0.92549 0 0 0 0.2 0"/>
<feBlend mode="normal" in2="BackgroundImageFix" result="effect1_dropShadow_822_2113"/>
<feBlend mode="normal" in="SourceGraphic" in2="effect1_dropShadow_822_2113" result="shape"/>
</filter>
<filter id="filter16_d_822_2113" x="299.139" y="122.092" width="84.1602" height="121.458" filterUnits="userSpaceOnUse" color-interpolation-filters="sRGB">
<feFlood flood-opacity="0" result="BackgroundImageFix"/>
<feColorMatrix in="SourceAlpha" type="matrix" values="0 0 0 0 0 0 0 0 0 0 0 0 0 0 0 0 0 0 127 0" result="hardAlpha"/>
<feOffset dy="20"/>
<feGaussianBlur stdDeviation="17.5"/>
<feComposite in2="hardAlpha" operator="out"/>
<feColorMatrix type="matrix" values="0 0 0 0 0 0 0 0 0 0.45098 0 0 0 0 0.92549 0 0 0 0.2 0"/>
<feBlend mode="normal" in2="BackgroundImageFix" result="effect1_dropShadow_822_2113"/>
<feBlend mode="normal" in="SourceGraphic" in2="effect1_dropShadow_822_2113" result="shape"/>
</filter>
<filter id="filter17_d_822_2113" x="0.253906" y="179.395" width="103.6" height="113.757" filterUnits="userSpaceOnUse" color-interpolation-filters="sRGB">
<feFlood flood-opacity="0" result="BackgroundImageFix"/>
<feColorMatrix in="SourceAlpha" type="matrix" values="0 0 0 0 0 0 0 0 0 0 0 0 0 0 0 0 0 0 127 0" result="hardAlpha"/>
<feOffset dy="20"/>
<feGaussianBlur stdDeviation="17.5"/>
<feComposite in2="hardAlpha" operator="out"/>
<feColorMatrix type="matrix" values="0 0 0 0 0 0 0 0 0 0.45098 0 0 0 0 0.92549 0 0 0 0.2 0"/>
<feBlend mode="normal" in2="BackgroundImageFix" result="effect1_dropShadow_822_2113"/>
<feBlend mode="normal" in="SourceGraphic" in2="effect1_dropShadow_822_2113" result="shape"/>
</filter>
<filter id="filter18_d_822_2113" x="17.8633" y="50.2383" width="80.0254" height="91.1982" filterUnits="userSpaceOnUse" color-interpolation-filters="sRGB">
<feFlood flood-opacity="0" result="BackgroundImageFix"/>
<feColorMatrix in="SourceAlpha" type="matrix" values="0 0 0 0 0 0 0 0 0 0 0 0 0 0 0 0 0 0 127 0" result="hardAlpha"/>
<feOffset dy="20"/>
<feGaussianBlur stdDeviation="17.5"/>
<feComposite in2="hardAlpha" operator="out"/>
<feColorMatrix type="matrix" values="0 0 0 0 0 0 0 0 0 0.45098 0 0 0 0 0.92549 0 0 0 0.2 0"/>
<feBlend mode="normal" in2="BackgroundImageFix" result="effect1_dropShadow_822_2113"/>
<feBlend mode="normal" in="SourceGraphic" in2="effect1_dropShadow_822_2113" result="shape"/>
</filter>
<filter id="filter19_d_822_2113" x="1.91016" y="0.828125" width="118.15" height="140.698" filterUnits="userSpaceOnUse" color-interpolation-filters="sRGB">
<feFlood flood-opacity="0" result="BackgroundImageFix"/>
<feColorMatrix in="SourceAlpha" type="matrix" values="0 0 0 0 0 0 0 0 0 0 0 0 0 0 0 0 0 0 127 0" result="hardAlpha"/>
<feOffset dy="20"/>
<feGaussianBlur stdDeviation="17.5"/>
<feComposite in2="hardAlpha" operator="out"/>
<feColorMatrix type="matrix" values="0 0 0 0 0 0 0 0 0 0.45098 0 0 0 0 0.92549 0 0 0 0.2 0"/>
<feBlend mode="normal" in2="BackgroundImageFix" result="effect1_dropShadow_822_2113"/>
<feBlend mode="normal" in="SourceGraphic" in2="effect1_dropShadow_822_2113" result="shape"/>
</filter>
<linearGradient id="paint0_linear_822_2113" x1="116.705" y1="285.962" x2="126.801" y2="297.665" gradientUnits="userSpaceOnUse">
<stop stop-color="#FFCF17"/>
<stop offset="1" stop-color="#FFCF17"/>
</linearGradient>
<linearGradient id="paint1_linear_822_2113" x1="280.797" y1="236.196" x2="304.485" y2="252.318" gradientUnits="userSpaceOnUse">
<stop stop-color="#FFCF17"/>
<stop offset="1" stop-color="#FFCF17"/>
</linearGradient>
<linearGradient id="paint2_linear_822_2113" x1="304.428" y1="246.089" x2="312.202" y2="249.267" gradientUnits="userSpaceOnUse">
<stop stop-color="#FFCF17"/>
<stop offset="1" stop-color="#FFCF17"/>
</linearGradient>
<linearGradient id="paint3_linear_822_2113" x1="275.542" y1="276.916" x2="281.024" y2="281.938" gradientUnits="userSpaceOnUse">
<stop stop-color="#FFCF17"/>
<stop offset="1" stop-color="#FFCF17"/>
</linearGradient>
<linearGradient id="paint4_linear_822_2113" x1="283.507" y1="281.202" x2="284.466" y2="281.358" gradientUnits="userSpaceOnUse">
<stop stop-color="#FFCF17"/>
<stop offset="1" stop-color="#FFCF17"/>
</linearGradient>
<linearGradient id="paint5_linear_822_2113" x1="274.882" y1="285.69" x2="277.415" y2="286.609" gradientUnits="userSpaceOnUse">
<stop stop-color="#FFCF17"/>
<stop offset="1" stop-color="#FFCF17"/>
</linearGradient>
<linearGradient id="paint6_linear_822_2113" x1="266.894" y1="280.536" x2="274.343" y2="286.213" gradientUnits="userSpaceOnUse">
<stop stop-color="#FFCF17"/>
<stop offset="1" stop-color="#FFCF17"/>
</linearGradient>
<linearGradient id="paint7_linear_822_2113" x1="266.561" y1="283.318" x2="273.213" y2="287.367" gradientUnits="userSpaceOnUse">
<stop stop-color="#FFCF17"/>
<stop offset="1" stop-color="#FFCF17"/>
</linearGradient>
<linearGradient id="paint8_linear_822_2113" x1="259.487" y1="157.394" x2="306.189" y2="170.971" gradientUnits="userSpaceOnUse">
<stop stop-color="#FFCF17"/>
<stop offset="1" stop-color="#FFCF17"/>
</linearGradient>
<linearGradient id="paint9_linear_822_2113" x1="193.345" y1="199.326" x2="245.649" y2="219.229" gradientUnits="userSpaceOnUse">
<stop stop-color="#FFCF17"/>
<stop offset="1" stop-color="#FFCF17"/>
</linearGradient>
<linearGradient id="paint10_linear_822_2113" x1="137.856" y1="224.917" x2="188.984" y2="241.372" gradientUnits="userSpaceOnUse">
<stop stop-color="#FFCF17"/>
<stop offset="0.555099" stop-color="#FFCF17"/>
</linearGradient>
<linearGradient id="paint11_linear_822_2113" x1="358.67" y1="155.541" x2="374.509" y2="157.944" gradientUnits="userSpaceOnUse">
<stop stop-color="#FFCF17"/>
<stop offset="1" stop-color="#FFCF17"/>
</linearGradient>
<linearGradient id="paint12_linear_822_2113" x1="335.875" y1="155.867" x2="349.774" y2="157.886" gradientUnits="userSpaceOnUse">
<stop stop-color="#FFCF17"/>
<stop offset="1" stop-color="#FFCF17"/>
</linearGradient>
<linearGradient id="paint13_linear_822_2113" x1="39.3735" y1="210.36" x2="68.2952" y2="222.084" gradientUnits="userSpaceOnUse">
<stop stop-color="#FFCF17"/>
<stop offset="1" stop-color="#FFCF17"/>
</linearGradient>
<linearGradient id="paint14_linear_822_2113" x1="54.0926" y1="72.9727" x2="63.5515" y2="75.3345" gradientUnits="userSpaceOnUse">
<stop stop-color="#FFCF17"/>
<stop offset="1" stop-color="#FFCF17"/>
</linearGradient>
<linearGradient id="paint15_linear_822_2113" x1="42.8139" y1="41.6233" x2="85.5473" y2="56.9877" gradientUnits="userSpaceOnUse">
<stop stop-color="#FFCF17"/>
<stop offset="1" stop-color="#FFCF17"/>
</linearGradient>
</defs>
</svg>
