<svg width="16" height="21" viewBox="0 0 16 21" fill="none" xmlns="http://www.w3.org/2000/svg">
<path d="M12.5077 8.83859C12.4384 8.95933 12.4628 9.05169 12.4628 9.13878C12.4609 10.2188 12.4675 11.2995 12.4595 12.3796C12.4523 13.4207 12.6067 14.4492 12.6799 15.4838C12.7399 16.3382 12.8303 17.1899 12.9042 18.043C12.9438 18.4943 12.9768 18.9462 13.0144 19.3975C13.0711 20.0863 12.6172 20.6794 11.9852 20.7401C11.2568 20.81 10.6907 20.3555 10.6076 19.631C10.5231 18.8947 10.4393 18.1584 10.3542 17.4221C10.2698 16.6944 10.1833 15.9674 10.0639 15.2357C10.023 15.5642 9.98013 15.8928 9.94121 16.222C9.80662 17.3753 9.67796 18.5292 9.53809 19.6818C9.45562 20.364 8.90208 20.7922 8.19415 20.7408C7.59574 20.6972 7.10883 20.1635 7.14248 19.5176C7.18866 18.6295 7.27773 17.7441 7.3536 16.858C7.42552 16.0215 7.49282 15.1836 7.5832 14.349C7.74617 12.844 7.66963 11.3351 7.68613 9.82758C7.68679 9.75038 7.72769 9.6435 7.63928 9.6026C7.56737 9.56895 7.50997 9.6567 7.45257 9.69826C6.56914 10.3402 5.56894 10.6668 4.49484 10.7935C4.4216 10.8021 4.34837 10.8139 4.27514 10.8265C3.70444 10.9248 3.70444 10.9248 3.70444 11.5133C3.70444 12.4699 3.71038 13.4266 3.70048 14.3833C3.6985 14.603 3.75326 14.6914 3.98946 14.6848C4.83858 14.6597 4.74225 14.6967 4.74357 15.4323C4.74489 16.2154 4.73961 16.9992 4.74687 17.7824C4.74819 17.9572 4.7086 18.0219 4.51529 18.0272C3.39369 18.0582 2.68972 19.0966 3.07964 20.1417C3.15353 20.3396 3.12978 20.4082 2.91074 20.399C2.631 20.3878 2.34994 20.401 2.06954 20.3944C1.42824 20.3799 0.90703 19.8633 0.903071 19.2213C0.895814 18.1261 0.898453 17.0296 0.901752 15.9324C0.903731 15.2278 1.42099 14.7039 2.13222 14.6835C2.42053 14.6755 2.70951 14.6755 2.99783 14.6835C3.16409 14.6881 3.23403 14.6307 3.23337 14.4558C3.22809 13.3758 3.22875 12.2951 3.23271 11.2151C3.23337 11.0409 3.1819 10.9874 2.99783 11.0145C2.12694 11.1445 1.55162 10.4108 1.88216 9.59138C2.09065 9.0761 2.48057 8.77921 3.03148 8.69014C3.69784 8.5826 4.36288 8.46186 5.03057 8.36092C5.5188 8.28702 5.87903 8.03169 6.16998 7.64573C7.02636 6.50961 8.15324 5.77727 9.55854 5.55757C11.4758 5.25738 13.1371 5.78255 14.4243 7.28286C14.9535 7.89908 15.1395 8.66177 15.2286 9.45283C15.2985 10.0743 15.3803 10.6952 15.4661 11.3153C15.5591 11.9877 15.2761 12.5141 14.7206 12.6764C14.1571 12.8414 13.5508 12.5056 13.4228 11.9204C13.2849 11.2936 13.1906 10.6569 13.0744 10.0248C12.9946 9.58874 12.8343 9.1909 12.5077 8.83859Z" fill="url(#paint0_linear_77_526)"/>
<path d="M7.62501 2.47571C7.62831 1.1001 8.7189 0.0253366 10.1064 0.0312745C11.455 0.0372124 12.5587 1.14892 12.5548 2.49682C12.5508 3.84076 11.4068 4.96897 10.0595 4.95709C8.70702 4.94521 7.62171 3.83879 7.62501 2.47571Z" fill="url(#paint1_linear_77_526)"/>
<path d="M4.50845 20.7518C3.85066 20.7518 3.32945 20.2339 3.32813 19.5801C3.32747 18.9375 3.86715 18.3971 4.50911 18.3984C5.16096 18.3998 5.68151 18.9249 5.68283 19.5814C5.68349 20.2458 5.17547 20.7518 4.50845 20.7518Z" fill="url(#paint2_linear_77_526)"/>
<defs>
<linearGradient id="paint0_linear_77_526" x1="1.2952" y1="5.88153" x2="15.2537" y2="20.3654" gradientUnits="userSpaceOnUse">
<stop stop-color="#FFCF17"/>
<stop offset="1" stop-color="#FFEDA8"/>
</linearGradient>
<linearGradient id="paint1_linear_77_526" x1="7.75911" y1="0.161882" x2="12.2491" y2="5.0437" gradientUnits="userSpaceOnUse">
<stop stop-color="#FFCF17"/>
<stop offset="1" stop-color="#FFEDA8"/>
</linearGradient>
<linearGradient id="paint2_linear_77_526" x1="3.39218" y1="18.4608" x2="5.53736" y2="20.7927" gradientUnits="userSpaceOnUse">
<stop stop-color="#FFCF17"/>
<stop offset="1" stop-color="#FFEDA8"/>
</linearGradient>
</defs>
</svg>
