<svg width="15" height="18" viewBox="0 0 15 18" fill="none" xmlns="http://www.w3.org/2000/svg">
<path d="M7.16772 10.4231C7.16826 10.4237 7.16875 10.424 7.16956 10.424C7.9627 10.424 8.75585 10.4185 9.54899 10.4251C11.8861 10.4454 13.9175 12.3076 14.1563 14.6337C14.1996 15.0538 14.2209 15.4651 14.0413 15.8622C13.8485 16.2883 13.5314 16.5803 13.1047 16.7659C12.3516 17.094 11.5585 17.2671 10.7523 17.3876C9.38249 17.5919 8.00227 17.6494 6.6204 17.6198C5.12241 17.588 3.62827 17.4944 2.17081 17.1022C1.7803 16.9971 1.40183 16.8601 1.03651 16.6843C0.414313 16.3847 0.108691 15.8737 0.12567 15.2017C0.175512 13.2212 1.11593 11.7878 2.86805 10.8879C3.49736 10.5648 4.17871 10.4213 4.88854 10.4224C5.64801 10.4235 6.40694 10.4224 7.16641 10.4224C7.16679 10.4224 7.16746 10.4228 7.16772 10.4231Z" fill="url(#paint0_linear_77_510)"/>
<path d="M11.4773 4.36775C11.4762 6.75357 9.539 8.6837 7.14223 8.67603C4.64741 8.66836 2.7978 6.60241 2.81259 4.33215C2.82683 2.16816 4.56142 0.0425001 7.15701 0.0468818C9.76685 0.0512634 11.525 2.20157 11.4773 4.36775Z" fill="url(#paint1_linear_77_510)"/>
<defs>
<linearGradient id="paint0_linear_77_510" x1="0.507511" y1="10.613" x2="5.59317" y2="21.3955" gradientUnits="userSpaceOnUse">
<stop stop-color="#FFCF17"/>
<stop offset="1" stop-color="#FFEDA8"/>
</linearGradient>
<linearGradient id="paint1_linear_77_510" x1="3.04824" y1="0.275714" x2="10.9115" y2="8.85465" gradientUnits="userSpaceOnUse">
<stop stop-color="#FFCF17"/>
<stop offset="1" stop-color="#FFEDA8"/>
</linearGradient>
</defs>
</svg>
