<svg width="44" height="44" viewBox="0 0 44 44" fill="none" xmlns="http://www.w3.org/2000/svg">
<path d="M0.554688 23.575C0.554688 22.3999 0.554688 21.2249 0.554688 20.0498C0.597702 19.7456 0.643865 19.4424 0.682683 19.1381C1.27755 14.4453 3.18594 10.3537 6.47395 6.96914C11.2392 2.06335 17.0766 -0.133554 23.9096 0.37423C26.9259 0.598747 29.7523 1.48108 32.3951 2.93728C40.3623 7.32794 44.9995 16.3401 43.1971 25.6155C41.5331 34.1765 36.3504 39.7601 28.0758 42.4784C26.6899 42.9337 25.2452 43.1205 23.8026 43.2988C22.6276 43.2988 21.4525 43.2988 20.2775 43.2988C19.7939 43.2348 19.3092 43.1803 18.8276 43.1047C15.8764 42.6431 13.1255 41.6433 10.6044 40.0318C10.3306 39.8566 10.0903 39.8367 9.78294 39.9363C7.36467 40.72 4.94115 41.4891 2.51763 42.2591C2.36341 42.3084 2.17142 42.4459 2.04657 42.3273C1.89654 42.1846 2.05391 41.9884 2.10742 41.8248C2.86805 39.545 3.62343 37.2642 4.40609 34.9928C4.54877 34.5794 4.51415 34.2699 4.26236 33.9101C2.88168 31.9324 1.90284 29.767 1.26076 27.441C0.913494 26.1716 0.741435 24.8738 0.554688 23.575ZM9.62977 15.5616C9.60773 17.7071 10.1344 19.2032 10.9045 20.6153C11.9326 22.5017 13.2546 24.1824 14.6394 25.818C17.9075 29.6789 22.0054 32.1958 26.8913 33.4568C28.1807 33.7905 29.4774 33.9646 30.7731 33.525C33.888 32.4675 34.8522 30.9588 34.9382 28.2153C34.9508 27.824 34.7934 27.5439 34.4399 27.3708C32.8211 26.5766 31.2211 25.7425 29.5614 25.0354C28.7903 24.708 28.3664 24.8465 27.8555 25.5274C27.4442 26.0751 27.0487 26.6353 26.6259 27.1735C25.8967 28.1031 25.4634 28.2153 24.3797 27.7715C20.8577 26.3279 18.2359 23.8561 16.2635 20.6468C15.848 19.9712 15.8659 19.67 16.3789 19.0647C16.7765 18.5957 17.2014 18.1488 17.5938 17.6756C17.983 17.2056 18.2443 16.6873 17.9809 16.0558C17.3105 14.4422 16.6244 12.8349 15.9697 11.215C15.6865 10.5142 15.229 10.1617 14.459 10.2341C14.182 10.2603 13.8998 10.2351 13.6207 10.2446C12.8129 10.2708 12.1488 10.5918 11.5812 11.1751C10.2572 12.5411 9.62977 14.1736 9.62977 15.5616Z" fill="#FFCF17"/>
</svg>
